<svg width="19" height="16" viewBox="0 0 19 16" fill="none" xmlns="http://www.w3.org/2000/svg">
<path d="M3.99984 8H4.83317V8.83333H9.83317V8H10.6665V7.16667H11.4998V2.16667H10.6665V1.33333H9.83317V0.5H4.83317V1.33333H3.99984V2.16667H3.1665V7.16667H3.99984V8ZM4.83317 3.83333H5.6665V3H6.49984V2.16667H8.1665V3H8.99984V3.83333H9.83317V5.5H8.99984V6.33333H8.1665V7.16667H6.49984V6.33333H5.6665V5.5H4.83317V3.83333Z" fill="white"/>
<path d="M13.1665 10.5H12.3332V9.66669H2.33317V10.5H1.49984V11.3334H0.666504V15.5H2.33317V13H3.1665V12.1667H3.99984V11.3334H10.6665V12.1667H11.4998V13H12.3332V15.5H13.9998V11.3334H13.1665V10.5Z" fill="white"/>
<path d="M16.4997 2.16669V3.00002H15.6663V3.83335H14.833V4.66669H13.9997V3.83335H12.333V5.50002H13.1663V6.33335H15.6663V5.50002H16.4997V4.66669H17.333V3.83335H18.1663V2.16669H16.4997Z" fill="white"/>
</svg>
