<svg width="19" height="17" viewBox="0 0 19 17" fill="none" xmlns="http://www.w3.org/2000/svg">
<path d="M1.14893 7.77511H2.37383V9.00002H1.14893V7.77511Z" fill="white"/>
<path d="M12.1731 15.1246H13.398V16.3495H12.1731V15.1246Z" fill="white"/>
<path d="M10.9482 13.8997H12.1731V15.1246H10.9482V13.8997Z" fill="white"/>
<path d="M8.49838 9.00002H9.72328V10.2249H8.49838V9.00002Z" fill="white"/>
<path d="M9.72328 7.77511H10.9482V9.00002H9.72328V7.77511Z" fill="white"/>
<path d="M10.9482 6.5502H12.1731V7.77511H10.9482V6.5502Z" fill="white"/>
<path d="M12.1731 5.32529H13.398V6.5502H12.1731V5.32529Z" fill="white"/>
<path d="M13.398 4.10038H14.6229V5.32529H13.398V4.10038Z" fill="white"/>
<path d="M14.6229 2.87548H15.8478V4.10038H14.6229V2.87548Z" fill="white"/>
<path d="M2.37383 6.5502V7.77511H4.82365V6.5502H2.37383Z" fill="white"/>
<path d="M4.82365 10.2249V9.00002H2.37383V10.2249H4.82365Z" fill="white"/>
<path d="M8.49838 13.8997H7.27347V11.4498H8.49838V10.2249H4.82365V11.4498H6.04856V16.3495H7.27347V15.1246H8.49838V13.8997Z" fill="white"/>
<path d="M10.9482 12.6747H9.72328V11.4498H8.49838V13.8997H10.9482V12.6747Z" fill="white"/>
<path d="M14.6229 11.4498H13.398V15.1246H14.6229V11.4498Z" fill="white"/>
<path d="M15.8478 7.77511H14.6229V11.4498H15.8478V7.77511Z" fill="white"/>
<path d="M4.82365 5.32529V6.5502H7.27347V5.32529H4.82365Z" fill="white"/>
<path d="M7.27347 4.10038V5.32529H9.72328V4.10038H7.27347Z" fill="white"/>
<path d="M9.72328 2.87548V4.10038H12.1731V2.87548H9.72328Z" fill="white"/>
<path d="M14.6229 2.87548V1.65057H12.1731V2.87548H14.6229Z" fill="white"/>
<path d="M14.6229 0.425659V1.65057H17.0727V0.425659H14.6229Z" fill="white"/>
<path d="M18.2976 1.65057H17.0727V4.10038H18.2976V1.65057Z" fill="white"/>
<path d="M17.0727 4.10038H15.8478V7.77511H17.0727V4.10038Z" fill="white"/>
<path d="M2.37383 7.77511V6.5502H4.82365M2.37383 7.77511H1.14893V9.00002H2.37383M2.37383 7.77511V9.00002M2.37383 7.77511H4.82365V6.5502M2.37383 9.00002V10.2249H4.82365M2.37383 9.00002H4.82365V10.2249M4.82365 6.5502V5.32529H7.27347M4.82365 6.5502H7.27347V5.32529M7.27347 5.32529V4.10038H9.72328M7.27347 5.32529H9.72328V4.10038M9.72328 4.10038V2.87548H12.1731M9.72328 4.10038H12.1731V2.87548M12.1731 2.87548V1.65057H14.6229M12.1731 2.87548H14.6229M14.6229 1.65057V2.87548M14.6229 1.65057V0.425659H17.0727V1.65057M14.6229 1.65057H17.0727M14.6229 2.87548H15.8478V4.10038M14.6229 2.87548V4.10038M17.0727 1.65057H18.2976V4.10038H17.0727M17.0727 1.65057V4.10038M17.0727 4.10038H15.8478M17.0727 4.10038V7.77511H15.8478M15.8478 4.10038H14.6229M15.8478 4.10038V7.77511M15.8478 7.77511H14.6229V11.4498M15.8478 7.77511V11.4498H14.6229M14.6229 11.4498H13.398V15.1246M14.6229 11.4498V15.1246H13.398M13.398 15.1246H12.1731M13.398 15.1246V16.3495H12.1731V15.1246M12.1731 15.1246V13.8997H10.9482M12.1731 15.1246H10.9482V13.8997M10.9482 13.8997V12.6747H9.72328V11.4498H8.49838M10.9482 13.8997H8.49838M8.49838 11.4498V10.2249M8.49838 11.4498H7.27347V13.8997H8.49838M8.49838 11.4498V13.8997M8.49838 13.8997V15.1246H7.27347V16.3495H6.04856V11.4498H4.82365V10.2249M4.82365 10.2249H8.49838M8.49838 10.2249H9.72328V9.00002M8.49838 10.2249V9.00002H9.72328M9.72328 9.00002H10.9482V7.77511M9.72328 9.00002V7.77511H10.9482M10.9482 7.77511H12.1731V6.5502M10.9482 7.77511V6.5502H12.1731M12.1731 6.5502H13.398V5.32529M12.1731 6.5502V5.32529H13.398M13.398 5.32529H14.6229V4.10038M13.398 5.32529V4.10038H14.6229" stroke="white" stroke-width="0.5"/>
</svg>
