<svg width="16" height="16" viewBox="0 0 16 16" fill="none" xmlns="http://www.w3.org/2000/svg">
<path d="M14.6667 3V2.16667H13.8333V1.33333H13V0.5H4.66667V1.33333H3.83333V2.16667H3V3H2.16667V2.16667V1.33333H0.5V6.33333H5.5V4.66667H3.83333V3.83333H4.66667V3H5.5V2.16667H11.3333V3H12.1667V3.83333H13V4.66667H13.8333V11.3333H13V12.1667H12.1667V13H11.3333V13.8333H5.5V13H4.66667V12.1667H3.83333V11.3333H3V10.5H1.33333V13H2.16667V13.8333H3V14.6667H3.83333V15.5H13V14.6667H13.8333V13.8333H14.6667V13H15.5V3H14.6667Z" fill="white"/>
</svg>
