<svg width="21" height="16" viewBox="0 0 21 16" fill="none" xmlns="http://www.w3.org/2000/svg">
<path d="M10.5839 3.10033H11.8088V4.32524H10.5839V3.10033Z" fill="white"/>
<path d="M11.8088 1.87542H13.0338V3.10033H11.8088V1.87542Z" fill="white"/>
<path d="M19.1583 3.10033H20.3832V4.32524H19.1583V3.10033Z" fill="white"/>
<path d="M15.4836 10.4498H16.7085V11.6747H15.4836V10.4498Z" fill="white"/>
<path d="M14.2587 11.6747H15.4836V12.8996H14.2587V11.6747Z" fill="white"/>
<path d="M4.45939 12.8996H5.6843V14.1245H4.45939V12.8996Z" fill="white"/>
<path d="M5.6843 11.6747H6.90921V12.8996H5.6843V11.6747Z" fill="white"/>
<path d="M6.90921 10.4498H8.13412V11.6747H6.90921V10.4498Z" fill="white"/>
<path d="M5.6843 9.22487H6.90921V10.4498H5.6843V9.22487Z" fill="white"/>
<path d="M3.23448 5.55015H4.45939V6.77505H3.23448V5.55015Z" fill="white"/>
<path d="M2.00958 4.32524H3.23448V5.55015H2.00958V4.32524Z" fill="white"/>
<path d="M0.784668 3.10033H2.00958V4.32524H0.784668V3.10033Z" fill="white"/>
<path d="M11.8088 15.3494V14.1245H5.6843V15.3494H11.8088Z" fill="white"/>
<path d="M14.2587 14.1245V12.8996H11.8088V14.1245H14.2587Z" fill="white"/>
<path d="M17.9334 6.77505H16.7085V10.4498H17.9334V6.77505Z" fill="white"/>
<path d="M19.1583 4.32524H17.9334V6.77505H19.1583V4.32524Z" fill="white"/>
<path d="M16.7085 1.87542V3.10033H19.1583V1.87542H16.7085Z" fill="white"/>
<path d="M13.0338 0.650513V1.87542H16.7085V0.650513H13.0338Z" fill="white"/>
<path d="M8.13412 4.32524V5.55015H10.5839V4.32524H8.13412Z" fill="white"/>
<path d="M4.45939 3.10033V4.32524H8.13412V3.10033H4.45939Z" fill="white"/>
<path d="M2.00958 1.87542V3.10033H4.45939V1.87542H2.00958Z" fill="white"/>
<path d="M4.45939 9.22487H5.6843V6.77505H4.45939V9.22487Z" fill="white"/>
<path d="M2.00958 3.10033V1.87542H4.45939V3.10033M2.00958 3.10033H0.784668V4.32524H2.00958M2.00958 3.10033V4.32524M2.00958 3.10033H4.45939M4.45939 3.10033V4.32524H8.13412M4.45939 3.10033H8.13412V4.32524M8.13412 4.32524V5.55015H10.5839V4.32524M8.13412 4.32524H10.5839M10.5839 4.32524H11.8088V3.10033M10.5839 4.32524V3.10033H11.8088M11.8088 3.10033H13.0338V1.87542M11.8088 3.10033V1.87542H13.0338M13.0338 1.87542V0.650513H16.7085V1.87542M13.0338 1.87542H16.7085M16.7085 1.87542V3.10033H19.1583M16.7085 1.87542H19.1583V3.10033M19.1583 3.10033H20.3832V4.32524H19.1583M19.1583 3.10033V4.32524M19.1583 4.32524H17.9334V6.77505M19.1583 4.32524V6.77505H17.9334M17.9334 6.77505H16.7085V10.4498M17.9334 6.77505V10.4498H16.7085M16.7085 10.4498H15.4836V11.6747M16.7085 10.4498V11.6747H15.4836M15.4836 11.6747H14.2587V12.8996M15.4836 11.6747V12.8996H14.2587M14.2587 12.8996V14.1245H11.8088M14.2587 12.8996H11.8088V14.1245M11.8088 14.1245V15.3494H5.6843V14.1245M11.8088 14.1245H5.6843M5.6843 14.1245V12.8996M5.6843 14.1245H4.45939V12.8996H5.6843M5.6843 12.8996H6.90921V11.6747M5.6843 12.8996V11.6747H6.90921M6.90921 11.6747H8.13412V10.4498H6.90921M6.90921 11.6747V10.4498M6.90921 10.4498V9.22487H5.6843M6.90921 10.4498H5.6843V9.22487M5.6843 9.22487H4.45939V6.77505M5.6843 9.22487V6.77505H4.45939M4.45939 6.77505V5.55015H3.23448M4.45939 6.77505H3.23448V5.55015M3.23448 5.55015V4.32524H2.00958M3.23448 5.55015H2.00958V4.32524" stroke="white" stroke-width="0.5"/>
</svg>
