<svg width="16" height="18" viewBox="0 0 16 18" fill="none" xmlns="http://www.w3.org/2000/svg">
<path d="M13.8333 4.00002V3.16669H12.1667V2.33335H10.5V1.50002H9.66667V0.666687H6.33333V1.50002H5.5V2.33335H3.83333V3.16669H2.16667V4.00002H0.5V11.5H1.33333V12.3334H2.16667V13.1667H3V14H3.83333V14.8334H4.66667V15.6667H5.5V16.5H6.33333V17.3334H9.66667V16.5H10.5V15.6667H11.3333V14.8334H12.1667V14H13V13.1667H13.8333V12.3334H14.6667V11.5H15.5V4.00002H13.8333ZM13.8333 9.83335H13V11.5H12.1667V12.3334H11.3333V13.1667H10.5V14H9.66667V14.8334H6.33333V14H5.5V13.1667H4.66667V12.3334H3.83333V11.5H3V9.83335H2.16667V5.66669H3.83333V4.83335H5.5V4.00002H7.16667V3.16669H8.83333V4.00002H10.5V4.83335H12.1667V5.66669H13.8333V9.83335Z" fill="white"/>
</svg>
