<svg width="16" height="18" viewBox="0 0 16 18" fill="none" xmlns="http://www.w3.org/2000/svg">
<path d="M3.15385 15.9333H2.07692V14.8667H3.15385V15.9333Z" fill="white"/>
<path d="M13.9231 15.9333H12.8462V14.8667H13.9231V15.9333Z" fill="white"/>
<path d="M5.30769 3.13333H4.23077V2.06667H5.30769V3.13333Z" fill="white"/>
<path d="M11.7692 3.13333H10.6923V2.06667H11.7692V3.13333Z" fill="white"/>
<path d="M3.15385 9.53333H4.23077V7.4H11.7692V9.53333H12.8462V7.4H13.9231V6.33333H12.8462V3.13333H11.7692V6.33333H4.23077V3.13333H3.15385V6.33333H2.07692V7.4H3.15385V9.53333Z" fill="white"/>
<path d="M5.30769 1V2.06667H10.6923V1H5.30769Z" fill="white"/>
<path d="M15 7.4H13.9231V14.8667H15V7.4Z" fill="white"/>
<path d="M8.53846 13.8V12.7333H9.61539V11.6667H8.53846V10.6H7.46154V11.6667H6.38462V12.7333H7.46154V13.8H8.53846Z" fill="white"/>
<path d="M1 14.8667H2.07692V7.4H1V14.8667Z" fill="white"/>
<path d="M3.15385 15.9333V17H12.8462V15.9333H3.15385Z" fill="white"/>
<path d="M3.15385 15.9333V17H12.8462V15.9333M3.15385 15.9333H2.07692V14.8667M3.15385 15.9333V14.8667H2.07692M3.15385 15.9333H12.8462M2.07692 14.8667H1V7.4H2.07692M2.07692 14.8667V7.4M2.07692 7.4H3.15385V9.53333H4.23077V7.4H11.7692V9.53333H12.8462V7.4H13.9231M2.07692 7.4V6.33333H3.15385V3.13333H4.23077M13.9231 7.4V6.33333H12.8462V3.13333H11.7692M13.9231 7.4H15V14.8667H13.9231M13.9231 7.4V14.8667M12.8462 15.9333H13.9231V14.8667M12.8462 15.9333V14.8667H13.9231M4.23077 3.13333H5.30769V2.06667M4.23077 3.13333V2.06667H5.30769M4.23077 3.13333V6.33333H11.7692V3.13333M5.30769 2.06667V1H10.6923V2.06667M5.30769 2.06667H10.6923M11.7692 3.13333H10.6923V2.06667M11.7692 3.13333V2.06667H10.6923M8.53846 13.8V12.7333H9.61538V11.6667H8.53846V10.6H7.46154V11.6667H6.38462V12.7333H7.46154V13.8H8.53846Z" stroke="white" stroke-width="0.5"/>
</svg>
