<svg width="16" height="16" viewBox="0 0 16 16" fill="none" xmlns="http://www.w3.org/2000/svg">
<g clip-path="url(#clip0_1_4)">
<path d="M3 4.5C4.17294 2.82628 5.73276 2 7.81108 2C11.3027 2 13.5 4.09146 13.5 7.58308L15.3941 7.58308C15.3941 3.40175 11.9924 2.28882e-05 7.81108 2.28882e-05C6.35021 2.28882e-05 4.93165 0.416505 3.70876 1.20448C2.93392 1.70372 2.26169 2.33622 1.71867 3.06841L0.0867615 1.44435V6.17099H4.83613L3 4.5Z" fill="white"/>
<path d="M15.9132 9.82903H11.1639L13 11.5C11.8271 13.1737 10.2672 14 8.18892 14C4.6973 14 2.5 11.9086 2.5 8.41698H0.605865C0.605865 12.5983 4.0076 16 8.18892 16C9.6498 16 11.0684 15.5836 12.2912 14.7956C13.0661 14.2963 13.7383 13.6638 14.2813 12.9316L15.9132 14.5557L15.9132 9.82903Z" fill="white"/>
</g>
<defs>
<clipPath id="clip0_1_4">
<rect width="16" height="16" fill="white"/>
</clipPath>
</defs>
</svg>
