<svg width="18" height="18" viewBox="0 0 18 18" fill="none" xmlns="http://www.w3.org/2000/svg">
<path d="M13.9998 3.99999V1.49999H13.1665V0.666656H9.83317V1.49999H8.99984H8.1665V0.666656H4.83317V1.49999H3.99984V3.99999H0.666504V8.99999H1.49984V17.3333H16.4998V8.99999H17.3332V3.99999H13.9998ZM15.6665 7.33332H9.83317V5.66666H15.6665V7.33332ZM14.8332 15.6667H9.83317V8.99999H14.8332V15.6667ZM3.1665 8.99999H8.1665V15.6667H3.1665V8.99999ZM2.33317 5.66666H8.1665V7.33332H2.33317V5.66666ZM5.6665 2.33332H7.33317V3.16666H8.1665V3.99999H5.6665V2.33332ZM10.6665 2.33332H12.3332V3.99999H9.83317V3.16666H10.6665V2.33332Z" fill="white"/>
</svg>
