<svg width="24" height="18" viewBox="0 0 24 18" fill="none" xmlns="http://www.w3.org/2000/svg">
<path d="M12 9H13V10H19V9H20V8H21V2H20V1H19V0H13V1H12V2H11V8H12V9ZM13 4H14V3H15V2H17V3H18V4H19V6H18V7H17V8H15V7H14V6H13V4Z" fill="white"/>
<path d="M23 13V12H22V11H10V12H9V13H8V18H10V15H11V14H12V13H20V14H21V15H22V18H24V13H23Z" fill="white"/>
<path d="M7.33333 8.3V7.6H6.66667V6.9H5.33333V5.5H4V4.1H2.66667V2.7H1.33333V2H0V4.1H1.33333V5.5H2.66667V6.9H4V8.3H5.33333V9.7H4V11.1H2.66667V12.5H1.33333V13.9H0V16H1.33333V15.3H2.66667V13.9H4V13.2V12.5H5.33333V11.8V11.1H6.66667V10.4H7.33333V9.7H8V9V8.3H7.33333Z" fill="white"/>
</svg>
