<svg width="12" height="16" viewBox="0 0 12 16" fill="none" xmlns="http://www.w3.org/2000/svg">
<path fill-rule="evenodd" clip-rule="evenodd" d="M7.36364 1H4.63672V1.875H2.81818V2.75H1.90909V4.5H1V8H1.90909V9.75H2.81818V14.1208H3.72727V14.9958L8.27273 15V14.125H9.18182V9.75H10.0909V8H11V4.5H10.0909V2.75H9.18182V1.875H7.36364V1ZM7.36364 1.875V2.75H9.18182V4.5H10.0909V8H9.18182V9.75H8.27273L8.27309 10.625L6.45516 10.6214V5.375H7.36364V4.49583L4.63636 4.5V5.375H5.54545V10.6214L3.72727 10.625V9.75H2.81818V8H1.90909V4.5H2.81818V2.75H4.63672V1.875H7.36364ZM5.54545 5.375L6.45516 5.37249V5.375H5.54545ZM8.27273 14.125L3.72727 14.1208V13.2458H8.27309L8.27273 14.125ZM3.72727 12.3708V11.5H8.27273L8.27309 12.3708H3.72727Z" fill="white"/>
<path d="M4.63672 1.875V1H7.36364V1.875M4.63672 1.875H2.81818V2.75M4.63672 1.875V2.75H2.81818M4.63672 1.875H7.36364M2.81818 2.75H1.90909V4.5M2.81818 2.75V4.5H1.90909M1.90909 4.5H1V8H1.90909M1.90909 4.5V8M1.90909 8V9.75H2.81818M1.90909 8H2.81818V9.75M2.81818 9.75V14.1208H3.72727M2.81818 9.75H3.72727V10.625L5.54545 10.6214V5.375M3.72727 14.1208V14.9958L8.27273 15V14.125M3.72727 14.1208L8.27273 14.125M3.72727 14.1208V13.2458H8.27309L8.27273 14.125M8.27273 14.125H9.18182V9.75M9.18182 9.75H10.0909V8M9.18182 9.75V8H10.0909M9.18182 9.75H8.27273L8.27309 10.625L6.45516 10.6214V5.375M10.0909 8H11V4.5H10.0909M10.0909 8V4.5M10.0909 4.5V2.75H9.18182M10.0909 4.5H9.18182V2.75M9.18182 2.75V1.875H7.36364M9.18182 2.75H7.36364V1.875M6.45516 5.375H7.36364V4.49583L4.63636 4.5V5.375H5.54545M6.45516 5.375V5.37249L5.54545 5.375M6.45516 5.375H5.54545M3.72727 11.5V12.3708H8.27309L8.27273 11.5H3.72727Z" stroke="white" stroke-width="0.5"/>
</svg>
