<svg width="374" height="231" viewBox="0 0 374 231" fill="none" xmlns="http://www.w3.org/2000/svg">
<path d="M278.37 125.59H146.09V129.37H278.37V125.59Z" fill="#0E0726"/>
<path d="M331.25 136.28H55.3398V140.06H331.25V136.28Z" fill="#094DAF"/>
<path d="M331.25 158.96H55.3398V162.74H331.25V158.96Z" fill="#24293A"/>
<path d="M338.8 140.06H331.24V143.84H338.8V140.06Z" fill="#094DAF"/>
<path d="M342.58 143.84H338.8V155.18H342.58V143.84Z" fill="#094DAF"/>
<path d="M331.24 158.96H338.8V155.18H331.24V158.96Z" fill="#24293A"/>
<path d="M47.7701 158.96H55.3301V155.18H47.7701V158.96Z" fill="#24293A"/>
<path d="M47.78 143.84H44V155.18H47.78V143.84Z" fill="#24293A"/>
<path d="M55.3402 140.06H47.7803V143.84H55.3402V140.06Z" fill="#24293A"/>
<path d="M70.4498 162.74H66.6699V166.52H70.4498V162.74Z" fill="#404041"/>
<path d="M74.2302 166.52H70.4502V170.3H74.2302V166.52Z" fill="#404041"/>
<path d="M74.2302 170.3H70.4502V174.08H74.2302V170.3Z" fill="#404041"/>
<path d="M316.13 166.52H319.91V162.74H316.13V166.52Z" fill="#404041"/>
<path d="M312.35 170.3H316.13V166.52H312.35V170.3Z" fill="#404041"/>
<path d="M312.35 174.08H316.13V170.3H312.35V174.08Z" fill="#404041"/>
<path d="M312.34 170.3H74.23V174.08H312.34V170.3Z" fill="#404041"/>
<path d="M255.65 174.08H251.87V177.86H255.65V174.08Z" fill="#221E1F"/>
<path d="M259.43 177.86H255.65V181.64H259.43V177.86Z" fill="#221E1F"/>
<path d="M263.21 181.64H259.43V185.42H263.21V181.64Z" fill="#221E1F"/>
<path d="M266.99 185.42H263.21V189.2H266.99V185.42Z" fill="#221E1F"/>
<path d="M270.77 189.2H266.99V192.98H270.77V189.2Z" fill="#221E1F"/>
<path d="M274.55 192.98H270.77V196.76H274.55V192.98Z" fill="#221E1F"/>
<path d="M278.33 196.76H274.55V200.54H278.33V196.76Z" fill="#221E1F"/>
<path d="M282.11 200.54H278.33V204.32H282.11V200.54Z" fill="#221E1F"/>
<path d="M285.89 204.32H282.11V208.1H285.89V204.32Z" fill="#221E1F"/>
<path d="M289.67 208.09H285.89V211.87H289.67V208.09Z" fill="#221E1F"/>
<path d="M293.45 211.87H289.67V215.65H293.45V211.87Z" fill="#221E1F"/>
<path d="M297.23 215.65H293.45V219.43H297.23V215.65Z" fill="#221E1F"/>
<path d="M301.01 219.43H297.23V223.21H301.01V219.43Z" fill="#221E1F"/>
<path d="M304.79 223.21H301.01V226.99H304.79V223.21Z" fill="#221E1F"/>
<path d="M308.57 226.99H304.79V230.77H308.57V226.99Z" fill="#221E1F"/>
<path d="M312.34 226.99H308.56V230.77H312.34V226.99Z" fill="#221E1F"/>
<path d="M312.34 223.21H308.56V226.99H312.34V223.21Z" fill="#808284"/>
<path d="M308.57 219.43H304.79V223.21H308.57V219.43Z" fill="#808284"/>
<path d="M301.01 208.09H297.23V211.87H301.01V208.09Z" fill="#808284"/>
<path d="M297.23 204.32H293.45V208.1H297.23V204.32Z" fill="#808284"/>
<path d="M293.45 200.54H289.67V204.32H293.45V200.54Z" fill="#808284"/>
<path d="M289.67 196.76H285.89V200.54H289.67V196.76Z" fill="#808284"/>
<path d="M282.11 185.42H278.33V189.2H282.11V185.42Z" fill="#808284"/>
<path d="M278.33 181.64H274.55V185.42H278.33V181.64Z" fill="#808284"/>
<path d="M304.79 211.87H301.01V219.43H304.79V211.87Z" fill="#808284"/>
<path d="M285.89 189.2H282.11V196.76H285.89V189.2Z" fill="#808284"/>
<path d="M274.55 174.08H270.77V185.42H274.55V174.08Z" fill="#808284"/>
<path d="M130.92 177.86H134.7V174.08H130.92V177.86Z" fill="#221E1F"/>
<path d="M127.14 181.64H130.92V177.86H127.14V181.64Z" fill="#221E1F"/>
<path d="M123.37 185.42H127.15V181.64H123.37V185.42Z" fill="#221E1F"/>
<path d="M119.59 189.19H123.37V185.41H119.59V189.19Z" fill="#221E1F"/>
<path d="M115.81 192.97H119.59V189.19H115.81V192.97Z" fill="#221E1F"/>
<path d="M112.03 196.75H115.81V192.97H112.03V196.75Z" fill="#221E1F"/>
<path d="M108.25 200.53H112.03V196.75H108.25V200.53Z" fill="#221E1F"/>
<path d="M104.47 204.31H108.25V200.53H104.47V204.31Z" fill="#221E1F"/>
<path d="M100.69 208.09H104.47V204.31H100.69V208.09Z" fill="#221E1F"/>
<path d="M96.91 211.88H100.69V208.1H96.91V211.88Z" fill="#221E1F"/>
<path d="M93.1301 215.66H96.9102V211.88H93.1301V215.66Z" fill="#221E1F"/>
<path d="M89.3499 219.44H93.1299V215.66H89.3499V219.44Z" fill="#221E1F"/>
<path d="M85.5701 223.22H89.3501V219.44H85.5701V223.22Z" fill="#221E1F"/>
<path d="M81.8002 226.99H85.5801V223.21H81.8002V226.99Z" fill="#221E1F"/>
<path d="M78.0198 230.77H81.7998V226.99H78.0198V230.77Z" fill="#221E1F"/>
<path d="M74.24 230.77H78.02V226.99H74.24V230.77Z" fill="#221E1F"/>
<path d="M74.24 226.99H78.02V223.21H74.24V226.99Z" fill="#808284"/>
<path d="M78.0198 223.22H81.7998V219.44H78.0198V223.22Z" fill="#808284"/>
<path d="M85.5701 211.88H89.3501V208.1H85.5701V211.88Z" fill="#808284"/>
<path d="M89.3499 208.09H93.1299V204.31H89.3499V208.09Z" fill="#808284"/>
<path d="M93.1301 204.31H96.9102V200.53H93.1301V204.31Z" fill="#808284"/>
<path d="M96.91 200.53H100.69V196.75H96.91V200.53Z" fill="#808284"/>
<path d="M104.47 189.19H108.25V185.41H104.47V189.19Z" fill="#808284"/>
<path d="M108.25 185.42H112.03V181.64H108.25V185.42Z" fill="#808284"/>
<path d="M81.8002 219.44H85.5801V211.88H81.8002V219.44Z" fill="#808284"/>
<path d="M100.69 196.75H104.47V189.19H100.69V196.75Z" fill="#808284"/>
<path d="M112.03 185.42H115.81V174.08H112.03V185.42Z" fill="#808284"/>
<path d="M210.3 177.86H206.52V185.42H210.3V177.86Z" fill="#221E1F"/>
<path d="M214.08 174.08H210.3V177.86H214.08V174.08Z" fill="#221E1F"/>
<path d="M202.74 196.76H198.96V208.1H202.74V196.76Z" fill="#221E1F"/>
<path d="M198.96 208.09H195.18V219.43H198.96V208.09Z" fill="#221E1F"/>
<path d="M195.18 219.43H191.4V226.99H195.18V219.43Z" fill="#221E1F"/>
<path d="M191.4 226.99H187.62V230.77H191.4V226.99Z" fill="#221E1F"/>
<path d="M206.52 185.42H202.74V196.76H206.52V185.42Z" fill="#221E1F"/>
<path d="M168.72 185.42H172.5V177.86H168.72V185.42Z" fill="#221E1F"/>
<path d="M164.94 177.86H168.72V174.08H164.94V177.86Z" fill="#221E1F"/>
<path d="M176.28 208.09H180.06V196.75H176.28V208.09Z" fill="#221E1F"/>
<path d="M180.06 219.44H183.84V208.1H180.06V219.44Z" fill="#221E1F"/>
<path d="M183.84 227H187.62V219.44H183.84V227Z" fill="#221E1F"/>
<path d="M187.62 230.77H191.4V226.99H187.62V230.77Z" fill="#221E1F"/>
<path d="M172.5 196.75H176.28V185.41H172.5V196.75Z" fill="#221E1F"/>
<path d="M62.9001 132.5H59.1201V136.28H62.9001V132.5Z" fill="#002766"/>
<path d="M66.6798 109.83H62.8999V132.51H66.6798V109.83Z" fill="#002766"/>
<path d="M70.4498 94.71H66.6699V109.83H70.4498V94.71Z" fill="#002766"/>
<path d="M74.2302 83.37H70.4502V94.71H74.2302V83.37Z" fill="#002766"/>
<path d="M78.01 75.8101H74.23V83.3701H78.01V75.8101Z" fill="#002766"/>
<path d="M81.7898 72.03H78.0098V75.81H81.7898V72.03Z" fill="#002766"/>
<path d="M89.3499 60.6899H85.5698V64.47H89.3499V60.6899Z" fill="#002766"/>
<path d="M96.9099 49.35H93.1299V53.13H96.9099V49.35Z" fill="#002766"/>
<path d="M100.69 45.5701H96.9102V49.3501H100.69V45.5701Z" fill="#002766"/>
<path d="M104.47 41.8H100.69V45.5801H104.47V41.8Z" fill="#002766"/>
<path d="M108.25 38.02H104.47V41.8H108.25V38.02Z" fill="#002766"/>
<path d="M115.81 34.24H108.25V38.02H115.81V34.24Z" fill="#002766"/>
<path d="M119.59 30.46H115.81V34.24H119.59V30.46Z" fill="#002766"/>
<path d="M130.93 22.9H127.15V26.68H130.93V22.9Z" fill="#002766"/>
<path d="M149.83 15.34H138.49V19.12H149.83V15.34Z" fill="#002766"/>
<path d="M161.16 11.5601H149.82V15.3401H161.16V11.5601Z" fill="#002766"/>
<path d="M176.28 7.78003H161.16V11.56H176.28V7.78003Z" fill="#AEEEFF"/>
<path d="M127.15 26.6801H119.59V30.4601H127.15V26.6801Z" fill="#002766"/>
<path d="M138.49 19.12H130.93V22.9H138.49V19.12Z" fill="#002766"/>
<path d="M85.5699 64.47H81.79V72.03H85.5699V64.47Z" fill="#002766"/>
<path d="M93.1301 53.13H89.3501V60.69H93.1301V53.13Z" fill="#002766"/>
<path d="M323.69 136.29H327.47V132.51H323.69V136.29Z" fill="#AEEEFF"/>
<path d="M319.91 132.5H323.69V109.82H319.91V132.5Z" fill="#AEEEFF"/>
<path d="M316.13 109.83H319.91V94.7101H316.13V109.83Z" fill="#AEEEFF"/>
<path d="M312.35 94.71H316.13V83.37H312.35V94.71Z" fill="#AEEEFF"/>
<path d="M308.57 83.37H312.35V75.81H308.57V83.37Z" fill="#AEEEFF"/>
<path d="M304.78 75.8101H308.56V72.0301H304.78V75.8101Z" fill="#AEEEFF"/>
<path d="M297.22 64.48H301V60.7H297.22V64.48Z" fill="#AEEEFF"/>
<path d="M289.66 53.14H293.44V49.36H289.66V53.14Z" fill="#AEEEFF"/>
<path d="M285.88 49.36H289.66V45.58H285.88V49.36Z" fill="#AEEEFF"/>
<path d="M282.11 45.5701H285.89V41.7901H282.11V45.5701Z" fill="#AEEEFF"/>
<path d="M278.33 41.79H282.11V38.01H278.33V41.79Z" fill="#AEEEFF"/>
<path d="M270.77 38.01H278.33V34.23H270.77V38.01Z" fill="#AEEEFF"/>
<path d="M266.99 34.23H270.77V30.45H266.99V34.23Z" fill="#AEEEFF"/>
<path d="M255.65 26.6801H259.43V22.9001H255.65V26.6801Z" fill="#AEEEFF"/>
<path d="M236.76 19.12H248.1V15.34L236.76 15.34V19.12Z" fill="#AEEEFF"/>
<path d="M225.41 15.34L236.75 15.34V11.56L225.41 11.56V15.34Z" fill="#AEEEFF"/>
<path d="M210.29 11.5601L225.41 11.5601V7.78006L210.29 7.78006V11.5601Z" fill="#AEEEFF"/>
<path d="M259.43 30.45H266.99V26.67H259.43V30.45Z" fill="#AEEEFF"/>
<path d="M248.09 22.9H255.65V19.12H248.09V22.9Z" fill="#AEEEFF"/>
<path d="M301 72.03H304.78V64.47H301V72.03Z" fill="#AEEEFF"/>
<path d="M293.44 60.7H297.22V53.14H293.44V60.7Z" fill="#AEEEFF"/>
<path d="M210.3 4H176.28V7.78H210.3V4Z" fill="#AEEEFF"/>
<path d="M331.24 140.06H312.34V143.84H331.24V140.06Z" fill="#1A6ED3"/>
<path d="M338.8 143.84H335.02V155.18H338.8V143.84Z" fill="#1A6ED3"/>
<path d="M335.02 143.84H327.46V147.62H335.02V143.84Z" fill="#1A6ED3"/>
<path d="M335.02 151.4H331.24V155.18H335.02V151.4Z" fill="#1A6ED3"/>
<path d="M312.35 140.06H278.33V143.84H312.35V140.06Z" fill="#1A6ED3"/>
<path d="M263.21 140.06H146.04V143.84H263.21V140.06Z" fill="#1A6ED3"/>
<path d="M266.99 147.62H248.09V151.4H266.99V147.62Z" fill="#1A6ED3"/>
<path d="M289.67 143.84H285.89V147.62H289.67V143.84Z" fill="#1A6ED3"/>
<path d="M301.01 143.84H297.23V147.62H301.01V143.84Z" fill="#1A6ED3"/>
<path d="M304.79 147.62H301.01V151.4H304.79V147.62Z" fill="#1A6ED3"/>
<path d="M278.33 143.84H274.55V147.62H278.33V143.84Z" fill="#1A6ED3"/>
<path d="M270.77 140.06H266.99V143.84H270.77V140.06Z" fill="#1A6ED3"/>
<path d="M316.12 143.84H312.34V147.62H316.12V143.84Z" fill="#1A6ED3"/>
<path d="M323.68 147.62H319.9V151.4H323.68V147.62Z" fill="#1A6ED3"/>
<path d="M327.46 143.84H316.12V147.62H327.46V143.84Z" fill="#7A9FC4"/>
<path d="M312.34 151.4H308.56V155.18H312.34V151.4Z" fill="#1A6ED3"/>
<path d="M335.02 147.62H323.68V151.4H335.02V147.62Z" fill="#7A9FC4"/>
<path d="M312.35 143.84H301.01V147.62H312.35V143.84Z" fill="#7A9FC4"/>
<path d="M319.9 147.62H308.56V151.4H319.9V147.62Z" fill="#7A9FC4"/>
<path d="M297.23 143.84H289.67V147.62H297.23V143.84Z" fill="#7A9FC4"/>
<path d="M278.33 140.06H270.77V143.84H278.33V140.06Z" fill="#7A9FC4"/>
<path d="M285.89 143.84H278.33V147.62H285.89V143.84Z" fill="#7A9FC4"/>
<path d="M301.01 151.4H278.33V155.18H301.01V151.4Z" fill="#7A9FC4"/>
<path d="M297.23 147.62H289.67V151.4H297.23V147.62Z" fill="#7A9FC4"/>
<path d="M259.43 143.84H187.62V147.62H259.43V143.84Z" fill="#7A9FC4"/>
<path d="M266.99 140.06H263.21V143.84H266.99V140.06Z" fill="#7A9FC4"/>
<path d="M274.55 143.84H259.43V147.62H274.55V143.84Z" fill="#7A9FC4"/>
<path d="M274.55 147.62H266.99V151.4H274.55V147.62Z" fill="#7A9FC4"/>
<path d="M255.65 151.4H248.09V155.18H255.65V151.4Z" fill="#7A9FC4"/>
<path d="M240.53 151.4H232.97V155.18H240.53V151.4Z" fill="#7A9FC4"/>
<path d="M244.31 147.62H240.53V151.4H244.31V147.62Z" fill="#7A9FC4"/>
<path d="M225.42 147.62H217.86V151.4H225.42V147.62Z" fill="#7A9FC4"/>
<path d="M229.2 155.18H225.42V158.96H229.2V155.18Z" fill="#7A9FC4"/>
<path d="M210.3 151.4H206.52V155.18H210.3V151.4Z" fill="#7A9FC4"/>
<path d="M266.99 151.4H263.21V155.18H266.99V151.4Z" fill="#7A9FC4"/>
<path d="M278.33 147.62H274.55V151.4H278.33V147.62Z" fill="#7A9FC4"/>
<path d="M285.89 147.62H282.11V151.4H285.89V147.62Z" fill="#7A9FC4"/>
<path d="M308.57 151.4H304.79V155.18H308.57V151.4Z" fill="#7A9FC4"/>
<path d="M308.57 147.62H304.79V151.4H308.57V147.62Z" fill="#7A9FC4"/>
<path d="M327.46 151.4H316.12V155.18H327.46V151.4Z" fill="#7A9FC4"/>
<path d="M304.79 147.62H297.23V151.4H304.79V147.62Z" fill="#A2D3FC"/>
<path d="M319.9 147.62H312.34V151.4H319.9V147.62Z" fill="#A2D3FC"/>
<path d="M282.11 147.62H278.33V151.4H282.11V147.62Z" fill="#A2D3FC"/>
<path d="M289.67 147.62H285.89V151.4H289.67V147.62Z" fill="#A2D3FC"/>
<path d="M304.79 151.4H301.01V158.96H304.79V151.4Z" fill="#A2D3FC"/>
<path d="M319.9 151.4H312.34V155.18H319.9V151.4Z" fill="#A2D3FC"/>
<path d="M331.24 151.4H327.46V155.18H331.24V151.4Z" fill="#A2D3FC"/>
<path d="M263.21 151.4H255.65V155.18H263.21V151.4Z" fill="#A2D3FC"/>
<path d="M278.33 151.4H266.99V155.18H278.33V151.4Z" fill="#A2D3FC"/>
<path d="M248.09 147.62H244.31V151.4H248.09V147.62Z" fill="#A2D3FC"/>
<path d="M248.09 151.4H240.53V155.18H248.09V151.4Z" fill="#A2D3FC"/>
<path d="M240.54 147.62H225.42V151.4H240.54V147.62Z" fill="#A2D3FC"/>
<path d="M304.78 155.18H240.53V158.96H304.78V155.18Z" fill="#3F3B4F"/>
<path d="M331.25 155.18H304.79V158.96H331.25V155.18Z" fill="#3F3B4F"/>
<path d="M225.41 155.18H180.06V158.96H225.41V155.18Z" fill="#3F3B4F"/>
<path d="M153.6 155.18H108.25V158.96H153.6V155.18Z" fill="#3F3B4F"/>
<path d="M240.53 155.18H229.19V158.96H240.53V155.18Z" fill="#3F3B4F"/>
<path d="M225.42 151.4H214.08V155.18H225.42V151.4Z" fill="#3F3B4F"/>
<path d="M202.74 147.62H198.96V151.4H202.74V147.62Z" fill="#3F3B4F"/>
<path d="M210.3 147.62H206.52V151.4H210.3V147.62Z" fill="#3F3B4F"/>
<path d="M217.86 147.62H214.08V151.4H217.86V147.62Z" fill="#3F3B4F"/>
<path d="M232.98 151.4H225.42V155.18H232.98V151.4Z" fill="#3F3B4F"/>
<path d="M214.08 151.4H210.3V155.18H214.08V151.4Z" fill="#3F3B4F"/>
<path d="M214.08 147.62H210.3V151.4H214.08V147.62Z" fill="#3F3B4F"/>
<path d="M202.74 151.4H187.62V155.18H202.74V151.4Z" fill="#3F3B4F"/>
<path d="M206.52 147.62H202.74V151.4H206.52V147.62Z" fill="#3F3B4F"/>
<path d="M206.52 151.4H202.74V155.18H206.52V151.4Z" fill="#3F3B4F"/>
<path d="M85.5798 155.18H55.3398V158.96H85.5798V155.18Z" fill="#3F3B4F"/>
<path d="M55.3402 151.4H47.7803V155.18H55.3402V151.4Z" fill="#3F3B4F"/>
<path d="M59.1201 143.84H51.5601V147.62H59.1201V143.84Z" fill="#3F3B4F"/>
<path d="M51.5602 143.84H47.7803V151.4H51.5602V143.84Z" fill="#3F3B4F"/>
<path d="M112.03 151.4H55.3398V155.18H112.03V151.4Z" fill="#24293A"/>
<path d="M108.25 155.18H85.5698V158.96H108.25V155.18Z" fill="#24293A"/>
<path d="M62.9001 147.62H51.5601V151.4H62.9001V147.62Z" fill="#24293A"/>
<path d="M70.4598 140.06H55.3398V147.62H70.4598V140.06Z" fill="#24293A"/>
<path d="M146.04 140.06H104.47V143.84H146.04V140.06Z" fill="#24293A"/>
<path d="M187.62 143.84H153.6V147.62H187.62V143.84Z" fill="#24293A"/>
<path d="M187.62 151.4H168.72V155.18H187.62V151.4Z" fill="#24293A"/>
<path d="M198.96 147.62H191.4V151.4H198.96V147.62Z" fill="#24293A"/>
<path d="M168.72 155.18H157.38V158.96H168.72V155.18Z" fill="#24293A"/>
<path d="M180.06 155.18H172.5V158.96H180.06V155.18Z" fill="#24293A"/>
<path d="M157.38 155.18H153.6V158.96H157.38V155.18Z" fill="#24293A"/>
<path d="M146.05 151.4H115.81V155.18H146.05V151.4Z" fill="#24293A"/>
<path d="M142.27 143.84H119.59V151.4H142.27V143.84Z" fill="#24293A"/>
<path d="M89.35 147.62H74.23V151.4H89.35V147.62Z" fill="#24293A"/>
<path d="M96.91 140.06H81.79V143.84H96.91V140.06Z" fill="#24293A"/>
<path d="M78.0103 140.06H70.4502V143.84H78.0103V140.06Z" fill="#24293A"/>
<path d="M104.47 140.06H96.9102V143.84H104.47V140.06Z" fill="#24293A"/>
<path d="M161.16 147.62H149.82V155.18H161.16V147.62Z" fill="#24293A"/>
<path d="M119.59 143.84H104.47V151.4H119.59V143.84Z" fill="#223E8C"/>
<path d="M115.81 151.4H112.03V155.18H115.81V151.4Z" fill="#223E8C"/>
<path d="M153.61 143.84H142.27V147.62H153.61V143.84Z" fill="#223E8C"/>
<path d="M149.83 147.62H142.27V151.4H149.83V147.62Z" fill="#223E8C"/>
<path d="M149.82 151.4H146.04V155.18H149.82V151.4Z" fill="#223E8C"/>
<path d="M195.18 147.62H161.16V151.4H195.18V147.62Z" fill="#223E8C"/>
<path d="M168.72 151.4H164.94V155.18H168.72V151.4Z" fill="#223E8C"/>
<path d="M172.5 155.18H168.72V158.96H172.5V155.18Z" fill="#223E8C"/>
<path d="M164.94 151.4H161.16V155.18H164.94V151.4Z" fill="#223E8C"/>
<path d="M108.25 143.84H70.4502V147.62H108.25V143.84Z" fill="#223E8C"/>
<path d="M81.7898 140.06H78.0098V143.84H81.7898V140.06Z" fill="#223E8C"/>
<path d="M74.2399 147.62H62.8999V151.4H74.2399V147.62Z" fill="#223E8C"/>
<path d="M108.25 147.62H89.3501V151.4H108.25V147.62Z" fill="#223E8C"/>
<path d="M316.12 162.74H244.31V166.52H316.12V162.74Z" fill="#221E1F"/>
<path d="M244.31 162.74H70.4502V166.52H244.31V162.74Z" fill="#221E1F"/>
<path d="M108.25 166.52H74.23V170.3H108.25V166.52Z" fill="#221E1F"/>
<path d="M312.34 166.52H108.25V170.3H312.34V166.52Z" fill="#58595B"/>
<path d="M130.93 174.08H119.59V177.86H130.93V174.08Z" fill="#221E1F"/>
<path d="M119.59 174.08H115.81V177.86H119.59V174.08Z" fill="#221E1F"/>
<path d="M127.15 177.86H123.37V181.64H127.15V177.86Z" fill="#221E1F"/>
<path d="M123.37 181.64H119.59V185.42H123.37V181.64Z" fill="#221E1F"/>
<path d="M210.29 174.08H168.72V177.86H210.29V174.08Z" fill="#221E1F"/>
<path d="M176.28 177.86H172.5V181.64H176.28V177.86Z" fill="#221E1F"/>
<path d="M183.84 177.86H180.06V181.64H183.84V177.86Z" fill="#221E1F"/>
<path d="M191.4 181.64H187.62V185.42H191.4V181.64Z" fill="#221E1F"/>
<path d="M198.96 177.86H195.18V181.64H198.96V177.86Z" fill="#221E1F"/>
<path d="M206.52 177.86H198.96V185.42H206.52V177.86Z" fill="#221E1F"/>
<path d="M195.18 177.86H187.62V181.64H195.18V177.86Z" fill="#221E1F"/>
<path d="M183.84 185.42H180.06V189.2H183.84V185.42Z" fill="#221E1F"/>
<path d="M187.62 181.64H183.84V185.42H187.62V181.64Z" fill="#221E1F"/>
<path d="M270.77 174.08H255.65V177.86H270.77V174.08Z" fill="#221E1F"/>
<path d="M263.21 177.86H259.43V181.64H263.21V177.86Z" fill="#221E1F"/>
<path d="M266.99 181.64H263.21V185.42H266.99V181.64Z" fill="#221E1F"/>
<path d="M270.77 177.86H266.99V181.64H270.77V177.86Z" fill="#221E1F"/>
<path d="M123.37 177.86H119.59V181.64H123.37V177.86Z" fill="#58595B"/>
<path d="M119.59 185.42H115.81V189.2H119.59V185.42Z" fill="#58595B"/>
<path d="M115.81 189.2H112.03V192.98H115.81V189.2Z" fill="#58595B"/>
<path d="M112.03 192.98H108.25V196.76H112.03V192.98Z" fill="#58595B"/>
<path d="M108.25 196.76H104.47V200.54H108.25V196.76Z" fill="#58595B"/>
<path d="M104.47 200.54H100.69V204.32H104.47V200.54Z" fill="#58595B"/>
<path d="M100.69 204.32H96.9102V208.1H100.69V204.32Z" fill="#58595B"/>
<path d="M96.9099 208.09H93.1299V211.87H96.9099V208.09Z" fill="#58595B"/>
<path d="M93.1301 211.87H89.3501V215.65H93.1301V211.87Z" fill="#58595B"/>
<path d="M89.3499 215.65H85.5698V219.43H89.3499V215.65Z" fill="#58595B"/>
<path d="M85.5699 219.43H81.79V223.21H85.5699V219.43Z" fill="#58595B"/>
<path d="M81.7898 223.21H78.0098V226.99H81.7898V223.21Z" fill="#58595B"/>
<path d="M89.3499 211.87H85.5698V215.65H89.3499V211.87Z" fill="#D1D3D4"/>
<path d="M93.1301 208.09H89.3501V211.87H93.1301V208.09Z" fill="#D1D3D4"/>
<path d="M96.9099 204.32H93.1299V208.1H96.9099V204.32Z" fill="#D1D3D4"/>
<path d="M100.69 200.54H96.9102V204.32H100.69V200.54Z" fill="#D1D3D4"/>
<path d="M104.47 196.76H100.69V200.54H104.47V196.76Z" fill="#D1D3D4"/>
<path d="M108.25 189.2H104.47V196.76H108.25V189.2Z" fill="#D1D3D4"/>
<path d="M112.03 189.2H108.25V192.98H112.03V189.2Z" fill="#D1D3D4"/>
<path d="M112.03 185.42H108.25V189.2H112.03V185.42Z" fill="#D1D3D4"/>
<path d="M115.81 185.42H112.03V189.2H115.81V185.42Z" fill="#D1D3D4"/>
<path d="M119.59 177.86H115.81V185.42H119.59V177.86Z" fill="#D1D3D4"/>
<path d="M266.99 177.86H263.21V181.64H266.99V177.86Z" fill="#58595B"/>
<path d="M270.77 181.64H266.99V189.2H270.77V181.64Z" fill="#58595B"/>
<path d="M274.55 185.42H270.77V192.98H274.55V185.42Z" fill="#58595B"/>
<path d="M278.33 192.98H274.55V196.76H278.33V192.98Z" fill="#58595B"/>
<path d="M282.11 196.76H278.33V200.54H282.11V196.76Z" fill="#58595B"/>
<path d="M285.89 200.54H282.11V204.32H285.89V200.54Z" fill="#58595B"/>
<path d="M289.67 204.32H285.89V208.1H289.67V204.32Z" fill="#58595B"/>
<path d="M293.45 208.09H289.67V211.87H293.45V208.09Z" fill="#58595B"/>
<path d="M297.23 211.87H293.45V215.65H297.23V211.87Z" fill="#58595B"/>
<path d="M301.01 215.65H297.23V219.43H301.01V215.65Z" fill="#58595B"/>
<path d="M304.79 219.43H301.01V223.21H304.79V219.43Z" fill="#58595B"/>
<path d="M308.57 223.21H304.79V226.99H308.57V223.21Z" fill="#58595B"/>
<path d="M278.33 185.42H274.55V192.98H278.33V185.42Z" fill="#D1D3D4"/>
<path d="M282.11 189.2H278.33V196.76H282.11V189.2Z" fill="#D1D3D4"/>
<path d="M285.89 196.76H282.11V200.54H285.89V196.76Z" fill="#D1D3D4"/>
<path d="M289.67 200.54H285.89V204.32H289.67V200.54Z" fill="#D1D3D4"/>
<path d="M293.45 204.32H289.67V208.1H293.45V204.32Z" fill="#D1D3D4"/>
<path d="M297.23 208.09H293.45V211.87H297.23V208.09Z" fill="#D1D3D4"/>
<path d="M301.01 211.87H297.23V215.65H301.01V211.87Z" fill="#D1D3D4"/>
<path d="M195.18 189.2H191.4V204.32H195.18V189.2Z" fill="#D1D3D4"/>
<path d="M191.4 204.32H187.62V219.44H191.4V204.32Z" fill="#D1D3D4"/>
<path d="M191.4 185.42H187.62V189.2H191.4V185.42Z" fill="#D1D3D4"/>
<path d="M180.06 177.86H176.28V196.76H180.06V177.86Z" fill="#58595B"/>
<path d="M176.28 181.64H172.5V185.42H176.28V181.64Z" fill="#58595B"/>
<path d="M183.84 181.64H180.06V185.42H183.84V181.64Z" fill="#58595B"/>
<path d="M187.62 177.86H183.84V181.64H187.62V177.86Z" fill="#58595B"/>
<path d="M198.96 181.64H191.4V185.42H198.96V181.64Z" fill="#58595B"/>
<path d="M202.74 185.42H198.96V200.54H202.74V185.42Z" fill="#58595B"/>
<path d="M198.96 185.42H191.4V189.2H198.96V185.42Z" fill="#58595B"/>
<path d="M187.62 185.42H183.84V192.98H187.62V185.42Z" fill="#58595B"/>
<path d="M191.4 189.2H187.62V200.54H191.4V189.2Z" fill="#58595B"/>
<path d="M187.62 200.54H183.84V211.88H187.62V200.54Z" fill="#58595B"/>
<path d="M187.62 215.65H183.84V219.43H187.62V215.65Z" fill="#58595B"/>
<path d="M198.96 189.2H195.18V208.1H198.96V189.2Z" fill="#808284"/>
<path d="M195.18 204.32H191.4V219.44H195.18V204.32Z" fill="#808284"/>
<path d="M191.4 219.43H187.62V226.99H191.4V219.43Z" fill="#808284"/>
<path d="M187.62 211.87H183.84V215.65H187.62V211.87Z" fill="#808284"/>
<path d="M191.4 200.54H187.62V204.32H191.4V200.54Z" fill="#808284"/>
<path d="M183.84 189.2H180.06V208.1H183.84V189.2Z" fill="#808284"/>
<path d="M187.62 192.98H183.84V200.54H187.62V192.98Z" fill="#808284"/>
<path d="M89.3499 151.4H85.5698V155.18H89.3499V151.4Z" fill="#FCF15D"/>
<path d="M89.3499 143.84H85.5698V147.62H89.3499V143.84Z" fill="#FCF15D"/>
<path d="M85.5699 147.62H81.79V151.4H85.5699V147.62Z" fill="#FCF15D"/>
<path d="M93.1301 147.62H89.3501V151.4H93.1301V147.62Z" fill="#FCF15D"/>
<path d="M96.9099 147.62H93.1299V151.4H96.9099V147.62Z" fill="#F7941C"/>
<path d="M93.1301 151.4H89.3501V155.18H93.1301V151.4Z" fill="#F7941C"/>
<path d="M93.1301 143.84H89.3501V147.62H93.1301V143.84Z" fill="#F7941C"/>
<path d="M85.5699 143.84H81.79V147.62H85.5699V143.84Z" fill="#F7941C"/>
<path d="M85.5699 151.4H81.79V155.18H85.5699V151.4Z" fill="#F7941C"/>
<path d="M89.3499 140.06H85.5698V143.84H89.3499V140.06Z" fill="#F7941C"/>
<path d="M89.3499 136.28H85.5698V140.06H89.3499V136.28Z" fill="#A12C13"/>
<path d="M89.3499 158.96H85.5698V162.74H89.3499V158.96Z" fill="#A12C13"/>
<path d="M100.69 147.62H96.9102V151.4H100.69V147.62Z" fill="#A12C13"/>
<path d="M78.01 147.62H74.23V151.4H78.01V147.62Z" fill="#A12C13"/>
<path d="M89.3499 155.18H85.5698V158.96H89.3499V155.18Z" fill="#F7941C"/>
<path d="M81.7898 147.62H78.0098V151.4H81.7898V147.62Z" fill="#F7941C"/>
<path d="M89.3499 147.62H85.5698V151.4H89.3499V147.62Z" fill="#E6E7E8"/>
<path d="M140.38 151.4H136.6V155.18H140.38V151.4Z" fill="#FCF15D"/>
<path d="M140.38 143.84H136.6V147.62H140.38V143.84Z" fill="#FCF15D"/>
<path d="M136.6 147.62H132.82V151.4H136.6V147.62Z" fill="#FCF15D"/>
<path d="M144.16 147.62H140.38V151.4H144.16V147.62Z" fill="#FCF15D"/>
<path d="M147.94 147.62H144.16V151.4H147.94V147.62Z" fill="#F7941C"/>
<path d="M144.16 151.4H140.38V155.18H144.16V151.4Z" fill="#F7941C"/>
<path d="M144.16 143.84H140.38V147.62H144.16V143.84Z" fill="#F7941C"/>
<path d="M136.6 143.84H132.82V147.62H136.6V143.84Z" fill="#F7941C"/>
<path d="M136.6 151.4H132.82V155.18H136.6V151.4Z" fill="#F7941C"/>
<path d="M140.38 140.06H136.6V143.84H140.38V140.06Z" fill="#F7941C"/>
<path d="M140.38 136.28H136.6V140.06H140.38V136.28Z" fill="#A12C13"/>
<path d="M140.38 158.96H136.6V162.74H140.38V158.96Z" fill="#A12C13"/>
<path d="M151.71 147.62H147.93V151.4H151.71V147.62Z" fill="#A12C13"/>
<path d="M129.04 147.62H125.26V151.4H129.04V147.62Z" fill="#A12C13"/>
<path d="M140.38 155.18H136.6V158.96H140.38V155.18Z" fill="#F7941C"/>
<path d="M132.82 147.62H129.04V151.4H132.82V147.62Z" fill="#F7941C"/>
<path d="M140.38 147.62H136.6V151.4H140.38V147.62Z" fill="#E6E7E8"/>
<path d="M191.4 151.4H187.62V155.18H191.4V151.4Z" fill="#FCF15D"/>
<path d="M191.4 143.84H187.62V147.62H191.4V143.84Z" fill="#FCF15D"/>
<path d="M187.62 147.62H183.84V151.4H187.62V147.62Z" fill="#FCF15D"/>
<path d="M195.18 147.62H191.4V151.4H195.18V147.62Z" fill="#FCF15D"/>
<path d="M198.96 147.62H195.18V151.4H198.96V147.62Z" fill="#F7941C"/>
<path d="M195.18 151.4H191.4V155.18H195.18V151.4Z" fill="#F7941C"/>
<path d="M195.18 143.84H191.4V147.62H195.18V143.84Z" fill="#F7941C"/>
<path d="M187.62 143.84H183.84V147.62H187.62V143.84Z" fill="#F7941C"/>
<path d="M187.62 151.4H183.84V155.18H187.62V151.4Z" fill="#F7941C"/>
<path d="M191.4 140.06H187.62V143.84H191.4V140.06Z" fill="#F7941C"/>
<path d="M191.4 136.28H187.62V140.06H191.4V136.28Z" fill="#A12C13"/>
<path d="M191.4 158.96H187.62V162.74H191.4V158.96Z" fill="#A12C13"/>
<path d="M202.74 147.62H198.96V151.4H202.74V147.62Z" fill="#A12C13"/>
<path d="M180.06 147.62H176.28V151.4H180.06V147.62Z" fill="#A12C13"/>
<path d="M191.4 155.18H187.62V158.96H191.4V155.18Z" fill="#F7941C"/>
<path d="M183.84 147.62H180.06V151.4H183.84V147.62Z" fill="#F7941C"/>
<path d="M191.4 147.62H187.62V151.4H191.4V147.62Z" fill="#E6E7E8"/>
<path d="M242.42 151.4H238.64V155.18H242.42V151.4Z" fill="#FCF15D"/>
<path d="M242.42 143.84H238.64V147.62H242.42V143.84Z" fill="#FCF15D"/>
<path d="M238.64 147.62H234.86V151.4H238.64V147.62Z" fill="#FCF15D"/>
<path d="M246.2 147.62H242.42V151.4H246.2V147.62Z" fill="#FCF15D"/>
<path d="M249.98 147.62H246.2V151.4H249.98V147.62Z" fill="#F7941C"/>
<path d="M246.2 151.4H242.42V155.18H246.2V151.4Z" fill="#F7941C"/>
<path d="M246.2 143.84H242.42V147.62H246.2V143.84Z" fill="#F7941C"/>
<path d="M238.64 143.84H234.86V147.62H238.64V143.84Z" fill="#F7941C"/>
<path d="M238.64 151.4H234.86V155.18H238.64V151.4Z" fill="#F7941C"/>
<path d="M242.42 140.06H238.64V143.84H242.42V140.06Z" fill="#F7941C"/>
<path d="M242.42 136.28H238.64V140.06H242.42V136.28Z" fill="#A12C13"/>
<path d="M242.42 158.96H238.64V162.74H242.42V158.96Z" fill="#A12C13"/>
<path d="M253.76 147.62H249.98V151.4H253.76V147.62Z" fill="#A12C13"/>
<path d="M231.08 147.62H227.3V151.4H231.08V147.62Z" fill="#A12C13"/>
<path d="M242.42 155.18H238.64V158.96H242.42V155.18Z" fill="#F7941C"/>
<path d="M234.86 147.62H231.08V151.4H234.86V147.62Z" fill="#F7941C"/>
<path d="M242.42 147.62H238.64V151.4H242.42V147.62Z" fill="#E6E7E8"/>
<path d="M293.45 151.4H289.67V155.18H293.45V151.4Z" fill="#FCF15D"/>
<path d="M293.45 143.84H289.67V147.62H293.45V143.84Z" fill="#FCF15D"/>
<path d="M289.67 147.62H285.89V151.4H289.67V147.62Z" fill="#FCF15D"/>
<path d="M297.23 147.62H293.45V151.4H297.23V147.62Z" fill="#FCF15D"/>
<path d="M301.01 147.62H297.23V151.4H301.01V147.62Z" fill="#F7941C"/>
<path d="M297.23 151.4H293.45V155.18H297.23V151.4Z" fill="#F7941C"/>
<path d="M297.23 143.84H293.45V147.62H297.23V143.84Z" fill="#F7941C"/>
<path d="M289.67 143.84H285.89V147.62H289.67V143.84Z" fill="#F7941C"/>
<path d="M289.67 151.4H285.89V155.18H289.67V151.4Z" fill="#F7941C"/>
<path d="M293.45 140.06H289.67V143.84H293.45V140.06Z" fill="#F7941C"/>
<path d="M293.45 136.28H289.67V140.06H293.45V136.28Z" fill="#A12C13"/>
<path d="M293.45 158.96H289.67V162.74H293.45V158.96Z" fill="#A12C13"/>
<path d="M304.79 147.62H301.01V151.4H304.79V147.62Z" fill="#A12C13"/>
<path d="M282.11 147.62H278.33V151.4H282.11V147.62Z" fill="#A12C13"/>
<path d="M293.45 155.18H289.67V158.96H293.45V155.18Z" fill="#F7941C"/>
<path d="M285.89 147.62H282.11V151.4H285.89V147.62Z" fill="#F7941C"/>
<path d="M293.45 147.62H289.67V151.4H293.45V147.62Z" fill="#E6E7E8"/>
<path d="M323.68 132.5H316.12V136.28H323.68V132.5Z" fill="#719CC6"/>
<path d="M319.9 128.72H312.34V132.5H319.9V128.72Z" fill="#719CC6"/>
<path d="M319.9 109.83H316.12V124.95H319.9V109.83Z" fill="#719CC6"/>
<path d="M319.9 124.95H316.12V128.73H319.9V124.95Z" fill="#719CC6"/>
<path d="M316.12 94.71H312.34V109.83H316.12V94.71Z" fill="#719CC6"/>
<path d="M312.34 83.37H308.56V94.71H312.34V83.37Z" fill="#719CC6"/>
<path d="M304.79 72.03H301.01V83.37H304.79V72.03Z" fill="#719CC6"/>
<path d="M308.57 75.8101H304.79V94.7101H308.57V75.8101Z" fill="#719CC6"/>
<path d="M301.01 64.47H297.23V79.59H301.01V64.47Z" fill="#719CC6"/>
<path d="M297.23 60.6899H293.45V75.81H297.23V60.6899Z" fill="#719CC6"/>
<path d="M293.45 53.13H289.67V64.47H293.45V53.13Z" fill="#719CC6"/>
<path d="M289.67 49.35H285.89V53.13H289.67V49.35Z" fill="#719CC6"/>
<path d="M285.89 45.5701H282.11V49.3501H285.89V45.5701Z" fill="#719CC6"/>
<path d="M282.11 41.8H278.33V45.5801H282.11V41.8Z" fill="#719CC6"/>
<path d="M270.77 34.24H266.99V38.02H270.77V34.24Z" fill="#719CC6"/>
<path d="M259.43 26.6801H255.65V30.4601H259.43V26.6801Z" fill="#719CC6"/>
<path d="M248.09 19.12H236.75V22.9H248.09V19.12Z" fill="#719CC6"/>
<path d="M236.76 15.34H225.42V19.12H236.76V15.34Z" fill="#719CC6"/>
<path d="M225.42 11.5601H210.3V15.3401H225.42V11.5601Z" fill="#719CC6"/>
<path d="M210.3 7.78003H176.28V11.56H210.3V7.78003Z" fill="#719CC6"/>
<path d="M278.33 38.02H270.77V41.8H278.33V38.02Z" fill="#719CC6"/>
<path d="M266.99 30.46H259.43V34.24H266.99V30.46Z" fill="#719CC6"/>
<path d="M255.65 22.9H248.09V26.68H255.65V22.9Z" fill="#719CC6"/>
<path d="M301.01 94.71H297.23V98.49H301.01V94.71Z" fill="#719CC6"/>
<path d="M304.79 87.15H301.01V90.93H304.79V87.15Z" fill="#719CC6"/>
<path d="M312.34 102.27H308.56V106.05H312.34V102.27Z" fill="#719CC6"/>
<path d="M312.34 113.61H308.56V117.39H312.34V113.61Z" fill="#719CC6"/>
<path d="M316.12 121.17H312.34V124.95H316.12V121.17Z" fill="#719CC6"/>
<path d="M308.57 128.72H304.79V132.5H308.57V128.72Z" fill="#719CC6"/>
<path d="M308.57 121.17H304.79V124.95H308.57V121.17Z" fill="#719CC6"/>
<path d="M308.57 109.83H304.79V113.61H308.57V109.83Z" fill="#719CC6"/>
<path d="M285.89 64.47H282.11V68.25H285.89V64.47Z" fill="#719CC6"/>
<path d="M285.89 56.91H282.11V60.69H285.89V56.91Z" fill="#719CC6"/>
<path d="M293.45 68.25H289.67V72.03H293.45V68.25Z" fill="#719CC6"/>
<path d="M274.55 45.5701H266.99V53.1301H274.55V45.5701Z" fill="#719CC6"/>
<path d="M278.33 53.13H274.55V56.91H278.33V53.13Z" fill="#719CC6"/>
<path d="M263.21 38.02H259.43V41.8H263.21V38.02Z" fill="#719CC6"/>
<path d="M255.65 30.46H251.87V34.24H255.65V30.46Z" fill="#719CC6"/>
<path d="M244.31 26.6801H240.53V30.4601H244.31V26.6801Z" fill="#719CC6"/>
<path d="M232.97 22.9H229.19V26.68H232.97V22.9Z" fill="#719CC6"/>
<path d="M278.33 60.6899H274.55V68.25H278.33V60.6899Z" fill="#719CC6"/>
<path d="M312.34 117.39H308.56V136.29H312.34V117.39Z" fill="#327BAD"/>
<path d="M316.12 124.95H312.34V128.73H316.12V124.95Z" fill="#327BAD"/>
<path d="M316.12 132.5H312.34V136.28H316.12V132.5Z" fill="#327BAD"/>
<path d="M308.57 132.5H282.11V136.28H308.57V132.5Z" fill="#327BAD"/>
<path d="M301.01 128.72H293.45V132.5H301.01V128.72Z" fill="#327BAD"/>
<path d="M304.79 128.72H301.01V132.5H304.79V128.72Z" fill="#327BAD"/>
<path d="M308.57 124.95H304.79V128.73H308.57V124.95Z" fill="#327BAD"/>
<path d="M285.89 132.5H217.86V136.28H285.89V132.5Z" fill="#327BAD"/>
<path d="M274.55 128.72H266.99V132.5H274.55V128.72Z" fill="#327BAD"/>
<path d="M293.45 124.95H289.67V128.73H293.45V124.95Z" fill="#327BAD"/>
<path d="M282.11 121.17H278.33V124.95H282.11V121.17Z" fill="#327BAD"/>
<path d="M289.67 113.61H285.89V121.17H289.67V113.61Z" fill="#327BAD"/>
<path d="M297.23 117.39H293.45V121.17H297.23V117.39Z" fill="#327BAD"/>
<path d="M304.79 117.39H301.01V121.17H304.79V117.39Z" fill="#327BAD"/>
<path d="M308.57 113.61H304.79V121.17H308.57V113.61Z" fill="#327BAD"/>
<path d="M316.12 109.83H312.34V121.17H316.12V109.83Z" fill="#327BAD"/>
<path d="M312.34 106.05H308.56V113.61H312.34V106.05Z" fill="#327BAD"/>
<path d="M312.35 94.71H304.79V102.27H312.35V94.71Z" fill="#327BAD"/>
<path d="M308.57 102.27H304.79V109.83H308.57V102.27Z" fill="#327BAD"/>
<path d="M304.79 90.9301H301.01V113.61H304.79V90.9301Z" fill="#327BAD"/>
<path d="M301.01 79.59H297.23V94.71H301.01V79.59Z" fill="#327BAD"/>
<path d="M304.79 83.37H301.01V87.15H304.79V83.37Z" fill="#327BAD"/>
<path d="M301.01 102.27H297.23V106.05H301.01V102.27Z" fill="#327BAD"/>
<path d="M297.23 94.71H293.45V98.49H297.23V94.71Z" fill="#327BAD"/>
<path d="M301.01 98.49H297.23V102.27H301.01V98.49Z" fill="#327BAD"/>
<path d="M293.45 72.03H289.67V75.81H293.45V72.03Z" fill="#327BAD"/>
<path d="M297.23 75.8101H293.45V83.3701H297.23V75.8101Z" fill="#327BAD"/>
<path d="M293.45 64.47H289.67V68.25H293.45V64.47Z" fill="#327BAD"/>
<path d="M289.67 53.13H285.89V79.59H289.67V53.13Z" fill="#327BAD"/>
<path d="M282.11 60.6899H278.33V64.47H282.11V60.6899Z" fill="#327BAD"/>
<path d="M282.11 64.47H278.33V72.03H282.11V64.47Z" fill="#327BAD"/>
<path d="M285.89 68.25H282.11V72.03H285.89V68.25Z" fill="#327BAD"/>
<path d="M285.89 60.6899H282.11V64.47H285.89V60.6899Z" fill="#327BAD"/>
<path d="M274.55 56.91H270.77V75.81H274.55V56.91Z" fill="#327BAD"/>
<path d="M278.33 68.25H274.55V72.03H278.33V68.25Z" fill="#327BAD"/>
<path d="M278.33 56.91H274.55V60.69H278.33V56.91Z" fill="#327BAD"/>
<path d="M282.11 45.5701H278.33V60.6901H282.11V45.5701Z" fill="#327BAD"/>
<path d="M285.89 49.35H282.11V56.91H285.89V49.35Z" fill="#327BAD"/>
<path d="M289.67 87.15H285.89V90.93H289.67V87.15Z" fill="#327BAD"/>
<path d="M293.45 83.37H289.67V87.15H293.45V83.37Z" fill="#327BAD"/>
<path d="M289.67 98.49H285.89V102.27H289.67V98.49Z" fill="#327BAD"/>
<path d="M297.23 102.27H289.67V109.83H297.23V102.27Z" fill="#327BAD"/>
<path d="M285.89 106.05H282.11V109.83H285.89V106.05Z" fill="#327BAD"/>
<path d="M285.89 79.59H282.11V83.37H285.89V79.59Z" fill="#327BAD"/>
<path d="M278.33 41.8H274.55V53.1401H278.33V41.8Z" fill="#327BAD"/>
<path d="M274.55 41.8H263.21V45.5801H274.55V41.8Z" fill="#327BAD"/>
<path d="M266.99 34.24H263.21V41.8H266.99V34.24Z" fill="#327BAD"/>
<path d="M270.77 38.02H266.99V41.8H270.77V38.02Z" fill="#327BAD"/>
<path d="M259.43 34.24H251.87V38.02H259.43V34.24Z" fill="#327BAD"/>
<path d="M259.43 30.46H255.65V34.24H259.43V30.46Z" fill="#327BAD"/>
<path d="M263.21 34.24H259.43V38.02H263.21V34.24Z" fill="#327BAD"/>
<path d="M263.21 41.8H259.43V53.1401H263.21V41.8Z" fill="#327BAD"/>
<path d="M266.99 45.5701H263.21V49.3501H266.99V45.5701Z" fill="#327BAD"/>
<path d="M274.55 53.13H266.99V56.91H274.55V53.13Z" fill="#327BAD"/>
<path d="M255.65 26.6801H244.31V30.4601H255.65V26.6801Z" fill="#327BAD"/>
<path d="M248.09 22.9H232.97V26.68H248.09V22.9Z" fill="#327BAD"/>
<path d="M236.76 19.12H206.52V22.9H236.76V19.12Z" fill="#327BAD"/>
<path d="M221.64 15.34H206.52V19.12H221.64V15.34Z" fill="#327BAD"/>
<path d="M210.3 11.5601H176.28V15.3401H210.3V11.5601Z" fill="#327BAD"/>
<path d="M225.42 15.34H221.64V19.12H225.42V15.34Z" fill="#327BAD"/>
<path d="M229.2 22.9H206.52V26.68H229.2V22.9Z" fill="#327BAD"/>
<path d="M240.53 26.6801H232.97V34.2401H240.53V26.6801Z" fill="#327BAD"/>
<path d="M244.31 30.46H240.53V34.24H244.31V30.46Z" fill="#327BAD"/>
<path d="M232.97 26.6801H229.19V30.4601H232.97V26.6801Z" fill="#327BAD"/>
<path d="M251.87 30.46H248.09V34.24H251.87V30.46Z" fill="#327BAD"/>
<path d="M248.09 38.02H240.53V41.8H248.09V38.02Z" fill="#327BAD"/>
<path d="M255.65 41.8H251.87V45.5801H255.65V41.8Z" fill="#327BAD"/>
<path d="M225.42 34.24H217.86V38.02H225.42V34.24Z" fill="#327BAD"/>
<path d="M225.42 26.6801H221.64V30.4601H225.42V26.6801Z" fill="#327BAD"/>
<path d="M202.74 19.12H198.96V22.9H202.74V19.12Z" fill="#327BAD"/>
<path d="M206.52 22.9H202.74V30.46H206.52V22.9Z" fill="#327BAD"/>
<path d="M214.08 26.6801H210.3V30.4601H214.08V26.6801Z" fill="#327BAD"/>
<path d="M198.96 30.46H195.18V34.24H198.96V30.46Z" fill="#327BAD"/>
<path d="M191.4 22.9H176.28V26.68H191.4V22.9Z" fill="#327BAD"/>
<path d="M191.4 19.12H187.62V22.9H191.4V19.12Z" fill="#327BAD"/>
<path d="M266.99 60.6899H259.43V68.25H266.99V60.6899Z" fill="#327BAD"/>
<path d="M255.65 53.13H251.87V56.91H255.65V53.13Z" fill="#327BAD"/>
<path d="M301.01 106.05H297.23V128.73H301.01V106.05Z" fill="#ABE1FA"/>
<path d="M304.79 113.61H301.01V117.39H304.79V113.61Z" fill="#ABE1FA"/>
<path d="M304.79 121.17H301.01V128.73H304.79V121.17Z" fill="#ABE1FA"/>
<path d="M297.23 109.83H289.67V117.39H297.23V109.83Z" fill="#ABE1FA"/>
<path d="M293.45 117.39H289.67V124.95H293.45V117.39Z" fill="#ABE1FA"/>
<path d="M297.23 121.17H293.45V128.73H297.23V121.17Z" fill="#ABE1FA"/>
<path d="M289.67 128.72H274.55V132.5H289.67V128.72Z" fill="#ABE1FA"/>
<path d="M297.23 83.37H293.45V94.71H297.23V83.37Z" fill="#ABE1FA"/>
<path d="M293.45 87.15H289.67V102.27H293.45V87.15Z" fill="#ABE1FA"/>
<path d="M297.23 98.49H293.45V102.27H297.23V98.49Z" fill="#ABE1FA"/>
<path d="M289.67 90.9301H285.89V98.4901H289.67V90.9301Z" fill="#ABE1FA"/>
<path d="M289.67 79.59H285.89V87.15H289.67V79.59Z" fill="#ABE1FA"/>
<path d="M293.45 75.8101H289.67V83.3701H293.45V75.8101Z" fill="#ABE1FA"/>
<path d="M282.11 72.03H274.55V79.59H282.11V72.03Z" fill="#ABE1FA"/>
<path d="M285.89 72.03H282.11V79.59H285.89V72.03Z" fill="#ABE1FA"/>
<path d="M285.89 83.37H282.11V94.71H285.89V83.37Z" fill="#ABE1FA"/>
<path d="M282.11 79.59H278.33V83.37H282.11V79.59Z" fill="#ABE1FA"/>
<path d="M289.67 102.27H285.89V113.61H289.67V102.27Z" fill="#ABE1FA"/>
<path d="M285.89 94.71H282.11V106.05H285.89V94.71Z" fill="#ABE1FA"/>
<path d="M285.89 109.83H282.11V121.17H285.89V109.83Z" fill="#ABE1FA"/>
<path d="M285.89 121.17H282.11V128.73H285.89V121.17Z" fill="#ABE1FA"/>
<path d="M289.67 121.17H285.89V128.73H289.67V121.17Z" fill="#ABE1FA"/>
<path d="M293.45 128.72H289.67V132.5H293.45V128.72Z" fill="#ABE1FA"/>
<path d="M282.11 124.95H263.21V128.73H282.11V124.95Z" fill="#ABE1FA"/>
<path d="M266.99 128.72H263.21V132.5H266.99V128.72Z" fill="#ABE1FA"/>
<path d="M278.33 121.17H270.77V124.95H278.33V121.17Z" fill="#ABE1FA"/>
<path d="M282.11 109.83H278.33V121.17H282.11V109.83Z" fill="#ABE1FA"/>
<path d="M282.11 106.05H278.33V109.83H282.11V106.05Z" fill="#ABE1FA"/>
<path d="M274.55 75.8101H266.99V79.5901H274.55V75.8101Z" fill="#ABE1FA"/>
<path d="M270.77 56.91H266.99V75.81H270.77V56.91Z" fill="#ABE1FA"/>
<path d="M266.99 49.35H263.21V60.69H266.99V49.35Z" fill="#ABE1FA"/>
<path d="M263.21 53.13H259.43V60.69H263.21V53.13Z" fill="#ABE1FA"/>
<path d="M266.99 68.25H259.43V75.81H266.99V68.25Z" fill="#ABE1FA"/>
<path d="M259.43 56.91H255.65V72.03H259.43V56.91Z" fill="#ABE1FA"/>
<path d="M251.87 53.13H248.09V60.69H251.87V53.13Z" fill="#ABE1FA"/>
<path d="M255.65 56.91H251.87V64.47H255.65V56.91Z" fill="#ABE1FA"/>
<path d="M259.43 38.02H255.65V56.92H259.43V38.02Z" fill="#ABE1FA"/>
<path d="M255.65 45.5701H251.87V53.1301H255.65V45.5701Z" fill="#ABE1FA"/>
<path d="M251.87 38.02H248.09V53.14H251.87V38.02Z" fill="#ABE1FA"/>
<path d="M255.65 38.02H251.87V41.8H255.65V38.02Z" fill="#ABE1FA"/>
<path d="M248.09 41.8H232.97V45.5801H248.09V41.8Z" fill="#ABE1FA"/>
<path d="M248.09 30.46H244.31V38.02H248.09V30.46Z" fill="#ABE1FA"/>
<path d="M251.87 34.24H229.19V38.02H251.87V34.24Z" fill="#ABE1FA"/>
<path d="M232.98 30.46H202.74V34.24H232.98V30.46Z" fill="#ABE1FA"/>
<path d="M229.2 26.6801H225.42V30.4601H229.2V26.6801Z" fill="#ABE1FA"/>
<path d="M221.64 26.6801H214.08V30.4601H221.64V26.6801Z" fill="#ABE1FA"/>
<path d="M210.3 26.6801H206.52V30.4601H210.3V26.6801Z" fill="#ABE1FA"/>
<path d="M206.52 15.34H202.74V22.9H206.52V15.34Z" fill="#ABE1FA"/>
<path d="M202.74 15.34H164.94V19.12H202.74V15.34Z" fill="#ABE1FA"/>
<path d="M198.96 19.12H191.4V30.46H198.96V19.12Z" fill="#ABE1FA"/>
<path d="M202.74 22.9H198.96V34.24H202.74V22.9Z" fill="#ABE1FA"/>
<path d="M183.84 19.12H176.28V22.9H183.84V19.12Z" fill="#ABE1FA"/>
<path d="M191.4 26.6801H172.5V30.4601H191.4V26.6801Z" fill="#ABE1FA"/>
<path d="M187.62 19.12H183.84V22.9H187.62V19.12Z" fill="#ABE1FA"/>
<path d="M176.28 22.9H172.5V26.68H176.28V22.9Z" fill="#ABE1FA"/>
<path d="M195.18 30.46H187.62V34.24H195.18V30.46Z" fill="#ABE1FA"/>
<path d="M198.96 34.24H195.18V38.02H198.96V34.24Z" fill="#ABE1FA"/>
<path d="M232.98 38.02H210.3V41.8H232.98V38.02Z" fill="#ABE1FA"/>
<path d="M229.2 34.24H225.42V38.02H229.2V34.24Z" fill="#ABE1FA"/>
<path d="M221.64 34.24H214.08V38.02H221.64V34.24Z" fill="#ABE1FA"/>
<path d="M240.53 38.02H236.75V41.8H240.53V38.02Z" fill="#ABE1FA"/>
<path d="M282.11 83.37H278.33V106.05H282.11V83.37Z" fill="#ABE1FA"/>
<path d="M278.33 79.59H270.77V90.93H278.33V79.59Z" fill="#ABE1FA"/>
<path d="M278.33 94.71H274.55V102.27H278.33V94.71Z" fill="#ABE1FA"/>
<path d="M248.09 45.5701H240.53V56.9101H248.09V45.5701Z" fill="#ABE1FA"/>
<path d="M236.75 38.02H232.97V41.8H236.75V38.02Z" fill="#ABE1FA"/>
<path d="M278.33 113.61H274.55V121.17H278.33V113.61Z" fill="#ABE1FA"/>
<path d="M274.55 113.61H270.77V121.17H274.55V113.61Z" fill="white"/>
<path d="M278.33 102.27H274.55V113.61H278.33V102.27Z" fill="white"/>
<path d="M266.99 117.39H263.21V124.95H266.99V117.39Z" fill="white"/>
<path d="M263.21 124.95H259.43V132.51H263.21V124.95Z" fill="white"/>
<path d="M270.77 117.39H266.99V124.95H270.77V117.39Z" fill="white"/>
<path d="M274.55 102.27H270.77V109.83H274.55V102.27Z" fill="white"/>
<path d="M274.55 90.9301H270.77V102.27H274.55V90.9301Z" fill="white"/>
<path d="M278.33 90.9301H274.55V94.7101H278.33V90.9301Z" fill="white"/>
<path d="M270.77 79.59H266.99V98.49H270.77V79.59Z" fill="white"/>
<path d="M266.99 75.8101H263.21V87.1501H266.99V75.8101Z" fill="white"/>
<path d="M263.21 75.8101H259.43V83.3701H263.21V75.8101Z" fill="white"/>
<path d="M259.43 72.03H255.65V83.37H259.43V72.03Z" fill="white"/>
<path d="M255.65 60.6899H251.87V75.81H255.65V60.6899Z" fill="white"/>
<path d="M248.09 56.91H240.53V64.47H248.09V56.91Z" fill="white"/>
<path d="M251.87 60.6899H248.09V72.03H251.87V60.6899Z" fill="white"/>
<path d="M232.98 41.8H214.08V45.5801H232.98V41.8Z" fill="white"/>
<path d="M240.53 45.5701H232.97V56.9101H240.53V45.5701Z" fill="white"/>
<path d="M217.86 34.24H202.74V38.02H217.86V34.24Z" fill="white"/>
<path d="M202.74 34.24H198.96V41.8H202.74V34.24Z" fill="white"/>
<path d="M210.3 38.02H202.74V45.58H210.3V38.02Z" fill="white"/>
<path d="M214.08 41.8H210.3V45.5801H214.08V41.8Z" fill="white"/>
<path d="M187.62 30.46H172.5V34.24H187.62V30.46Z" fill="white"/>
<path d="M195.18 34.24H191.4V38.02H195.18V34.24Z" fill="white"/>
<path d="M202.74 26.6801H187.62V30.4601H202.74V26.6801Z" fill="white"/>
<path d="M191.4 19.12H183.84V22.9H191.4V19.12Z" fill="white"/>
<path d="M198.96 19.12H195.18V22.9H198.96V19.12Z" fill="white"/>
<path d="M232.98 30.46H225.42V38.02H232.98V30.46Z" fill="white"/>
<path d="M244.31 41.8H240.53V45.5801H244.31V41.8Z" fill="white"/>
<path d="M255.65 45.5701H248.09V49.3501H255.65V45.5701Z" fill="white"/>
<path d="M251.87 53.13H248.09V56.91H251.87V53.13Z" fill="white"/>
<path d="M270.77 68.25H266.99V72.03H270.77V68.25Z" fill="white"/>
<path d="M278.33 79.59H274.55V87.15H278.33V79.59Z" fill="white"/>
<path d="M285.89 87.15H282.11V90.93H285.89V87.15Z" fill="white"/>
<path d="M285.89 98.49H282.11V106.05H285.89V98.49Z" fill="white"/>
<path d="M270.77 102.27H263.21V117.39H270.77V102.27Z" fill="white"/>
<path d="M274.55 109.83H270.77V113.61H274.55V109.83Z" fill="white"/>
<path d="M270.77 98.49H263.21V102.27H270.77V98.49Z" fill="white"/>
<path d="M263.21 90.9301H259.43V94.7101H263.21V90.9301Z" fill="white"/>
<path d="M266.99 87.15H263.21V94.71H266.99V87.15Z" fill="white"/>
<path d="M251.87 79.59H244.31V87.15H251.87V79.59Z" fill="white"/>
<path d="M248.09 68.25H244.31V75.81H248.09V68.25Z" fill="white"/>
<path d="M255.65 75.8101H251.87V83.3701H255.65V75.8101Z" fill="white"/>
<path d="M236.75 56.91H232.97V64.47H236.75V56.91Z" fill="white"/>
<path d="M229.2 49.35H221.64V53.13H229.2V49.35Z" fill="white"/>
<path d="M232.97 45.5701H229.19V49.3501H232.97V45.5701Z" fill="white"/>
<path d="M221.64 49.35H214.08V56.91H221.64V49.35Z" fill="white"/>
<path d="M210.3 49.35H202.74V53.13H210.3V49.35Z" fill="white"/>
<path d="M195.18 41.8H191.4V45.5801H195.18V41.8Z" fill="white"/>
<path d="M191.4 38.02H187.62V41.8H191.4V38.02Z" fill="white"/>
<path d="M259.43 102.27H251.87V113.61H259.43V102.27Z" fill="#ABE1FA"/>
<path d="M229.2 45.5701H195.18V49.3501H229.2V45.5701Z" fill="#ABE1FA"/>
<path d="M232.97 49.35H229.19V68.25H232.97V49.35Z" fill="#ABE1FA"/>
<path d="M240.53 56.91H236.75V68.25H240.53V56.91Z" fill="#ABE1FA"/>
<path d="M248.09 64.47H240.53V68.25H248.09V64.47Z" fill="#ABE1FA"/>
<path d="M236.75 64.47H232.97V72.03H236.75V64.47Z" fill="#ABE1FA"/>
<path d="M244.31 68.25H236.75V72.03H244.31V68.25Z" fill="#ABE1FA"/>
<path d="M244.31 72.03H240.53V79.59H244.31V72.03Z" fill="#ABE1FA"/>
<path d="M248.09 75.8101H244.31V79.5901H248.09V75.8101Z" fill="#ABE1FA"/>
<path d="M251.87 72.03H248.09V79.59H251.87V72.03Z" fill="#ABE1FA"/>
<path d="M263.21 83.37H251.87V90.93H263.21V83.37Z" fill="#ABE1FA"/>
<path d="M251.87 87.15H240.53V94.71H251.87V87.15Z" fill="#ABE1FA"/>
<path d="M259.43 90.9301H255.65V102.27H259.43V90.9301Z" fill="#ABE1FA"/>
<path d="M266.99 94.71H259.43V98.49H266.99V94.71Z" fill="#ABE1FA"/>
<path d="M255.65 90.9301H251.87V102.27H255.65V90.9301Z" fill="#ABE1FA"/>
<path d="M263.21 98.49H259.43V124.95H263.21V98.49Z" fill="#ABE1FA"/>
<path d="M259.43 124.95H229.19V132.51H259.43V124.95Z" fill="#ABE1FA"/>
<path d="M259.43 117.39H251.87V124.95H259.43V117.39Z" fill="#ABE1FA"/>
<path d="M248.09 113.61H240.53V121.17H248.09V113.61Z" fill="#ABE1FA"/>
<path d="M259.43 113.61H251.87V117.39H259.43V113.61Z" fill="#ABE1FA"/>
<path d="M225.42 53.13H221.64V60.69H225.42V53.13Z" fill="#ABE1FA"/>
<path d="M214.08 49.35H210.3V60.69H214.08V49.35Z" fill="#ABE1FA"/>
<path d="M221.64 56.91H217.86V64.47H221.64V56.91Z" fill="#ABE1FA"/>
<path d="M229.2 53.13H225.42V60.69H229.2V53.13Z" fill="#ABE1FA"/>
<path d="M217.86 56.91H214.08V72.03H217.86V56.91Z" fill="#ABE1FA"/>
<path d="M229.2 60.6899H225.42V64.47H229.2V60.6899Z" fill="#ABE1FA"/>
<path d="M195.18 38.02H191.4V41.8H195.18V38.02Z" fill="#ABE1FA"/>
<path d="M198.96 38.02H195.18V41.8H198.96V38.02Z" fill="#ABE1FA"/>
<path d="M202.74 41.8H195.18V45.5801H202.74V41.8Z" fill="#ABE1FA"/>
<path d="M191.4 34.24H168.72V38.02H191.4V34.24Z" fill="#ABE1FA"/>
<path d="M172.5 30.46H168.72V34.24H172.5V30.46Z" fill="#ABE1FA"/>
<path d="M176.28 19.12H172.5V22.9H176.28V19.12Z" fill="#ABE1FA"/>
<path d="M176.28 11.5601H168.72V15.3401H176.28V11.5601Z" fill="#ABE1FA"/>
<path d="M187.62 38.02H183.84V49.36H187.62V38.02Z" fill="#ABE1FA"/>
<path d="M191.4 41.8H187.62V45.5801H191.4V41.8Z" fill="#ABE1FA"/>
<path d="M195.18 45.5701H191.4V53.1301H195.18V45.5701Z" fill="#ABE1FA"/>
<path d="M202.74 49.35H198.96V53.13H202.74V49.35Z" fill="#ABE1FA"/>
<path d="M210.3 53.13H202.74V56.91H210.3V53.13Z" fill="#ABE1FA"/>
<path d="M236.75 98.49H229.19V106.05H236.75V98.49Z" fill="#ABE1FA"/>
<path d="M229.2 83.37H225.42V87.15H229.2V83.37Z" fill="#ABE1FA"/>
<path d="M232.97 72.03H229.19V79.59H232.97V72.03Z" fill="#ABE1FA"/>
<path d="M240.53 83.37H236.75V87.15H240.53V83.37Z" fill="#ABE1FA"/>
<path d="M217.86 79.59H202.74V90.93H217.86V79.59Z" fill="#ABE1FA"/>
<path d="M229.2 90.9301H225.42V94.7101H229.2V90.9301Z" fill="#ABE1FA"/>
<path d="M217.86 102.27H206.52V109.83H217.86V102.27Z" fill="#ABE1FA"/>
<path d="M244.31 98.49H240.53V106.05H244.31V98.49Z" fill="#ABE1FA"/>
<path d="M195.18 60.6899H187.62V64.47H195.18V60.6899Z" fill="#ABE1FA"/>
<path d="M210.3 64.47H202.74V68.25H210.3V64.47Z" fill="#ABE1FA"/>
<path d="M176.28 41.8H168.72V49.3601H176.28V41.8Z" fill="#ABE1FA"/>
<path d="M70.4498 109.83H66.6699V132.51H70.4498V109.83Z" fill="#ABE1FA"/>
<path d="M78.0199 132.5H62.8999V136.28H78.0199V132.5Z" fill="#ABE1FA"/>
<path d="M74.2302 98.49H70.4502V109.83H74.2302V98.49Z" fill="#ABE1FA"/>
<path d="M74.2302 94.71H70.4502V98.49H74.2302V94.71Z" fill="#ABE1FA"/>
<path d="M78.01 83.37H74.23V94.71H78.01V83.37Z" fill="#ABE1FA"/>
<path d="M81.7898 75.8101H78.0098V83.3701H81.7898V75.8101Z" fill="#ABE1FA"/>
<path d="M85.5699 72.03H81.79V79.59H85.5699V72.03Z" fill="#ABE1FA"/>
<path d="M89.3499 64.47H85.5698V75.81H89.3499V64.47Z" fill="#ABE1FA"/>
<path d="M93.1301 60.6899H89.3501V64.47H93.1301V60.6899Z" fill="#ABE1FA"/>
<path d="M96.9099 53.13H93.1299V60.69H96.9099V53.13Z" fill="#ABE1FA"/>
<path d="M100.69 49.35H96.9102V53.13H100.69V49.35Z" fill="#ABE1FA"/>
<path d="M104.47 45.5701H100.69V49.3501H104.47V45.5701Z" fill="#ABE1FA"/>
<path d="M108.25 41.8H104.47V45.5801H108.25V41.8Z" fill="#ABE1FA"/>
<path d="M115.81 38.02H108.25V41.8H115.81V38.02Z" fill="#ABE1FA"/>
<path d="M119.59 34.24H115.81V38.02H119.59V34.24Z" fill="#ABE1FA"/>
<path d="M127.15 30.46H119.59V34.24H127.15V30.46Z" fill="#ABE1FA"/>
<path d="M130.93 26.6801H127.15V30.4601H130.93V26.6801Z" fill="#ABE1FA"/>
<path d="M138.49 22.9H130.93V26.68H138.49V22.9Z" fill="#ABE1FA"/>
<path d="M149.83 19.12H138.49V22.9H149.83V19.12Z" fill="#ABE1FA"/>
<path d="M161.16 15.34H149.82V19.12H161.16V15.34Z" fill="#ABE1FA"/>
<path d="M168.72 11.5601H161.16V15.3401H168.72V11.5601Z" fill="#ABE1FA"/>
<path d="M96.9098 132.5H78.0098V136.28H96.9098V132.5Z" fill="#5EB0DD"/>
<path d="M78.0103 128.72H70.4502V132.5H78.0103V128.72Z" fill="#5EB0DD"/>
<path d="M74.2302 109.83H70.4502V124.95H74.2302V109.83Z" fill="#5EB0DD"/>
<path d="M74.2302 124.95H70.4502V128.73H74.2302V124.95Z" fill="#5EB0DD"/>
<path d="M78.01 117.39H74.23V121.17H78.01V117.39Z" fill="#5EB0DD"/>
<path d="M78.01 94.71H74.23V109.83H78.01V94.71Z" fill="#5EB0DD"/>
<path d="M81.7898 83.37H78.0098V94.71H81.7898V83.37Z" fill="#5EB0DD"/>
<path d="M85.5699 79.59H81.79V90.93H85.5699V79.59Z" fill="#5EB0DD"/>
<path d="M225.42 64.47H217.86V75.81H225.42V64.47Z" fill="#5EB0DD"/>
<path d="M225.42 60.6899H221.64V64.47H225.42V60.6899Z" fill="#5EB0DD"/>
<path d="M229.2 64.47H225.42V75.81H229.2V64.47Z" fill="#5EB0DD"/>
<path d="M232.97 68.25H229.19V72.03H232.97V68.25Z" fill="#5EB0DD"/>
<path d="M240.53 72.03H232.97V79.59H240.53V72.03Z" fill="#5EB0DD"/>
<path d="M244.31 79.59H240.53V87.15H244.31V79.59Z" fill="#5EB0DD"/>
<path d="M240.53 79.59H229.19V83.37H240.53V79.59Z" fill="#5EB0DD"/>
<path d="M236.75 83.37H232.97V94.71H236.75V83.37Z" fill="#5EB0DD"/>
<path d="M240.53 87.15H236.75V94.71H240.53V87.15Z" fill="#5EB0DD"/>
<path d="M251.87 94.71H232.97V98.49H251.87V94.71Z" fill="#5EB0DD"/>
<path d="M251.87 98.49H244.31V113.61H251.87V98.49Z" fill="#5EB0DD"/>
<path d="M251.87 113.61H248.09V124.95H251.87V113.61Z" fill="#5EB0DD"/>
<path d="M244.31 121.17H229.19V124.95H244.31V121.17Z" fill="#5EB0DD"/>
<path d="M229.2 128.72H217.86V132.5H229.2V128.72Z" fill="#5EB0DD"/>
<path d="M248.09 121.17H244.31V124.95H248.09V121.17Z" fill="#5EB0DD"/>
<path d="M244.31 106.05H240.53V113.61H244.31V106.05Z" fill="#5EB0DD"/>
<path d="M240.53 98.49H236.75V113.61H240.53V98.49Z" fill="#5EB0DD"/>
<path d="M240.54 117.39H225.42V121.17H240.54V117.39Z" fill="#5EB0DD"/>
<path d="M240.53 113.61H236.75V117.39H240.53V113.61Z" fill="#5EB0DD"/>
<path d="M236.76 106.05H221.64V109.83H236.76V106.05Z" fill="#5EB0DD"/>
<path d="M232.97 83.37H229.19V98.49H232.97V83.37Z" fill="#5EB0DD"/>
<path d="M229.2 75.8101H225.42V83.3701H229.2V75.8101Z" fill="#5EB0DD"/>
<path d="M229.2 87.15H221.64V90.93H229.2V87.15Z" fill="#5EB0DD"/>
<path d="M225.42 90.9301H221.64V94.7101H225.42V90.9301Z" fill="#5EB0DD"/>
<path d="M229.2 94.71H225.42V102.27H229.2V94.71Z" fill="#5EB0DD"/>
<path d="M225.42 83.37H221.64V87.15H225.42V83.37Z" fill="#5EB0DD"/>
<path d="M229.2 102.27H225.42V106.05H229.2V102.27Z" fill="#5EB0DD"/>
<path d="M232.97 109.83H229.19V113.61H232.97V109.83Z" fill="#5EB0DD"/>
<path d="M210.3 56.91H195.18V64.47H210.3V56.91Z" fill="#5EB0DD"/>
<path d="M214.08 60.6899H210.3V75.81H214.08V60.6899Z" fill="#5EB0DD"/>
<path d="M217.86 72.03H214.08V75.81H217.86V72.03Z" fill="#5EB0DD"/>
<path d="M214.08 72.03H202.74V75.81H214.08V72.03Z" fill="#5EB0DD"/>
<path d="M225.42 79.59H217.86V83.37H225.42V79.59Z" fill="#5EB0DD"/>
<path d="M225.42 75.8101H206.52V79.5901H225.42V75.8101Z" fill="#5EB0DD"/>
<path d="M202.74 53.13H183.84V56.91H202.74V53.13Z" fill="#5EB0DD"/>
<path d="M198.96 49.35H195.18V53.13H198.96V49.35Z" fill="#5EB0DD"/>
<path d="M191.4 45.5701H187.62V53.1301H191.4V45.5701Z" fill="#5EB0DD"/>
<path d="M183.84 38.02H168.72V41.8H183.84V38.02Z" fill="#5EB0DD"/>
<path d="M183.84 41.8H176.28V49.3601H183.84V41.8Z" fill="#5EB0DD"/>
<path d="M172.5 19.12H161.16V30.46H172.5V19.12Z" fill="#5EB0DD"/>
<path d="M164.94 15.34H161.16V19.12H164.94V15.34Z" fill="#5EB0DD"/>
<path d="M161.16 19.12H149.82V26.68H161.16V19.12Z" fill="#5EB0DD"/>
<path d="M164.94 30.46H153.6V38.02H164.94V30.46Z" fill="#5EB0DD"/>
<path d="M168.72 38.02H164.94V45.58H168.72V38.02Z" fill="#5EB0DD"/>
<path d="M176.28 49.35H168.72V53.13H176.28V49.35Z" fill="#5EB0DD"/>
<path d="M217.86 94.71H210.3V98.49H217.86V94.71Z" fill="#5EB0DD"/>
<path d="M210.3 90.9301H198.96V94.7101H210.3V90.9301Z" fill="#5EB0DD"/>
<path d="M202.74 79.59H195.18V87.15H202.74V79.59Z" fill="#5EB0DD"/>
<path d="M198.96 68.25H195.18V72.03H198.96V68.25Z" fill="#5EB0DD"/>
<path d="M89.3499 75.8101H85.5698V83.3701H89.3499V75.8101Z" fill="#5EB0DD"/>
<path d="M93.1301 64.47H89.3501V75.81H93.1301V64.47Z" fill="#5EB0DD"/>
<path d="M96.9099 60.6899H93.1299V68.25H96.9099V60.6899Z" fill="#5EB0DD"/>
<path d="M100.69 53.13H96.9102V60.69H100.69V53.13Z" fill="#5EB0DD"/>
<path d="M104.47 49.35H100.69V53.13H104.47V49.35Z" fill="#5EB0DD"/>
<path d="M108.25 45.5701H104.47V49.3501H108.25V45.5701Z" fill="#5EB0DD"/>
<path d="M115.81 41.8H108.25V45.5801H115.81V41.8Z" fill="#5EB0DD"/>
<path d="M119.59 38.02H115.81V41.8H119.59V38.02Z" fill="#5EB0DD"/>
<path d="M127.15 34.24H119.59V38.02H127.15V34.24Z" fill="#5EB0DD"/>
<path d="M130.93 30.46H127.15V34.24H130.93V30.46Z" fill="#5EB0DD"/>
<path d="M138.49 26.6801H130.93V30.4601H138.49V26.6801Z" fill="#5EB0DD"/>
<path d="M149.83 22.9H138.49V26.68H149.83V22.9Z" fill="#5EB0DD"/>
<path d="M85.5699 121.17H81.79V124.95H85.5699V121.17Z" fill="#5EB0DD"/>
<path d="M85.5699 128.72H81.79V132.5H85.5699V128.72Z" fill="#5EB0DD"/>
<path d="M127.15 128.72H104.47V136.28H127.15V128.72Z" fill="#5EB0DD"/>
<path d="M217.86 132.5H130.93V136.28H217.86V132.5Z" fill="#5EB0DD"/>
<path d="M96.9099 124.95H93.1299V128.73H96.9099V124.95Z" fill="#5EB0DD"/>
<path d="M96.9099 109.83H93.1299V117.39H96.9099V109.83Z" fill="#5EB0DD"/>
<path d="M85.5699 109.83H81.79V113.61H85.5699V109.83Z" fill="#5EB0DD"/>
<path d="M202.74 64.47H198.96V79.59H202.74V64.47Z" fill="#144F70"/>
<path d="M210.3 68.25H202.74V72.03H210.3V68.25Z" fill="#144F70"/>
<path d="M206.52 75.8101H202.74V79.5901H206.52V75.8101Z" fill="#144F70"/>
<path d="M221.64 83.37H217.86V109.83H221.64V83.37Z" fill="#144F70"/>
<path d="M217.86 90.9301H210.3V94.7101H217.86V90.9301Z" fill="#144F70"/>
<path d="M225.42 94.71H221.64V106.05H225.42V94.71Z" fill="#144F70"/>
<path d="M229.2 109.83H206.52V117.39H229.2V109.83Z" fill="#144F70"/>
<path d="M232.97 113.61H229.19V117.39H232.97V113.61Z" fill="#144F70"/>
<path d="M236.75 109.83H232.97V113.61H236.75V109.83Z" fill="#144F70"/>
<path d="M236.75 113.61H232.97V117.39H236.75V113.61Z" fill="#144F70"/>
<path d="M229.19 121.17H176.28V128.73H229.19V121.17Z" fill="#144F70"/>
<path d="M217.86 128.72H130.93V132.5H217.86V128.72Z" fill="#144F70"/>
<path d="M81.79 121.17H74.23V128.73H81.79V121.17Z" fill="#144F70"/>
<path d="M187.62 49.35H176.28V53.13H187.62V49.35Z" fill="#144F70"/>
<path d="M191.4 56.91H168.72V60.69H191.4V56.91Z" fill="#144F70"/>
<path d="M183.84 53.13H176.28V56.91H183.84V53.13Z" fill="#144F70"/>
<path d="M195.18 56.91H191.4V60.69H195.18V56.91Z" fill="#144F70"/>
<path d="M198.96 64.47H180.06V68.25H198.96V64.47Z" fill="#144F70"/>
<path d="M187.62 60.6899H180.06V64.47H187.62V60.6899Z" fill="#144F70"/>
<path d="M168.72 30.46H164.94V38.02H168.72V30.46Z" fill="#144F70"/>
<path d="M161.17 26.6801H138.49V30.4601H161.17V26.6801Z" fill="#144F70"/>
<path d="M142.27 30.46H130.93V34.24H142.27V30.46Z" fill="#144F70"/>
<path d="M153.6 30.46H146.04V41.8H153.6V30.46Z" fill="#144F70"/>
<path d="M164.94 38.02H157.38V45.58H164.94V38.02Z" fill="#144F70"/>
<path d="M168.72 45.5701H164.94V56.9101H168.72V45.5701Z" fill="#144F70"/>
<path d="M172.5 53.13H168.72V56.91H172.5V53.13Z" fill="#144F70"/>
<path d="M157.38 38.02H153.6V56.92H157.38V38.02Z" fill="#144F70"/>
<path d="M176.28 53.13H172.5V56.91H176.28V53.13Z" fill="#144F70"/>
<path d="M164.94 45.5701H161.16V53.1301H164.94V45.5701Z" fill="#144F70"/>
<path d="M153.6 45.5701H149.82V49.3501H153.6V45.5701Z" fill="#144F70"/>
<path d="M146.05 45.5701H142.27V49.3501H146.05V45.5701Z" fill="#144F70"/>
<path d="M146.05 38.02H142.27V41.8H146.05V38.02Z" fill="#144F70"/>
<path d="M198.96 72.03H183.84V79.59H198.96V72.03Z" fill="#144F70"/>
<path d="M195.18 68.25H191.4V72.03H195.18V68.25Z" fill="#144F70"/>
<path d="M191.4 79.59H183.84V87.15H191.4V79.59Z" fill="#144F70"/>
<path d="M195.18 79.59H191.4V94.71H195.18V79.59Z" fill="#144F70"/>
<path d="M202.74 87.15H172.5V90.93H202.74V87.15Z" fill="#144F70"/>
<path d="M198.96 90.9301H187.62V94.7101H198.96V90.9301Z" fill="#144F70"/>
<path d="M210.3 94.71H195.18V98.49H210.3V94.71Z" fill="#144F70"/>
<path d="M217.86 98.49H198.96V102.27H217.86V98.49Z" fill="#144F70"/>
<path d="M206.52 102.27H202.74V117.39H206.52V102.27Z" fill="#144F70"/>
<path d="M217.86 106.05H210.3V109.83H217.86V106.05Z" fill="#144F70"/>
<path d="M225.42 117.39H206.52V121.17H225.42V117.39Z" fill="#144F70"/>
<path d="M180.06 113.61H161.16V121.17H180.06V113.61Z" fill="#144F70"/>
<path d="M195.18 109.83H187.62V117.39H195.18V109.83Z" fill="#144F70"/>
<path d="M168.72 72.03H164.94V79.59H168.72V72.03Z" fill="#144F70"/>
<path d="M176.28 64.47H172.5V72.03H176.28V64.47Z" fill="#144F70"/>
<path d="M180.06 79.59H176.28V83.37H180.06V79.59Z" fill="#144F70"/>
<path d="M183.84 98.49H168.72V106.05H183.84V98.49Z" fill="#144F70"/>
<path d="M195.18 102.27H191.4V106.05H195.18V102.27Z" fill="#144F70"/>
<path d="M183.84 94.71H176.28V98.49H183.84V94.71Z" fill="#144F70"/>
<path d="M183.84 72.03H180.06V79.59H183.84V72.03Z" fill="#144F70"/>
<path d="M164.94 60.6899H161.16V68.25H164.94V60.6899Z" fill="#144F70"/>
<path d="M161.16 68.25H149.82V83.37H161.16V68.25Z" fill="#144F70"/>
<path d="M198.96 109.83H195.18V113.61H198.96V109.83Z" fill="#144F70"/>
<path d="M149.83 121.17H142.27V124.95H149.83V121.17Z" fill="#144F70"/>
<path d="M157.38 117.39H153.6V124.95H157.38V117.39Z" fill="#144F70"/>
<path d="M153.6 98.49H146.04V109.83H153.6V98.49Z" fill="#144F70"/>
<path d="M164.94 98.49H157.38V106.05H164.94V98.49Z" fill="#144F70"/>
<path d="M164.94 83.37H157.38V90.93H164.94V83.37Z" fill="#144F70"/>
<path d="M146.05 53.13H130.93V64.47H146.05V53.13Z" fill="#144F70"/>
<path d="M81.7898 128.72H78.0098V132.5H81.7898V128.72Z" fill="#144F70"/>
<path d="M81.7898 94.71H78.0098V121.17H81.7898V94.71Z" fill="#144F70"/>
<path d="M78.01 109.83H74.23V117.39H78.01V109.83Z" fill="#144F70"/>
<path d="M85.5699 113.61H81.79V121.17H85.5699V113.61Z" fill="#144F70"/>
<path d="M85.5699 124.95H81.79V128.73H85.5699V124.95Z" fill="#144F70"/>
<path d="M93.1299 124.95H85.5698V132.51H93.1299V124.95Z" fill="#144F70"/>
<path d="M104.47 128.72H93.1299V132.5H104.47V128.72Z" fill="#144F70"/>
<path d="M104.47 132.5H100.69V136.28H104.47V132.5Z" fill="#144F70"/>
<path d="M100.69 132.5H96.9102V136.28H100.69V132.5Z" fill="#144F70"/>
<path d="M130.93 128.72H127.15V136.28H130.93V128.72Z" fill="#144F70"/>
<path d="M85.5699 90.9301H81.79V98.4901H85.5699V90.9301Z" fill="#144F70"/>
<path d="M89.3499 83.37H85.5698V90.93H89.3499V83.37Z" fill="#144F70"/>
<path d="M93.1301 75.8101H89.3501V83.3701H93.1301V75.8101Z" fill="#144F70"/>
<path d="M96.9099 68.25H93.1299V75.81H96.9099V68.25Z" fill="#144F70"/>
<path d="M100.69 60.6899H96.9102V72.03H100.69V60.6899Z" fill="#144F70"/>
<path d="M104.47 53.13H100.69V60.69H104.47V53.13Z" fill="#144F70"/>
<path d="M108.25 49.35H104.47V56.91H108.25V49.35Z" fill="#144F70"/>
<path d="M115.81 45.5701H108.25V49.3501H115.81V45.5701Z" fill="#144F70"/>
<path d="M119.59 41.8H115.81V45.5801H119.59V41.8Z" fill="#144F70"/>
<path d="M123.37 38.02H119.59V41.8H123.37V38.02Z" fill="#144F70"/>
<path d="M127.15 38.02H123.37V41.8H127.15V38.02Z" fill="#144F70"/>
<path d="M130.93 34.24H127.15V38.02H130.93V34.24Z" fill="#144F70"/>
<path d="M104.47 106.05H85.5698V109.83H104.47V106.05Z" fill="#144F70"/>
<path d="M100.69 109.83H96.9102V117.39H100.69V109.83Z" fill="#144F70"/>
<path d="M89.3499 109.83H85.5698V117.39H89.3499V109.83Z" fill="#144F70"/>
<path d="M85.5699 106.05H81.79V109.83H85.5699V106.05Z" fill="#144F70"/>
<path d="M100.69 117.39H93.1299V121.17H100.69V117.39Z" fill="#144F70"/>
<path d="M93.1301 121.17H89.3501V124.95H93.1301V121.17Z" fill="#144F70"/>
<path d="M104.47 124.95H100.69V128.73H104.47V124.95Z" fill="#144F70"/>
<path d="M123.37 124.95H112.03V128.73H123.37V124.95Z" fill="#144F70"/>
<path d="M115.81 109.83H112.03V117.39H115.81V109.83Z" fill="#144F70"/>
<path d="M130.93 113.61H123.37V121.17H130.93V113.61Z" fill="#144F70"/>
<path d="M119.59 132.5H115.81V136.28H119.59V132.5Z" fill="#144F70"/>
<path d="M134.71 121.17H127.15V128.73H134.71V121.17Z" fill="#144F70"/>
<path d="M138.49 109.83H134.71V117.39H138.49V109.83Z" fill="#144F70"/>
<path d="M112.03 117.39H108.25V121.17H112.03V117.39Z" fill="#144F70"/>
<path d="M96.9099 90.9301H93.1299V94.7101H96.9099V90.9301Z" fill="#144F70"/>
<path d="M93.1301 98.49H89.3501V102.27H93.1301V98.49Z" fill="#144F70"/>
<path d="M104.47 83.37H96.9102V90.93H104.47V83.37Z" fill="#144F70"/>
<path d="M108.25 75.8101H100.69V79.5901H108.25V75.8101Z" fill="#144F70"/>
<path d="M115.81 68.25H104.47V72.03H115.81V68.25Z" fill="#144F70"/>
<path d="M115.81 53.13H112.03V64.47H115.81V53.13Z" fill="#144F70"/>
<path d="M108.25 60.6899H104.47V64.47H108.25V60.6899Z" fill="#144F70"/>
<path d="M104.47 72.03H100.69V75.81H104.47V72.03Z" fill="#144F70"/>
<path d="M96.9099 79.59H93.1299V83.37H96.9099V79.59Z" fill="#144F70"/>
<path d="M123.37 56.91H119.59V60.69H123.37V56.91Z" fill="#144F70"/>
<path d="M112.03 102.27H104.47V106.05H112.03V102.27Z" fill="#144F70"/>
<path d="M100.69 121.17H96.9102V128.73H100.69V121.17Z" fill="#092E4C"/>
<path d="M89.3499 117.39H85.5698V124.95H89.3499V117.39Z" fill="#092E4C"/>
<path d="M93.1301 109.83H89.3501V121.17H93.1301V109.83Z" fill="#092E4C"/>
<path d="M96.9099 121.17H93.1299V124.95H96.9099V121.17Z" fill="#092E4C"/>
<path d="M89.35 98.49H81.79V106.05H89.35V98.49Z" fill="#092E4C"/>
<path d="M93.1299 90.9301H85.5698V98.4901H93.1299V90.9301Z" fill="#092E4C"/>
<path d="M108.25 102.27H89.3501V106.05H108.25V102.27Z" fill="#092E4C"/>
<path d="M100.69 94.71H93.1299V102.27H100.69V94.71Z" fill="#092E4C"/>
<path d="M96.9102 83.37H89.3501V90.93H96.9102V83.37Z" fill="#092E4C"/>
<path d="M100.69 75.8101H93.1299V79.5901H100.69V75.8101Z" fill="#092E4C"/>
<path d="M100.69 72.03H96.9102V83.37H100.69V72.03Z" fill="#092E4C"/>
<path d="M108.25 79.59H100.69V83.37H108.25V79.59Z" fill="#092E4C"/>
<path d="M112.03 90.9301H96.9102V94.7101H112.03V90.9301Z" fill="#092E4C"/>
<path d="M108.25 109.83H100.69V124.95H108.25V109.83Z" fill="#092E4C"/>
<path d="M108.25 124.95H104.47V128.73H108.25V124.95Z" fill="#092E4C"/>
<path d="M112.03 124.95H108.25V128.73H112.03V124.95Z" fill="#092E4C"/>
<path d="M127.15 121.17H108.25V124.95H127.15V121.17Z" fill="#092E4C"/>
<path d="M127.15 124.95H123.37V128.73H127.15V124.95Z" fill="#092E4C"/>
<path d="M123.37 117.39H112.03V121.17H123.37V117.39Z" fill="#092E4C"/>
<path d="M112.03 106.05H104.47V109.83H112.03V106.05Z" fill="#092E4C"/>
<path d="M112.03 109.83H108.25V117.39H112.03V109.83Z" fill="#092E4C"/>
<path d="M123.37 109.83H115.81V117.39H123.37V109.83Z" fill="#092E4C"/>
<path d="M138.49 106.05H112.03V109.83H138.49V106.05Z" fill="#092E4C"/>
<path d="M134.71 109.83H123.37V113.61H134.71V109.83Z" fill="#092E4C"/>
<path d="M134.71 117.39H130.93V121.17H134.71V117.39Z" fill="#092E4C"/>
<path d="M134.71 113.61H130.93V117.39H134.71V113.61Z" fill="#092E4C"/>
<path d="M142.27 117.39H134.71V128.73H142.27V117.39Z" fill="#092E4C"/>
<path d="M176.29 124.95H142.27V128.73H176.29V124.95Z" fill="#092E4C"/>
<path d="M176.28 121.17H157.38V124.95H176.28V121.17Z" fill="#092E4C"/>
<path d="M153.6 121.17H149.82V124.95H153.6V121.17Z" fill="#092E4C"/>
<path d="M191.4 68.25H176.28V72.03H191.4V68.25Z" fill="#092E4C"/>
<path d="M176.28 60.6899H164.94V64.47H176.28V60.6899Z" fill="#092E4C"/>
<path d="M180.06 60.6899H176.28V68.25H180.06V60.6899Z" fill="#092E4C"/>
<path d="M172.5 64.47H164.94V72.03H172.5V64.47Z" fill="#092E4C"/>
<path d="M180.06 72.03H172.5V79.59H180.06V72.03Z" fill="#092E4C"/>
<path d="M183.84 79.59H180.06V87.15H183.84V79.59Z" fill="#092E4C"/>
<path d="M180.06 83.37H164.94V87.15H180.06V83.37Z" fill="#092E4C"/>
<path d="M176.28 79.59H172.5V83.37H176.28V79.59Z" fill="#092E4C"/>
<path d="M164.94 72.03H161.16V79.59H164.94V72.03Z" fill="#092E4C"/>
<path d="M172.5 75.8101H168.72V83.3701H172.5V75.8101Z" fill="#092E4C"/>
<path d="M183.84 90.9301H164.94V94.7101H183.84V90.9301Z" fill="#092E4C"/>
<path d="M172.5 87.15H164.94V90.93H172.5V87.15Z" fill="#092E4C"/>
<path d="M187.62 90.9301H183.84V106.05H187.62V90.9301Z" fill="#092E4C"/>
<path d="M195.18 94.71H191.4V98.49H195.18V94.71Z" fill="#092E4C"/>
<path d="M191.4 94.71H187.62V98.49H191.4V94.71Z" fill="#092E4C"/>
<path d="M195.18 98.49H187.62V102.27H195.18V98.49Z" fill="#092E4C"/>
<path d="M198.96 102.27H195.18V109.83H198.96V102.27Z" fill="#092E4C"/>
<path d="M202.74 106.05H198.96V113.61H202.74V106.05Z" fill="#092E4C"/>
<path d="M198.96 98.49H195.18V102.27H198.96V98.49Z" fill="#092E4C"/>
<path d="M202.74 102.27H198.96V106.05H202.74V102.27Z" fill="#092E4C"/>
<path d="M191.4 102.27H187.62V109.83H191.4V102.27Z" fill="#092E4C"/>
<path d="M195.18 106.05H191.4V109.83H195.18V106.05Z" fill="#092E4C"/>
<path d="M206.52 117.39H180.06V121.17H206.52V117.39Z" fill="#092E4C"/>
<path d="M202.74 113.61H195.18V117.39H202.74V113.61Z" fill="#092E4C"/>
<path d="M187.62 106.05H153.6V109.83H187.62V106.05Z" fill="#092E4C"/>
<path d="M187.62 109.83H180.06V117.39H187.62V109.83Z" fill="#092E4C"/>
<path d="M161.16 113.61H157.38V121.17H161.16V113.61Z" fill="#092E4C"/>
<path d="M176.28 109.83H164.94V113.61H176.28V109.83Z" fill="#092E4C"/>
<path d="M168.72 98.49H164.94V106.05H168.72V98.49Z" fill="#092E4C"/>
<path d="M176.28 94.71H172.5V98.49H176.28V94.71Z" fill="#092E4C"/>
<path d="M168.72 79.59H164.94V83.37H168.72V79.59Z" fill="#092E4C"/>
<path d="M172.5 72.03H168.72V75.81H172.5V72.03Z" fill="#092E4C"/>
<path d="M161.16 45.5701H157.38V60.6901H161.16V45.5701Z" fill="#092E4C"/>
<path d="M164.94 53.13H161.16V60.69H164.94V53.13Z" fill="#092E4C"/>
<path d="M168.72 56.91H164.94V60.69H168.72V56.91Z" fill="#092E4C"/>
<path d="M153.61 41.8H134.71V45.5801H153.61V41.8Z" fill="#092E4C"/>
<path d="M146.05 30.46H142.27V38.02H146.05V30.46Z" fill="#092E4C"/>
<path d="M142.27 34.24H130.93V38.02H142.27V34.24Z" fill="#092E4C"/>
<path d="M134.71 38.02H127.15V41.8H134.71V38.02Z" fill="#092E4C"/>
<path d="M127.15 41.8H119.59V45.5801H127.15V41.8Z" fill="#092E4C"/>
<path d="M127.15 45.5701H115.81V49.3501H127.15V45.5701Z" fill="#092E4C"/>
<path d="M123.37 49.35H112.03V53.13H123.37V49.35Z" fill="#092E4C"/>
<path d="M112.03 49.35H108.25V60.69H112.03V49.35Z" fill="#092E4C"/>
<path d="M104.47 60.6899H100.69V72.03H104.47V60.6899Z" fill="#092E4C"/>
<path d="M108.25 56.91H104.47V60.69H108.25V56.91Z" fill="#092E4C"/>
<path d="M115.81 64.47H104.47V68.25H115.81V64.47Z" fill="#092E4C"/>
<path d="M112.03 60.6899H108.25V64.47H112.03V60.6899Z" fill="#092E4C"/>
<path d="M123.37 64.47H115.81V68.25H123.37V64.47Z" fill="#092E4C"/>
<path d="M123.37 60.6899H119.59V64.47H123.37V60.6899Z" fill="#092E4C"/>
<path d="M119.59 53.13H115.81V60.69H119.59V53.13Z" fill="#092E4C"/>
<path d="M149.82 45.5701H146.04V68.2501H149.82V45.5701Z" fill="#092E4C"/>
<path d="M153.6 49.35H149.82V60.69H153.6V49.35Z" fill="#092E4C"/>
<path d="M157.38 56.91H153.6V64.47H157.38V56.91Z" fill="#092E4C"/>
<path d="M161.16 60.6899H157.38V64.47H161.16V60.6899Z" fill="#092E4C"/>
<path d="M164.94 68.25H161.16V72.03H164.94V68.25Z" fill="#092E4C"/>
<path d="M142.27 38.02H134.71V41.8H142.27V38.02Z" fill="#092E4C"/>
<path d="M142.27 45.5701H138.49V49.3501H142.27V45.5701Z" fill="#092E4C"/>
<path d="M146.05 49.35H142.27V53.13H146.05V49.35Z" fill="#092E4C"/>
<path d="M142.27 49.35H138.49V53.13H142.27V49.35Z" fill="#092E4C"/>
<path d="M142.27 56.91H127.15V64.47H142.27V56.91Z" fill="#092E4C"/>
<path d="M142.27 68.25H134.71V72.03H142.27V68.25Z" fill="#092E4C"/>
<path d="M138.49 49.35H130.93V53.13H138.49V49.35Z" fill="#092E4C"/>
<path d="M130.93 53.13H127.15V56.91H130.93V53.13Z" fill="#092E4C"/>
<path d="M134.71 45.5701H130.93V49.3501H134.71V45.5701Z" fill="#092E4C"/>
<path d="M153.6 90.9301H146.04V98.4901H153.6V90.9301Z" fill="#092E4C"/>
<path d="M164.94 94.71H157.38V98.49H164.94V94.71Z" fill="#092E4C"/>
<path d="M153.61 109.83H142.27V113.61H153.61V109.83Z" fill="#092E4C"/>
<path d="M153.61 117.39H142.27V121.17H153.61V117.39Z" fill="#092E4C"/>
<path d="M157.38 113.61H153.6V117.39H157.38V113.61Z" fill="#092E4C"/>
<path d="M161.16 90.9301H153.6V98.4901H161.16V90.9301Z" fill="#092E4C"/>
<path d="M157.38 83.37H153.6V90.93H157.38V83.37Z" fill="#092E4C"/>
<path d="M164.94 79.59H161.16V87.15H164.94V79.59Z" fill="#092E4C"/>
<path d="M153.6 72.03H146.04V83.37H153.6V72.03Z" fill="#092E4C"/>
<path d="M115.81 98.49H112.03V102.27H115.81V98.49Z" fill="#092E4C"/>
<path d="M123.37 98.49H119.59V102.27H123.37V98.49Z" fill="#092E4C"/>
<path d="M119.59 83.37H112.03V90.93H119.59V83.37Z" fill="#092E4C"/>
<path d="M127.15 83.37H123.37V87.15H127.15V83.37Z" fill="#092E4C"/>
<path d="M127.15 72.03H119.59V79.59H127.15V72.03Z" fill="#092E4C"/>
<path d="M112.03 72.03H104.47V75.81H112.03V72.03Z" fill="#092E4C"/>
<path d="M146.05 102.27H142.27V106.05H146.05V102.27Z" fill="#092E4C"/>
<path d="M134.71 94.71H130.93V98.49H134.71V94.71Z" fill="#092E4C"/>
<path d="M157.38 102.27H149.82V106.05H157.38V102.27Z" fill="#092E4C"/>
<path d="M130.93 41.8H127.15V53.1401H130.93V41.8Z" fill="#5EB0DD"/>
<path d="M134.71 41.8H130.93V45.5801H134.71V41.8Z" fill="#5EB0DD"/>
<path d="M138.49 45.5701H134.71V49.3501H138.49V45.5701Z" fill="#5EB0DD"/>
<path d="M146.05 72.03H127.15V94.71H146.05V72.03Z" fill="#144F70"/>
<path d="M153.6 83.37H146.04V90.93H153.6V83.37Z" fill="#144F70"/>
<path d="M146.05 94.71H134.71V102.27H146.05V94.71Z" fill="#144F70"/>
<path d="M157.38 98.49H153.6V102.27H157.38V98.49Z" fill="#5EB0DD"/>
<path d="M172.5 94.71H164.94V98.49H172.5V94.71Z" fill="#5EB0DD"/>
<path d="M164.94 90.9301H161.16V94.7101H164.94V90.9301Z" fill="#5EB0DD"/>
<path d="M164.94 109.83H153.6V113.61H164.94V109.83Z" fill="#144F70"/>
<path d="M180.06 109.83H176.28V113.61H180.06V109.83Z" fill="#5EB0DD"/>
<path d="M153.61 113.61H138.49V117.39H153.61V113.61Z" fill="#144F70"/>
<path d="M142.27 102.27H138.49V113.61H142.27V102.27Z" fill="#144F70"/>
<path d="M146.05 106.05H142.27V109.83H146.05V106.05Z" fill="#5EB0DD"/>
<path d="M138.49 102.27H112.03V106.05H138.49V102.27Z" fill="#144F70"/>
<path d="M134.71 98.49H123.37V102.27H134.71V98.49Z" fill="#5EB0DD"/>
<path d="M112.03 94.71H100.69V102.27H112.03V94.71Z" fill="#5EB0DD"/>
<path d="M127.15 90.9301H112.03V98.4901H127.15V90.9301Z" fill="#144F70"/>
<path d="M130.93 94.71H127.15V98.49H130.93V94.71Z" fill="#5EB0DD"/>
<path d="M119.59 98.49H115.81V102.27H119.59V98.49Z" fill="#5EB0DD"/>
<path d="M127.15 87.15H119.59V90.93H127.15V87.15Z" fill="#5EB0DD"/>
<path d="M119.59 75.8101H108.25V83.3701H119.59V75.8101Z" fill="#5EB0DD"/>
<path d="M112.03 83.37H104.47V90.93H112.03V83.37Z" fill="#5EB0DD"/>
<path d="M127.15 79.59H119.59V83.37H127.15V79.59Z" fill="#5EB0DD"/>
<path d="M123.37 83.37H119.59V87.15H123.37V83.37Z" fill="#5EB0DD"/>
<path d="M119.59 72.03H112.03V75.81H119.59V72.03Z" fill="#5EB0DD"/>
<path d="M134.71 68.25H115.81V72.03H134.71V68.25Z" fill="#5EB0DD"/>
<path d="M146.05 64.47H123.37V68.25H146.05V64.47Z" fill="#5EB0DD"/>
<path d="M149.83 68.25H142.27V72.03H149.83V68.25Z" fill="#5EB0DD"/>
<path d="M153.6 60.6899H149.82V68.25H153.6V60.6899Z" fill="#5EB0DD"/>
<path d="M161.16 64.47H153.6V68.25H161.16V64.47Z" fill="#5EB0DD"/>
<path d="M123.37 53.13H119.59V56.91H123.37V53.13Z" fill="#5EB0DD"/>
<path d="M127.15 49.35H123.37V64.47H127.15V49.35Z" fill="#5EB0DD"/>
<path d="M119.59 60.6899H115.81V64.47H119.59V60.6899Z" fill="#5EB0DD"/>
<path d="M68.4027 27.5422L62.0176 16.483L59.8057 17.76L66.1908 28.8192L68.4027 27.5422Z" fill="#A7C0C6"/>
<path d="M67.4679 31.0311L66.1909 28.8193L63.979 30.0963L65.2561 32.3082L67.4679 31.0311Z" fill="#A7C0C6"/>
<path d="M66.5333 34.52L65.2563 32.3082L60.8326 34.8622L62.1096 37.074L66.5333 34.52Z" fill="#A7C0C6"/>
<path d="M60.8381 34.8588L59.561 32.6469L52.9255 36.478L54.2025 38.6899L60.8381 34.8588Z" fill="#A7C0C6"/>
<path d="M55.4796 40.9017L54.2026 38.6898L49.7789 41.2439L51.0559 43.4557L55.4796 40.9017Z" fill="#A7C0C6"/>
<path d="M52.3298 45.6617L51.0527 43.4498L48.8409 44.7268L50.1179 46.9387L52.3298 45.6617Z" fill="#A7C0C6"/>
<path d="M51.3947 49.1506L50.1177 46.9387L47.9058 48.2157L49.1828 50.4276L51.3947 49.1506Z" fill="#A7C0C6"/>
<path d="M59.8058 17.76L58.5288 15.5481L43.0458 24.4872L44.3228 26.6991L59.8058 17.76Z" fill="#495D68"/>
<path d="M43.0519 24.4838L41.7749 22.272L39.563 23.549L40.8401 25.7609L43.0519 24.4838Z" fill="#495D68"/>
<path d="M53.0141 57.0631L49.1831 50.4276L46.9713 51.7046L50.8023 58.3401L53.0141 57.0631Z" fill="#567C89"/>
<path d="M52.0793 60.552L50.8022 58.3401L48.5904 59.6172L49.8674 61.829L52.0793 60.552Z" fill="#567C89"/>
<path d="M51.1442 64.0409L49.8672 61.829L47.6554 63.106L48.9324 65.3179L51.1442 64.0409Z" fill="#567C89"/>
<path d="M48.9323 65.3179L47.6553 63.106L45.4434 64.3831L46.7204 66.5949L48.9323 65.3179Z" fill="#567C89"/>
<path d="M45.4435 64.3831L44.1665 62.1712L41.9547 63.4482L43.2317 65.6601L45.4435 64.3831Z" fill="#567C89"/>
<path d="M41.9548 63.4482L40.6777 61.2363L38.4659 62.5134L39.7429 64.7252L41.9548 63.4482Z" fill="#567C89"/>
<path d="M38.4659 62.5134L37.189 60.3016L32.7653 62.8556L34.0422 65.0674L38.4659 62.5134Z" fill="#567C89"/>
<path d="M32.7653 62.8556L31.4883 60.6437L27.0646 63.1977L28.3416 65.4096L32.7653 62.8556Z" fill="#567C89"/>
<path d="M27.0643 63.1977L24.5103 58.774L22.2984 60.051L24.8525 64.4748L27.0643 63.1977Z" fill="#495D68"/>
<path d="M26.7256 57.5028L22.8945 50.8673L20.6827 52.1443L24.5137 58.7798L26.7256 57.5028Z" fill="#495D68"/>
<path d="M20.6828 52.1443L19.4058 49.9324L14.9821 52.4865L16.2591 54.6983L20.6828 52.1443Z" fill="#567C89"/>
<path d="M14.9821 52.4865L13.7051 50.2746L11.4932 51.5516L12.7702 53.7635L14.9821 52.4865Z" fill="#567C89"/>
<path d="M15.9168 48.9976L13.3628 44.5739L11.1509 45.8509L13.7049 50.2746L15.9168 48.9976Z" fill="#495D68"/>
<path d="M15.5746 43.2969L13.0205 38.8732L10.8087 40.1502L13.3627 44.5739L15.5746 43.2969Z" fill="#495D68"/>
<path d="M15.2326 37.5961L10.1245 28.7487L7.91264 30.0257L13.0207 38.8731L15.2326 37.5961Z" fill="#495D68"/>
<path d="M16.7599 24.9177L15.4829 22.7059L11.0592 25.2599L12.3362 27.4717L16.7599 24.9177Z" fill="#495D68"/>
<path d="M12.3361 27.4717L11.0591 25.2599L8.84725 26.5369L10.1242 28.7487L12.3361 27.4717Z" fill="#495D68"/>
<path d="M20.2487 25.8525L18.9717 23.6407L16.7598 24.9177L18.0368 27.1296L20.2487 25.8525Z" fill="#495D68"/>
<path d="M23.7375 26.7874L22.4604 24.5755L20.2486 25.8525L21.5256 28.0644L23.7375 26.7874Z" fill="#495D68"/>
<path d="M28.1613 24.2334L26.8843 22.0215L22.4606 24.5755L23.7376 26.7874L28.1613 24.2334Z" fill="#495D68"/>
<path d="M31.6501 25.1682L30.373 22.9563L28.1612 24.2334L29.4382 26.4452L31.6501 25.1682Z" fill="#495D68"/>
<path d="M35.1393 26.103L33.8623 23.8912L31.6505 25.1682L32.9275 27.38L35.1393 26.103Z" fill="#495D68"/>
<path d="M37.3512 24.826L36.0742 22.6142L33.8623 23.8912L35.1393 26.103L37.3512 24.826Z" fill="#495D68"/>
<path d="M39.5626 23.549L38.2856 21.3372L36.0738 22.6142L37.3508 24.826L39.5626 23.549Z" fill="#567C89"/>
<path d="M30.1227 37.8467L28.8457 35.6348L26.6339 36.9118L27.9109 39.1237L30.1227 37.8467Z" fill="#1E2F33"/>
<path d="M29.1881 41.3355L27.9111 39.1237L25.6993 40.4007L26.9762 42.6125L29.1881 41.3355Z" fill="#1E2F33"/>
<path d="M28.2531 44.8244L26.9761 42.6125L24.7642 43.8895L26.0413 46.1014L28.2531 44.8244Z" fill="#1E2F33"/>
<path d="M27.318 48.3133L26.041 46.1014L23.8291 47.3784L25.1062 49.5903L27.318 48.3133Z" fill="#1E2F33"/>
<path d="M30.465 43.5474L29.188 41.3355L26.9761 42.6125L28.2531 44.8244L30.465 43.5474Z" fill="#1E2F33"/>
<path d="M32.6769 42.2704L31.3999 40.0585L29.1881 41.3355L30.4651 43.5474L32.6769 42.2704Z" fill="#1E2F33"/>
<path d="M31.7419 45.7592L30.4648 43.5474L28.253 44.8244L29.53 47.0363L31.7419 45.7592Z" fill="#1E2F33"/>
<path d="M29.53 47.0363L28.2529 44.8244L26.0411 46.1014L27.3181 48.3133L29.53 47.0363Z" fill="#1E2F33"/>
<path d="M28.5954 50.5251L27.3184 48.3133L25.1065 49.5903L26.3835 51.8022L28.5954 50.5251Z" fill="#1E2F33"/>
<path d="M46.8829 31.1194L45.606 28.9076L43.3941 30.1846L44.6711 32.3964L46.8829 31.1194Z" fill="#1E2F33"/>
<path d="M49.4367 35.5431L48.1597 33.3312L45.9478 34.6083L47.2248 36.8201L49.4367 35.5431Z" fill="#1E2F33"/>
<path d="M48.5021 39.032L47.2251 36.8201L45.0133 38.0971L46.2903 40.309L48.5021 39.032Z" fill="#1E2F33"/>
<path d="M50.3718 32.0542L49.0947 29.8424L46.8829 31.1194L48.1599 33.3312L50.3718 32.0542Z" fill="#1E2F33"/>
<path d="M45.6056 28.9076L44.3286 26.6957L42.1167 27.9727L43.3938 30.1846L45.6056 28.9076Z" fill="#1E2F33"/>
<path d="M51.6486 34.2661L50.3716 32.0542L48.1597 33.3312L49.4368 35.5431L51.6486 34.2661Z" fill="#1E2F33"/>
<path d="M41.2702 52.0468L39.9932 49.8349L37.7813 51.1119L39.0583 53.3238L41.2702 52.0468Z" fill="#1E2F33"/>
<path d="M40.3356 55.5357L39.0586 53.3238L36.8468 54.6008L38.1238 56.8127L40.3356 55.5357Z" fill="#1E2F33"/>
<path d="M39.4006 59.0245L38.1235 56.8127L35.9117 58.0897L37.1887 60.3016L39.4006 59.0245Z" fill="#1E2F33"/>
<path d="M42.2086 48.5637L40.9316 46.3519L38.7198 47.6289L39.9968 49.8407L42.2086 48.5637Z" fill="#1E2F33"/>
<path d="M39.9967 49.8408L38.7197 47.629L36.5079 48.906L37.7848 51.1178L39.9967 49.8408Z" fill="#1E2F33"/>
<path d="M39.0583 53.3238L37.7812 51.1119L35.5694 52.3889L36.8464 54.6008L39.0583 53.3238Z" fill="#1E2F33"/>
<path d="M40.9313 46.3519L39.6543 44.1401L37.4425 45.4171L38.7195 47.629L40.9313 46.3519Z" fill="#1E2F33"/>
<path d="M18.3792 32.8303L15.8252 28.4066L13.6133 29.6836L16.1674 34.1073L18.3792 32.8303Z" fill="#495D68"/>
<path d="M20.9333 37.254L19.6562 35.0421L17.4444 36.3191L18.7214 38.531L20.9333 37.254Z" fill="#495D68"/>
<path d="M44.4204 47.2867L40.5894 40.6512L38.3775 41.9282L42.2085 48.5637L44.4204 47.2867Z" fill="#A7C0C6"/>
<path d="M43.4821 50.7697L42.2051 48.5579L39.9932 49.8349L41.2703 52.0468L43.4821 50.7697Z" fill="#A7C0C6"/>
<path d="M42.5475 54.2586L41.2705 52.0468L39.0586 53.3238L40.3357 55.5356L42.5475 54.2586Z" fill="#A7C0C6"/>
<path d="M41.6125 57.7475L40.3354 55.5357L38.1236 56.8127L39.4006 59.0245L41.6125 57.7475Z" fill="#A7C0C6"/>
<path d="M40.6779 61.2363L39.4009 59.0245L37.189 60.3016L38.466 62.5134L40.6779 61.2363Z" fill="#1E2F33"/>
<path d="M31.3995 40.0585L30.1226 37.8467L27.9107 39.1237L29.1877 41.3355L31.3995 40.0585Z" fill="#A7C0C6"/>
<path d="M32.3346 36.5697L31.0576 34.3578L28.8457 35.6348L30.1228 37.8467L32.3346 36.5697Z" fill="#A7C0C6"/>
<path d="M34.8888 40.9933L33.6118 38.7814L31.3999 40.0585L32.677 42.2703L34.8888 40.9933Z" fill="#A7C0C6"/>
<path d="M33.9538 44.4822L32.6768 42.2704L30.4649 43.5474L31.7419 45.7592L33.9538 44.4822Z" fill="#A7C0C6"/>
<path d="M33.0192 47.9711L31.7422 45.7592L27.3185 48.3133L28.5955 50.5251L33.0192 47.9711Z" fill="#A7C0C6"/>
<path d="M29.8722 52.737L28.5952 50.5251L26.3833 51.8022L27.6604 54.014L29.8722 52.737Z" fill="#A7C0C6"/>
<path d="M20.5912 31.5533L18.0371 27.1295L15.8253 28.4066L18.3793 32.8303L20.5912 31.5533Z" fill="#A7C0C6"/>
<path d="M19.6564 35.0421L18.3794 32.8303L16.1675 34.1073L17.4445 36.3191L19.6564 35.0421Z" fill="#A7C0C6"/>
<path d="M22.2101 39.4658L20.9331 37.254L18.7212 38.531L19.9983 40.7429L22.2101 39.4658Z" fill="#A7C0C6"/>
<path d="M23.1452 35.977L21.8682 33.7651L19.6563 35.0421L20.9334 37.254L23.1452 35.977Z" fill="#A7C0C6"/>
<path d="M49.0945 29.8424L46.5405 25.4187L44.3287 26.6957L46.8827 31.1194L49.0945 29.8424Z" fill="#A7C0C6"/>
<path d="M53.8607 32.9891L51.3066 28.5653L49.0948 29.8424L51.6488 34.2661L53.8607 32.9891Z" fill="#A7C0C6"/>
<path d="M52.9255 36.478L51.6484 34.2661L47.2247 36.8201L48.5018 39.032L52.9255 36.478Z" fill="#A7C0C6"/>
<path d="M49.779 41.2439L48.502 39.032L46.2901 40.309L47.5671 42.5209L49.779 41.2439Z" fill="#A7C0C6"/>
<path d="M66.1911 28.8192L61.083 19.9718L58.8711 21.2489L63.9792 30.0963L66.1911 28.8192Z" fill="#6C8F9E"/>
<path d="M65.256 32.3082L63.979 30.0963L59.5553 32.6503L60.8323 34.8622L65.256 32.3082Z" fill="#6C8F9E"/>
<path d="M63.9792 30.0963L62.7021 27.8844L60.4903 29.1614L61.7673 31.3733L63.9792 30.0963Z" fill="#6C8F9E"/>
<path d="M60.4904 29.1614L59.2134 26.9495L57.0015 28.2266L58.2785 30.4384L60.4904 29.1614Z" fill="#6C8F9E"/>
<path d="M57.3493 33.924L56.0723 31.7121L51.6486 34.2661L52.9256 36.478L57.3493 33.924Z" fill="#6C8F9E"/>
<path d="M54.2028 38.6899L52.9258 36.478L48.5021 39.032L49.7791 41.2439L54.2028 38.6899Z" fill="#6C8F9E"/>
<path d="M54.7951 29.5002L53.5181 27.2883L51.3062 28.5653L52.5833 30.7772L54.7951 29.5002Z" fill="#6C8F9E"/>
<path d="M55.7301 26.0113L54.4531 23.7995L52.2413 25.0765L53.5182 27.2883L55.7301 26.0113Z" fill="#6C8F9E"/>
<path d="M51.0558 43.4557L49.7788 41.2439L45.3551 43.7979L46.6321 46.0097L51.0558 43.4557Z" fill="#6C8F9E"/>
<path d="M50.1178 46.9387L48.8408 44.7268L44.4171 47.2809L45.6941 49.4927L50.1178 46.9387Z" fill="#6C8F9E"/>
<path d="M49.1828 50.4276L47.9058 48.2157L45.6939 49.4927L46.971 51.7046L49.1828 50.4276Z" fill="#6C8F9E"/>
<path d="M47.5671 42.5209L46.29 40.309L44.0782 41.586L45.3552 43.7979L47.5671 42.5209Z" fill="#6C8F9E"/>
<path d="M44.0783 41.586L42.8013 39.3742L40.5894 40.6512L41.8665 42.863L44.0783 41.586Z" fill="#6C8F9E"/>
<path d="M48.59 59.6172L47.313 57.4053L45.1012 58.6823L46.3782 60.8942L48.59 59.6172Z" fill="#6C8F9E"/>
<path d="M49.8674 61.829L48.5903 59.6172L44.1666 62.1712L45.4436 64.3831L49.8674 61.829Z" fill="#6C8F9E"/>
<path d="M50.8022 58.3402L46.9712 51.7046L44.7593 52.9816L48.5904 59.6172L50.8022 58.3402Z" fill="#6C8F9E"/>
<path d="M36.1657 43.2052L34.8887 40.9933L32.6768 42.2704L33.9538 44.4822L36.1657 43.2052Z" fill="#6C8F9E"/>
<path d="M35.2306 46.6941L33.9536 44.4822L31.7418 45.7592L33.0188 47.9711L35.2306 46.6941Z" fill="#6C8F9E"/>
<path d="M34.2961 50.183L33.019 47.9711L28.5953 50.5251L29.8724 52.737L34.2961 50.183Z" fill="#6C8F9E"/>
<path d="M31.1491 54.9488L29.8721 52.737L27.6602 54.014L28.9372 56.2258L31.1491 54.9488Z" fill="#6C8F9E"/>
<path d="M33.6115 38.7815L32.3345 36.5697L30.1226 37.8467L31.3996 40.0585L33.6115 38.7815Z" fill="#6C8F9E"/>
<path d="M31.0578 34.3578L29.7808 32.1459L27.5689 33.4229L28.8459 35.6348L31.0578 34.3578Z" fill="#6C8F9E"/>
<path d="M21.8678 33.7651L20.5908 31.5533L18.379 32.8303L19.656 35.0421L21.8678 33.7651Z" fill="#6C8F9E"/>
<path d="M24.422 38.1888L23.145 35.977L20.9332 37.254L22.2102 39.4658L24.422 38.1888Z" fill="#6C8F9E"/>
<path d="M25.3571 34.6999L24.0801 32.4881L21.8682 33.7651L23.1452 35.977L25.3571 34.6999Z" fill="#6C8F9E"/>
<path d="M24.0801 32.4881L20.249 25.8525L18.0372 27.1295L21.8682 33.7651L24.0801 32.4881Z" fill="#6C8F9E"/>
<path d="M23.487 41.6777L22.21 39.4658L19.9981 40.7429L21.2751 42.9547L23.487 41.6777Z" fill="#6C8F9E"/>
<path d="M19.9982 40.7429L18.7212 38.531L16.5094 39.808L17.7864 42.0199L19.9982 40.7429Z" fill="#6C8F9E"/>
<path d="M50.0295 26.3535L48.7524 24.1417L46.5406 25.4187L47.8176 27.6306L50.0295 26.3535Z" fill="#6C8F9E"/>
<path d="M51.3063 28.5653L50.0293 26.3535L47.8174 27.6306L49.0944 29.8424L51.3063 28.5653Z" fill="#6C8F9E"/>
<path d="M56.0724 31.7121L54.7954 29.5002L52.5836 30.7772L53.8606 32.9891L56.0724 31.7121Z" fill="#6C8F9E"/>
<path d="M46.6321 46.0097L44.0781 41.586L41.8663 42.863L44.4203 47.2867L46.6321 46.0097Z" fill="#6C8F9E"/>
<path d="M45.694 49.4927L44.417 47.2809L42.2051 48.5579L43.4821 50.7698L45.694 49.4927Z" fill="#6C8F9E"/>
<path d="M44.759 52.9816L43.4819 50.7698L41.2701 52.0468L42.5471 54.2586L44.759 52.9816Z" fill="#6C8F9E"/>
<path d="M43.8244 56.4705L42.5474 54.2586L40.3355 55.5357L41.6125 57.7475L43.8244 56.4705Z" fill="#6C8F9E"/>
<path d="M42.8893 59.9593L41.6123 57.7475L39.4005 59.0245L40.6775 61.2363L42.8893 59.9593Z" fill="#6C8F9E"/>
<path d="M38.0353 36.2274L36.7583 34.0156L34.5464 35.2926L35.8234 37.5045L38.0353 36.2274Z" fill="#6C8F9E"/>
<path d="M35.4811 31.8038L34.2041 29.5919L31.9922 30.8689L33.2693 33.0808L35.4811 31.8038Z" fill="#6C8F9E"/>
<path d="M43.736 35.8853L42.459 33.6734L38.0353 36.2274L39.3123 38.4393L43.736 35.8853Z" fill="#6C8F9E"/>
<path d="M40.5895 40.6512L39.3125 38.4393L34.8888 40.9933L36.1658 43.2052L40.5895 40.6512Z" fill="#6C8F9E"/>
<path d="M27.6607 54.014L23.8296 47.3784L21.6178 48.6554L25.4488 55.291L27.6607 54.014Z" fill="#567C89"/>
<path d="M28.9376 56.2258L27.6606 54.014L25.4488 55.291L26.7258 57.5028L28.9376 56.2258Z" fill="#567C89"/>
<path d="M22.8947 50.8673L21.6177 48.6554L19.4058 49.9324L20.6828 52.1443L22.8947 50.8673Z" fill="#567C89"/>
<path d="M19.4054 49.9324L18.1284 47.7206L13.7047 50.2746L14.9817 52.4865L19.4054 49.9324Z" fill="#567C89"/>
<path d="M26.0412 46.1014L24.7642 43.8895L22.5523 45.1665L23.8293 47.3784L26.0412 46.1014Z" fill="#567C89"/>
<path d="M27.9108 39.1237L26.6338 36.9118L24.4219 38.1888L25.6989 40.4007L27.9108 39.1237Z" fill="#567C89"/>
<path d="M26.9762 42.6125L25.6992 40.4007L23.4874 41.6777L24.7644 43.8895L26.9762 42.6125Z" fill="#567C89"/>
<path d="M39.6545 44.1401L38.3774 41.9282L33.9537 44.4822L35.2308 46.6941L39.6545 44.1401Z" fill="#567C89"/>
<path d="M38.7199 47.6289L37.4429 45.4171L35.231 46.6941L36.508 48.906L38.7199 47.6289Z" fill="#567C89"/>
<path d="M37.7848 51.1178L36.5078 48.906L34.296 50.183L35.573 52.3948L37.7848 51.1178Z" fill="#567C89"/>
<path d="M38.1239 56.8127L35.5698 52.3889L33.358 53.6659L35.912 58.0897L38.1239 56.8127Z" fill="#567C89"/>
<path d="M37.1886 60.3016L35.9116 58.0897L33.6998 59.3667L34.9768 61.5786L37.1886 60.3016Z" fill="#567C89"/>
<path d="M46.9709 51.7046L45.6938 49.4927L43.482 50.7698L44.759 52.9816L46.9709 51.7046Z" fill="#567C89"/>
<path d="M46.0363 55.1935L44.7593 52.9816L42.5474 54.2586L43.8245 56.4705L46.0363 55.1935Z" fill="#567C89"/>
<path d="M47.3131 57.4053L46.0361 55.1935L41.6124 57.7475L42.8894 59.9593L47.3131 57.4053Z" fill="#567C89"/>
<path d="M46.3786 60.8942L45.1016 58.6823L40.6779 61.2363L41.9549 63.4482L46.3786 60.8942Z" fill="#567C89"/>
<path d="M48.1598 33.3312L46.8828 31.1194L42.4591 33.6734L43.7361 35.8853L48.1598 33.3312Z" fill="#567C89"/>
<path d="M47.2248 36.8201L45.9478 34.6083L41.524 37.1623L42.8011 39.3742L47.2248 36.8201Z" fill="#567C89"/>
<path d="M46.2902 40.309L45.0132 38.0971L42.8013 39.3742L44.0783 41.586L46.2902 40.309Z" fill="#567C89"/>
<path d="M44.6707 32.3964L42.1167 27.9727L39.9049 29.2497L42.4589 33.6734L44.6707 32.3964Z" fill="#567C89"/>
<path d="M44.3288 26.6957L43.0518 24.4838L40.8399 25.7609L42.1169 27.9727L44.3288 26.6957Z" fill="#567C89"/>
<path d="M61.425 25.6725L60.1479 23.4607L57.9361 24.7377L59.2131 26.9495L61.425 25.6725Z" fill="#567C89"/>
<path d="M62.7018 27.8844L61.4248 25.6725L59.213 26.9495L60.49 29.1614L62.7018 27.8844Z" fill="#567C89"/>
<path d="M61.7673 31.3733L60.4902 29.1614L56.0665 31.7154L57.3436 33.9273L61.7673 31.3733Z" fill="#567C89"/>
<path d="M58.2843 30.4351L57.0073 28.2232L54.7955 29.5002L56.0725 31.7121L58.2843 30.4351Z" fill="#567C89"/>
<path d="M25.6989 40.4007L24.4219 38.1888L22.21 39.4658L23.4871 41.6777L25.6989 40.4007Z" fill="#567C89"/>
<path d="M18.7213 38.531L13.6133 29.6836L11.4014 30.9606L16.5095 39.808L18.7213 38.531Z" fill="#567C89"/>
<path d="M15.8249 28.4066L14.5479 26.1947L12.336 27.4717L13.613 29.6836L15.8249 28.4066Z" fill="#567C89"/>
<path d="M26.634 36.9118L25.3569 34.6999L23.1451 35.977L24.4221 38.1888L26.634 36.9118Z" fill="#567C89"/>
<path d="M28.8459 35.6348L23.7378 26.7874L21.526 28.0644L26.634 36.9118L28.8459 35.6348Z" fill="#567C89"/>
<path d="M37.1002 39.7163L31.9922 30.8689L29.7804 32.1459L34.8884 40.9933L37.1002 39.7163Z" fill="#567C89"/>
<path d="M29.2762 61.9207L26.7222 57.497L24.5103 58.774L27.0643 63.1977L29.2762 61.9207Z" fill="#567C89"/>
<path d="M33.6999 59.3667L32.4229 57.1548L30.211 58.4318L31.488 60.6437L33.6999 59.3667Z" fill="#567C89"/>
<path d="M40.2474 34.9504L37.6934 30.5267L35.4815 31.8038L38.0355 36.2274L40.2474 34.9504Z" fill="#567C89"/>
<path d="M61.0827 19.9718L59.8057 17.76L48.7464 24.145L50.0234 26.3569L61.0827 19.9718Z" fill="#495D68"/>
<path d="M60.1481 23.4607L58.8711 21.2489L54.4474 23.8029L55.7244 26.0147L60.1481 23.4607Z" fill="#495D68"/>
<path d="M59.2131 26.9495L57.936 24.7377L53.5123 27.2917L54.7894 29.5036L59.2131 26.9495Z" fill="#6F7B7F"/>
<path d="M53.5182 27.2883L52.2412 25.0765L50.0294 26.3535L51.3064 28.5653L53.5182 27.2883Z" fill="#495D68"/>
<path d="M59.2131 26.9495L57.936 24.7377L53.5123 27.2917L54.7894 29.5036L59.2131 26.9495Z" fill="#495D68"/>
<path d="M42.117 27.9727L39.563 23.549L32.9274 27.38L35.4815 31.8038L42.117 27.9727Z" fill="#1E2F33"/>
<path d="M42.4588 33.6734L39.9048 29.2497L37.6929 30.5268L40.2469 34.9504L42.4588 33.6734Z" fill="#1E2F33"/>
<path d="M36.7585 34.0156L35.4814 31.8038L33.2696 33.0808L34.5466 35.2927L36.7585 34.0156Z" fill="#1E2F33"/>
<path d="M39.3122 38.4393L38.0352 36.2274L35.8233 37.5045L37.1003 39.7163L39.3122 38.4393Z" fill="#1E2F33"/>
<path d="M42.8014 39.3742L41.5244 37.1623L39.3126 38.4393L40.5896 40.6512L42.8014 39.3742Z" fill="#1E2F33"/>
<path d="M36.508 48.906L35.231 46.6941L33.0191 47.9711L34.2961 50.183L36.508 48.906Z" fill="#1E2F33"/>
<path d="M35.5729 52.3948L34.2959 50.183L29.8722 52.737L31.1492 54.9488L35.5729 52.3948Z" fill="#1E2F33"/>
<path d="M34.6349 55.8778L33.3579 53.6659L31.1461 54.9429L32.4231 57.1548L34.6349 55.8778Z" fill="#1E2F33"/>
<path d="M35.9118 58.0897L34.6348 55.8778L32.4229 57.1548L33.7 59.3667L35.9118 58.0897Z" fill="#1E2F33"/>
<path d="M32.423 57.1548L31.146 54.9429L26.7223 57.497L27.9993 59.7088L32.423 57.1548Z" fill="#1E2F33"/>
<path d="M31.488 60.6437L30.2109 58.4318L27.9991 59.7088L29.2761 61.9207L31.488 60.6437Z" fill="#495D68"/>
<path d="M34.9767 61.5786L33.6997 59.3667L31.4878 60.6437L32.7649 62.8556L34.9767 61.5786Z" fill="#1E2F33"/>
<path d="M23.8296 47.3784L19.9985 40.7429L15.5748 43.2969L19.4059 49.9324L23.8296 47.3784Z" fill="#495D68"/>
<path d="M24.7643 43.8895L23.4873 41.6777L21.2754 42.9547L22.5524 45.1665L24.7643 43.8895Z" fill="#495D68"/>
<path d="M17.7865 42.0199L15.2324 37.5961L13.0205 38.8732L15.5746 43.2969L17.7865 42.0199Z" fill="#495D68"/>
<path d="M18.1287 47.7206L15.5747 43.2969L13.3629 44.5739L15.9169 48.9976L18.1287 47.7206Z" fill="#495D68"/>
<path d="M13.6135 29.6836L12.3364 27.4717L10.1246 28.7487L11.4016 30.9606L13.6135 29.6836Z" fill="#4F5B5E"/>
<path d="M18.0368 27.1296L16.7598 24.9177L14.5479 26.1947L15.825 28.4066L18.0368 27.1296Z" fill="#4F5B5E"/>
<path d="M31.9927 30.8689L28.1616 24.2334L23.7379 26.7874L27.5689 33.4229L31.9927 30.8689Z" fill="#1E2F33"/>
<path d="M34.2044 29.5919L31.6504 25.1682L29.4385 26.4452L31.9925 30.8689L34.2044 29.5919Z" fill="#1E2F33"/>
<path d="M339.9 3.77997H336.12V11.34H339.9V3.77997Z" fill="#A7C0C6"/>
<path d="M358.79 0H347.45V3.77997H358.79V0Z" fill="#A7C0C6"/>
<path d="M370.13 7.56H358.79V11.34H370.13V7.56Z" fill="#A7C0C6"/>
<path d="M373.91 15.12H362.57V18.9H373.91V15.12Z" fill="#A7C0C6"/>
<path d="M373.91 11.34H370.13V15.12H373.91V11.34Z" fill="#A7C0C6"/>
<path d="M366.35 3.77997H362.57V7.56H366.35V3.77997Z" fill="#A7C0C6"/>
<path d="M366.35 22.67H358.79V30.23H366.35V22.67Z" fill="#495D68"/>
<path d="M355.01 26.45H347.45V30.23H355.01V26.45Z" fill="#495D68"/>
<path d="M358.79 22.67H355.01V26.45H358.79V22.67Z" fill="#495D68"/>
<path d="M370.13 18.9H362.57V22.68H370.13V18.9Z" fill="#495D68"/>
<path d="M351.23 30.23H343.67V34.0099H351.23V30.23Z" fill="#495D68"/>
<path d="M339.9 26.45H332.34V34.0099H339.9V26.45Z" fill="#495D68"/>
<path d="M336.12 22.67H321V26.45H336.12V22.67Z" fill="#495D68"/>
<path d="M328.56 15.12H324.78V18.9H328.56V15.12Z" fill="#495D68"/>
<path d="M324.78 18.9H321V22.68H324.78V18.9Z" fill="#495D68"/>
<path d="M336.12 11.34H328.56V15.12H336.12V11.34Z" fill="#495D68"/>
<path d="M343.68 34.0099H339.9V37.79H343.68V34.0099Z" fill="#495D68"/>
<path d="M336.12 18.9H324.78V22.68H336.12V18.9Z" fill="#1E2F33"/>
<path d="M343.68 22.67H336.12V26.45H343.68V22.67Z" fill="#1E2F33"/>
<path d="M343.68 26.45H339.9V34.0099H343.68V26.45Z" fill="#1E2F33"/>
<path d="M347.45 26.45H343.67V30.23H347.45V26.45Z" fill="#1E2F33"/>
<path d="M355.01 22.67H347.45V26.45H355.01V22.67Z" fill="#1E2F33"/>
<path d="M362.57 18.9H355.01V22.68H362.57V18.9Z" fill="#1E2F33"/>
<path d="M336.12 15.12H328.56V18.9H336.12V15.12Z" fill="#1E2F33"/>
<path d="M351.23 11.34H347.45V15.12H351.23V11.34Z" fill="#1E2F33"/>
<path d="M358.79 15.12H355.01V18.9H358.79V15.12Z" fill="#1E2F33"/>
<path d="M347.45 15.12H343.67V18.9H347.45V15.12Z" fill="#1E2F33"/>
<path d="M339.9 11.34H336.12V22.68H339.9V11.34Z" fill="#567C89"/>
<path d="M343.68 15.12H339.9V22.68H343.68V15.12Z" fill="#567C89"/>
<path d="M347.45 18.9H343.67V26.46H347.45V18.9Z" fill="#567C89"/>
<path d="M355.01 15.12H347.45V22.68H355.01V15.12Z" fill="#567C89"/>
<path d="M362.57 15.12H358.79V18.9H362.57V15.12Z" fill="#567C89"/>
<path d="M370.13 11.34H351.23V15.12H370.13V11.34Z" fill="#567C89"/>
<path d="M347.45 7.56H343.67V15.12H347.45V7.56Z" fill="#567C89"/>
<path d="M358.79 3.77997H347.45V11.34H358.79V3.77997Z" fill="#567C89"/>
<path d="M362.57 3.77997H358.79V7.56H362.57V3.77997Z" fill="#567C89"/>
<path d="M343.68 3.77997H339.9V15.12H343.68V3.77997Z" fill="#567C89"/>
<path d="M347.45 3.77997H343.67V7.56H347.45V3.77997Z" fill="#567C89"/>
<path d="M351.23 7.56H347.45V11.34H351.23V7.56Z" fill="#A7C0C6"/>
<path d="M355.01 18.9H347.45V22.68H355.01V18.9Z" fill="#A7C0C6"/>
</svg>
