<svg width="90" height="21" viewBox="0 0 90 21" fill="none" xmlns="http://www.w3.org/2000/svg">
<path d="M35.5229 7.17763C36.0714 7.50935 36.5357 7.96539 36.8312 8.5872C37.1689 9.20901 37.3376 9.95516 37.3376 10.7843C37.3376 11.6134 37.1689 12.3185 36.789 12.9403C36.4513 13.5621 35.9448 14.018 35.3117 14.3082C34.6787 14.6398 33.919 14.8057 33.1172 14.8057C32.653 14.8057 32.2309 14.7228 31.8089 14.5571C31.3868 14.4325 31.0069 14.1839 30.7115 13.8937V18.2051H28.2637V6.84605H30.3738L30.5849 7.75812C31.5134 7.012 32.5263 6.63878 33.5814 6.63878C34.2988 6.63878 34.9742 6.80455 35.5229 7.17763ZM34.1723 12.3185C34.5943 11.9452 34.8053 11.4477 34.8053 10.8259C34.8053 10.2041 34.5943 9.70657 34.2146 9.292C33.8346 8.87746 33.3282 8.71151 32.7795 8.71151C32.3154 8.71151 31.8933 8.79447 31.5556 9.00174C31.2179 9.16767 30.9648 9.45778 30.7539 9.83085V11.6963C30.8802 12.0696 31.1335 12.3598 31.4289 12.5671C31.7666 12.7743 32.1464 12.8986 32.6107 12.8986C33.2438 12.8986 33.7501 12.6913 34.1723 12.3185Z" fill="white"/>
<path d="M38.7716 8.62781C39.1515 8.04746 39.6578 7.54996 40.3331 7.21838C41.0085 6.88665 41.7682 6.67938 42.6123 6.67938C43.4562 6.67938 44.216 6.84519 44.8913 7.21838C45.5243 7.54996 46.0309 8.04749 46.4108 8.6693C46.7904 9.29111 46.9592 9.95457 46.9592 10.7421C46.9592 11.5298 46.7904 12.193 46.4108 12.8148C46.0309 13.4366 45.5665 13.9341 44.8913 14.266C44.2582 14.5976 43.4562 14.8049 42.6123 14.8049C41.7682 14.8049 41.0085 14.6389 40.3331 14.3074C39.6579 13.9758 39.1515 13.5196 38.7716 12.8978C38.434 12.276 38.2231 11.5712 38.2231 10.7421C38.2231 9.95457 38.434 9.24965 38.7716 8.62781ZM41.2617 12.2346C41.5994 12.6491 42.0636 12.8148 42.6123 12.8148C43.1609 12.8148 43.6251 12.6075 43.9628 12.2346C44.3005 11.8614 44.4693 11.3225 44.4693 10.7421C44.4693 10.1202 44.3005 9.62272 43.9628 9.24964C43.5829 8.8351 43.1609 8.62784 42.5701 8.62784C42.0213 8.62784 41.5994 8.8351 41.2196 9.20818C40.8819 9.62272 40.713 10.1203 40.713 10.7421C40.713 11.3225 40.8819 11.8201 41.2617 12.2346Z" fill="white"/>
<path d="M50.9262 0.958847V14.5979H48.4785V0.958847H50.9262Z" fill="white"/>
<path d="M60.97 7.05276L55.9899 18.2462H53.6267L55.4834 14.2247L51.9385 7.0528H54.7239L56.7498 11.5302L58.7753 7.0528H60.97V7.05276Z" fill="white"/>
<path d="M70.338 7.05246V14.5976C70.338 15.3024 70.127 15.9656 69.7049 16.546C69.2831 17.1265 68.734 17.5824 68.0167 17.914C67.2994 18.2459 66.5396 18.4115 65.6956 18.4115C65.0625 18.4115 64.514 18.3288 64.0497 18.2042C63.5854 18.0383 63.2055 17.8726 62.91 17.7067C62.5726 17.4994 62.2349 17.2508 61.855 16.9192L63.2899 15.2608C63.6276 15.5923 64.0075 15.8412 64.3452 16.0072C64.6826 16.1728 65.1469 16.2971 65.6534 16.2971C66.2863 16.2971 66.7929 16.1315 67.215 15.8412C67.6371 15.551 67.8479 15.0951 67.8479 14.5563V13.4783C67.5946 13.8515 67.2572 14.1831 66.7506 14.4317C66.2444 14.6806 65.6534 14.8049 64.978 14.8049C64.3029 14.8049 63.6275 14.639 63.0366 14.266C62.4459 13.9342 61.9816 13.4367 61.6017 12.8148C61.264 12.193 61.0532 11.5299 61.0532 10.7837C61.0532 10.0373 61.2221 9.33264 61.6017 8.7108C61.9816 8.08884 62.4459 7.59146 63.0788 7.21841C63.6698 6.84519 64.3029 6.67941 64.978 6.67941C65.6112 6.67941 66.1597 6.76223 66.6662 6.92818C67.1727 7.09398 67.5526 7.34272 67.8056 7.63298L68.0589 7.05249H70.338V7.05246ZM67.8479 11.6958V9.82999C67.679 9.45692 67.426 9.16684 67.0461 8.95956C66.6662 8.75229 66.2444 8.62784 65.7378 8.62784C65.1469 8.62784 64.6406 8.83511 64.2185 9.20818C63.7964 9.5814 63.5853 10.0789 63.5853 10.7007C63.5853 11.2812 63.7964 11.8201 64.2185 12.2346C64.6406 12.6492 65.1469 12.8564 65.7378 12.8564C66.7085 12.8148 67.426 12.4419 67.8479 11.6958Z" fill="white"/>
<path d="M72.3639 8.6287C72.7438 8.00689 73.2503 7.55085 73.9254 7.17763C74.6008 6.84605 75.3603 6.63878 76.2046 6.63878C77.0488 6.63878 77.8083 6.80458 78.4834 7.17763C79.1166 7.50936 79.6231 8.00686 80.003 8.6287C80.3404 9.25051 80.5515 9.91382 80.5515 10.7016C80.5515 11.4894 80.3826 12.1525 80.003 12.7743C79.6653 13.3962 79.1588 13.8937 78.4834 14.2253C77.8505 14.5571 77.0488 14.7644 76.2046 14.7644C75.3603 14.7644 74.6008 14.5985 73.9254 14.2666C73.2503 13.935 72.7438 13.4791 72.3639 12.8573C71.984 12.2355 71.8154 11.5307 71.8154 10.66C71.8154 9.95516 71.984 9.25051 72.3639 8.6287ZM74.8119 12.2355C75.1496 12.65 75.6136 12.8157 76.1624 12.8157C76.7111 12.8157 77.1752 12.6084 77.5128 12.2355C77.8505 11.8622 78.0194 11.3234 78.0194 10.7429C78.0194 10.1211 77.8505 9.62358 77.5128 9.25051C77.1752 8.87743 76.7111 8.67016 76.1624 8.67016C75.6136 8.67016 75.1918 8.87743 74.8119 9.25051C74.432 9.62358 74.2631 10.1624 74.2631 10.7429C74.3053 11.3234 74.4742 11.8206 74.8119 12.2355Z" fill="white"/>
<path d="M89.2029 7.30122C89.7095 7.71576 89.92 8.25476 89.9619 8.91792V14.5976H87.4722V9.82999C87.43 9.08387 87.0501 8.7108 86.3325 8.7108C85.7838 8.7108 85.3197 8.95957 84.9821 9.49841C84.6444 10.0373 84.4758 10.7007 84.4758 11.4882V14.5976H82.0278V7.05246H84.2648L84.4336 8.25476C84.7288 7.75726 85.1087 7.38404 85.6153 7.09395C86.1215 6.80372 86.7125 6.67941 87.3879 6.67941C88.1052 6.67938 88.7383 6.88665 89.2029 7.30122Z" fill="white"/>
<path d="M17.7976 6.92901C17.3756 6.68039 16.827 6.68039 16.3628 6.92901L13.0712 8.83612L10.8346 10.0798L7.5429 11.9869C7.12094 12.2355 6.57223 12.2355 6.10803 11.9869L3.49159 10.4943C3.06951 10.2454 2.77423 9.7895 2.77423 9.292V6.34869C2.77423 5.85119 3.02748 5.39516 3.49159 5.14639L6.06589 3.69547C6.48779 3.4467 7.03652 3.4467 7.50063 3.69547L10.0749 5.14639C10.497 5.39516 10.7923 5.85119 10.7923 6.34869V8.25565L13.0289 6.97053V5.06358C13.0289 4.56607 12.7758 4.11004 12.3117 3.86127L7.54287 1.12523C7.12091 0.876468 6.5722 0.876468 6.10801 1.12523L1.25489 3.86127C0.790845 4.11001 0.537598 4.56605 0.537598 5.06355V10.5773C0.537598 11.0748 0.790846 11.5307 1.25495 11.7796L6.10807 14.5158C6.53003 14.7644 7.07873 14.7644 7.54293 14.5158L10.8346 12.65L13.0712 11.3648L16.3629 9.49927C16.7849 9.25066 17.3335 9.25066 17.7977 9.49927L20.3721 10.9502C20.7941 11.1991 21.0894 11.655 21.0894 12.1525V15.096C21.0894 15.5935 20.8362 16.0493 20.3721 16.298L17.7977 17.7908C17.3756 18.0394 16.827 18.0394 16.3629 17.7908L13.7888 16.3396C13.3667 16.0907 13.0712 15.6348 13.0712 15.1373V13.2305L10.8346 14.5157V16.4225C10.8346 16.9198 11.0879 17.3759 11.552 17.6248L16.4051 20.3607C16.8271 20.6096 17.3756 20.6096 17.8399 20.3607L22.6932 17.6248C23.1151 17.3759 23.4105 16.9198 23.4105 16.4225V10.9088C23.4105 10.4113 23.1573 9.9554 22.6932 9.70663L17.7976 6.92901Z" fill="white"/>
</svg>
