<svg width="103" height="30" viewBox="0 0 103 30" fill="none" xmlns="http://www.w3.org/2000/svg">
<g clip-path="url(#clip0_16_6470)">
<path d="M0 14.8044C0.0022057 12.8355 0.373462 10.8868 1.0921 9.07197C1.81073 7.25719 2.86235 5.61272 4.18555 4.23457C5.50875 2.85642 7.07703 1.77221 8.79884 1.04521C10.5206 0.318214 12.3615 -0.0369918 14.2139 0.000328931C17.8927 0.0715716 21.3962 1.68424 23.9616 4.4873C26.527 7.29035 27.9467 11.0569 27.9117 14.9669C27.8906 16.9278 27.504 18.8648 26.774 20.6659C26.0441 22.467 24.9854 24.0963 23.6591 25.4598C22.3329 26.8233 20.7654 27.8938 19.0474 28.6094C17.3293 29.325 15.4949 29.6715 13.65 29.6289C10.0031 29.5439 6.53236 27.9449 3.98109 25.1741C1.42982 22.4033 0.000789402 18.6811 0 14.8044ZM13.7424 7.28897C11.6622 7.28897 9.58209 7.28897 7.50194 7.28897C7.32673 7.28897 7.25984 7.31944 7.26302 7.52933C7.26302 8.48738 7.26302 9.44204 7.26302 10.3967C7.26302 10.5863 7.29806 10.6506 7.49238 10.6506C8.92587 10.6506 10.3594 10.6506 11.7897 10.6506C11.984 10.6506 12.0222 10.7115 12.019 10.9011C12.019 11.4868 12.019 12.0725 12.019 12.6615C12.019 12.8172 11.9872 12.8646 11.8311 12.8714C10.4764 12.9258 9.12837 13.1013 7.80138 13.3961C7.07381 13.5238 6.37297 13.7862 5.73078 14.1714C5.09367 14.5878 5.09367 15.0583 5.73078 15.4815C6.21175 15.779 6.73441 15.9927 7.27895 16.1146C8.73028 16.4846 10.2123 16.7023 11.7037 16.7645C12.0222 16.7849 12.0222 16.7645 12.0222 17.1031C12.0222 19.2765 12.0222 21.4465 12.0222 23.6199C12.0222 23.7857 12.0541 23.8399 12.2229 23.8365C13.2168 23.8365 14.2139 23.8365 15.2077 23.8365C15.4116 23.8365 15.4658 23.7891 15.4658 23.5657C15.4658 21.372 15.4658 19.1648 15.4658 16.9846C15.4658 16.8492 15.4658 16.7578 15.6378 16.7544C16.5573 16.7219 17.4743 16.6314 18.3837 16.4836C19.3037 16.3632 20.2084 16.1362 21.0819 15.8065C21.4407 15.6868 21.768 15.4792 22.0375 15.2005C22.09 15.1507 22.1319 15.0896 22.1606 15.0214C22.1893 14.9531 22.2042 14.8792 22.2042 14.8044C22.2042 14.7297 22.1893 14.6558 22.1606 14.5875C22.1319 14.5192 22.09 14.4582 22.0375 14.4084C21.8998 14.2557 21.7381 14.1297 21.5597 14.036C21.1166 13.7978 20.6481 13.6171 20.1644 13.4977C18.6925 13.123 17.1887 12.9075 15.676 12.8545C15.4913 12.8545 15.453 12.7868 15.4562 12.604C15.469 12.0262 15.469 11.4473 15.4562 10.8673C15.4562 10.6811 15.4913 10.6235 15.6792 10.6269C17.1159 10.6269 18.5462 10.6269 19.9924 10.6269C20.1581 10.6269 20.2122 10.5897 20.209 10.4035C20.209 9.44205 20.209 8.4806 20.209 7.51578C20.209 7.31604 20.1581 7.26527 19.9733 7.26865C17.8868 7.29235 15.813 7.28897 13.7424 7.28897Z" fill="white"/>
<path d="M69.4642 13.2773C69.6695 13.0182 69.8897 12.7728 70.1237 12.5427C70.8037 11.9061 71.6603 11.5223 72.564 11.4492C73.5307 11.3282 74.5103 11.4825 75.4025 11.8961C76.5908 12.4818 77.2694 13.5177 77.6325 14.8109C77.8566 15.5944 77.9694 16.4091 77.967 17.228C77.967 19.4623 77.967 21.7001 77.967 23.9378C77.967 24.0833 77.9384 24.1375 77.7886 24.1375C76.938 24.1375 76.0842 24.1375 75.24 24.1375C75.0775 24.1375 75.0521 24.08 75.0521 23.9242C75.0521 21.8253 75.0521 19.7264 75.0521 17.6275C75.0586 17.1782 75.0105 16.7298 74.9087 16.2936C74.7935 15.7206 74.4943 15.208 74.0625 14.8436C73.6306 14.4792 73.093 14.2857 72.5417 14.2963C71.7938 14.2609 71.0615 14.5303 70.4943 15.0494C69.927 15.5684 69.5677 16.2981 69.4897 17.0892C69.4599 17.3396 69.4461 17.5918 69.4483 17.8441C69.4483 19.8753 69.4483 21.8863 69.4483 23.9039C69.4483 24.1003 69.4005 24.1443 69.2221 24.1409C68.3906 24.1409 67.5591 24.1409 66.7276 24.1409C66.5779 24.1409 66.5142 24.1172 66.5142 23.931C66.5142 18.133 66.5142 12.3339 66.5142 6.53371C66.5142 6.36445 66.5619 6.33397 66.7117 6.33397C67.5559 6.33397 68.4033 6.33397 69.2603 6.33397C69.426 6.33397 69.461 6.38476 69.461 6.55402C69.461 8.70372 69.461 10.8534 69.461 12.9862L69.4642 13.2773Z" fill="white"/>
<path d="M91.4002 15.6979C90.9255 13.5956 89.7595 12.1568 87.7811 11.5305C86.5599 11.1443 85.2663 11.0942 84.0219 11.3849C81.9862 11.8521 80.5175 13.0776 79.7593 15.163C79.283 16.4922 79.1779 17.9392 79.4567 19.3303C79.8549 21.5308 80.9954 23.1151 82.9897 23.9344C84.5064 24.543 86.1628 24.6399 87.7333 24.212C88.8599 23.961 89.9027 23.394 90.7534 22.5701C90.8777 22.4482 90.8554 22.3839 90.7534 22.2722C90.2501 21.7542 89.7499 21.2261 89.2497 20.7048C89.0395 20.4813 89.0395 20.4813 88.7974 20.6811C88.7136 20.7545 88.624 20.8202 88.5298 20.8774C87.909 21.2684 87.2182 21.517 86.5017 21.6074C85.7851 21.6977 85.0587 21.6278 84.3691 21.4022C83.8756 21.272 83.4262 20.9975 83.072 20.6098C82.7178 20.222 82.473 19.7366 82.3653 19.2085C82.3207 19.0121 82.3653 18.9681 82.55 18.9681C84.0187 18.9681 85.4842 18.9681 86.9496 18.9681H91.3778C91.4734 18.9681 91.5754 19.0053 91.5881 18.8259C91.6785 17.7792 91.6151 16.7239 91.4002 15.6979ZM88.5648 16.4054H85.5606C84.5666 16.4054 83.5727 16.4054 82.5787 16.4054C82.4003 16.4054 82.3939 16.3512 82.4449 16.1989C82.6196 15.6306 82.9415 15.1263 83.3737 14.7436C83.8059 14.361 84.3309 14.1156 84.8884 14.0356C85.762 13.8359 86.6734 13.9551 87.4753 14.3742C87.8073 14.5533 88.0945 14.8137 88.3133 15.1339C88.532 15.4541 88.6761 15.8249 88.7336 16.2158C88.7655 16.3817 88.705 16.4088 88.5648 16.4054Z" fill="white"/>
<path d="M58.786 17.316C58.786 16.3884 58.786 15.4609 58.786 14.5367C58.786 14.3471 58.7542 14.276 58.5598 14.2828C57.9641 14.2828 57.3715 14.2828 56.779 14.2828C56.6261 14.2828 56.5687 14.2523 56.5719 14.0729C56.5719 13.3213 56.5719 12.5664 56.5719 11.8148C56.5719 11.6523 56.6069 11.605 56.763 11.6083C57.3652 11.6083 57.9641 11.6083 58.5662 11.6083C58.7478 11.6083 58.7892 11.5508 58.786 11.3646C58.786 10.4302 58.786 9.49589 58.786 8.56153C58.786 8.42274 58.8115 8.36857 58.9581 8.35503C59.7927 8.26701 60.6242 8.16544 61.4589 8.06727C61.701 8.04018 61.701 8.0368 61.701 8.30086C61.701 9.26906 61.701 10.2395 61.701 11.2123C61.701 11.605 61.701 11.605 62.061 11.605C62.9594 11.605 63.861 11.605 64.7594 11.605C64.9187 11.605 64.9696 11.6422 64.9664 11.8182C64.9664 12.5766 64.9664 13.3383 64.9664 14.1C64.9664 14.2421 64.9282 14.2794 64.7944 14.2794C63.8387 14.2794 62.8575 14.2794 61.889 14.2794C61.7106 14.2794 61.6787 14.3369 61.6819 14.5096C61.6819 16.2023 61.6819 17.9118 61.6819 19.6147C61.6764 19.842 61.6956 20.0692 61.7392 20.2917C61.8146 20.661 62.018 20.9866 62.3091 21.2037C62.6001 21.4207 62.9574 21.5134 63.3098 21.4631C63.7193 21.4379 64.1204 21.3299 64.4918 21.1449C64.6033 21.0907 64.6383 21.1212 64.6733 21.2329C64.9091 22.0183 65.1512 22.8003 65.3933 23.5823C65.4188 23.6636 65.4411 23.7346 65.3392 23.7719C63.9629 24.3034 62.5644 24.4963 61.1562 23.9784C59.8819 23.5011 59.1874 22.4482 58.9071 21.067C58.8226 20.635 58.7809 20.1947 58.7828 19.7535V17.2991L58.786 17.316Z" fill="white"/>
<path d="M36.844 17.5022C36.844 16.5611 36.844 15.62 36.844 14.6789C36.844 14.4893 36.8058 14.4182 36.6114 14.425C36.0125 14.425 35.4104 14.425 34.8115 14.425C34.6649 14.425 34.6299 14.3843 34.6299 14.232C34.6299 13.4737 34.6299 12.712 34.6299 11.9503C34.6299 11.7776 34.684 11.7539 34.8274 11.7539C35.4327 11.7539 36.0412 11.7539 36.6465 11.7539C36.7962 11.7539 36.844 11.7201 36.844 11.5542C36.844 10.6334 36.844 9.71595 36.844 8.79513C36.844 8.58186 36.8822 8.50737 37.102 8.48706C37.924 8.41258 38.7427 8.31104 39.5615 8.20948C39.7208 8.18916 39.7685 8.20947 39.7654 8.39567C39.7654 9.43835 39.7654 10.481 39.7654 11.5237C39.7654 11.7268 39.8227 11.7573 39.9947 11.7573C40.9345 11.7573 41.8775 11.7573 42.8173 11.7573C43.0053 11.7573 43.0403 11.8148 43.0372 11.9977C43.0372 12.7458 43.0372 13.4906 43.0372 14.2354C43.0372 14.3911 42.9926 14.4284 42.8524 14.4284C41.8967 14.4284 40.9409 14.4284 39.9852 14.4284C39.8163 14.4284 39.7654 14.469 39.7654 14.6552C39.7654 16.3648 39.7654 18.071 39.7654 19.7806C39.7566 20.0705 39.7932 20.3599 39.8737 20.6371C39.995 20.9839 40.2289 21.2734 40.5331 21.4533C40.8374 21.6333 41.1921 21.692 41.5335 21.6188C41.8923 21.5741 42.2425 21.4714 42.572 21.3141C42.6835 21.2566 42.725 21.2871 42.76 21.4022C42.9957 22.1842 43.2379 22.9662 43.48 23.7516C43.5055 23.8328 43.5278 23.8938 43.4226 23.9344C42.0687 24.4659 40.6924 24.6453 39.3002 24.1612C37.9909 23.7076 37.2964 22.6615 37.0033 21.2735C36.9077 20.7917 36.8628 20.3 36.8695 19.8077C36.8472 19.0324 36.844 18.2707 36.844 17.5022Z" fill="white"/>
<path d="M96.1304 13.0234L96.3151 12.7526C96.5789 12.3543 96.9198 12.0205 97.3148 11.7735C97.7098 11.5266 98.15 11.3721 98.6057 11.3206C99.6717 11.1468 100.762 11.3352 101.721 11.8589C101.961 11.9965 102.187 12.1611 102.394 12.3497C102.412 12.3607 102.428 12.3758 102.441 12.394C102.454 12.4121 102.463 12.4329 102.467 12.455C102.472 12.4771 102.472 12.5 102.467 12.5221C102.463 12.5443 102.454 12.5651 102.441 12.5833C102.043 13.389 101.645 14.1981 101.256 15.0072C101.189 15.146 101.142 15.119 101.049 15.0411C99.9788 14.1575 98.8032 14.1372 97.6149 14.6687C96.6433 15.1054 96.2451 16.0025 96.1495 17.0723C96.1304 17.289 96.1495 17.509 96.1495 17.7257C96.1495 19.7806 96.1495 21.8355 96.1495 23.8937C96.1495 24.0698 96.1113 24.1273 95.936 24.124C95.0918 24.124 94.2476 24.124 93.3874 24.124C93.2472 24.124 93.2026 24.0867 93.2026 23.931C93.2026 19.8686 93.2026 15.8141 93.2026 11.7674C93.2026 11.6253 93.2409 11.588 93.3747 11.588C94.1647 11.588 94.9676 11.588 95.7481 11.588C95.8914 11.588 95.9297 11.6422 95.9456 11.781C95.9966 12.1839 96.0635 12.5799 96.1304 13.0234Z" fill="white"/>
<path d="M13.7426 7.28871C15.8132 7.28871 17.8838 7.28871 19.9608 7.28871C20.1456 7.28871 20.1965 7.3361 20.1965 7.53583C20.1965 8.50066 20.1965 9.46211 20.1965 10.4235C20.1965 10.6097 20.1456 10.6504 19.9799 10.647C18.5432 10.647 17.1129 10.647 15.6667 10.647C15.4788 10.647 15.4405 10.7011 15.4437 10.8873C15.4565 11.4674 15.4565 12.0463 15.4437 12.624C15.4437 12.8068 15.4788 12.8644 15.6635 12.8745C17.1762 12.9275 18.68 13.143 20.1519 13.5178C20.6356 13.6371 21.1041 13.8178 21.5472 14.056C21.7256 14.1497 21.8873 14.2757 22.025 14.4284C22.0775 14.4783 22.1194 14.5393 22.1481 14.6076C22.1768 14.6758 22.1917 14.7497 22.1917 14.8245C22.1917 14.8993 22.1768 14.9732 22.1481 15.0414C22.1194 15.1097 22.0775 15.1707 22.025 15.2206C21.7555 15.4993 21.4282 15.7069 21.0694 15.8266C20.1959 16.1562 19.2912 16.3833 18.3712 16.5036C17.4618 16.6515 16.5448 16.7419 15.6253 16.7745C15.4533 16.7745 15.4533 16.8692 15.4533 17.0047C15.4533 19.1984 15.4533 21.4056 15.4533 23.5858C15.4533 23.8092 15.3991 23.8566 15.1952 23.8566C14.2014 23.8566 13.2043 23.8566 12.2104 23.8566C12.0416 23.8566 12.0097 23.8058 12.0097 23.6399C12.0097 21.4665 12.0097 19.2965 12.0097 17.1231C12.0097 16.7846 12.0097 16.7846 11.6912 16.7846C10.2034 16.7148 8.72572 16.4903 7.27919 16.1143C6.7328 15.9885 6.20899 15.7702 5.72783 15.4677C5.09072 15.0445 5.09072 14.574 5.72783 14.1576C6.37003 13.7724 7.07086 13.51 7.79843 13.3823C9.12542 13.0875 10.4734 12.912 11.8281 12.8576C11.9842 12.8576 12.0193 12.8034 12.0161 12.6477C12.0161 12.0587 12.0161 11.473 12.0161 10.8873C12.0161 10.6978 11.981 10.6334 11.7867 10.6368C10.3532 10.6368 8.91974 10.6368 7.48943 10.6368C7.29512 10.6368 7.26008 10.5725 7.26008 10.3829C7.26008 9.42825 7.26008 8.47358 7.26008 7.51552C7.26008 7.30563 7.32379 7.27518 7.49899 7.27518C9.58233 7.2921 11.6625 7.28871 13.7426 7.28871ZM13.8541 16.2125C14.9411 16.2247 16.0278 16.175 17.1098 16.0635C18.0775 15.9796 19.0367 15.8075 19.9767 15.549C20.3553 15.4571 20.7177 15.3017 21.0503 15.0885C21.4739 14.794 21.4676 14.4826 21.0503 14.188C20.8437 14.0418 20.6184 13.9277 20.3813 13.8495C18.8101 13.3898 17.191 13.1407 15.5616 13.1081C15.4119 13.1081 15.4373 13.1961 15.4373 13.2876C15.4373 13.9646 15.4373 14.662 15.4373 15.3492C15.4373 15.5049 15.4023 15.5693 15.2494 15.576C14.2205 15.6167 13.1915 15.6234 12.1626 15.576C12.0288 15.576 11.997 15.5185 11.997 15.3831C11.997 14.6857 11.997 13.9917 11.997 13.2977C11.997 13.142 11.9556 13.1081 11.8122 13.1115C11.105 13.1454 10.3978 13.2097 9.69382 13.2977C8.79914 13.3926 7.91557 13.582 7.0562 13.863C6.80211 13.9384 6.55962 14.0524 6.33627 14.2016C5.95082 14.4826 5.954 14.7872 6.33627 15.0682C6.48529 15.1719 6.64443 15.2582 6.81091 15.3255C7.37328 15.5454 7.95486 15.7054 8.54703 15.8029C10.3012 16.1058 12.0772 16.2428 13.8541 16.2125Z" fill="#202128"/>
<path d="M13.8543 16.2124C12.0849 16.2436 10.3163 16.1087 8.56911 15.8095C7.97689 15.712 7.39527 15.5521 6.83286 15.3322C6.66636 15.2649 6.50721 15.1786 6.35818 15.0749C5.9727 14.7939 5.96951 14.4892 6.35818 14.2082C6.58154 14.0591 6.82405 13.945 7.07816 13.8697C7.93567 13.5797 8.81825 13.3813 9.71281 13.2773C10.4169 13.1893 11.1241 13.1249 11.8314 13.0911C11.9747 13.0911 12.0193 13.1216 12.0161 13.2773C12.0161 13.9713 12.0161 14.6653 12.0161 15.3626C12.0161 15.4981 12.048 15.5455 12.1818 15.5556C13.2108 15.6098 14.2398 15.603 15.2688 15.5556C15.4217 15.5556 15.4568 15.4845 15.4568 15.3288C15.4568 14.6517 15.4568 13.9543 15.4568 13.2671C15.4568 13.1757 15.4313 13.0775 15.581 13.0877C17.21 13.125 18.8282 13.3786 20.3979 13.8426C20.635 13.9209 20.8603 14.0349 21.0669 14.1812C21.4906 14.4757 21.497 14.7871 21.0669 15.0817C20.7344 15.2948 20.3719 15.4502 19.9933 15.5421C19.0532 15.8006 18.094 15.9728 17.1261 16.0567C16.0389 16.171 14.9468 16.223 13.8543 16.2124Z" fill="white"/>
<path d="M56.2863 15.7554C55.8498 13.7242 54.7794 12.299 52.9062 11.6151C51.6133 11.1483 50.2242 11.0698 48.8921 11.3883C47.9878 11.5539 47.1362 11.955 46.4135 12.5558C45.6908 13.1566 45.1194 13.9384 44.7505 14.8312C44.1564 16.2672 44.0101 17.8674 44.3332 19.398C44.7378 21.5647 45.8783 23.1219 47.8376 23.931C49.3648 24.5474 51.0343 24.6456 52.6162 24.212C53.7488 23.9577 54.7962 23.3848 55.6491 22.5532C55.7447 22.455 55.7479 22.4042 55.6491 22.3026C55.1362 21.7745 54.6297 21.2363 54.1199 20.7014C53.9097 20.4813 53.9097 20.4813 53.6835 20.6675C53.5834 20.7535 53.4769 20.8304 53.3649 20.8977C52.7504 21.2772 52.0688 21.5178 51.3628 21.6046C50.6567 21.6914 49.9414 21.6225 49.2616 21.4022C48.7746 21.2749 48.3304 21.0066 47.9783 20.6271C47.6262 20.2476 47.3801 19.7717 47.2673 19.2525C47.2036 18.9749 47.2036 18.9715 47.4648 18.9715H56.2417C56.3627 18.9715 56.4424 18.9715 56.4519 18.7988C56.5402 17.7812 56.4843 16.7554 56.2863 15.7554ZM53.4477 16.4054H50.4404C49.4496 16.4054 48.462 16.4054 47.4712 16.4054C47.2896 16.4054 47.2705 16.3546 47.3278 16.1853C47.5037 15.6204 47.8254 15.1192 48.2563 14.7392C48.6873 14.3591 49.21 14.1153 49.765 14.0356C50.6396 13.8362 51.552 13.9554 52.355 14.3742C52.6909 14.5517 52.9819 14.8121 53.2037 15.1337C53.4254 15.4553 53.5713 15.8287 53.6293 16.2226C53.6484 16.4054 53.5752 16.4054 53.4477 16.4054Z" fill="white"/>
</g>
<defs>
<clipPath id="clip0_16_6470">
<rect width="102.469" height="29.6319" fill="white"/>
</clipPath>
</defs>
</svg>
