<svg width="66" height="18" viewBox="0 0 66 18" fill="none" xmlns="http://www.w3.org/2000/svg">
<path d="M32.7993 3.72364V13.6403C32.7993 13.7152 32.7431 13.7901 32.6485 13.7901H31.6096C31.1375 13.7901 30.6841 13.5457 30.4199 13.1495L25.7351 5.91478L25.8869 9.52226V13.66C25.8869 13.7349 25.8297 13.8099 25.7351 13.8099H24.3759C24.3 13.8099 24.2251 13.7547 24.2251 13.66V3.72364C24.2251 3.64874 24.2813 3.57286 24.3759 3.57286H25.396C25.8682 3.57286 26.3216 3.81827 26.5857 4.21548L31.2695 11.4305L31.1187 7.82298V3.72364C31.1187 3.64874 31.1749 3.57286 31.2695 3.57286H32.6298C32.7431 3.57286 32.7993 3.63003 32.7993 3.72364Z" fill="white"/>
<path d="M46.7367 13.7724H45.3016C45.207 13.7724 45.1321 13.6778 45.1695 13.5831L48.984 3.70495C49.0234 3.63003 49.0983 3.57286 49.1732 3.57286H50.9868C51.0815 3.57286 51.1564 3.63003 51.1761 3.70495L55.0083 13.5831C55.0477 13.6778 54.9728 13.7724 54.8782 13.7724H53.4431C53.3859 13.7724 53.3287 13.7349 53.309 13.6778L50.2299 5.55599C50.1943 5.44262 50.0051 5.44262 49.9656 5.55599L46.8885 13.6778C46.851 13.7349 46.7939 13.7724 46.7367 13.7724Z" fill="white"/>
<path d="M65.0195 13.5457L62.1473 9.88106C63.7716 9.57943 64.7179 8.4834 64.7179 6.80283C64.7179 4.87588 63.4701 3.57286 61.2405 3.57286H57.2387C57.1244 3.57286 57.0298 3.66749 57.0298 3.78081C57.0298 4.53582 57.633 5.14102 58.39 5.14102H61.0907C62.4312 5.14102 63.0738 5.82015 63.0738 6.82157C63.0738 7.82298 62.4509 8.50308 61.0907 8.50308H57.2742C57.1619 8.50308 57.0672 8.59674 57.0672 8.71006V13.6206C57.0672 13.6955 57.1244 13.7724 57.2191 13.7724H58.5793C58.6542 13.7724 58.7291 13.7152 58.7291 13.6206V9.97564H60.2982L62.79 13.2243C63.0542 13.5831 63.4701 13.7724 63.9235 13.7724H64.9624C65.0372 13.7724 65.0944 13.6403 65.0195 13.5457Z" fill="white"/>
<path d="M42.4322 3.57286H36.1043C35.99 3.57286 35.915 3.64874 35.915 3.76212C35.915 4.51713 36.538 5.14104 37.295 5.14104H42.4322C42.5071 5.14104 42.582 5.08387 42.582 4.98924V3.70495C42.5623 3.63003 42.5071 3.57286 42.4322 3.57286ZM42.4322 12.2052H37.709C37.634 12.2052 37.5592 12.148 37.5592 12.0534V9.50353C37.5592 9.42763 37.6143 9.35272 37.709 9.35272H42.0734C42.1483 9.35272 42.2233 9.29556 42.2233 9.20093V7.91662C42.2233 7.84171 42.168 7.76584 42.0734 7.76584H36.124C36.0097 7.76584 35.9151 7.86044 35.9151 7.97383V13.5457C35.9151 13.6601 36.0097 13.7547 36.124 13.7547H42.4322C42.5071 13.7547 42.582 13.6955 42.582 13.6009V12.3175C42.5623 12.2604 42.5071 12.2052 42.4322 12.2052Z" fill="white"/>
<path d="M14.1013 1.04166L10.5512 6.31197C10.3058 6.67076 10.7779 7.10543 11.1179 6.80281L14.6118 3.7621C14.7064 3.6862 14.8385 3.74337 14.8385 3.87544V13.3761C14.8385 13.5082 14.668 13.5654 14.5931 13.4708L4.01685 0.814981C3.67684 0.400032 3.18504 0.173332 2.63804 0.173332H2.25957C1.27793 0.173332 0.46582 0.985507 0.46582 1.98595V15.3593C0.46582 16.3607 1.27793 17.1729 2.27929 17.1729C2.90218 17.1729 3.48761 16.8496 3.82763 16.3035L7.37767 11.0342C7.62407 10.6755 7.15197 10.2398 6.81196 10.5414L3.31807 13.5654C3.22345 13.6403 3.09138 13.5831 3.09138 13.4511V3.96908C3.09138 3.83699 3.26091 3.78079 3.3368 3.87542L13.913 16.5302C14.253 16.9442 14.7626 17.1729 15.2918 17.1729H15.6693C16.6697 17.1729 17.4818 16.3607 17.4818 15.3593V1.98593C17.4631 0.985508 16.651 0.173309 15.6506 0.173309C15.0267 0.173309 14.4413 0.494662 14.1013 1.04166Z" fill="white"/>
</svg>
