<svg width="86" height="17" viewBox="0 0 86 17" fill="none" xmlns="http://www.w3.org/2000/svg">
<path d="M17.4158 10.6033C16.2996 15.1045 11.746 17.8485 7.24497 16.7322C2.74407 15.6162 0.000351965 11.062 1.11651 6.5608C2.23266 2.05937 6.78626 -0.684755 11.2872 0.431486C11.2947 0.433375 11.3025 0.435264 11.31 0.437343C15.799 1.56398 18.5301 6.11075 17.4158 10.6033Z" fill="white"/>
<path d="M11.1752 7.35618C10.9128 8.40591 9.31213 7.86782 8.79256 7.73934L9.25167 5.9025C9.76332 6.02852 11.4377 6.26979 11.1673 7.35618H11.1752ZM10.8892 10.3244C10.6058 11.4682 8.67976 10.8493 8.05513 10.6941L8.56149 8.6657C9.18611 8.82309 11.1856 9.13011 10.8892 10.3244ZM12.9885 7.37205C13.1538 6.25411 12.3036 5.65329 11.1516 5.25444L11.5295 3.7403L10.598 3.50942L10.2307 4.98426C9.98928 4.92399 9.74008 4.86618 9.49332 4.81101L9.86062 3.32048L8.93955 3.0896L8.56168 4.60374L7.97389 4.47262L6.70121 4.15502L6.4571 5.13919C6.4571 5.13919 7.13936 5.29657 7.12632 5.30716C7.38686 5.33871 7.57693 5.57016 7.55672 5.83202L7.12632 7.55607C7.15863 7.56344 7.19037 7.57383 7.22079 7.58763L7.12367 7.56137L6.52266 9.97825C6.46636 10.1551 6.27742 10.2524 6.10039 10.1961H6.1002C6.1002 10.2091 5.42834 10.0308 5.42834 10.0308L4.97168 11.0805L6.17086 11.3771L6.82685 11.5478L6.44633 13.0776L7.3674 13.3085L7.74528 11.7943C7.99354 11.8625 8.23784 11.9254 8.47741 11.9833L8.10482 13.5027L9.02589 13.7309L9.40641 12.2037C10.9808 12.5006 12.159 12.3821 12.6576 10.96C13.0591 9.81576 12.6367 9.15713 11.8101 8.72673C12.4135 8.58767 12.8598 8.20186 12.9883 7.37262L12.9885 7.37205Z" fill="#202128"/>
<path d="M26.934 14.3434C27.4244 14.3449 27.907 14.22 28.3353 13.9812C28.7761 13.7462 29.1638 13.4225 29.4742 13.0312C29.7977 12.6175 30.052 12.154 30.2273 11.6588C30.4123 11.1472 30.5062 10.6074 30.5054 10.0634C30.5349 9.51153 30.417 8.96172 30.1642 8.47049C29.9386 8.08997 29.5186 7.89593 28.9099 7.89593C28.6446 7.905 28.3808 7.94109 28.1226 8.00343C27.8019 8.07504 27.5053 8.22884 27.2618 8.44952L25.871 14.2646L26.0941 14.3066C26.1605 14.3228 26.2283 14.3334 26.2961 14.3381C26.3832 14.3489 26.4709 14.3532 26.5585 14.3512L26.9338 14.3432L26.934 14.3434ZM29.6972 5.25345C30.3046 5.23947 30.9077 5.36341 31.4605 5.61565C31.9404 5.84445 32.3621 6.17906 32.6939 6.59453C33.0336 7.02417 33.2834 7.51749 33.4287 8.04557C33.5878 8.62787 33.6662 9.22907 33.6622 9.83272C33.6615 11.7108 32.9335 13.5153 31.6311 14.8685C30.9997 15.5161 30.2485 16.0346 29.4191 16.3956C28.5494 16.7784 27.6087 16.9736 26.6585 16.9678H25.9866C25.6214 16.9558 25.2568 16.9245 24.895 16.8733C24.453 16.8092 24.0151 16.7218 23.583 16.6108C23.1299 16.5033 22.6901 16.3467 22.271 16.1438L25.9579 0.698177L29.2513 0.173309L27.9393 5.65513C28.2125 5.53157 28.4961 5.43238 28.7869 5.35869C29.0865 5.28576 29.3943 5.24949 29.7026 5.25119L29.6974 5.25383L29.6972 5.25345Z" fill="white"/>
<path d="M38.5949 4.12877C38.1656 4.13292 37.7471 3.99538 37.4034 3.73785C37.0391 3.44972 36.8423 2.99911 36.8786 2.53602C36.877 2.24714 36.9386 1.96128 37.0596 1.69884C37.1754 1.44321 37.338 1.21176 37.5398 1.01659C37.7414 0.825009 37.975 0.670458 38.23 0.55993C38.4953 0.446001 38.7811 0.387997 39.0697 0.38932C39.4959 0.387997 39.9104 0.526299 40.2505 0.782876C40.614 1.07157 40.8107 1.52181 40.7754 1.98471C40.7776 2.27435 40.7168 2.56096 40.597 2.82434C40.4812 3.07865 40.3193 3.30897 40.1194 3.50395C39.9184 3.69629 39.6848 3.85084 39.4292 3.96061C39.1639 4.07454 38.8781 4.13179 38.5896 4.12858H38.5949V4.12877ZM37.065 16.6697H33.916L36.5768 5.49062H39.7442L37.0648 16.6697H37.065Z" fill="white"/>
<path d="M42.4923 2.70504L45.7855 2.19604L44.9668 5.48941H48.4939L47.8585 8.08201H44.3605L43.4264 11.9815C43.3455 12.28 43.2954 12.5861 43.2767 12.895C43.2575 13.1448 43.2945 13.3957 43.3842 13.6294C43.4721 13.8391 43.6348 14.0086 43.8409 14.1044C44.1375 14.2355 44.4614 14.2952 44.7856 14.2776C45.1177 14.2788 45.4491 14.2461 45.7749 14.1805C46.1027 14.1165 46.4256 14.0288 46.7405 13.9181L46.9767 16.3427C46.5246 16.5052 46.0626 16.6395 45.5937 16.7442C45.0142 16.8672 44.4226 16.9245 43.8303 16.9148C42.8514 16.9148 42.0957 16.7678 41.5551 16.4791C41.0495 16.222 40.6445 15.8025 40.4058 15.2877C40.1729 14.7415 40.0712 14.1482 40.1094 13.5557C40.1447 12.8606 40.2439 12.1702 40.4058 11.4931L42.4921 2.69446V2.70504H42.4923Z" fill="white"/>
<path d="M48.3767 12.2057C48.3701 11.2784 48.5281 10.3567 48.8438 9.4846C49.1398 8.65989 49.5946 7.90131 50.182 7.25155C50.7743 6.60709 51.4946 6.09412 52.297 5.74497C53.1721 5.36709 54.1174 5.17834 55.0706 5.19157C55.6461 5.18477 56.2205 5.24542 56.7816 5.37238C57.2534 5.48423 57.7123 5.64426 58.1514 5.85001L57.0573 8.30884C56.7739 8.1934 56.4799 8.09402 56.1755 8.00182C55.8125 7.90074 55.4367 7.85388 55.0602 7.86276C54.1087 7.82838 53.1935 8.23062 52.5751 8.95444C51.9611 9.67675 51.6529 10.6477 51.6514 11.8673C51.6225 12.4859 51.7857 13.098 52.1184 13.6204C52.4296 14.0665 53.0038 14.2893 53.8398 14.2893C54.2406 14.2896 54.64 14.2466 55.0313 14.1608C55.3803 14.0864 55.7222 13.9802 56.0521 13.8432L56.2856 16.3731C55.8564 16.5355 55.4184 16.674 54.9737 16.7874C54.4089 16.9147 53.8312 16.9748 53.2523 16.9661C52.4838 16.9884 51.719 16.859 51.0007 16.5854C50.4297 16.3553 49.9156 16.0035 49.4945 15.5544C49.0949 15.1191 48.7996 14.5984 48.6312 14.0321C48.4531 13.4362 48.3646 12.8171 48.3688 12.1953L48.3767 12.2059V12.2057Z" fill="white"/>
<path d="M63.9161 7.87039C63.4721 7.86415 63.0381 8.00529 62.6827 8.27188C62.3224 8.55075 62.0201 8.89783 61.7932 9.29271C61.5436 9.71309 61.3562 10.1677 61.2369 10.6419C61.1215 11.0965 61.0614 11.5632 61.0586 12.0323C61.0302 12.605 61.1468 13.1752 61.3972 13.6908C61.6256 14.087 62.0348 14.2865 62.6305 14.2865C63.0753 14.2941 63.5099 14.1518 63.8639 13.8824C64.225 13.6035 64.5278 13.2564 64.7561 12.8619C65.0021 12.441 65.185 11.9866 65.2995 11.5127C65.4136 11.0572 65.4737 10.5894 65.4776 10.1193C65.5071 9.54702 65.3902 8.97624 65.1391 8.46081C64.9108 8.06726 64.4987 7.86774 63.9057 7.86774L63.9163 7.87039H63.9161ZM62.3417 16.9656C61.673 16.9811 61.0081 16.8651 60.3841 16.6244C59.859 16.4173 59.3901 16.0905 59.0143 15.6691C58.6447 15.2448 58.3664 14.7492 58.1956 14.2128C58.0101 13.6114 57.9213 12.9842 57.9332 12.355C57.9353 11.4885 58.0741 10.6275 58.3454 9.80435C58.6086 8.97586 59.0196 8.20178 59.5575 7.51877C60.0978 6.83596 60.7699 6.26839 61.5334 5.84989C62.3553 5.40797 63.2769 5.18464 64.2101 5.20165C64.8747 5.18956 65.536 5.30556 66.1572 5.54287C66.6829 5.74654 67.1545 6.06906 67.5348 6.48491C67.9021 6.9104 68.1798 7.40579 68.351 7.94124C68.5378 8.54319 68.6265 9.17141 68.6134 9.8017C68.6108 10.6674 68.4753 11.5278 68.2119 12.3524C67.9533 13.182 67.5499 13.9591 67.0205 14.6485C66.4881 15.3342 65.8187 15.9017 65.055 16.3149C64.2204 16.7591 63.2869 16.9832 62.3417 16.9656Z" fill="white"/>
<path d="M73.5852 4.12882C73.1567 4.13335 72.7386 3.99581 72.3966 3.73791C72.0321 3.44978 71.8353 2.99916 71.8717 2.53608C71.8702 2.24719 71.9318 1.96133 72.0525 1.6989C72.1651 1.44459 72.3233 1.21352 72.5196 1.01664C72.7225 0.825629 72.9568 0.671078 73.2124 0.559983C73.4769 0.446243 73.7618 0.388239 74.0498 0.389373C74.4791 0.385594 74.8983 0.524274 75.2412 0.782929C75.6047 1.07163 75.8012 1.52186 75.7661 1.98476C75.7667 2.27478 75.7039 2.5614 75.5821 2.8244C75.4683 3.07889 75.307 3.30959 75.1073 3.504C74.9062 3.69634 74.6727 3.85089 74.4171 3.96066C74.1541 4.07346 73.871 4.13071 73.585 4.12863L73.5852 4.12882ZM72.0582 16.6697H68.9092L71.5649 5.49068H74.7349L72.0582 16.6697Z" fill="white"/>
<path d="M77.0012 5.99954C77.24 5.93134 77.5051 5.84726 77.7885 5.75563C78.0719 5.6638 78.4026 5.57972 78.767 5.49319C79.167 5.40836 79.5708 5.3445 79.977 5.30161C80.4816 5.24833 80.9889 5.22282 81.4964 5.22547C83.1549 5.22547 84.2989 5.70726 84.9288 6.6714C85.306 7.2488 85.4968 7.95315 85.5013 8.78467V8.84456C85.4985 9.3853 85.4178 9.97913 85.2595 10.6259L83.8135 16.6613H80.6541L82.0579 10.7515C82.1418 10.3844 82.2102 10.0275 82.2601 9.67853C82.3147 9.37642 82.3147 9.06713 82.2601 8.7654C82.2079 8.51316 82.0685 8.28757 81.8665 8.12773C81.5865 7.94409 81.2532 7.85831 80.9192 7.88362C80.4986 7.88438 80.0792 7.92746 79.6675 8.01229L77.6049 16.6719H74.4268L77.0012 5.99954Z" fill="white"/>
</svg>
