<svg width="100" height="21" viewBox="0 0 100 21" fill="none" xmlns="http://www.w3.org/2000/svg">
<g clip-path="url(#clip0_16_6549)">
<path d="M0.874023 10.6855C1.05853 10.5765 1.18822 10.4065 1.33721 10.2586C1.86499 9.73922 2.38762 9.2147 2.90511 8.685C2.99929 8.58874 3.05178 8.58757 3.14712 8.685C3.80665 9.35495 4.47056 10.0205 5.13883 10.6817C5.2473 10.7884 5.23032 10.842 5.13266 10.939C4.46901 11.5958 3.81 12.257 3.15561 12.9229C3.04483 13.0362 2.98655 13.0207 2.88542 12.9174C2.27131 12.2929 1.65025 11.6753 1.03267 11.0543C0.983258 11.005 0.927677 10.9627 0.874796 10.9169L0.874023 10.6855Z" fill="white"/>
<path d="M31.0276 10.7166C31.3023 10.8348 31.5686 10.9717 31.8247 11.1265C32.7457 11.7029 33.0348 12.5689 32.9526 13.6017C32.8457 14.9393 31.9567 15.695 30.708 16.0242C30.1782 16.1591 29.6334 16.225 29.0869 16.2202C27.473 16.2202 25.8588 16.2183 24.245 16.2245C24.0883 16.2245 24.0563 16.1771 24.0566 16.0304C24.0605 12.6488 24.0605 9.26724 24.0566 5.88566C24.0566 5.73816 24.0875 5.68964 24.245 5.69158C25.8461 5.69857 27.4487 5.68925 29.0479 5.70051C29.7678 5.70556 30.4641 5.83598 31.1037 6.19968C32.8182 7.17394 32.787 9.69304 31.1647 10.63C31.1257 10.6494 31.0894 10.6762 31.0276 10.7166ZM27.9339 14.1832V14.1727C28.4156 14.1727 28.8989 14.1774 29.3795 14.1708C29.611 14.1623 29.8388 14.1096 30.0507 14.0155C30.4892 13.8338 30.686 13.4931 30.6872 13.0296C30.6884 12.5661 30.4421 12.2098 30.0175 12.0394C29.7411 11.9328 29.447 11.8801 29.1509 11.8842C28.2582 11.8818 27.365 11.8842 26.4718 11.8791C26.3359 11.8791 26.2989 11.9179 26.3 12.0538C26.3062 12.7051 26.3077 13.3564 26.3 14.0077C26.3 14.1595 26.3514 14.1898 26.4892 14.1878C26.9701 14.1789 27.4534 14.1832 27.9339 14.1832ZM27.7741 7.73249C27.2824 7.73249 26.8778 7.73753 26.4733 7.72977C26.3386 7.72705 26.2989 7.76859 26.3 7.90444C26.3067 8.52936 26.3067 9.15442 26.3 9.7796C26.3 9.91468 26.3359 9.95427 26.4714 9.95311C27.1712 9.94612 27.8714 9.95 28.5712 9.94806C28.8284 9.94812 29.0839 9.90738 29.3285 9.82735C29.6493 9.72177 29.9256 9.55951 30.041 9.2094C30.2668 8.52625 29.9137 7.93199 29.1853 7.7845C28.6885 7.68397 28.1867 7.75539 27.7741 7.73249Z" fill="white"/>
<path d="M69.3738 9.62124V9.82891C69.3738 11.8861 69.3715 13.9464 69.3781 16.0052C69.3781 16.1826 69.3325 16.2315 69.1553 16.228C68.5378 16.2169 67.9202 16.2169 67.3026 16.228C67.1274 16.2311 67.0787 16.1857 67.0791 16.006C67.085 12.9854 67.0864 9.96489 67.0834 6.94455C67.0834 6.58318 67.0872 6.22181 67.081 5.86044C67.0791 5.74089 67.1042 5.68965 67.2389 5.6912C67.8565 5.69819 68.4741 5.69819 69.0917 5.6912C69.2217 5.6912 69.2708 5.76883 69.3321 5.84646L73.8293 11.7747C73.9189 11.8912 74.01 12.0076 74.1342 12.1706V11.9296C74.1342 9.92245 74.1369 7.91532 74.1296 5.90818C74.1296 5.72459 74.1844 5.68693 74.3546 5.68965C74.978 5.69935 75.6018 5.69702 76.2255 5.68965C76.3583 5.68965 76.4158 5.70711 76.4155 5.86432C76.4103 9.25909 76.4103 12.6539 76.4155 16.0487C76.4155 16.2039 76.363 16.2264 76.2275 16.2245C75.6871 16.2175 75.1467 16.2187 74.6063 16.2245C74.5562 16.2276 74.5062 16.2172 74.4614 16.1944C74.4167 16.1716 74.3787 16.1373 74.3516 16.0948C72.7443 13.9742 71.135 11.8554 69.5236 9.73846C69.4896 9.69344 69.4526 9.65074 69.4171 9.60726L69.3738 9.62124Z" fill="white"/>
<path d="M48.7094 12.1741V9.13644C48.7094 8.05233 48.7121 6.96861 48.7063 5.8845C48.7063 5.737 48.738 5.68654 48.8951 5.69042C49.5315 5.69974 50.1678 5.69974 50.8042 5.69042C50.9671 5.68771 50.9899 5.7471 50.9895 5.88916C50.9859 8.9478 50.985 12.0062 50.9868 15.0643C50.9868 15.3934 50.981 15.7242 50.9899 16.0518C50.9933 16.1829 50.9613 16.2295 50.8216 16.2272C50.275 16.219 49.7285 16.221 49.1823 16.2272C49.1321 16.2306 49.0819 16.2206 49.0368 16.1981C48.9917 16.1757 48.9534 16.1417 48.9256 16.0995C48.0203 14.9024 47.1134 13.7068 46.2047 12.5126C45.492 11.5735 44.779 10.635 44.066 9.69693C44.0362 9.65811 44.017 9.60532 43.9359 9.58863V9.79552C43.9359 11.8667 43.9332 13.9379 43.9401 16.0091C43.9401 16.1919 43.8861 16.2311 43.7147 16.2284C43.0913 16.2183 42.468 16.221 41.8442 16.2284C41.7107 16.2284 41.6539 16.209 41.6543 16.0529C41.6589 12.6589 41.6589 9.26491 41.6543 5.87091C41.6543 5.71759 41.7064 5.69159 41.8431 5.69314C42.4218 5.70013 43.0008 5.70013 43.58 5.69314C43.7275 5.6912 43.8232 5.73195 43.9158 5.855C45.449 7.88503 46.9855 9.91274 48.5253 11.9381C48.574 11.9998 48.6249 12.0666 48.7094 12.1741Z" fill="white"/>
<path d="M91.7329 10.958C91.7329 9.27383 91.7352 7.58964 91.729 5.90545C91.729 5.73971 91.7634 5.68847 91.9386 5.68886C94.4393 5.69559 96.94 5.69559 99.4407 5.68886C99.6059 5.68886 99.6414 5.73893 99.6387 5.89497C99.6295 6.44343 99.6279 6.99189 99.6387 7.54034C99.6422 7.70841 99.6021 7.75577 99.4287 7.75499C97.6995 7.74801 95.9703 7.75499 94.241 7.74646C94.0546 7.74646 94.0025 7.79731 94.0063 7.98323C94.0183 8.55071 94.0172 9.11857 94.0063 9.68644C94.0033 9.85296 94.0588 9.88829 94.214 9.8879C95.7248 9.88246 97.2355 9.88789 98.7463 9.88051C98.9242 9.88051 98.9752 9.92826 98.9717 10.1072C98.9601 10.6553 98.9617 11.2041 98.9717 11.7522C98.9744 11.9129 98.9273 11.9591 98.7664 11.9587C97.256 11.9529 95.7452 11.9587 94.2345 11.9517C94.0658 11.9517 94.0029 11.9835 94.006 12.171C94.0191 12.7645 94.0172 13.3584 94.006 13.9518C94.0033 14.1226 94.05 14.1684 94.221 14.168C95.9502 14.1614 97.6798 14.168 99.4091 14.1591C99.5982 14.1591 99.643 14.2088 99.6387 14.392C99.6256 14.9467 99.6306 15.5017 99.6364 16.0564C99.6364 16.1783 99.6102 16.2225 99.4785 16.2225C96.9524 16.2187 94.4259 16.2187 91.8992 16.2225C91.7363 16.2225 91.7294 16.1531 91.7298 16.0265C91.7334 14.3378 91.7344 12.6483 91.7329 10.958Z" fill="white"/>
<path d="M53.479 16.2221C53.5743 15.9931 53.6593 15.7866 53.7461 15.5813C55.1274 12.3265 56.5076 9.07147 57.8866 5.81617C57.9526 5.66091 58.0294 5.6089 58.1954 5.61239C58.7675 5.62404 59.3399 5.62054 59.9119 5.61433C60.0439 5.61433 60.1161 5.645 60.1721 5.77736C61.617 9.19309 63.065 12.6088 64.516 16.0246C64.5998 16.2221 64.5982 16.2237 64.3902 16.2237C63.7085 16.2237 63.0269 16.2214 62.3444 16.2268C62.2232 16.2268 62.1661 16.1907 62.1202 16.075C61.85 15.3923 61.5667 14.7165 61.2957 14.0326C61.2463 13.9084 61.1907 13.8575 61.0487 13.8579C59.6848 13.8646 58.3216 13.8646 56.9591 13.8579C56.8309 13.8579 56.7703 13.8928 56.7213 14.017C56.4511 14.6998 56.1674 15.3756 55.8957 16.0587C55.8494 16.1752 55.8007 16.2287 55.6641 16.2272C54.9477 16.2198 54.2286 16.2221 53.479 16.2221ZM59.0075 8.40205C58.5312 9.5665 58.0781 10.6797 57.6203 11.8011H60.3963C59.9355 10.6735 59.4819 9.56262 59.0075 8.40205Z" fill="white"/>
<path d="M84.7365 5.52003C85.8315 5.52003 86.7888 5.69431 87.6766 6.17251C88.0985 6.39958 88.4706 6.69419 88.8237 7.01674C88.9156 7.10058 88.9395 7.15648 88.8426 7.26361C88.415 7.74492 87.994 8.23218 87.5797 8.72539C87.4898 8.83252 87.443 8.8073 87.3558 8.73316C86.8834 8.32987 86.3796 7.9751 85.7775 7.79072C83.9425 7.22868 82.1237 8.35199 81.8153 10.2543C81.6223 11.4456 81.8639 12.5301 82.7278 13.4154C83.4446 14.1502 84.3405 14.347 85.3305 14.2306C86.1284 14.1374 86.7587 13.717 87.3454 13.2113C87.5546 13.0312 87.5527 13.0277 87.743 13.221C88.1313 13.6157 88.5149 14.0132 88.909 14.4041C88.9951 14.4898 89.0063 14.5415 88.916 14.6369C87.8877 15.7257 86.6437 16.3215 85.1371 16.3895C83.8209 16.4488 82.6093 16.169 81.5355 15.3911C80.2617 14.4673 79.56 13.1985 79.3797 11.6392C79.2187 10.2477 79.5082 8.95556 80.3111 7.80197C81.2101 6.50981 82.4572 5.78359 84.0093 5.56661C84.2841 5.52896 84.5609 5.54138 84.7365 5.52003Z" fill="white"/>
<path d="M16.7352 14.6505C16.7085 14.68 16.6804 14.7142 16.6491 14.7456C14.6934 16.7071 12.7386 18.6692 10.7847 20.6319C10.6971 20.7201 10.6531 20.7096 10.5724 20.6273C8.61908 18.664 6.66339 16.7029 4.70539 14.7441C4.60966 14.6486 4.62819 14.6004 4.71272 14.517C5.37997 13.8548 6.04413 13.1893 6.70521 12.5203C6.81714 12.4066 6.87466 12.4245 6.9754 12.5269C8.15923 13.7205 9.34963 14.9079 10.5315 16.1034C10.6527 16.226 10.711 16.2198 10.8291 16.1034C12.0068 14.9125 13.1926 13.7302 14.3706 12.5401C14.4864 12.4237 14.547 12.4074 14.6717 12.5347C15.3194 13.1984 15.9786 13.8509 16.6329 14.5085C16.673 14.5461 16.729 14.576 16.7352 14.6505Z" fill="white"/>
<path d="M16.7496 6.9818C16.7168 7.02061 16.6921 7.05943 16.6612 7.0897C15.9842 7.76975 15.3037 8.44629 14.6313 9.13138C14.5244 9.24084 14.4769 9.18068 14.4059 9.1081C13.2196 7.91647 12.0338 6.72445 10.8486 5.53204C10.7181 5.40007 10.6533 5.39852 10.522 5.53204C9.34398 6.72251 8.15589 7.90288 6.97746 9.09295C6.86167 9.21134 6.80647 9.19892 6.69762 9.08791C6.0435 8.42158 5.38397 7.7603 4.71903 7.10406C4.62061 7.00663 4.62833 6.95967 4.72212 6.86574C6.66674 4.9211 8.60866 2.97335 10.5479 1.0225C10.6513 0.918083 10.7088 0.906051 10.8181 1.01823C12.7519 2.96468 14.6884 4.90881 16.6276 6.85061C16.6689 6.8902 16.706 6.93405 16.7496 6.9818Z" fill="white"/>
<path d="M35.8612 10.9495C35.8612 9.2653 35.8631 7.58112 35.8577 5.89692C35.8577 5.74166 35.8882 5.68654 36.055 5.68926C36.7042 5.69935 37.3538 5.69702 38.003 5.68926C38.1397 5.68926 38.1748 5.73001 38.1748 5.86393C38.1712 9.25819 38.1712 12.6523 38.1748 16.0463C38.1748 16.1771 38.1459 16.2253 38.0057 16.2237C37.3503 16.2165 36.6942 16.2165 36.0372 16.2237C35.8897 16.2257 35.8566 16.1814 35.8569 16.0389C35.8623 14.343 35.8638 12.6465 35.8612 10.9495Z" fill="white"/>
<path d="M10.6806 13.0707C10.6386 13.0319 10.6034 13.0055 10.5726 12.9741C9.88627 12.2863 9.19959 11.5986 8.51253 10.9111C8.43919 10.8381 8.42298 10.7946 8.50519 10.7116C9.19998 10.0219 9.89064 9.32896 10.5772 8.63261C10.6675 8.5414 10.7131 8.56352 10.7903 8.64193C11.4691 9.32818 12.151 10.0117 12.836 10.6925C12.9348 10.7904 12.924 10.8439 12.831 10.9363C12.1501 11.6121 11.475 12.2948 10.7976 12.9718C10.7629 13.0067 10.7223 13.037 10.6806 13.0707Z" fill="white"/>
<path d="M20.5469 10.79C20.5497 10.854 20.5049 10.8773 20.4748 10.9064C19.7977 11.5864 19.1208 12.2666 18.4441 12.9469C18.3619 13.0304 18.3136 13.0315 18.2302 12.9469C17.5558 12.2643 16.8784 11.5846 16.198 10.9079C16.1208 10.8303 16.1165 10.7884 16.1957 10.71C16.8814 10.03 17.5645 9.34693 18.2449 8.66094C18.3275 8.57787 18.3727 8.5965 18.4448 8.66909C19.1198 9.35068 19.7967 10.0307 20.4755 10.7092C20.5026 10.7376 20.5265 10.7671 20.5469 10.79Z" fill="white"/>
</g>
<defs>
<clipPath id="clip0_16_6549">
<rect width="98.7654" height="19.7546" fill="white" transform="translate(0.874023 0.93866)"/>
</clipPath>
</defs>
</svg>
