<svg width="108" height="17" viewBox="0 0 108 17" fill="none" xmlns="http://www.w3.org/2000/svg">
<path d="M31.4785 9.37915H35.8308C36.4428 9.37915 36.9387 9.88033 36.9387 10.4923C36.9387 11.1095 36.4428 11.6054 35.8308 11.6054H30.5816C30.4972 11.6054 30.4181 11.6371 30.36 11.6898L28.7774 13.0562C28.5347 13.2672 28.6824 13.6629 28.9989 13.6629H35.567C35.567 13.6629 35.5723 13.6629 35.5723 13.6576C35.5723 13.6524 35.5776 13.6524 35.5776 13.6524C35.662 13.6576 35.7411 13.6629 35.8255 13.6629C37.5665 13.6629 38.9803 12.2438 38.9803 10.4923C38.9803 8.83049 37.7089 7.46412 36.084 7.33223C36.084 7.33223 36.0788 7.33223 36.0788 7.32696C36.0788 7.32168 36.0788 7.32168 36.0735 7.32168H31.3888C30.7768 7.32168 30.2809 6.8205 30.2809 6.20853C30.2809 5.59129 30.7768 5.09539 31.3888 5.09539H36.6274C36.7118 5.09539 36.7962 5.06374 36.8595 5.00571L38.3314 3.63933C38.5635 3.42303 38.4106 3.03792 38.0993 3.03792H31.4785C31.4521 3.03792 31.4204 3.03792 31.394 3.03792C29.6531 3.03792 28.2393 4.45705 28.2393 6.20853C28.2393 7.96002 29.6531 9.37915 31.394 9.37915C31.4204 9.37915 31.4468 9.37915 31.4785 9.37915Z" fill="white"/>
<path d="M56.8097 3.03268C56.6198 3.03268 56.4668 3.18567 56.4668 3.38087V13.32C56.4668 13.51 56.6198 13.6682 56.8097 13.6682H64.7758C64.8708 13.6682 64.9605 13.626 65.029 13.5574L66.0261 12.4865C66.2319 12.2649 66.0789 11.9009 65.7729 11.9009H58.8197C58.6298 11.9009 58.4768 11.7479 58.4768 11.5527V3.37559C58.4768 3.18567 58.3238 3.0274 58.1339 3.0274H56.8097V3.03268Z" fill="white"/>
<path fill-rule="evenodd" clip-rule="evenodd" d="M44.0543 3.03267C44.0543 3.03794 44.0543 3.03794 44.0543 3.03267C43.0361 3.08015 42.2184 3.89786 42.1709 4.91605V11.6002C42.1709 11.6266 42.1709 11.6582 42.1709 11.6846C42.1709 12.745 43.0044 13.6102 44.0543 13.6524H51.2818C52.3264 13.6049 53.1652 12.7397 53.1652 11.6846C53.1652 11.6582 53.1652 11.6266 53.1652 11.6002V4.92132C53.123 3.90314 52.3053 3.08015 51.2871 3.03794H44.0543V3.03267ZM45.4048 4.92132C45.3995 4.92132 45.3995 4.92132 45.4048 4.92132C44.7665 4.9477 44.2547 5.46471 44.2284 6.10833V10.313C44.2284 10.3288 44.2284 10.3499 44.2284 10.3657C44.2284 11.0304 44.7506 11.5791 45.4048 11.6055H49.9365C50.5907 11.5791 51.113 11.0304 51.113 10.3657C51.113 10.3499 51.113 10.3288 51.113 10.313V6.10833C51.0866 5.46471 50.5749 4.95298 49.9365 4.92132H45.4048Z" fill="white"/>
<path fill-rule="evenodd" clip-rule="evenodd" d="M77.6049 13.3201C77.6049 13.51 77.7579 13.6683 77.9478 13.6683H79.2984C79.4883 13.6683 79.6413 13.5153 79.6413 13.3201V5.09549C79.6413 5.06911 79.6413 5.03746 79.6413 5.01108C79.6413 3.95069 78.813 3.08549 77.779 3.04329H70.8416C70.8153 3.04329 70.7836 3.04329 70.7572 3.04329C69.681 3.04329 68.8105 3.92431 68.8105 5.01635C68.8105 5.04273 68.8105 5.07438 68.8105 5.10076V13.3254C68.8105 13.5153 68.9635 13.6736 69.1535 13.6736H70.504C70.6939 13.6736 70.8469 13.5206 70.8469 13.3254V9.90153C70.8469 9.71161 70.9999 9.55334 71.1898 9.55334H77.2778C77.4678 9.55334 77.6207 9.70633 77.6207 9.90153V13.3201H77.6049ZM70.8364 7.65941V5.95013C70.8364 5.28541 71.3692 4.7473 72.0234 4.7473H76.4232C77.0774 4.7473 77.6102 5.28541 77.6102 5.95013V7.65941C77.6102 7.84933 77.4572 8.0076 77.2673 8.0076H71.1793C70.9894 8.0076 70.8364 7.85461 70.8364 7.65941Z" fill="white"/>
<path fill-rule="evenodd" clip-rule="evenodd" d="M106.117 13.6682C105.927 13.6682 105.774 13.5152 105.774 13.32V9.89616C105.774 9.70624 105.621 9.54797 105.431 9.54797H99.2746C99.0847 9.54797 98.9317 9.70096 98.9317 9.89616V13.32C98.9317 13.5099 98.7787 13.6682 98.5888 13.6682H97.2277C97.0378 13.6682 96.8848 13.5152 96.8848 13.32V5.09539C96.8848 5.06901 96.8848 5.03736 96.8848 5.01098C96.8848 3.92421 97.7658 3.03792 98.8526 3.03792C98.8789 3.03792 98.9106 3.03792 98.937 3.03792H105.948C106.993 3.0854 107.832 3.95059 107.832 5.00571C107.832 5.03208 107.832 5.06374 107.832 5.09011V13.3147C107.832 13.5046 107.679 13.6629 107.489 13.6629H106.117V13.6682ZM98.9317 5.95003V7.65932C98.9317 7.84924 99.0847 8.0075 99.2746 8.0075H105.431C105.621 8.0075 105.774 7.85451 105.774 7.65932V5.95003C105.774 5.28531 105.236 4.7472 104.577 4.7472H100.129C99.4645 4.7472 98.9317 5.28531 98.9317 5.95003Z" fill="white"/>
<path d="M84.726 3.03267C84.8262 3.03267 84.9212 3.07487 84.9845 3.15401L91.0408 10.3763C91.2466 10.6189 91.6422 10.4712 91.6422 10.1494V3.38086C91.6422 3.19094 91.7952 3.03267 91.9851 3.03267H93.3357C93.5256 3.03267 93.6786 3.18566 93.6786 3.38086V13.32C93.6786 13.5099 93.5256 13.6682 93.3357 13.6682H91.6581C91.6528 13.6682 91.6475 13.6629 91.6475 13.6577C91.6475 13.6524 91.6475 13.6524 91.6422 13.6471L85.4804 6.47762C85.2746 6.23494 84.879 6.38793 84.879 6.70446V13.3253C84.879 13.5152 84.726 13.6735 84.536 13.6735H83.1749C82.985 13.6735 82.832 13.5205 82.832 13.3253V3.38086C82.832 3.19094 82.985 3.03267 83.1749 3.03267H84.726Z" fill="white"/>
<path d="M3.97381 13.0015C4.10259 12.872 4.27967 12.7966 4.46748 12.7966H21.4989C21.8101 12.7966 21.9657 13.174 21.7457 13.3951L18.3813 16.7759C18.2525 16.9054 18.0754 16.9808 17.8876 16.9808H0.856214C0.544991 16.9808 0.389379 16.6034 0.609382 16.3823L3.97381 13.0015Z" fill="white"/>
<path d="M3.97381 0.37821C4.10796 0.248799 4.28504 0.173309 4.46748 0.173309H21.4989C21.8101 0.173309 21.9657 0.550758 21.7457 0.771835L18.3813 4.1527C18.2525 4.28211 18.0754 4.3576 17.8876 4.3576H0.856214C0.544991 4.3576 0.389379 3.98015 0.609382 3.75907L3.97381 0.37821Z" fill="white"/>
<path d="M18.3813 6.64934C18.2525 6.51993 18.0754 6.44444 17.8876 6.44444H0.856214C0.544991 6.44444 0.389379 6.82189 0.609382 7.04297L3.97381 10.4238C4.10259 10.5532 4.27967 10.6287 4.46748 10.6287H21.4989C21.8101 10.6287 21.9657 10.2513 21.7457 10.0302L18.3813 6.64934Z" fill="white"/>
</svg>
