<svg width="16" height="16" viewBox="0 0 16 16" fill="none" xmlns="http://www.w3.org/2000/svg">
<path d="M9.11833 8.21388L11.0397 6.28541L10.079 5.32117L8.15765 7.24965L6.23631 5.32117L5.27564 6.28541L7.19698 8.21388L5.27564 10.1424L6.23631 11.1066L8.15765 9.17812L10.079 11.1066L11.0397 10.1424L9.11833 8.21388Z" fill="white"/>
<rect width="1.36112" height="1.36112" transform="matrix(0.705796 0.708415 -0.705796 0.708415 11.52 10.6245)" fill="white"/>
<rect width="1.36112" height="1.36112" transform="matrix(0.705796 0.708415 -0.705796 0.708415 4.7953 3.87476)" fill="white"/>
<rect width="1.36112" height="1.36112" transform="matrix(-0.705796 0.708415 -0.705796 -0.708415 5.75597 11.5887)" fill="white"/>
<rect width="1.36112" height="1.36112" transform="matrix(-0.705796 0.708415 -0.705796 -0.708415 12.4807 4.83911)" fill="white"/>
</svg>
