<svg width="18" height="18" viewBox="0 0 18 18" fill="none" xmlns="http://www.w3.org/2000/svg">
<path d="M1.53936 1.65057H2.76427V2.87548H1.53936V1.65057Z" fill="white"/>
<path d="M1.53936 16.3495L1.53936 15.1246H2.76427V16.3495H1.53936Z" fill="white"/>
<path d="M15.0134 1.65057H16.2383V2.87548H15.0134V1.65057Z" fill="white"/>
<path d="M11.3386 11.4498H10.1137V10.2249H11.3386V11.4498Z" fill="white"/>
<path d="M6.439 10.2249H7.6639V11.4498H6.439V10.2249Z" fill="white"/>
<path d="M11.3386 7.77511H10.1137V6.5502L11.3386 6.5502V7.77511Z" fill="white"/>
<path d="M13.7884 5.32529H12.5635V4.10038L13.7884 4.10038V5.32529Z" fill="white"/>
<path d="M7.6639 7.77511H6.439V6.5502L7.6639 6.5502V7.77511Z" fill="white"/>
<path d="M15.0134 15.1246H16.2383V16.3495H15.0134V15.1246Z" fill="white"/>
<path d="M2.76427 16.3495V17.5744H15.0134V16.3495H2.76427Z" fill="white"/>
<path d="M7.6639 11.4498V12.6747H10.1137V11.4498H7.6639Z" fill="white"/>
<path d="M10.1137 6.5502V5.32529L7.6639 5.32529V6.5502L10.1137 6.5502Z" fill="white"/>
<path d="M6.439 7.77511H5.21409V10.2249H6.439V7.77511Z" fill="white"/>
<path d="M11.3386 10.2249H12.5635V7.77511H11.3386V10.2249Z" fill="white"/>
<path d="M16.2383 15.1246H17.4632V2.87548H16.2383V15.1246Z" fill="white"/>
<path d="M2.76427 0.425659V1.65057H15.0134V0.425659H2.76427Z" fill="white"/>
<path d="M0.314453 15.1246H1.53936L1.53936 2.87548H0.314453L0.314453 15.1246Z" fill="white"/>
<path d="M2.76427 1.65057V0.425659H15.0134V1.65057M2.76427 1.65057H1.53936V2.87548M2.76427 1.65057V2.87548H1.53936M2.76427 1.65057H15.0134M1.53936 2.87548H0.314453L0.314453 15.1246H1.53936M1.53936 2.87548L1.53936 15.1246M2.76427 16.3495V17.5744H15.0134V16.3495M2.76427 16.3495V15.1246H1.53936M2.76427 16.3495H1.53936L1.53936 15.1246M2.76427 16.3495H15.0134M16.2383 15.1246H17.4632V2.87548H16.2383M16.2383 15.1246H15.0134V16.3495M16.2383 15.1246V16.3495H15.0134M16.2383 15.1246V2.87548M15.0134 1.65057H16.2383V2.87548M15.0134 1.65057V2.87548H16.2383M10.1137 11.4498H11.3386V10.2249M10.1137 11.4498V10.2249H11.3386M10.1137 11.4498V12.6747H7.6639V11.4498M10.1137 11.4498H7.6639M11.3386 10.2249H12.5635V7.77511H11.3386M11.3386 10.2249V7.77511M6.439 7.77511H5.21409V10.2249H6.439M6.439 7.77511H7.6639V6.5502M6.439 7.77511V6.5502L7.6639 6.5502M6.439 7.77511V10.2249M6.439 10.2249H7.6639V11.4498M6.439 10.2249V11.4498H7.6639M11.3386 7.77511H10.1137V6.5502M11.3386 7.77511V6.5502L10.1137 6.5502M10.1137 6.5502V5.32529L7.6639 5.32529V6.5502M10.1137 6.5502L7.6639 6.5502M13.7884 5.32529H12.5635V4.10038L13.7884 4.10038V5.32529Z" stroke="white" stroke-width="0.5"/>
</svg>
