<svg width="20" height="20" viewBox="0 0 20 20" fill="none" xmlns="http://www.w3.org/2000/svg">
<path d="M6.66683 10H7.50016V10.8333H12.5002V10H13.3335V9.16667H14.1668V4.16667H13.3335V3.33333H12.5002V2.5H7.50016V3.33333H6.66683V4.16667H5.8335V9.16667H6.66683V10ZM7.50016 5.83333H8.3335V5H9.16683V4.16667H10.8335V5H11.6668V5.83333H12.5002V7.5H11.6668V8.33333H10.8335V9.16667H9.16683V8.33333H8.3335V7.5H7.50016V5.83333Z" fill="white"/>
<path d="M15.8335 13.3334V12.5H15.0002V11.6667H5.00016V12.5H4.16683V13.3334H3.3335V17.5H5.00016V15H5.8335V14.1667H6.66683V13.3334H13.3335V14.1667H14.1668V15H15.0002V17.5H16.6668V13.3334H15.8335Z" fill="white"/>
</svg>
