<svg width="12" height="18" viewBox="0 0 12 18" fill="none" xmlns="http://www.w3.org/2000/svg">
<path d="M9.72914 4.10038H8.50424H7.27933V5.32529V6.5502V7.77511H8.50424H9.72914V6.5502H8.50424V5.32529H9.72914V4.10038Z" fill="white"/>
<path d="M10.9541 10.2249V9.00002V7.77511H9.72914V9.00002V10.2249H10.9541Z" fill="white"/>
<path d="M8.50424 16.3495V15.1246V13.8997V12.6747V11.4498H9.72914V10.2249H8.50424H7.27933V11.4498V12.6747V13.8997V15.1246V16.3495H8.50424Z" fill="white"/>
<path d="M3.6046 10.2249H2.37969V11.4498H3.6046V12.6747V13.8997V15.1246V16.3495H4.82951V15.1246V13.8997V12.6747V11.4498V10.2249H3.6046Z" fill="white"/>
<path d="M2.37969 7.77511H1.15479V9.00002V10.2249H2.37969V9.00002V7.77511Z" fill="white"/>
<path d="M4.82951 7.77511V6.5502V5.32529V4.10038V2.87548V1.65057H3.6046V2.87548V4.10038V5.32529V6.5502H2.37969V7.77511H3.6046H4.82951Z" fill="white"/>
<path d="M6.05442 0.425659H4.82951V1.65057H6.05442H7.27933H8.50424H9.72914V0.425659H8.50424H7.27933H6.05442Z" fill="white"/>
<path d="M10.9541 1.65057H9.72914V2.87548V4.10038H10.9541V2.87548V1.65057Z" fill="white"/>
<path d="M6.05442 16.3495H4.82951V17.5744H6.05442H7.27933V16.3495H6.05442Z" fill="white"/>
<path d="M4.82951 1.65057H3.6046V2.87548V4.10038V5.32529V6.5502H2.37969V7.77511M4.82951 1.65057V2.87548V4.10038V5.32529V6.5502V7.77511H3.6046H2.37969M4.82951 1.65057H6.05442H7.27933H8.50424H9.72914M4.82951 1.65057V0.425659H6.05442H7.27933H8.50424H9.72914V1.65057M9.72914 1.65057H10.9541V2.87548V4.10038H9.72914M9.72914 1.65057V2.87548V4.10038M9.72914 4.10038H8.50424H7.27933V5.32529V6.5502V7.77511H8.50424H9.72914M9.72914 4.10038V5.32529H8.50424V6.5502H9.72914V7.77511M9.72914 7.77511H10.9541V9.00002V10.2249H9.72914M9.72914 7.77511V9.00002V10.2249M2.37969 7.77511H1.15479V9.00002V10.2249H2.37969M2.37969 7.77511V9.00002V10.2249M2.37969 10.2249H3.6046H4.82951V11.4498V12.6747V13.8997V15.1246V16.3495M2.37969 10.2249V11.4498H3.6046V12.6747V13.8997V15.1246V16.3495H4.82951M4.82951 16.3495H6.05442H7.27933M4.82951 16.3495V17.5744H6.05442H7.27933V16.3495M7.27933 16.3495H8.50424V15.1246V13.8997V12.6747V11.4498H9.72914V10.2249M7.27933 16.3495V15.1246V13.8997V12.6747V11.4498V10.2249H8.50424H9.72914" stroke="white" stroke-width="0.5"/>
</svg>
