<svg width="17" height="17" viewBox="0 0 17 17" fill="none" xmlns="http://www.w3.org/2000/svg">
<path d="M3.00002 15H1.99998L2 14H2.99998L3.00002 15Z" fill="white"/>
<path d="M15 15H14V14H15V15Z" fill="white"/>
<path d="M8.99998 11H7.99998V10H8.99998V11Z" fill="white"/>
<path d="M7.99998 10H7V9H7.99998V10Z" fill="white"/>
<path d="M7 9H6.00002V8H7.00002L7 9Z" fill="white"/>
<path d="M10 10H8.99998V9H10V10Z" fill="white"/>
<path d="M11 9H10L9.99998 8H11V9Z" fill="white"/>
<path d="M1 14H2L1.99998 5H1V14Z" fill="white"/>
<path d="M8.99998 1H7.99998L8 4H1.99998V5H8L7.99998 9H8.99998L9.00002 5H15V4H9.00002L8.99998 1Z" fill="white"/>
<path d="M16 5H15V14H16L16 5Z" fill="white"/>
<path d="M3.00002 15V16H14L14 15H3.00002Z" fill="white"/>
<path d="M2 14H1V5H1.99998M2 14L1.99998 15H3.00002M2 14H2.99998L3.00002 15M2 14L1.99998 5M1.99998 5V4H8L7.99998 1H8.99998L9.00002 4H15V5M1.99998 5H8L7.99998 9M15 5H16L16 14H15M15 5H9.00002L8.99998 9M15 5V14M3.00002 15V16H14L14 15M3.00002 15H14M14 15H15V14M14 15V14H15M7.99998 10V11H8.99998V10M7.99998 10H8.99998M7.99998 10H7V9M7.99998 10V9M8.99998 10V9M8.99998 10H10V9M8.99998 9H7.99998M8.99998 9H10M7.99998 9H7M7 9H6.00002V8H7.00002L7 9ZM10 9H11V8H9.99998L10 9Z" stroke="white" stroke-width="0.7"/>
</svg>
