<svg width="18" height="18" viewBox="0 0 18 18" fill="none" xmlns="http://www.w3.org/2000/svg">
<path d="M12 1V2H6V1H12Z" fill="white"/>
<path d="M4 3V2H6V3H4Z" fill="white"/>
<path d="M3 4V3H4V4H3Z" fill="white"/>
<path d="M2 6V4H3V6H2Z" fill="white"/>
<path d="M2 12H1V6H2V12Z" fill="white"/>
<path d="M3 14H2V12H3V14Z" fill="white"/>
<path d="M4 15H3V14H4V15Z" fill="white"/>
<path d="M6 16H4V15H6V16Z" fill="white"/>
<path d="M12 16V17H6V16H12Z" fill="white"/>
<path d="M14 15V16H12V15H14Z" fill="white"/>
<path d="M15 14V15H14V14H15Z" fill="white"/>
<path d="M16 12V14H15V12H16Z" fill="white"/>
<path d="M16 6H17V12H16V6Z" fill="white"/>
<path d="M15 4H16V6H15V4Z" fill="white"/>
<path d="M14 3H15V4H14V3Z" fill="white"/>
<path d="M14 3V2H12V3H14Z" fill="white"/>
<path d="M6 12H7V13H8V14H9V13H11V12H12V10H11V9H9V8H7V6H11V7H12V6H11V5H10V4H9V5H7V6H6V8H7V9H9V10H11V12H7V11H6V12Z" fill="white"/>
<path d="M12 2V1H6V2M12 2H6M12 2H14V3M12 2V3H14M6 2H4V3M6 2V3H4M4 3H3V4M4 3V4H3M3 4H2V6M3 4V6H2M2 6H1V12H2M2 6V12M2 12V14H3M2 12H3V14M3 14V15H4M3 14H4V15M4 15V16H6M4 15H6V16M6 16V17H12V16M6 16H12M12 16H14V15M12 16V15H14M14 15H15V14M14 15V14H15M15 14H16V12M15 14V12H16M16 12H17V6H16M16 12V6M16 6V4H15M16 6H15V4M15 4V3H14M15 4H14V3M7 12H6V11H7V12ZM7 12V13H8V14H9V13H11V12M7 12H11M11 12H12V10H11M11 12V10M11 10V9H9M11 10H9V9M9 9V8H7M9 9H7V8M7 8V6M7 8H6V6H7M7 6H11M7 6V5H9V4H10V5H11V6M11 6V7H12V6H11Z" stroke="white" stroke-width="0.5"/>
</svg>
