<svg width="21" height="16" viewBox="0 0 21 16" fill="none" xmlns="http://www.w3.org/2000/svg">
<path d="M17.7679 1.87542H18.9928V3.10033H17.7679V1.87542Z" fill="white"/>
<path d="M1.84405 12.8996H3.06896V14.1245H1.84405V12.8996Z" fill="white"/>
<path d="M1.84405 1.87542H3.06896V3.10033H1.84405V1.87542Z" fill="white"/>
<path d="M17.7679 12.8996H18.9928V14.1245H17.7679V12.8996Z" fill="white"/>
<path d="M10.4184 11.6747V10.4498H7.96859V5.55015H10.4184V4.32524H6.74368V11.6747H10.4184Z" fill="white"/>
<path d="M10.4184 5.55015V6.77505H12.8682V5.55015H10.4184Z" fill="white"/>
<path d="M14.0931 6.77505H12.8682V9.22487H14.0931V6.77505Z" fill="white"/>
<path d="M10.4184 9.22487V10.4498H12.8682V9.22487H10.4184Z" fill="white"/>
<path d="M3.06896 0.650513V1.87542H17.7679V0.650513H3.06896Z" fill="white"/>
<path d="M18.9928 12.8996H20.2177V3.10033H18.9928V12.8996Z" fill="white"/>
<path d="M0.619141 12.8996H1.84405V3.10033H0.619141V12.8996Z" fill="white"/>
<path d="M3.06896 14.1245V15.3494H17.7679V14.1245H3.06896Z" fill="white"/>
<path d="M10.4184 10.4498V9.22487H12.8682M10.4184 10.4498V11.6747H6.74368V4.32524H10.4184V5.55015M10.4184 10.4498H12.8682V9.22487M10.4184 10.4498H7.96859V5.55015H10.4184M12.8682 9.22487H14.0931V6.77505H12.8682M12.8682 9.22487V6.77505M17.7679 1.87542H18.9928V3.10033M17.7679 1.87542V3.10033H18.9928M17.7679 1.87542V0.650513H3.06896V1.87542M17.7679 1.87542H3.06896M18.9928 3.10033H20.2177V12.8996H18.9928M18.9928 3.10033V12.8996M12.8682 6.77505V5.55015H10.4184M12.8682 6.77505H10.4184V5.55015M3.06896 1.87542H1.84405V3.10033M3.06896 1.87542V3.10033H1.84405M3.06896 14.1245V15.3494H17.7679V14.1245M3.06896 14.1245V12.8996H1.84405M3.06896 14.1245H1.84405V12.8996M3.06896 14.1245H17.7679M1.84405 12.8996H0.619141V3.10033H1.84405M1.84405 12.8996V3.10033M17.7679 14.1245H18.9928V12.8996M17.7679 14.1245V12.8996H18.9928" stroke="white" stroke-width="0.5"/>
</svg>
