<svg width="18" height="14" viewBox="0 0 18 14" fill="none" xmlns="http://www.w3.org/2000/svg">
<path d="M0.700389 7.7L0.700389 8.4L1.40039 8.4L1.40039 9.1L2.80039 9.1L2.80039 10.5L4.20039 10.5L4.20039 11.9L5.60039 11.9L5.60039 13.3L7.00039 13.3L7.00039 14L8.40039 14L8.40039 11.9L7.00039 11.9L7.00039 10.5L5.60039 10.5L5.60039 9.1L4.20039 9.1L4.20039 7.7L2.80039 7.7L2.80039 6.3L4.20039 6.3L4.20039 4.9L5.60039 4.9L5.60039 3.5L7.00039 3.5L7.00039 2.1L8.40039 2.1L8.40039 0L7.00039 1.22392e-07L7.00039 0.7L5.60039 0.7L5.60039 2.1L4.20039 2.1L4.20039 2.8L4.20039 3.5L2.80039 3.5L2.80039 4.2L2.80039 4.9L1.40039 4.9L1.40039 5.6L0.700389 5.6L0.700389 6.3L0.00038938 6.3L0.000389441 7L0.000389502 7.7L0.700389 7.7Z" fill="white"/>
<rect x="14.4004" y="8" width="13" height="2" transform="rotate(180 14.4004 8)" fill="white"/>
<rect x="17.4004" y="8" width="2" height="2" transform="rotate(180 17.4004 8)" fill="white"/>
</svg>
