<svg width="18" height="16" viewBox="0 0 18 16" fill="none" xmlns="http://www.w3.org/2000/svg">
<path d="M16.4998 1.33333V0.5H1.49984V1.33333H0.666504V14.6667H1.49984V15.5H16.4998V14.6667H17.3332V1.33333H16.4998ZM15.6665 3.83333H14.8332V4.66667H13.1665V5.5H11.4998V6.33333H9.83317V7.16667H8.1665V6.33333H6.49984V5.5H4.83317V4.66667H3.1665V3.83333H2.33317V3H3.1665V2.16667H14.8332V3H15.6665V3.83333ZM15.6665 13H14.8332V13.8333H3.1665V13H2.33317V6.33333H3.1665V7.16667H4.83317V8H6.49984V8.83333H7.33317V9.66667H10.6665V8.83333H11.4998V8H13.1665V7.16667H14.8332V6.33333H15.6665V13Z" fill="white"/>
</svg>
