<svg width="18" height="17" viewBox="0 0 18 17" fill="none" xmlns="http://www.w3.org/2000/svg">
<path d="M8.5 1H9.4375V1.9375H8.5V1Z" fill="white"/>
<path d="M9.4375 1H8.5V1.9375H9.4375V1Z" fill="white"/>
<path d="M1.9375 6.625H1V7.5625H1.9375V6.625Z" fill="white"/>
<path d="M16 6.625H16.9375V7.5625H16V6.625Z" fill="white"/>
<path d="M4.75 8.5H3.8125V9.4375H4.75V8.5Z" fill="white"/>
<path d="M13.1875 8.5H14.125V9.4375H13.1875V8.5Z" fill="white"/>
<path d="M7.5625 13.1875H6.625V14.125H7.5625V13.1875Z" fill="white"/>
<path d="M10.375 13.1875H11.3125V14.125H10.375V13.1875Z" fill="white"/>
<path d="M8.5 1.9375H7.5625V3.8125H8.5V1.9375Z" fill="white"/>
<path d="M10.375 1.9375H9.4375V3.8125H10.375V1.9375Z" fill="white"/>
<path d="M11.3125 3.8125H10.375V5.6875H11.3125V3.8125Z" fill="white"/>
<path d="M7.5625 3.8125H6.625V5.6875H7.5625V3.8125Z" fill="white"/>
<path d="M6.625 6.625V5.6875H1.9375V6.625H6.625Z" fill="white"/>
<path d="M11.3125 5.6875V6.625H16V5.6875H11.3125Z" fill="white"/>
<path d="M14.125 7.5625V8.5H16V7.5625H14.125Z" fill="white"/>
<path d="M13.1875 9.4375H12.25V11.3125H13.1875V9.4375Z" fill="white"/>
<path d="M5.6875 9.4375H4.75V11.3125H5.6875V9.4375Z" fill="white"/>
<path d="M13.1875 13.1875H14.125V11.3125H13.1875V13.1875Z" fill="white"/>
<path d="M14.125 15.0625H13.1875V16H15.0625V13.1875H14.125V15.0625Z" fill="white"/>
<path d="M13.1875 15.0625V14.125H11.3125V15.0625H13.1875Z" fill="white"/>
<path d="M10.375 13.1875V12.25H7.5625V13.1875H10.375Z" fill="white"/>
<path d="M4.75 14.125V15.0625H6.625V14.125H4.75Z" fill="white"/>
<path d="M4.75 15.0625H3.8125V13.1875H2.875V16H4.75V15.0625Z" fill="white"/>
<path d="M3.8125 13.1875H4.75V11.3125H3.8125V13.1875Z" fill="white"/>
<path d="M3.8125 8.5V7.5625H1.9375V8.5H3.8125Z" fill="white"/>
<path d="M9.4375 1.9375V1H8.5V1.9375M9.4375 1.9375H8.5M9.4375 1.9375H10.375V3.8125M9.4375 1.9375V3.8125H10.375M8.5 1.9375H7.5625V3.8125M8.5 1.9375V3.8125H7.5625M7.5625 3.8125H6.625V5.6875M7.5625 3.8125V5.6875H6.625M10.375 3.8125H11.3125V5.6875M10.375 3.8125V5.6875H11.3125M6.625 5.6875V6.625H1.9375M6.625 5.6875H1.9375V6.625M11.3125 5.6875V6.625H16M11.3125 5.6875H16V6.625M1.9375 6.625H1V7.5625H1.9375M1.9375 6.625V7.5625M16 6.625H16.9375V7.5625H16M16 6.625V7.5625M1.9375 7.5625V8.5H3.8125M1.9375 7.5625H3.8125V8.5M16 7.5625V8.5H14.125M16 7.5625H14.125V8.5M3.8125 8.5H4.75V9.4375M3.8125 8.5V9.4375H4.75M14.125 8.5H13.1875V9.4375M14.125 8.5V9.4375H13.1875M4.75 9.4375H5.6875V11.3125H4.75M4.75 9.4375V11.3125M13.1875 9.4375H12.25V11.3125H13.1875M13.1875 9.4375V11.3125M4.75 11.3125H3.8125V13.1875M4.75 11.3125V13.1875H3.8125M13.1875 11.3125H14.125V13.1875M13.1875 11.3125V13.1875H14.125M3.8125 13.1875H2.875V16H4.75V15.0625M3.8125 13.1875V15.0625H4.75M14.125 13.1875H15.0625V16H13.1875V15.0625M14.125 13.1875V15.0625H13.1875M4.75 15.0625V14.125H6.625M4.75 15.0625H6.625V14.125M13.1875 15.0625V14.125H11.3125M13.1875 15.0625H11.3125V14.125M6.625 14.125V13.1875H7.5625M6.625 14.125H7.5625V13.1875M11.3125 14.125V13.1875H10.375M11.3125 14.125H10.375V13.1875M10.375 13.1875V12.25H7.5625V13.1875M10.375 13.1875H7.5625" stroke="white" stroke-width="0.5"/>
</svg>
