<svg width="18" height="14" viewBox="0 0 18 14" fill="none" xmlns="http://www.w3.org/2000/svg">
<path d="M9 3H10V4H9V3Z" fill="white"/>
<path d="M10 2H11V3H10V2Z" fill="white"/>
<path d="M16 3H17V4H16V3Z" fill="white"/>
<path d="M13 9H14V10H13V9Z" fill="white"/>
<path d="M12 10H13V11H12V10Z" fill="white"/>
<path d="M4 11H5V12H4V11Z" fill="white"/>
<path d="M5 10H6V11H5V10Z" fill="white"/>
<path d="M6 9H7V10H6V9Z" fill="white"/>
<path d="M5 8H6V9H5V8Z" fill="white"/>
<path d="M3 5H4V6H3V5Z" fill="white"/>
<path d="M2 4H3V5H2V4Z" fill="white"/>
<path d="M1 3H2V4H1V3Z" fill="white"/>
<path d="M10 13V12H5V13H10Z" fill="white"/>
<path d="M12 12V11H10V12H12Z" fill="white"/>
<path d="M15 6H14V9H15V6Z" fill="white"/>
<path d="M16 4H15V6H16V4Z" fill="white"/>
<path d="M14 2V3H16V2H14Z" fill="white"/>
<path d="M11 1V2H14V1H11Z" fill="white"/>
<path d="M7 4V5H9V4H7Z" fill="white"/>
<path d="M4 3V4H7V3H4Z" fill="white"/>
<path d="M2 2V3H4V2H2Z" fill="white"/>
<path d="M4 8H5V6H4V8Z" fill="white"/>
<path d="M2 3V2H4V3M2 3H1V4H2M2 3V4M2 3H4M4 3V4H7M4 3H7V4M7 4V5H9V4M7 4H9M9 4H10V3M9 4V3H10M10 3H11V2M10 3V2H11M11 2V1H14V2M11 2H14M14 2V3H16M14 2H16V3M16 3H17V4H16M16 3V4M16 4H15V6M16 4V6H15M15 6H14V9M15 6V9H14M14 9H13V10M14 9V10H13M13 10H12V11M13 10V11H12M12 11V12H10M12 11H10V12M10 12V13H5V12M10 12H5M5 12V11M5 12H4V11H5M5 11H6V10M5 11V10H6M6 10H7V9H6M6 10V9M6 9V8H5M6 9H5V8M5 8H4V6M5 8V6H4M4 6V5H3M4 6H3V5M3 5V4H2M3 5H2V4" stroke="white" stroke-width="0.5"/>
</svg>
