<svg width="20" height="16" viewBox="0 0 20 16" fill="none" xmlns="http://www.w3.org/2000/svg">
<path d="M2.28571 12.5714H3.57143V13.8571H2.28571V12.5714Z" fill="white"/>
<path d="M16.4286 12.5714H17.7143V13.8571H16.4286V12.5714Z" fill="white"/>
<path d="M13.8571 6.14286H15.1429V7.42857H13.8571V6.14286Z" fill="white"/>
<path d="M12.5714 7.42857H13.8571V8.71428H12.5714V7.42857Z" fill="white"/>
<path d="M15.1429 4.85714H16.4286V6.14286H15.1429V4.85714Z" fill="white"/>
<path d="M3.57143 4.85714H4.85714V6.14286H3.57143V4.85714Z" fill="white"/>
<path d="M4.85714 6.14286H6.14286V7.42857H4.85714V6.14286Z" fill="white"/>
<path d="M6.14286 7.42857H7.42857V8.71428H6.14286V7.42857Z" fill="white"/>
<path d="M17.7143 12.5714H19V3.57143H17.7143V2.28571H16.4286V4.85714H17.7143V12.5714Z" fill="white"/>
<path d="M12.5714 10V8.71428H7.42857V10H12.5714Z" fill="white"/>
<path d="M2.28571 3.57143H1V12.5714H2.28571V4.85714H3.57143V2.28571H2.28571V3.57143Z" fill="white"/>
<path d="M3.57143 1V2.28571H16.4286V1H3.57143Z" fill="white"/>
<path d="M3.57143 13.8571V15.1429H16.4286V13.8571H3.57143Z" fill="white"/>
<path d="M2.28571 12.5714H1V3.57143H2.28571V2.28571H3.57143M2.28571 12.5714H3.57143V13.8571M2.28571 12.5714V13.8571H3.57143M2.28571 12.5714V4.85714H3.57143M3.57143 13.8571V15.1429H16.4286V13.8571M3.57143 13.8571H16.4286M17.7143 12.5714H16.4286V13.8571M17.7143 12.5714V13.8571H16.4286M17.7143 12.5714H19V3.57143H17.7143V2.28571H16.4286M17.7143 12.5714V4.85714H16.4286M16.4286 4.85714H15.1429V6.14286M16.4286 4.85714V6.14286H15.1429M16.4286 4.85714V2.28571M16.4286 2.28571V1H3.57143V2.28571M16.4286 2.28571H3.57143M15.1429 6.14286H13.8571V7.42857M15.1429 6.14286V7.42857H13.8571M13.8571 7.42857H12.5714V8.71428M13.8571 7.42857V8.71428H12.5714M12.5714 8.71428V10H7.42857V8.71428M12.5714 8.71428H7.42857M3.57143 2.28571V4.85714M3.57143 4.85714H4.85714V6.14286M3.57143 4.85714V6.14286H4.85714M4.85714 6.14286H6.14286V7.42857M4.85714 6.14286V7.42857H6.14286M6.14286 7.42857H7.42857V8.71428M6.14286 7.42857V8.71428H7.42857" stroke="white" stroke-width="0.5"/>
</svg>
