<svg width="18" height="14" viewBox="0 0 18 14" fill="none" xmlns="http://www.w3.org/2000/svg">
<path d="M15 2H16V3H15V2Z" fill="white"/>
<path d="M2 11H3V12H2V11Z" fill="white"/>
<path d="M2 2H3V3H2V2Z" fill="white"/>
<path d="M15 11H16V12H15V11Z" fill="white"/>
<path d="M9 10V9H7V5H9V4H6V10H9Z" fill="white"/>
<path d="M9 5V6H11V5H9Z" fill="white"/>
<path d="M12 6H11V8H12V6Z" fill="white"/>
<path d="M9 8V9H11V8H9Z" fill="white"/>
<path d="M3 1V2H15V1H3Z" fill="white"/>
<path d="M16 11H17V3H16V11Z" fill="white"/>
<path d="M1 11H2V3H1V11Z" fill="white"/>
<path d="M3 12V13H15V12H3Z" fill="white"/>
<path d="M9 9V8H11M9 9V10H6V4H9V5M9 9H11V8M9 9H7V5H9M11 8H12V6H11M11 8V6M15 2H16V3M15 2V3H16M15 2V1H3V2M15 2H3M16 3H17V11H16M16 3V11M11 6V5H9M11 6H9V5M3 2H2V3M3 2V3H2M3 12V13H15V12M3 12V11H2M3 12H2V11M3 12H15M2 11H1V3H2M2 11V3M15 12H16V11M15 12V11H16" stroke="white" stroke-width="0.5"/>
</svg>
