<svg width="20" height="16" viewBox="0 0 20 16" fill="none" xmlns="http://www.w3.org/2000/svg">
<path d="M17.875 10.6923H16.75V11.7692H17.875V10.6923Z" fill="white"/>
<path d="M3.25 2.07692H2.125V3.15385H3.25V2.07692Z" fill="white"/>
<path d="M17.875 2.07692H16.75V3.15385H17.875V2.07692Z" fill="white"/>
<path d="M4.375 12.8462H3.25V13.9231H4.375V12.8462Z" fill="white"/>
<path d="M3.25 13.9231H2.125V15H3.25V13.9231Z" fill="white"/>
<path d="M1 13.9231H2.125V3.15385H1V13.9231Z" fill="white"/>
<path d="M16.75 2.07692V1H3.25V2.07692H16.75Z" fill="white"/>
<path d="M17.875 10.6923H19V3.15385H17.875V10.6923Z" fill="white"/>
<path d="M16.75 12.8462V11.7692H4.375V12.8462H16.75Z" fill="white"/>
<path d="M17.875 10.6923H16.75V11.7692M17.875 10.6923V11.7692H16.75M17.875 10.6923H19V3.15385H17.875M17.875 10.6923V3.15385M16.75 11.7692V12.8462H4.375M16.75 11.7692H4.375V12.8462M3.25 2.07692H2.125V3.15385M3.25 2.07692V3.15385H2.125M3.25 2.07692V1H16.75V2.07692M3.25 2.07692H16.75M2.125 3.15385H1V13.9231H2.125M2.125 3.15385V13.9231M16.75 2.07692H17.875V3.15385M16.75 2.07692V3.15385H17.875M2.125 13.9231H3.25M2.125 13.9231V15H3.25V13.9231M4.375 12.8462H3.25V13.9231M4.375 12.8462V13.9231H3.25" stroke="white" stroke-width="0.5"/>
</svg>
