<svg width="23" height="22" viewBox="0 0 23 22" fill="none" xmlns="http://www.w3.org/2000/svg">
<path d="M1 10.2021H2.53368V11.7357H1V10.2021Z" fill="white"/>
<path d="M14.8031 19.4041H16.3368V20.9378H14.8031V19.4041Z" fill="white"/>
<path d="M13.2694 17.8704H14.8031V19.4041H13.2694V17.8704Z" fill="white"/>
<path d="M10.2021 11.7357H11.7357V13.2694H10.2021V11.7357Z" fill="white"/>
<path d="M11.7357 10.2021H13.2694V11.7357H11.7357V10.2021Z" fill="white"/>
<path d="M13.2694 8.66838H14.8031V10.2021H13.2694V8.66838Z" fill="white"/>
<path d="M14.8031 7.1347H16.3368V8.66838H14.8031V7.1347Z" fill="white"/>
<path d="M16.3368 5.60103H17.8704V7.1347H16.3368V5.60103Z" fill="white"/>
<path d="M17.8704 4.06735H19.4041V5.60103H17.8704V4.06735Z" fill="white"/>
<path d="M2.53368 8.66838V10.2021H5.60103V8.66838H2.53368Z" fill="white"/>
<path d="M5.60103 13.2694V11.7357H2.53368V13.2694H5.60103Z" fill="white"/>
<path d="M10.2021 17.8704H8.66838V14.8031H10.2021V13.2694H5.60103V14.8031H7.1347V20.9378H8.66838V19.4041H10.2021V17.8704Z" fill="white"/>
<path d="M13.2694 16.3368H11.7357V14.8031H10.2021V17.8704H13.2694V16.3368Z" fill="white"/>
<path d="M17.8704 14.8031H16.3368V19.4041H17.8704V14.8031Z" fill="white"/>
<path d="M19.4041 10.2021H17.8704V14.8031H19.4041V10.2021Z" fill="white"/>
<path d="M5.60103 7.1347V8.66838H8.66838V7.1347H5.60103Z" fill="white"/>
<path d="M8.66838 5.60103V7.1347H11.7357V5.60103H8.66838Z" fill="white"/>
<path d="M11.7357 4.06735V5.60103H14.8031V4.06735H11.7357Z" fill="white"/>
<path d="M17.8704 4.06735V2.53368H14.8031V4.06735H17.8704Z" fill="white"/>
<path d="M17.8704 1V2.53368H20.9378V1H17.8704Z" fill="white"/>
<path d="M22.4715 2.53368H20.9378V5.60103H22.4715V2.53368Z" fill="white"/>
<path d="M20.9378 5.60103H19.4041V10.2021H20.9378V5.60103Z" fill="white"/>
<path d="M2.53368 10.2021V8.66838H5.60103M2.53368 10.2021H1V11.7357H2.53368M2.53368 10.2021V11.7357M2.53368 10.2021H5.60103V8.66838M2.53368 11.7357V13.2694H5.60103M2.53368 11.7357H5.60103V13.2694M5.60103 8.66838V7.1347H8.66838M5.60103 8.66838H8.66838V7.1347M8.66838 7.1347V5.60103H11.7357M8.66838 7.1347H11.7357V5.60103M11.7357 5.60103V4.06735H14.8031M11.7357 5.60103H14.8031V4.06735M14.8031 4.06735V2.53368H17.8704M14.8031 4.06735H17.8704M17.8704 2.53368V4.06735M17.8704 2.53368V1H20.9378V2.53368M17.8704 2.53368H20.9378M17.8704 4.06735H19.4041V5.60103M17.8704 4.06735V5.60103M20.9378 2.53368H22.4715V5.60103H20.9378M20.9378 2.53368V5.60103M20.9378 5.60103H19.4041M20.9378 5.60103V10.2021H19.4041M19.4041 5.60103H17.8704M19.4041 5.60103V10.2021M19.4041 10.2021H17.8704V14.8031M19.4041 10.2021V14.8031H17.8704M17.8704 14.8031H16.3368V19.4041M17.8704 14.8031V19.4041H16.3368M16.3368 19.4041H14.8031M16.3368 19.4041V20.9378H14.8031V19.4041M14.8031 19.4041V17.8704H13.2694M14.8031 19.4041H13.2694V17.8704M13.2694 17.8704V16.3368H11.7357V14.8031H10.2021M13.2694 17.8704H10.2021M10.2021 14.8031V13.2694M10.2021 14.8031H8.66838V17.8704H10.2021M10.2021 14.8031V17.8704M10.2021 17.8704V19.4041H8.66838V20.9378H7.1347V14.8031H5.60103V13.2694M5.60103 13.2694H10.2021M10.2021 13.2694H11.7357V11.7357M10.2021 13.2694V11.7357H11.7357M11.7357 11.7357H13.2694V10.2021M11.7357 11.7357V10.2021H13.2694M13.2694 10.2021H14.8031V8.66838M13.2694 10.2021V8.66838H14.8031M14.8031 8.66838H16.3368V7.1347M14.8031 8.66838V7.1347H16.3368M16.3368 7.1347H17.8704V5.60103M16.3368 7.1347V5.60103H17.8704" stroke="#737B93" stroke-width="0.5"/>
</svg>
