<svg width="26" height="26" viewBox="0 0 26 26" fill="none" xmlns="http://www.w3.org/2000/svg">
<path d="M16.4286 7.85714H18.1429V9.57143H16.4286V7.85714Z" fill="white"/>
<path d="M16.4286 16.4286H18.1429V18.1429H16.4286V16.4286Z" fill="white"/>
<path d="M7.85714 16.4286H9.57143V18.1429H7.85714V16.4286Z" fill="white"/>
<path d="M7.85714 7.85714H9.57143V9.57143H7.85714V7.85714Z" fill="white"/>
<path d="M19.8571 9.57143H18.1429V16.4286H19.8571V9.57143Z" fill="white"/>
<path d="M16.4286 19.8571V18.1429H9.57143V19.8571H16.4286Z" fill="white"/>
<path d="M14.7143 14.7143H11.2857V11.2857H14.7143V14.7143Z" fill="white"/>
<path d="M6.14286 16.4286H7.85714V9.57143H6.14286V16.4286Z" fill="white"/>
<path d="M9.57143 6.14286V7.85714H16.4286V6.14286H9.57143Z" fill="white"/>
<path d="M4.42857 4.42857H2.71429V7.85714H4.42857V4.42857Z" fill="white"/>
<path d="M4.42857 2.71429V4.42857H7.85714V2.71429H4.42857Z" fill="white"/>
<path d="M7.85714 1V2.71429H18.1429V1H7.85714Z" fill="white"/>
<path d="M21.5714 4.42857V2.71429H18.1429V4.42857H21.5714Z" fill="white"/>
<path d="M23.2857 4.42857H21.5714V7.85714H23.2857V4.42857Z" fill="white"/>
<path d="M23.2857 18.1429H25V7.85714H23.2857V18.1429Z" fill="white"/>
<path d="M2.71429 7.85714H1V18.1429H2.71429V7.85714Z" fill="white"/>
<path d="M2.71429 21.5714H4.42857V18.1429H2.71429V21.5714Z" fill="white"/>
<path d="M4.42857 21.5714V23.2857H7.85714V21.5714H4.42857Z" fill="white"/>
<path d="M7.85714 23.2857V25H18.1429V23.2857H7.85714Z" fill="white"/>
<path d="M21.5714 23.2857V21.5714H18.1429V23.2857H21.5714Z" fill="white"/>
<path d="M21.5714 21.5714H23.2857V18.1429H21.5714V21.5714Z" fill="white"/>
<path d="M7.85714 23.2857V25H18.1429V23.2857M7.85714 23.2857V21.5714H4.42857M7.85714 23.2857H18.1429M7.85714 23.2857H4.42857V21.5714M18.1429 23.2857V21.5714H21.5714M18.1429 23.2857H21.5714V21.5714M21.5714 21.5714H23.2857V18.1429M21.5714 21.5714V18.1429H23.2857M23.2857 18.1429H25V7.85714H23.2857M23.2857 18.1429V7.85714M23.2857 7.85714H21.5714V4.42857M23.2857 7.85714V4.42857H21.5714M16.4286 7.85714H18.1429V9.57143M16.4286 7.85714V9.57143H18.1429M16.4286 7.85714V6.14286H9.57143V7.85714M16.4286 7.85714H9.57143M18.1429 9.57143H19.8571V16.4286H18.1429M18.1429 9.57143V16.4286M18.1429 16.4286H16.4286V18.1429M18.1429 16.4286V18.1429H16.4286M16.4286 18.1429V19.8571H9.57143V18.1429M16.4286 18.1429H9.57143M9.57143 18.1429V16.4286H7.85714M9.57143 18.1429H7.85714V16.4286M7.85714 16.4286H6.14286V9.57143H7.85714M7.85714 16.4286V9.57143M7.85714 9.57143H9.57143V7.85714M7.85714 9.57143V7.85714H9.57143M21.5714 4.42857V2.71429H18.1429M21.5714 4.42857H18.1429V2.71429M7.85714 2.71429V1H18.1429V2.71429M7.85714 2.71429V4.42857H4.42857M7.85714 2.71429H18.1429M7.85714 2.71429H4.42857V4.42857M2.71429 7.85714H1V18.1429H2.71429M2.71429 7.85714H4.42857V4.42857M2.71429 7.85714V18.1429M2.71429 7.85714V4.42857H4.42857M4.42857 21.5714H2.71429V18.1429M4.42857 21.5714V18.1429H2.71429M11.2857 14.7143H14.7143V11.2857H11.2857V14.7143Z" stroke="white" stroke-width="0.5"/>
</svg>
