<svg width="24" height="24" viewBox="0 0 24 24" fill="none" xmlns="http://www.w3.org/2000/svg">
<path d="M2.83333 2.83332H1V21.1667H2.83333V2.83332Z" fill="white"/>
<path d="M2.83338 1L2.83333 2.83332L6.50002 2.83333V1H2.83338Z" fill="white"/>
<path d="M6.50002 2.83333L6.49999 4.66668L10.1667 4.66666L10.1667 2.83334L6.50002 2.83333Z" fill="white"/>
<path d="M10.1667 4.66666V6.49999L13.8334 6.5L13.8333 4.66666H10.1667Z" fill="white"/>
<path d="M13.8334 6.5V8.33333L17.5 8.33335L17.5 6.5H13.8334Z" fill="white"/>
<path d="M17.5 8.33335V10.1667L21.1667 10.1667L21.1667 8.33335H17.5Z" fill="white"/>
<path d="M21.1667 13.8333H23V10.1667H21.1667V13.8333Z" fill="white"/>
<path d="M17.5 13.8333V15.6667H21.1667L21.1667 13.8333L17.5 13.8333Z" fill="white"/>
<path d="M13.8334 15.6667V17.5H17.5L17.5 15.6667L13.8334 15.6667Z" fill="white"/>
<path d="M10.1667 17.5V19.3333H13.8333L13.8334 17.5L10.1667 17.5Z" fill="white"/>
<path d="M6.49999 19.3333L6.50002 21.1667L10.1667 21.1667L10.1667 19.3333L6.49999 19.3333Z" fill="white"/>
<path d="M2.83333 21.1667L2.83338 23H6.50002V21.1667L2.83333 21.1667Z" fill="white"/>
<path d="M2.83333 2.83332H1V21.1667H2.83333M2.83333 2.83332L2.83338 1H6.50002V2.83333M2.83333 2.83332V21.1667M2.83333 2.83332L6.50002 2.83333M2.83333 21.1667L2.83338 23H6.50002V21.1667M2.83333 21.1667L6.50002 21.1667M6.50002 21.1667L6.49999 19.3333L10.1667 19.3333M6.50002 21.1667L10.1667 21.1667L10.1667 19.3333M6.50002 2.83333L6.49999 4.66668L10.1667 4.66665M6.50002 2.83333L10.1667 2.83334L10.1667 4.66665M10.1667 19.3333V17.5L13.8334 17.5M10.1667 19.3333H13.8333L13.8334 17.5M10.1667 4.66665V6.49999L13.8334 6.5M10.1667 4.66665H13.8333L13.8334 6.5M13.8334 17.5V15.6667L17.5 15.6667M13.8334 17.5H17.5L17.5 15.6667M13.8334 6.5V8.33333L17.5 8.33335M13.8334 6.5H17.5L17.5 8.33335M17.5 15.6667V13.8333L21.1667 13.8333M17.5 15.6667H21.1667L21.1667 13.8333M17.5 8.33335V10.1667L21.1667 10.1667M17.5 8.33335H21.1667L21.1667 10.1667M21.1667 13.8333H23V10.1667H21.1667M21.1667 13.8333V10.1667" stroke="white" stroke-width="0.5"/>
</svg>
