<svg width="23" height="23" viewBox="0 0 23 23" fill="none" xmlns="http://www.w3.org/2000/svg">
<path d="M18.8929 9.94644H20.6822V8.15716H18.8929V9.94644Z" fill="white"/>
<path d="M18.8929 15.3143H20.6822V13.525H18.8929V15.3143Z" fill="white"/>
<path d="M13.525 2.78929V1H9.94644V2.78929H13.525Z" fill="white"/>
<path d="M9.94644 4.57858V2.78929H6.36787V4.57858H9.94644Z" fill="white"/>
<path d="M6.36787 6.36787V4.57858H2.78929V6.36787H6.36787Z" fill="white"/>
<path d="M2.78929 6.36787H1V17.1036H2.78929V6.36787Z" fill="white"/>
<path d="M2.78929 17.1036V18.8929H6.36787V17.1036H2.78929Z" fill="white"/>
<path d="M6.36787 18.8929V20.6822H9.94644V18.8929H6.36787Z" fill="white"/>
<path d="M9.94644 20.6822V22.4715H13.525V20.6822H9.94644Z" fill="white"/>
<path d="M13.525 20.6822H15.3143V2.78929H13.525V20.6822Z" fill="white"/>
<path d="M22.4715 9.94644H20.6822V13.525H22.4715V9.94644Z" fill="white"/>
<path d="M20.6822 9.94644H18.8929V8.15716H20.6822V9.94644ZM20.6822 9.94644H22.4715V13.525H20.6822M20.6822 9.94644V13.525M20.6822 13.525V15.3143H18.8929V13.525H20.6822ZM2.78929 6.36787H1V17.1036H2.78929M2.78929 6.36787V4.57858H6.36787M2.78929 6.36787V17.1036M2.78929 6.36787H6.36787V4.57858M2.78929 17.1036V18.8929H6.36787M2.78929 17.1036H6.36787V18.8929M6.36787 18.8929V20.6822H9.94644M6.36787 18.8929H9.94644V20.6822M9.94644 20.6822V22.4715H13.525V20.6822M9.94644 20.6822H13.525M13.525 20.6822H15.3143V2.78929H13.525M13.525 20.6822V2.78929M13.525 2.78929V1H9.94644V2.78929M13.525 2.78929H9.94644M9.94644 2.78929V4.57858H6.36787M9.94644 2.78929H6.36787V4.57858" stroke="#737B93" stroke-width="0.5"/>
</svg>
