<svg width="18" height="25" viewBox="0 0 18 25" fill="none" xmlns="http://www.w3.org/2000/svg">
<path d="M5.8 13.3846H7.4V15.1538H5.8V13.3846Z" fill="white"/>
<path d="M10.6 11.6154H9V13.3846H10.6V11.6154Z" fill="white"/>
<path fill-rule="evenodd" clip-rule="evenodd" d="M13.8 1H4.2V2.76923H5.8V9.84615H4.2V11.6154H2.6V13.3846H1V18.6923H2.6V20.4615H4.2V22.2308H5.8V24H12.2V22.2308H13.8V20.4615H15.4V18.6923H17V13.3846H15.4V11.6154H13.8V9.84615H12.2V2.76923H13.8V1ZM12.2 9.84615V11.6154H13.8V13.3846H15.4V18.6923H13.8V16.9231H4.2V18.6923H2.6V13.3846H4.2V11.6154H5.8V9.84615H7.4V2.76923H10.6V9.84615H12.2ZM5.8 20.4615V22.2308H12.2V20.4615H13.8V18.6923H12.2V20.4615H5.8ZM5.8 20.4615H4.2V18.6923H5.8V20.4615Z" fill="white"/>
<path d="M5.8 9.84615V2.76923H4.2V1H13.8V2.76923H12.2V9.84615M5.8 9.84615H4.2V11.6154M5.8 9.84615V11.6154H4.2M5.8 9.84615H7.4V2.76923H10.6V9.84615H12.2M4.2 11.6154H2.6V13.3846M4.2 11.6154V13.3846H2.6M2.6 13.3846H1V18.6923H2.6M2.6 13.3846V18.6923M2.6 18.6923V20.4615H4.2M2.6 18.6923H4.2M4.2 20.4615V22.2308H5.8M4.2 20.4615H5.8M4.2 20.4615V18.6923M5.8 22.2308V24H12.2V22.2308M5.8 22.2308V20.4615M5.8 22.2308H12.2M12.2 22.2308H13.8V20.4615M12.2 22.2308V20.4615M13.8 20.4615H15.4V18.6923M13.8 20.4615H12.2M13.8 20.4615V18.6923M15.4 18.6923H17V13.3846H15.4M15.4 18.6923V13.3846M15.4 18.6923H13.8M15.4 13.3846V11.6154H13.8M15.4 13.3846H13.8V11.6154M13.8 11.6154V9.84615H12.2M13.8 11.6154H12.2V9.84615M13.8 18.6923V16.9231H4.2V18.6923M13.8 18.6923H12.2V20.4615M4.2 18.6923H5.8V20.4615M5.8 20.4615H12.2M7.4 13.3846H5.8V15.1538H7.4V13.3846ZM9 11.6154H10.6V13.3846H9V11.6154Z" stroke="white" stroke-width="0.5"/>
</svg>
