<svg width="59" height="59" viewBox="0 0 59 59" fill="none" xmlns="http://www.w3.org/2000/svg">
<path fill-rule="evenodd" clip-rule="evenodd" d="M58.9833 0.74733L58.9836 0.747345V58.7478H0.700142L6.52827 58.7478L6.52847 58.7478L12.3566 58.7478L12.3566 52.9478H6.52847L6.52827 52.9478L0.700142 52.9478V52.9478H6.52847V47.1477H0.700142V12.3474H6.52848V6.54738H0.700142L6.52827 6.54737H6.52847H12.3566V0.74733H47.3269L47.3269 6.54737H53.155H53.1552H58.9833L58.9833 0.74733ZM58.9833 47.1477L58.9833 52.9478L53.155 52.9478L53.155 47.1477H58.9833ZM47.3269 58.7478H53.155L53.1552 58.7478H58.9833L58.9833 52.9478H53.1552L53.155 52.9478H47.3269L47.3269 58.7478ZM58.9833 6.54738V12.3474H53.155L53.155 6.54738H58.9833Z" fill="#447EF7"/>
<path d="M20.5166 21.0475H24.5964L38.5845 28.0076V31.4876L25.1793 38.3577H20.5166V21.0475Z" fill="white"/>
<path d="M21.0991 21.0475H19.3506V38.4476H21.0991V21.0475Z" fill="white"/>
<path d="M21.0991 19.3075L21.0991 21.0475L24.5961 21.0475V19.3075H21.0991Z" fill="white"/>
<path d="M24.5961 21.0475L24.5961 22.7875L28.0931 22.7875L28.0931 21.0475L24.5961 21.0475Z" fill="white"/>
<path d="M28.0931 22.7875V24.5275L31.5901 24.5275L31.5901 22.7875H28.0931Z" fill="white"/>
<path d="M31.5901 24.5275V26.2676L35.0871 26.2676L35.0871 24.5275H31.5901Z" fill="white"/>
<path d="M35.0871 26.2676V28.0076L38.5841 28.0076L38.5841 26.2676H35.0871Z" fill="white"/>
<path d="M38.5841 31.4876H40.3326V28.0076H38.5841V31.4876Z" fill="white"/>
<path d="M35.0871 31.4876V33.2276H38.5841L38.5841 31.4876L35.0871 31.4876Z" fill="white"/>
<path d="M31.5901 33.2276V34.9676H35.0871L35.0871 33.2276L31.5901 33.2276Z" fill="white"/>
<path d="M28.0931 34.9676V36.7077H31.5901L31.5901 34.9676L28.0931 34.9676Z" fill="white"/>
<path d="M24.5961 36.7076L24.5961 38.4477L28.0931 38.4476L28.0931 36.7077L24.5961 36.7076Z" fill="white"/>
<path d="M21.0991 38.4476L21.0991 40.1877H24.5961V38.4477L21.0991 38.4476Z" fill="white"/>
<path d="M21.0991 21.0475H19.3506V38.4476H21.0991M21.0991 21.0475L21.0991 19.3075H24.5961V21.0475M21.0991 21.0475V38.4476M21.0991 21.0475L24.5961 21.0475M21.0991 38.4476L21.0991 40.1877H24.5961V38.4477M21.0991 38.4476L24.5961 38.4477M24.5961 38.4477L24.5961 36.7076L28.0931 36.7077M24.5961 38.4477L28.0931 38.4476L28.0931 36.7077M24.5961 21.0475L24.5961 22.7875L28.0931 22.7875M24.5961 21.0475L28.0931 21.0475L28.0931 22.7875M28.0931 36.7077V34.9676L31.5901 34.9676M28.0931 36.7077H31.5901L31.5901 34.9676M28.0931 22.7875V24.5275L31.5901 24.5275M28.0931 22.7875H31.5901L31.5901 24.5275M31.5901 34.9676V33.2276L35.0871 33.2276M31.5901 34.9676H35.0871L35.0871 33.2276M31.5901 24.5275V26.2676L35.0871 26.2676M31.5901 24.5275H35.0871L35.0871 26.2676M35.0871 33.2276V31.4876L38.5841 31.4876M35.0871 33.2276H38.5841L38.5841 31.4876M35.0871 26.2676V28.0076L38.5841 28.0076M35.0871 26.2676H38.5841L38.5841 28.0076M38.5841 31.4876H40.3326V28.0076H38.5841M38.5841 31.4876V28.0076" stroke="white" stroke-width="0.5"/>
</svg>
