<svg width="30" height="30" viewBox="0 0 30 30" fill="none" xmlns="http://www.w3.org/2000/svg">
<mask id="path-1-inside-1_1_3257" fill="white">
<path fill-rule="evenodd" clip-rule="evenodd" d="M29.2943 3.52837H26.3878V0.638321H26.3877V3.52837L23.4805 3.52837V0.638321H0.222656V0.638333L3.12982 0.638333V3.5284H0.222656V3.52843H3.12982V6.4185H0.222656V23.7589H3.12982L3.12982 26.6489L0.222656 26.6489V26.649H3.12982V29.539H3.12988V26.649H6.03705L6.03705 29.539L23.4805 29.539V26.649H26.3877V29.539L26.3878 29.539V26.649H29.2943V26.6489L26.3878 26.6489V23.7589H29.2943V6.41847L26.3878 6.41847L26.3878 3.5284H29.2943V3.52837ZM6.03705 0.638333L3.12988 0.638333V3.5284H6.03705V0.638333Z"/>
</mask>
<path fill-rule="evenodd" clip-rule="evenodd" d="M29.2943 3.52837H26.3878V0.638321H26.3877V3.52837L23.4805 3.52837V0.638321H0.222656V0.638333L3.12982 0.638333V3.5284H0.222656V3.52843H3.12982V6.4185H0.222656V23.7589H3.12982L3.12982 26.6489L0.222656 26.6489V26.649H3.12982V29.539H3.12988V26.649H6.03705L6.03705 29.539L23.4805 29.539V26.649H26.3877V29.539L26.3878 29.539V26.649H29.2943V26.6489L26.3878 26.6489V23.7589H29.2943V6.41847L26.3878 6.41847L26.3878 3.5284H29.2943V3.52837ZM6.03705 0.638333L3.12988 0.638333V3.5284H6.03705V0.638333Z" fill="white" fill-opacity="0.01"/>
<path d="M26.3878 3.52837H25.3878V4.52837H26.3878V3.52837ZM29.2943 3.52837H30.2943V2.52837H29.2943V3.52837ZM26.3878 0.638321H27.3878V-0.361679H26.3878V0.638321ZM26.3877 0.638321V-0.361679H25.3877V0.638321H26.3877ZM26.3877 3.52837L26.3877 4.52837L27.3877 4.52837V3.52837H26.3877ZM23.4805 3.52837H22.4805V4.52837L23.4805 4.52837L23.4805 3.52837ZM23.4805 0.638321H24.4805V-0.361679H23.4805V0.638321ZM0.222656 0.638321V-0.361679H-0.777344V0.638321H0.222656ZM0.222656 0.638333H-0.777344V1.63833L0.222656 1.63833L0.222656 0.638333ZM3.12982 0.638333H4.12982V-0.361667L3.12982 -0.361667L3.12982 0.638333ZM3.12982 3.5284V4.5284H4.12982V3.5284H3.12982ZM0.222656 3.5284V2.5284H-0.777344V3.5284H0.222656ZM0.222656 3.52843H-0.777344V4.52843H0.222656V3.52843ZM3.12982 3.52843H4.12982V2.52843H3.12982V3.52843ZM3.12982 6.4185V7.4185H4.12982V6.4185H3.12982ZM0.222656 6.4185V5.4185H-0.777344V6.4185H0.222656ZM0.222656 23.7589H-0.777344V24.7589H0.222656V23.7589ZM3.12982 23.7589L4.12982 23.7589L4.12982 22.7589H3.12982V23.7589ZM3.12982 26.6489L3.12982 27.6489L4.12982 27.6489L4.12982 26.6489L3.12982 26.6489ZM0.222656 26.6489L0.222656 25.6489L-0.777344 25.6489V26.6489H0.222656ZM0.222656 26.649H-0.777344V27.649H0.222656V26.649ZM3.12982 26.649H4.12982V25.649H3.12982V26.649ZM3.12982 29.539H2.12982V30.539H3.12982V29.539ZM3.12988 29.539V30.539H4.12988V29.539H3.12988ZM3.12988 26.649V25.649H2.12988V26.649H3.12988ZM6.03705 26.649L7.03705 26.649L7.03704 25.649H6.03705V26.649ZM6.03705 29.539L5.03705 29.539L5.03705 30.539L6.03705 30.539L6.03705 29.539ZM23.4805 29.539L23.4805 30.539L24.4805 30.539V29.539H23.4805ZM23.4805 26.649V25.649H22.4805V26.649H23.4805ZM26.3877 26.649H27.3877V25.649H26.3877V26.649ZM26.3877 29.539H25.3877V30.5689L26.4171 30.5386L26.3877 29.539ZM26.3878 29.539L26.4172 30.5386L27.3878 30.5101V29.539H26.3878ZM26.3878 26.649V25.649H25.3878V26.649H26.3878ZM29.2943 26.649V27.649H30.2943V26.649H29.2943ZM29.2943 26.6489H30.2943V25.6489L29.2943 25.6489L29.2943 26.6489ZM26.3878 26.6489H25.3878V27.6489L26.3878 27.6489L26.3878 26.6489ZM26.3878 23.7589V22.7589H25.3878V23.7589H26.3878ZM29.2943 23.7589V24.7589H30.2943V23.7589H29.2943ZM29.2943 6.41847H30.2943V5.41847L29.2943 5.41847L29.2943 6.41847ZM26.3878 6.41847L25.3878 6.41847L25.3878 7.41847L26.3878 7.41847L26.3878 6.41847ZM26.3878 3.5284V2.5284H25.3878L25.3878 3.5284L26.3878 3.5284ZM29.2943 3.5284V4.5284H30.2943V3.5284H29.2943ZM3.12988 0.638333L3.12988 -0.361667L2.12988 -0.361667V0.638333H3.12988ZM6.03705 0.638333H7.03705V-0.361667L6.03705 -0.361667L6.03705 0.638333ZM3.12988 3.5284H2.12988V4.5284H3.12988V3.5284ZM6.03705 3.5284V4.5284H7.03705V3.5284H6.03705ZM26.3878 4.52837H29.2943V2.52837H26.3878V4.52837ZM25.3878 0.638321V3.52837H27.3878V0.638321H25.3878ZM26.3877 1.63832H26.3878V-0.361679H26.3877V1.63832ZM27.3877 3.52837V0.638321H25.3877V3.52837H27.3877ZM23.4805 4.52837L26.3877 4.52837L26.3877 2.52837L23.4805 2.52837L23.4805 4.52837ZM22.4805 0.638321V3.52837H24.4805V0.638321H22.4805ZM0.222656 1.63832H23.4805V-0.361679H0.222656V1.63832ZM1.22266 0.638333V0.638321H-0.777344V0.638333H1.22266ZM3.12982 -0.361667L0.222656 -0.361667L0.222656 1.63833L3.12982 1.63833L3.12982 -0.361667ZM4.12982 3.5284V0.638333H2.12982V3.5284H4.12982ZM0.222656 4.5284H3.12982V2.5284H0.222656V4.5284ZM1.22266 3.52843V3.5284H-0.777344V3.52843H1.22266ZM3.12982 2.52843H0.222656V4.52843H3.12982V2.52843ZM4.12982 6.4185V3.52843H2.12982V6.4185H4.12982ZM0.222656 7.4185H3.12982V5.4185H0.222656V7.4185ZM1.22266 23.7589V6.4185H-0.777344V23.7589H1.22266ZM3.12982 22.7589H0.222656V24.7589H3.12982V22.7589ZM4.12982 26.6489L4.12982 23.7589L2.12982 23.7589L2.12982 26.6489L4.12982 26.6489ZM0.222657 27.6489L3.12982 27.6489L3.12982 25.6489L0.222656 25.6489L0.222657 27.6489ZM1.22266 26.649V26.6489H-0.777344V26.649H1.22266ZM0.222656 27.649H3.12982V25.649H0.222656V27.649ZM2.12982 26.649V29.539H4.12982V26.649H2.12982ZM3.12988 28.539H3.12982V30.539H3.12988V28.539ZM2.12988 26.649V29.539H4.12988V26.649H2.12988ZM6.03705 25.649H3.12988V27.649H6.03705V25.649ZM7.03705 29.539L7.03705 26.649L5.03705 26.649L5.03705 29.539L7.03705 29.539ZM23.4805 28.539L6.03705 28.539L6.03705 30.539L23.4805 30.539L23.4805 28.539ZM22.4805 26.649V29.539H24.4805V26.649H22.4805ZM26.3877 25.649H23.4805V27.649H26.3877V25.649ZM27.3877 29.539V26.649H25.3877V29.539H27.3877ZM26.3584 28.5395L26.3583 28.5395L26.4171 30.5386L26.4172 30.5386L26.3584 28.5395ZM25.3878 26.649V29.539H27.3878V26.649H25.3878ZM29.2943 25.649H26.3878V27.649H29.2943V25.649ZM28.2943 26.6489V26.649H30.2943V26.6489H28.2943ZM26.3878 27.6489L29.2943 27.6489L29.2943 25.6489L26.3878 25.6489L26.3878 27.6489ZM25.3878 23.7589V26.6489H27.3878V23.7589H25.3878ZM29.2943 22.7589H26.3878V24.7589H29.2943V22.7589ZM28.2943 6.41847V23.7589H30.2943V6.41847H28.2943ZM26.3878 7.41847L29.2943 7.41847L29.2943 5.41847L26.3878 5.41847L26.3878 7.41847ZM25.3878 3.5284L25.3878 6.41847L27.3878 6.41847L27.3878 3.5284L25.3878 3.5284ZM29.2943 2.5284H26.3878V4.5284H29.2943V2.5284ZM28.2943 3.52837V3.5284H30.2943V3.52837H28.2943ZM3.12988 1.63833L6.03705 1.63833L6.03705 -0.361667L3.12988 -0.361667L3.12988 1.63833ZM4.12988 3.5284V0.638333H2.12988V3.5284H4.12988ZM6.03705 2.5284H3.12988V4.5284H6.03705V2.5284ZM5.03705 0.638333V3.5284H7.03705V0.638333H5.03705Z" fill="white" mask="url(#path-1-inside-1_1_3257)"/>
<rect x="13.0137" y="8.73051" width="2.99023" height="2.97264" fill="white"/>
<rect x="13.0137" y="13.6849" width="2.99023" height="8.91793" fill="white"/>
</svg>
