<svg width="34" height="34" viewBox="0 0 34 34" fill="none" xmlns="http://www.w3.org/2000/svg">
<path fill-rule="evenodd" clip-rule="evenodd" d="M31.991 0H31.991V2.00909H34V2.00916H31.991V4.01825H34V4.01828H31.991V6.02732V6.02737V8.03641H34L34 25.9636H31.9909V27.9727V29.9818V29.9818V31.9909H34V31.9909H31.9909V34H31.9907V31.9909H29.9818H29.9816H27.9728H27.9727H25.9637L25.9637 34L8.0364 34V31.9909H6.02731L6.02731 34V31.9909H4.01827H4.01821H2.00918L2.00918 34H2.00915L2.00915 31.9909H5.52503e-05L5.50747e-05 34L0 34V0H25.9638V2.00909H27.9729H29.9819H29.982H31.991V0ZM6.02738 1.31849e-05L8.03642 1.32089e-05V2.0091H6.02738H6.02732H4.01834H4.01829H2.00925L2.00925 1.3137e-05L4.01829 1.31609e-05L4.01834 1.31609e-05L6.02732 1.31849e-05L6.02738 1.31849e-05ZM6.02738 2.00913H4.01834H4.01829H2.00925V4.01821V4.01823V6.0273H4.01834V4.01823H6.02738V2.00913ZM4.39693e-05 1.3113e-05L4.39453e-05 2.0091H2.00913V1.3137e-05L4.39693e-05 1.3113e-05ZM4.39693e-05 4.01821L4.39693e-05 2.00913H2.00913V4.01821V4.01823V6.02727H2.00917V8.03636H8.30078e-05L8.30318e-05 6.0273H4.39453e-05L4.39453e-05 4.01823L4.39693e-05 4.01821ZM29.9819 4.01828H31.991V6.02737H29.9819V4.01828ZM29.982 2.00916H31.991V4.01825H29.982H29.9819H27.9729V2.00916H29.9819H29.982ZM27.9727 29.9817H29.9816V27.9727L31.9907 27.9727V29.9818V31.9909H29.9816V31.9908H27.9727V29.9817ZM2.00915 27.9726L2.00915 25.9636H5.53004e-05L5.51248e-05 27.9727L5.5426e-05 29.9817H2.00915L2.00915 27.9727L2.00915 27.9726ZM4.01827 29.9817H2.00918L2.00918 27.9726H4.01827V29.9817ZM5.52503e-05 31.9908H2.00915V29.9817H5.5426e-05L5.52503e-05 31.9908ZM4.01821 31.9908H2.00918V29.9817H4.01821H4.01827H6.02731V31.9908H4.01827H4.01821Z" fill="#66BE47"/>
<path d="M10.164 17.116H11.988V15.292H13.356V17.116H15.18V18.484H13.356V20.308H11.988V18.484H10.164V17.116ZM17.1397 18.256V13.6H22.7557V15.112H18.7237V17.392H18.9397C19.0517 17.08 19.2597 16.812 19.5637 16.588C19.8757 16.356 20.2917 16.24 20.8117 16.24C21.2037 16.24 21.5557 16.308 21.8677 16.444C22.1797 16.58 22.4437 16.768 22.6597 17.008C22.8757 17.248 23.0397 17.536 23.1517 17.872C23.2717 18.208 23.3317 18.576 23.3317 18.976V19.048C23.3317 19.472 23.2597 19.872 23.1157 20.248C22.9797 20.624 22.7757 20.956 22.5037 21.244C22.2397 21.524 21.9117 21.748 21.5197 21.916C21.1277 22.084 20.6757 22.168 20.1637 22.168C19.6517 22.168 19.1997 22.1 18.8077 21.964C18.4157 21.82 18.0837 21.624 17.8117 21.376C17.5477 21.12 17.3437 20.82 17.1997 20.476C17.0637 20.124 16.9957 19.744 16.9957 19.336V19.048H18.5797V19.192C18.5797 19.616 18.7077 19.968 18.9637 20.248C19.2277 20.52 19.6117 20.656 20.1157 20.656C20.6197 20.656 21.0157 20.52 21.3037 20.248C21.5997 19.976 21.7477 19.6 21.7477 19.12C21.7477 18.664 21.6397 18.324 21.4237 18.1C21.2077 17.868 20.9237 17.752 20.5717 17.752C20.3397 17.752 20.1517 17.804 20.0077 17.908C19.8637 18.004 19.7717 18.12 19.7317 18.256H17.1397Z" fill="white"/>
</svg>
