<svg width="50" height="50" viewBox="0 0 50 50" fill="none" xmlns="http://www.w3.org/2000/svg">
<path fill-rule="evenodd" clip-rule="evenodd" d="M0 0H38.1821V2.95455H41.1366H44.091H44.0912H47.0456H50V2.95467H47.0456H44.0912H44.091H41.1366V5.90922L44.091 5.90922V8.86377H47.0456V11.8182H50L50 38.1818H47.0455V41.1363V44.0908V44.0909V47.0454V49.9999H50L50 50L11.8182 50V47.0455H8.86364V50H8.86359L8.86359 47.0455H5.9091H5.90904H2.95456L2.95456 50H2.95449L2.95449 47.0455H0V47.0453H2.95449L2.95449 44.0908L2.95449 41.1363V41.1362L2.95449 38.1818H0V0ZM11.8183 2.95462L8.86377 2.95462V7.5446e-05L11.8183 7.54812e-05V2.95462ZM5.90922 7.54107e-05H5.90935L8.86377 7.5446e-05V2.95462H5.90935H5.90922H2.9548V7.53755e-05L5.90922 7.54107e-05ZM8.86377 5.90917V2.95462H5.90935H5.90922H2.9548V5.90917H5.90922H5.90935H8.86377ZM2.9548 8.86371V5.90917H5.90935V8.86371H2.9548ZM6.61567e-05 7.53403e-05L6.61214e-05 2.95462H2.95461V7.53755e-05L6.61567e-05 7.53403e-05ZM6.61214e-05 5.90917L6.61567e-05 2.95462H2.95461V5.90917H6.61214e-05ZM6.61567e-05 5.90917L6.61214e-05 8.86364H6.36135e-05L6.35783e-05 11.8182H2.95461L2.95461 8.86371V5.90917H6.61567e-05ZM38.1819 49.9999L38.1819 47.0454H41.1364H41.1364H44.0907V47.0453H41.1364V44.0908H44.0907V41.1363H47.0452V44.0908V47.0454V49.9999H44.0909H44.0907H41.1364H41.1364H38.1819ZM2.95456 44.0908L2.95456 41.1362H5.9091L5.9091 44.0908L8.86359 44.0908L8.86359 47.0453H5.9091H5.90904H2.95456L2.95456 44.0908Z" fill="#66BE47"/>
<path d="M31.4286 19.8H32.7143V21.0667H31.4286V19.8Z" fill="white"/>
<path d="M30.1429 18.5333H31.4286V19.8H30.1429V18.5333Z" fill="white"/>
<path d="M28.8571 17.2667H30.1429V18.5333H28.8571V17.2667Z" fill="white"/>
<path d="M19.8571 17.2667H21.1429V18.5333H19.8571V17.2667Z" fill="white"/>
<path d="M18.5714 18.5333H19.8571V19.8H18.5714V18.5333Z" fill="white"/>
<path d="M17.2857 19.8H18.5714V21.0667H17.2857V19.8Z" fill="white"/>
<path d="M17.2857 33.7333H18.5714V28.6667H17.2857V21.0667H16V28.6667V29.9333H17.2857V33.7333Z" fill="white"/>
<path d="M22.4286 28.6667V27.4H18.5714V28.6667H22.4286Z" fill="white"/>
<path d="M22.4286 33.7333H23.7143V28.6667H22.4286V33.7333Z" fill="white"/>
<path d="M22.4286 35V33.7333H18.5714V35H22.4286Z" fill="white"/>
<path d="M26.2857 33.7333H27.5714V28.6667H26.2857V33.7333Z" fill="white"/>
<path d="M27.5714 27.4V28.6667H31.4286V27.4H27.5714Z" fill="white"/>
<path d="M27.5714 33.7333V35H31.4286V33.7333H27.5714Z" fill="white"/>
<path d="M28.8571 17.2667V16H21.1429V17.2667H28.8571Z" fill="white"/>
<path d="M31.4286 33.7333H32.7143V29.9333H34V21.0667H32.7143V28.6667H31.4286V33.7333Z" fill="white"/>
<path d="M27.5714 33.7333H26.2857V28.6667H27.5714M27.5714 33.7333V35H31.4286V33.7333M27.5714 33.7333V28.6667M27.5714 33.7333H31.4286M22.4286 33.7333H23.7143V28.6667H22.4286M22.4286 33.7333V35H18.5714V33.7333M22.4286 33.7333V28.6667M22.4286 33.7333H18.5714M27.5714 28.6667V27.4H31.4286V28.6667M27.5714 28.6667H31.4286M22.4286 28.6667V27.4H18.5714V28.6667M22.4286 28.6667H18.5714M31.4286 33.7333H32.7143V29.9333H34V21.0667H32.7143M31.4286 33.7333V28.6667M31.4286 28.6667H32.7143V21.0667M18.5714 33.7333H17.2857V29.9333H16V28.6667V21.0667H17.2857M18.5714 33.7333V28.6667M32.7143 21.0667V19.8H31.4286M32.7143 21.0667H31.4286V19.8M31.4286 19.8V18.5333H30.1429M31.4286 19.8H30.1429V18.5333M30.1429 18.5333V17.2667H28.8571M30.1429 18.5333H28.8571V17.2667M28.8571 17.2667V16H21.1429V17.2667M28.8571 17.2667H21.1429M21.1429 17.2667H19.8571V18.5333M21.1429 17.2667V18.5333H19.8571M19.8571 18.5333H18.5714V19.8M19.8571 18.5333V19.8H18.5714M18.5714 19.8H17.2857V21.0667M18.5714 19.8V21.0667H17.2857M17.2857 21.0667V28.6667H18.5714" stroke="white" stroke-width="0.5"/>
</svg>
