<svg width="50" height="50" viewBox="0 0 50 50" fill="none" xmlns="http://www.w3.org/2000/svg">
<path fill-rule="evenodd" clip-rule="evenodd" d="M0 0H38.1821V2.95455H41.1366H44.091H44.0912H47.0456H50V2.95467H47.0456H44.0912H44.091H41.1366V5.90922L44.091 5.90922V8.86377H47.0456V11.8182H50L50 38.1818H47.0455V41.1363V44.0908V44.0909V47.0454V49.9999H50L50 50L11.8182 50V47.0455H8.86364V50H8.86359L8.86359 47.0455H5.9091H5.90904H2.95456L2.95456 50H2.95449L2.95449 47.0455H0V47.0453H2.95449L2.95449 44.0908L2.95449 41.1363V41.1362L2.95449 38.1818H0V0ZM11.8183 2.95462L8.86377 2.95462V7.5446e-05L11.8183 7.54812e-05V2.95462ZM5.90922 7.54107e-05H5.90935L8.86377 7.5446e-05V2.95462H5.90935H5.90922H2.9548V7.53755e-05L5.90922 7.54107e-05ZM8.86377 5.90917V2.95462H5.90935H5.90922H2.9548V5.90917H5.90922H5.90935H8.86377ZM2.9548 8.86371V5.90917H5.90935V8.86371H2.9548ZM6.61567e-05 7.53403e-05L6.61214e-05 2.95462H2.95461V7.53755e-05L6.61567e-05 7.53403e-05ZM6.61214e-05 5.90917L6.61567e-05 2.95462H2.95461V5.90917H6.61214e-05ZM6.61567e-05 5.90917L6.61214e-05 8.86364H6.36135e-05L6.35783e-05 11.8182H2.95461L2.95461 8.86371V5.90917H6.61567e-05ZM38.1819 49.9999L38.1819 47.0454H41.1364H41.1364H44.0907V47.0453H41.1364V44.0908H44.0907V41.1363H47.0452V44.0908V47.0454V49.9999H44.0909H44.0907H41.1364H41.1364H38.1819ZM2.95456 44.0908L2.95456 41.1362H5.9091L5.9091 44.0908L8.86359 44.0908L8.86359 47.0453H5.9091H5.90904H2.95456L2.95456 44.0908Z" fill="#408CFF"/>
<path d="M32.875 28.125H31.75V29.25H32.875V28.125Z" fill="white"/>
<path d="M18.25 19.125H17.125V20.25H18.25V19.125Z" fill="white"/>
<path d="M32.875 19.125H31.75V20.25H32.875V19.125Z" fill="white"/>
<path d="M19.375 30.375H18.25V31.5H19.375V30.375Z" fill="white"/>
<path d="M18.25 31.5H17.125V32.625H18.25V31.5Z" fill="white"/>
<path d="M16 31.5H17.125V20.25H16V31.5Z" fill="white"/>
<path d="M31.75 19.125V18H18.25V19.125H31.75Z" fill="white"/>
<path d="M32.875 28.125H34V20.25H32.875V28.125Z" fill="white"/>
<path d="M31.75 30.375V29.25H19.375V30.375H31.75Z" fill="white"/>
<path d="M32.875 28.125H31.75V29.25M32.875 28.125V29.25H31.75M32.875 28.125H34V20.25H32.875M32.875 28.125V20.25M31.75 29.25V30.375H19.375M31.75 29.25H19.375V30.375M18.25 19.125H17.125V20.25M18.25 19.125V20.25H17.125M18.25 19.125V18H31.75V19.125M18.25 19.125H31.75M17.125 20.25H16V31.5H17.125M17.125 20.25V31.5M31.75 19.125H32.875V20.25M31.75 19.125V20.25H32.875M17.125 31.5H18.25M17.125 31.5V32.625H18.25V31.5M19.375 30.375H18.25V31.5M19.375 30.375V31.5H18.25" stroke="white"/>
</svg>
