<svg width="26" height="26" viewBox="0 0 26 26" fill="none" xmlns="http://www.w3.org/2000/svg">
<path d="M8.58333 8.75V8.16667H9.16667V7.58333H9.75V7H15.5833V7.58333H16.1667V8.16667H16.75V8.75H17.3333V8.16667V7.58333H18.5V11.0833H15V9.91667H16.1667V9.33333H15.5833V8.75H15V8.16667H10.9167V8.75H10.3333V9.33333H9.75V9.91667H9.16667V14.5833H9.75V15.1667H10.3333V15.75H10.9167V16.3333H15V15.75H15.5833V15.1667H16.1667V14.5833H16.75V14H17.9167V15.75H17.3333V16.3333H16.75V16.9167H16.1667V17.5H9.75V16.9167H9.16667V16.3333H8.58333V15.75H8V8.75H8.58333Z" fill="white"/>
</svg>
