<svg width="25" height="24" viewBox="0 0 25 24" fill="none" xmlns="http://www.w3.org/2000/svg">
<path fill-rule="evenodd" clip-rule="evenodd" d="M0 0H24.1143V2.85105e-05L21.7038 2.84056e-05L19.2925 2.85105e-05V2.40003L21.7038 2.40002L21.7039 2.40003H24.1143V2.40009L21.7038 2.40009V4.80009H24.1143V19.1999H21.7038V21.5999H24.1143V21.6H21.7039H21.7038H19.2925V24H21.7038H21.7039H24.1143V24H0V0ZM0.000344066 2.40013H2.41177V4.80013H0.000344066V2.40013ZM4.82308 2.84533e-05L2.41177 2.81863e-05L0.000344332 2.81863e-05V2.40002L2.41165 2.40002L2.41177 2.40002L4.82308 2.40002V2.84533e-05ZM4.82308 21.5999H2.41177H2.41165H0.000344327L0.000344432 23.9999L2.41165 23.9999L2.41177 23.9999L4.82308 23.9999V21.5999ZM0.000344116 21.5998L0.00034401 19.1998H2.41177V21.5998H0.000344116Z" fill="#66BE47"/>
<path d="M16 8V8.94118H15V9.88235H14V10.8235H13V11.7647H12V12.7059H11V13.6471H10.5V14.1176H9.5V13.6471H9V12.7059H8V12.2353H7V13.6471H8V14.5882H9V15.5294H9.5V16H10.5V15.5294H11V14.5882H12V13.6471H13V12.7059H14V11.7647H15V10.8235H16V9.88235H17V8H16Z" fill="white"/>
</svg>
