<svg width="24" height="24" viewBox="0 0 24 24" fill="none" xmlns="http://www.w3.org/2000/svg">
<path d="M10.3846 11.4615V10.3846H6.07692L6.07692 11.4615H10.3846Z" fill="white"/>
<path d="M6.07692 6.07692L5 6.07692L5 10.3846H6.07692V6.07692Z" fill="white"/>
<path d="M10.3846 6.07692V5L6.07692 5V6.07692L10.3846 6.07692Z" fill="white"/>
<path d="M11.4615 6.07692L10.3846 6.07692V10.3846H11.4615V6.07692Z" fill="white"/>
<path d="M13.6154 6.07692L12.5385 6.07692V10.3846H13.6154V6.07692Z" fill="white"/>
<path d="M17.9231 6.07692V5L13.6154 5V6.07692L17.9231 6.07692Z" fill="white"/>
<path d="M17.9231 11.4615V10.3846H13.6154V11.4615H17.9231Z" fill="white"/>
<path d="M19 6.07692L17.9231 6.07692V10.3846H19V6.07692Z" fill="white"/>
<path d="M6.07692 13.6154H5L5 17.9231H6.07692V13.6154Z" fill="white"/>
<path d="M10.3846 13.6154V12.5385H6.07692V13.6154H10.3846Z" fill="white"/>
<path d="M10.3846 19V17.9231H6.07692L6.07692 19H10.3846Z" fill="white"/>
<path d="M11.4615 13.6154H10.3846V17.9231H11.4615V13.6154Z" fill="white"/>
<path d="M13.6154 13.6154H12.5385V17.9231H13.6154V13.6154Z" fill="white"/>
<path d="M17.9231 19V17.9231H13.6154V19H17.9231Z" fill="white"/>
<path d="M19 13.6154H17.9231V17.9231H19V13.6154Z" fill="white"/>
<path d="M17.9231 13.6154V12.5385H13.6154V13.6154H17.9231Z" fill="white"/>
<path d="M10.3846 6.07692V5L6.07692 5V6.07692M10.3846 6.07692L11.4615 6.07692V10.3846H10.3846M10.3846 6.07692L6.07692 6.07692M10.3846 6.07692V10.3846M10.3846 13.6154V12.5385H6.07692V13.6154M10.3846 13.6154H11.4615V17.9231H10.3846M10.3846 13.6154H6.07692M10.3846 13.6154V17.9231M17.9231 6.07692V5L13.6154 5V6.07692M17.9231 6.07692L19 6.07692V10.3846H17.9231M17.9231 6.07692L13.6154 6.07692M17.9231 6.07692V10.3846M17.9231 13.6154V12.5385H13.6154V13.6154M17.9231 13.6154H19V17.9231H17.9231M17.9231 13.6154H13.6154M17.9231 13.6154V17.9231M6.07692 6.07692L5 6.07692L5 10.3846H6.07692M6.07692 6.07692V10.3846M6.07692 13.6154H5L5 17.9231H6.07692M6.07692 13.6154V17.9231M13.6154 6.07692L12.5385 6.07692V10.3846H13.6154M13.6154 6.07692V10.3846M13.6154 13.6154H12.5385V17.9231H13.6154M13.6154 13.6154V17.9231M10.3846 10.3846V11.4615H6.07692L6.07692 10.3846M10.3846 10.3846H6.07692M10.3846 17.9231V19H6.07692L6.07692 17.9231M10.3846 17.9231H6.07692M17.9231 10.3846V11.4615H13.6154V10.3846M17.9231 10.3846H13.6154M17.9231 17.9231V19H13.6154V17.9231M17.9231 17.9231H13.6154" stroke="white" stroke-width="0.5"/>
</svg>
