<svg width="24" height="24" viewBox="0 0 24 24" fill="none" xmlns="http://www.w3.org/2000/svg">
<path d="M6.00002 18H4.99998L5 17H5.99998L6.00002 18Z" fill="white"/>
<path d="M18 18H17V17H18V18Z" fill="white"/>
<path d="M12 14H11V13H12V14Z" fill="white"/>
<path d="M11 13H10V12H11V13Z" fill="white"/>
<path d="M10 12H9.00002V11H10L10 12Z" fill="white"/>
<path d="M13 13H12V12H13V13Z" fill="white"/>
<path d="M14 12H13L13 11H14V12Z" fill="white"/>
<path d="M4 17H5L4.99998 8H4V17Z" fill="white"/>
<path d="M12 4H11L11 7H4.99998V8H11L11 12H12L12 8H18V7H12L12 4Z" fill="white"/>
<path d="M19 8H18V17H19L19 8Z" fill="white"/>
<path d="M6.00002 18V19H17L17 18H6.00002Z" fill="white"/>
<path d="M5 17H4V8H4.99998M5 17L4.99998 18H6.00002M5 17H5.99998L6.00002 18M5 17L4.99998 8M4.99998 8V7H11L11 4H12L12 7H18V8M4.99998 8H11L11 12M18 8H19L19 17H18M18 8H12L12 12M18 8V17M6.00002 18V19H17L17 18M6.00002 18H17M17 18H18V17M17 18V17H18M11 13V14H12V13M11 13H12M11 13H10V12M11 13V12M12 13V12M12 13H13V12M12 12H11M12 12H13M11 12H10M10 12H9.00002V11H10L10 12ZM13 12H14V11H13L13 12Z" stroke="white" stroke-width="0.7"/>
</svg>
