<svg width="24" height="24" viewBox="0 0 24 24" fill="none" xmlns="http://www.w3.org/2000/svg">
<path d="M6.16667 6.16666H5V17.8333H6.16667V6.16666Z" fill="white"/>
<path d="M6.1667 5L6.16667 6.16666L8.50001 6.16667V5H6.1667Z" fill="white"/>
<path d="M8.50001 6.16667L8.5 7.33334L10.8333 7.33333L10.8334 6.16667L8.50001 6.16667Z" fill="white"/>
<path d="M10.8333 7.33333V8.49999L13.1667 8.5L13.1667 7.33333H10.8333Z" fill="white"/>
<path d="M13.1667 8.5V9.66667L15.5 9.66667L15.5 8.5H13.1667Z" fill="white"/>
<path d="M15.5 9.66667V10.8333L17.8333 10.8333L17.8334 9.66667H15.5Z" fill="white"/>
<path d="M17.8333 13.1667H19V10.8333H17.8333V13.1667Z" fill="white"/>
<path d="M15.5 13.1667V14.3333H17.8334L17.8333 13.1667L15.5 13.1667Z" fill="white"/>
<path d="M13.1667 14.3333V15.5H15.5L15.5 14.3333L13.1667 14.3333Z" fill="white"/>
<path d="M10.8333 15.5V16.6667H13.1667L13.1667 15.5L10.8333 15.5Z" fill="white"/>
<path d="M8.5 16.6667L8.50001 17.8333L10.8334 17.8333L10.8333 16.6667L8.5 16.6667Z" fill="white"/>
<path d="M6.16667 17.8333L6.1667 19H8.50001V17.8333L6.16667 17.8333Z" fill="white"/>
<path d="M6.16667 6.16666H5V17.8333H6.16667M6.16667 6.16666L6.1667 5H8.50001V6.16667M6.16667 6.16666V17.8333M6.16667 6.16666L8.50001 6.16667M6.16667 17.8333L6.1667 19H8.50001V17.8333M6.16667 17.8333L8.50001 17.8333M8.50001 17.8333L8.5 16.6667L10.8333 16.6667M8.50001 17.8333L10.8334 17.8333L10.8333 16.6667M8.50001 6.16667L8.5 7.33334L10.8333 7.33333M8.50001 6.16667L10.8334 6.16667L10.8333 7.33333M10.8333 16.6667V15.5L13.1667 15.5M10.8333 16.6667H13.1667L13.1667 15.5M10.8333 7.33333V8.49999L13.1667 8.5M10.8333 7.33333H13.1667L13.1667 8.5M13.1667 15.5V14.3333L15.5 14.3333M13.1667 15.5H15.5L15.5 14.3333M13.1667 8.5V9.66667L15.5 9.66667M13.1667 8.5H15.5L15.5 9.66667M15.5 14.3333V13.1667L17.8333 13.1667M15.5 14.3333H17.8334L17.8333 13.1667M15.5 9.66667V10.8333L17.8333 10.8333M15.5 9.66667H17.8334L17.8333 10.8333M17.8333 13.1667H19V10.8333H17.8333M17.8333 13.1667V10.8333" stroke="white" stroke-width="0.5"/>
</svg>
