<svg width="36" height="35" viewBox="0 0 36 35" fill="none" xmlns="http://www.w3.org/2000/svg">
<path fill-rule="evenodd" clip-rule="evenodd" d="M0 0H35.1707V35H35.1706V31.5001H31.6535H28.1365V35H0V0ZM35.1706 31.5H31.6536V28H35.1706V31.5ZM31.6535 3.50008V8.13862e-05L28.1365 8.12332e-05V3.50008H31.6535ZM35.1706 3.50008V6.99998H31.6536V3.50008V3.49999V8.1557e-05L35.1706 8.171e-05V3.49999V3.50008ZM3.51728 3.50004H7.03361V4.75128e-05L3.51728 4.73419e-05L0.000216823 4.73419e-05L0.000216823 3.50004H0.00021713L0.00021713 7H3.51728V3.50004ZM3.51728 28L3.51728 31.5H7.03361V35H3.51728H3.51655H0.00021693L0.000216776 31.5H0.000216945L0.000216792 28H3.51728Z" fill="#EA4A4A"/>
<path fill-rule="evenodd" clip-rule="evenodd" d="M15.2 9H11.6V10.8H9.8V12.6H8V18H9.8V19.8H11.6V21.6H13.4L13.4 23.4H15.2V25.2H17V27H18.8V25.2L20.6 25.2V23.4L22.4 23.4V21.6H24.2V19.8H26V18H27.8V12.6H26V10.8H24.2V9H20.6V10.8H18.8V12.6H17V10.8H15.2V9ZM15.2 10.8V12.6H17V14.4H18.8V12.6H20.6V10.8H24.2V12.6H26V18H24.2L24.2 19.8H22.4L22.4 21.6H20.6V23.4H18.8V25.2L17 25.2V23.4L15.2 23.4V21.6H13.4V19.8H11.6V18H9.8V12.6H11.6V10.8H15.2Z" fill="white"/>
</svg>
