<svg width="24" height="24" viewBox="0 0 24 24" fill="none" xmlns="http://www.w3.org/2000/svg">
<path d="M12.6461 11.7139L14.5674 9.78541L13.6067 8.82117L11.6854 10.7496L9.76403 8.82117L8.80336 9.78541L10.7247 11.7139L8.80336 13.6424L9.76403 14.6066L11.6854 12.6781L13.6067 14.6066L14.5674 13.6424L12.6461 11.7139Z" fill="white"/>
<rect width="1.36112" height="1.36112" transform="matrix(0.705796 0.708415 -0.705796 0.708415 15.0477 14.1245)" fill="white"/>
<rect width="1.36112" height="1.36112" transform="matrix(0.705796 0.708415 -0.705796 0.708415 8.32303 7.37476)" fill="white"/>
<rect width="1.36112" height="1.36112" transform="matrix(-0.705796 0.708415 -0.705796 -0.708415 9.28369 15.0887)" fill="white"/>
<rect width="1.36112" height="1.36112" transform="matrix(-0.705796 0.708415 -0.705796 -0.708415 16.0084 8.33911)" fill="white"/>
</svg>
