<svg width="26" height="26" viewBox="0 0 26 26" fill="none" xmlns="http://www.w3.org/2000/svg">
<path d="M10 6.66667V7.5H10.8333V8.33333H16.6667V9.16667H17.5V10H19.1667V7.5H18.3333V6.66667H12.5V5.83333H11.6667V5H5.83333V5.83333H5V15.8333H6.66667V7.5H7.5V6.66667H10Z" fill="white"/>
<path d="M20.8334 12.5V11.6667H15.8334V10.8333H15V10H9.16671V10.8333H8.33337V20.8333H9.16671V21.6667H20.8334V20.8333H21.6667V12.5H20.8334ZM20 19.1667H19.1667V20H10.8334V19.1667H10V12.5H10.8334V11.6667H13.3334V12.5H14.1667V13.3333H19.1667V14.1667H20V19.1667Z" fill="white"/>
</svg>
