<svg width="20" height="20" viewBox="0 0 20 20" fill="none" xmlns="http://www.w3.org/2000/svg">
<path d="M13.375 1V2.125H6.625V1H13.375Z" fill="white"/>
<path d="M4.375 3.25V2.125H6.625V3.25H4.375Z" fill="white"/>
<path d="M3.25 4.375V3.25H4.375V4.375H3.25Z" fill="white"/>
<path d="M2.125 6.625V4.375H3.25V6.625H2.125Z" fill="white"/>
<path d="M2.125 13.375H1V6.625H2.125V13.375Z" fill="white"/>
<path d="M3.25 15.625H2.125V13.375H3.25V15.625Z" fill="white"/>
<path d="M4.375 16.75H3.25V15.625H4.375V16.75Z" fill="white"/>
<path d="M6.625 17.875H4.375V16.75H6.625V17.875Z" fill="white"/>
<path d="M13.375 17.875V19H6.625V17.875H13.375Z" fill="white"/>
<path d="M15.625 16.75V17.875H13.375V16.75H15.625Z" fill="white"/>
<path d="M16.75 15.625V16.75H15.625V15.625H16.75Z" fill="white"/>
<path d="M17.875 13.375V15.625H16.75V13.375H17.875Z" fill="white"/>
<path d="M17.875 6.625H19V13.375H17.875V6.625Z" fill="white"/>
<path d="M16.75 4.375H17.875V6.625H16.75V4.375Z" fill="white"/>
<path d="M15.625 3.25H16.75V4.375H15.625V3.25Z" fill="white"/>
<path d="M15.625 3.25V2.125H13.375V3.25H15.625Z" fill="white"/>
<path d="M6.625 13.375H7.75V14.5H8.875V15.625H10V14.5H12.25V13.375H13.375V11.125H12.25V10H10V8.875H7.75V6.625H12.25V7.75H13.375V6.625H12.25V5.5H11.125V4.375H10V5.5H7.75V6.625H6.625V8.875H7.75V10H10V11.125H12.25V13.375H7.75V12.25H6.625V13.375Z" fill="white"/>
<path d="M13.375 2.125V1H6.625V2.125M13.375 2.125H6.625M13.375 2.125H15.625V3.25M13.375 2.125V3.25H15.625M6.625 2.125H4.375V3.25M6.625 2.125V3.25H4.375M4.375 3.25H3.25V4.375M4.375 3.25V4.375H3.25M3.25 4.375H2.125V6.625M3.25 4.375V6.625H2.125M2.125 6.625H1V13.375H2.125M2.125 6.625V13.375M2.125 13.375V15.625H3.25M2.125 13.375H3.25V15.625M3.25 15.625V16.75H4.375M3.25 15.625H4.375V16.75M4.375 16.75V17.875H6.625M4.375 16.75H6.625V17.875M6.625 17.875V19H13.375V17.875M6.625 17.875H13.375M13.375 17.875H15.625V16.75M13.375 17.875V16.75H15.625M15.625 16.75H16.75V15.625M15.625 16.75V15.625H16.75M16.75 15.625H17.875V13.375M16.75 15.625V13.375H17.875M17.875 13.375H19V6.625H17.875M17.875 13.375V6.625M17.875 6.625V4.375H16.75M17.875 6.625H16.75V4.375M16.75 4.375V3.25H15.625M16.75 4.375H15.625V3.25M7.75 13.375H6.625V12.25H7.75V13.375ZM7.75 13.375V14.5H8.875V15.625H10V14.5H12.25V13.375M7.75 13.375H12.25M12.25 13.375H13.375V11.125H12.25M12.25 13.375V11.125M12.25 11.125V10H10M12.25 11.125H10V10M10 10V8.875H7.75M10 10H7.75V8.875M7.75 8.875V6.625M7.75 8.875H6.625V6.625H7.75M7.75 6.625H12.25M7.75 6.625V5.5H10V4.375H11.125V5.5H12.25V6.625M12.25 6.625V7.75H13.375V6.625H12.25Z" stroke="white" stroke-width="0.5"/>
</svg>
