<svg width="24" height="24" viewBox="0 0 24 24" fill="none" xmlns="http://www.w3.org/2000/svg">
<path d="M19.875 14.6923H18.75V15.7692H19.875V14.6923Z" fill="white"/>
<path d="M5.25 6.07692H4.125V7.15385H5.25V6.07692Z" fill="white"/>
<path d="M19.875 6.07692H18.75V7.15385H19.875V6.07692Z" fill="white"/>
<path d="M6.375 16.8462H5.25V17.9231H6.375V16.8462Z" fill="white"/>
<path d="M5.25 17.9231H4.125V19H5.25V17.9231Z" fill="white"/>
<path d="M3 17.9231H4.125V7.15385H3V17.9231Z" fill="white"/>
<path d="M18.75 6.07692V5H5.25V6.07692H18.75Z" fill="white"/>
<path d="M19.875 14.6923H21V7.15385H19.875V14.6923Z" fill="white"/>
<path d="M18.75 16.8462V15.7692H6.375V16.8462H18.75Z" fill="white"/>
<path d="M19.875 14.6923H18.75V15.7692M19.875 14.6923V15.7692H18.75M19.875 14.6923H21V7.15385H19.875M19.875 14.6923V7.15385M18.75 15.7692V16.8462H6.375M18.75 15.7692H6.375V16.8462M5.25 6.07692H4.125V7.15385M5.25 6.07692V7.15385H4.125M5.25 6.07692V5H18.75V6.07692M5.25 6.07692H18.75M4.125 7.15385H3V17.9231H4.125M4.125 7.15385V17.9231M18.75 6.07692H19.875V7.15385M18.75 6.07692V7.15385H19.875M4.125 17.9231H5.25M4.125 17.9231V19H5.25V17.9231M6.375 16.8462H5.25V17.9231M6.375 16.8462V17.9231H5.25" stroke="white" stroke-width="0.5"/>
</svg>
