<svg width="50" height="28" viewBox="0 0 50 28" fill="none" xmlns="http://www.w3.org/2000/svg">
<path fill-rule="evenodd" clip-rule="evenodd" d="M42.5338 1.86667H42.533L40.6672 1.86667V0L0 3.62119e-06V1.87528e-05H1.86667V1.86667V1.86668V3.73333V3.73334V5.6H0V5.60003H1.86667V7.46669V7.46669V9.33335H0V18.6667H1.86667V20.5333V22.4V24.2667H0V24.2667H1.86667V26.1334V28H1.86719V26.1333V24.2667H3.73307H3.73385H5.59974V26.1333V28H5.60026V26.1333H7.46614H7.46692H9.33281V28L40.6672 28V26.1333H42.533L42.5338 26.1333H44.3997V28H44.4002V26.1333V24.2667H46.2661V22.4H48.1328V24.2667V26.1333V28L48.1333 28L48.1333 26.1333V24.2667V22.4H50V22.4H48.1333V20.5333V18.6667H50V9.33334H48.1333V7.46667V5.60001V3.73336H50V3.73332L48.1333 3.73332V1.86667V6.52703e-07L48.1328 6.52658e-07V1.86667V3.73332L46.2669 3.73332H46.2661H44.4002V1.86667V3.26352e-07L44.3997 3.26306e-07V1.86667L42.5338 1.86667ZM1.86719 3.73333V1.86668V1.86667V1.36666e-05H3.73307H3.73385H5.59974V1.86667V1.86668V3.73334H3.73385V5.6H1.86719V3.73334V3.73333ZM3.73385 22.4H1.86719V24.2667H3.73385V22.4ZM5.60026 1.36666e-05H7.46614H7.46692H9.33281V1.86668H7.46692H7.46614H5.60026V1.36666e-05ZM46.2661 5.60002H48.1328V3.73336L46.2661 3.73336V5.60002Z" fill="#66BE47"/>
<mask id="path-2-inside-1_87_15660" fill="white">
<path fill-rule="evenodd" clip-rule="evenodd" d="M27.3333 4.66667H46.0761L46.0761 4.66673L44.2018 4.66673L42.3285 4.66673V6.53213L44.2018 6.53213L44.2028 6.53213L46.0761 6.53213V6.53214L44.2018 6.53214V8.39754H46.0761V19.5899H44.2018V21.4553H46.0761V21.4553H44.2028H44.2018H42.3285V23.3207H27.3333V23.3207H29.2057H29.2068H31.08V21.4553H29.2068H29.2057H27.3333V21.4552L29.2068 21.4552L29.2068 19.5898H27.3333V8.39761H29.2068V6.53221H27.3333V6.53214L29.2057 6.53214L29.2068 6.53214L31.08 6.53214V4.66674L29.2068 4.66674L27.3333 4.66674V4.66667Z"/>
</mask>
<path fill-rule="evenodd" clip-rule="evenodd" d="M27.3333 4.66667H46.0761L46.0761 4.66673L44.2018 4.66673L42.3285 4.66673V6.53213L44.2018 6.53213L44.2028 6.53213L46.0761 6.53213V6.53214L44.2018 6.53214V8.39754H46.0761V19.5899H44.2018V21.4553H46.0761V21.4553H44.2028H44.2018H42.3285V23.3207H27.3333V23.3207H29.2057H29.2068H31.08V21.4553H29.2068H29.2057H27.3333V21.4552L29.2068 21.4552L29.2068 19.5898H27.3333V8.39761H29.2068V6.53221H27.3333V6.53214L29.2057 6.53214L29.2068 6.53214L31.08 6.53214V4.66674L29.2068 4.66674L27.3333 4.66674V4.66667Z" fill="white"/>
<path d="M46.0761 4.66667L47.0548 4.46113L46.8879 3.66667H46.0761V4.66667ZM27.3333 4.66667V3.66667H26.3333V4.66667H27.3333ZM46.0761 4.66673V5.66673L47.308 5.66673L47.0548 4.46118L46.0761 4.66673ZM44.2018 4.66673V3.66673V4.66673ZM42.3285 4.66673V3.66673L41.3285 3.66673V4.66673H42.3285ZM42.3285 6.53213H41.3285V7.53213L42.3285 7.53213V6.53213ZM44.2018 6.53213L44.2021 5.53213H44.2018V6.53213ZM44.2028 6.53213L44.2025 7.53213H44.2028V6.53213ZM46.0761 6.53213H47.0761V5.53213L46.0761 5.53213V6.53213ZM46.0761 6.53214V7.53214H47.0761V6.53214H46.0761ZM44.2018 6.53214V5.53214L43.2018 5.53214V6.53214H44.2018ZM44.2018 8.39754H43.2018V9.39754H44.2018V8.39754ZM46.0761 8.39754H47.0761V7.39754H46.0761V8.39754ZM46.0761 19.5899V20.5899H47.0761V19.5899H46.0761ZM44.2018 19.5899V18.5899H43.2018V19.5899H44.2018ZM44.2018 21.4553H43.2018V22.4553H44.2018V21.4553ZM46.0761 21.4553H47.0761V20.4553H46.0761V21.4553ZM46.0761 21.4553V22.4553H47.0761V21.4553H46.0761ZM42.3285 21.4553V20.4553H41.3285V21.4553H42.3285ZM42.3285 23.3207V24.3207H43.3285V23.3207H42.3285ZM27.3333 23.3207H26.3333V24.3207H27.3333V23.3207ZM27.3333 23.3207V22.3207H26.3333V23.3207H27.3333ZM31.08 23.3207V24.3207H32.08V23.3207H31.08ZM31.08 21.4553H32.08V20.4553H31.08V21.4553ZM27.3333 21.4553H26.3333V22.4553H27.3333V21.4553ZM27.3333 21.4552L27.3333 20.4552L26.3333 20.4552V21.4552H27.3333ZM29.2068 21.4552L29.2068 22.4552L30.2068 22.4552V21.4552H29.2068ZM29.2068 19.5898H30.2068V18.5898H29.2068V19.5898ZM27.3333 19.5898H26.3333V20.5898H27.3333V19.5898ZM27.3333 8.39761V7.39761H26.3333V8.39761H27.3333ZM29.2068 8.39761V9.39761H30.2068V8.39761H29.2068ZM29.2068 6.53221H30.2068V5.53221H29.2068V6.53221ZM27.3333 6.53221H26.3333V7.53221H27.3333V6.53221ZM27.3333 6.53214L27.3333 5.53214L26.3333 5.53214V6.53214H27.3333ZM29.2057 6.53214L29.2057 7.53214H29.2058L29.2057 6.53214ZM29.2068 6.53214L29.2068 5.53214H29.2067L29.2068 6.53214ZM31.08 6.53214V7.53214H32.08V6.53214H31.08ZM31.08 4.66674H32.08V3.66674H31.08V4.66674ZM29.2068 4.66674V3.66674V4.66674ZM27.3333 4.66674H26.3333V5.66674H27.3333L27.3333 4.66674ZM46.0761 3.66667H27.3333V5.66667H46.0761V3.66667ZM47.0548 4.46118L47.0548 4.46113L45.0975 4.87222L45.0975 4.87227L47.0548 4.46118ZM44.2018 5.66673L46.0761 5.66673V3.66673L44.2018 3.66673V5.66673ZM42.3285 5.66673L44.2018 5.66673V3.66673L42.3285 3.66673V5.66673ZM43.3285 6.53213V4.66673H41.3285V6.53213H43.3285ZM44.2018 5.53213L42.3285 5.53213V7.53213H44.2018V5.53213ZM44.203 5.53213L44.2021 5.53213L44.2016 7.53213L44.2025 7.53213L44.203 5.53213ZM46.0761 5.53213L44.2028 5.53213V7.53213L46.0761 7.53213V5.53213ZM47.0761 6.53214V6.53213H45.0761V6.53214H47.0761ZM44.2018 7.53214L46.0761 7.53214V5.53214L44.2018 5.53214V7.53214ZM45.2018 8.39754V6.53214H43.2018V8.39754H45.2018ZM46.0761 7.39754H44.2018V9.39754H46.0761V7.39754ZM47.0761 19.5899V8.39754H45.0761V19.5899H47.0761ZM44.2018 20.5899H46.0761V18.5899H44.2018V20.5899ZM45.2018 21.4553V19.5899H43.2018V21.4553H45.2018ZM46.0761 20.4553H44.2018V22.4553H46.0761V20.4553ZM47.0761 21.4553V21.4553H45.0761V21.4553H47.0761ZM44.2028 22.4553H46.0761V20.4553H44.2028V22.4553ZM44.2018 22.4553H44.2028V20.4553H44.2018V22.4553ZM42.3285 22.4553H44.2018V20.4553H42.3285V22.4553ZM43.3285 23.3207V21.4553H41.3285V23.3207H43.3285ZM27.3333 24.3207H42.3285V22.3207H27.3333V24.3207ZM26.3333 23.3207V23.3207H28.3333V23.3207H26.3333ZM29.2057 22.3207H27.3333V24.3207H29.2057V22.3207ZM29.2068 22.3207H29.2057V24.3207H29.2068V22.3207ZM31.08 22.3207H29.2068V24.3207H31.08V22.3207ZM30.08 21.4553V23.3207H32.08V21.4553H30.08ZM29.2068 22.4553H31.08V20.4553H29.2068V22.4553ZM29.2057 22.4553H29.2068V20.4553H29.2057V22.4553ZM27.3333 22.4553H29.2057V20.4553H27.3333V22.4553ZM26.3333 21.4552V21.4553H28.3333V21.4552H26.3333ZM29.2068 20.4552L27.3333 20.4552L27.3333 22.4552L29.2068 22.4552L29.2068 20.4552ZM28.2068 19.5898L28.2068 21.4552H30.2068L30.2068 19.5898H28.2068ZM27.3333 20.5898H29.2068V18.5898H27.3333V20.5898ZM26.3333 8.39761V19.5898H28.3333V8.39761H26.3333ZM29.2068 7.39761H27.3333V9.39761H29.2068V7.39761ZM28.2068 6.53221V8.39761H30.2068V6.53221H28.2068ZM27.3333 7.53221H29.2068V5.53221H27.3333V7.53221ZM26.3333 6.53214V6.53221H28.3333V6.53214H26.3333ZM29.2057 5.53214L27.3333 5.53214L27.3333 7.53214L29.2057 7.53214L29.2057 5.53214ZM29.2067 5.53214L29.2056 5.53214L29.2058 7.53214L29.2069 7.53214L29.2067 5.53214ZM31.08 5.53214L29.2068 5.53214L29.2068 7.53214L31.08 7.53214V5.53214ZM30.08 4.66674V6.53214H32.08V4.66674H30.08ZM29.2068 5.66674L31.08 5.66674V3.66674L29.2068 3.66674V5.66674ZM27.3333 5.66674H29.2068V3.66674H27.3333L27.3333 5.66674ZM26.3333 4.66667V4.66674H28.3333V4.66667H26.3333Z" fill="white" fill-opacity="0.15" mask="url(#path-2-inside-1_87_15660)"/>
<path d="M39.1783 11.2504V11.8959H38.5329V12.5414H37.8874V13.1868H37.2419V13.8323H36.5965V14.4778H35.951V15.1232H35.6283V15.446H34.9828V15.1232H34.6601V14.4778H34.0146V14.155H33.3691V15.1232H34.0146V15.7687H34.6601V16.4142H34.9828V16.7369H35.6283V16.4142H35.951V15.7687H36.5965V15.1232H37.2419V14.4778H37.8874V13.8323H38.5329V13.1868H39.1783V12.5414H39.8238V11.2504H39.1783Z" fill="#66BE47"/>
</svg>
