<svg width="24" height="24" viewBox="0 0 24 24" fill="none" xmlns="http://www.w3.org/2000/svg">
<path d="M5 12H6V13H5V12Z" fill="white"/>
<path d="M14 18H15V19H14V18Z" fill="white"/>
<path d="M13 17H14V18H13V17Z" fill="white"/>
<path d="M11 13H12V14H11V13Z" fill="white"/>
<path d="M12 12H13V13H12V12Z" fill="white"/>
<path d="M13 11H14V12H13V11Z" fill="white"/>
<path d="M14 10H15V11H14V10Z" fill="white"/>
<path d="M15 9H16V10H15V9Z" fill="white"/>
<path d="M16 8H17V9H16V8Z" fill="white"/>
<path d="M6 11V12H8V11H6Z" fill="white"/>
<path d="M8 14V13H6V14H8Z" fill="white"/>
<path d="M11 17H10V15H11V14H8V15H9V19H10V18H11V17Z" fill="white"/>
<path d="M13 16H12V15H11V17H13V16Z" fill="white"/>
<path d="M16 15H15V18H16V15Z" fill="white"/>
<path d="M17 12H16V15H17V12Z" fill="white"/>
<path d="M8 10V11H10V10H8Z" fill="white"/>
<path d="M10 9V10H12V9H10Z" fill="white"/>
<path d="M12 8V9H14V8H12Z" fill="white"/>
<path d="M16 8V7H14V8H16Z" fill="white"/>
<path d="M16 6V7H18V6H16Z" fill="white"/>
<path d="M19 7H18V9H19V7Z" fill="white"/>
<path d="M18 9H17V12H18V9Z" fill="white"/>
<path d="M6 12V11H8M6 12H5V13H6M6 12V13M6 12H8V11M6 13V14H8M6 13H8V14M8 11V10H10M8 11H10V10M10 10V9H12M10 10H12V9M12 9V8H14M12 9H14V8M14 8V7H16M14 8H16M16 7V8M16 7V6H18V7M16 7H18M16 8H17V9M16 8V9M18 7H19V9H18M18 7V9M18 9H17M18 9V12H17M17 9H16M17 9V12M17 12H16V15M17 12V15H16M16 15H15V18M16 15V18H15M15 18H14M15 18V19H14V18M14 18V17H13M14 18H13V17M13 17V16H12V15H11M13 17H11M11 15V14M11 15H10V17H11M11 15V17M11 17V18H10V19H9V15H8V14M8 14H11M11 14H12V13M11 14V13H12M12 13H13V12M12 13V12H13M13 12H14V11M13 12V11H14M14 11H15V10M14 11V10H15M15 10H16V9M15 10V9H16" stroke="white" stroke-width="0.5"/>
</svg>
