<svg width="24" height="24" viewBox="0 0 24 24" fill="none" xmlns="http://www.w3.org/2000/svg">
<path d="M19.1111 6.66667V5.77778H18.2222V4.88889H17.3333V4H8.44444V4.88889H7.55556V5.77778H6.66667V6.66667H5.77778V5.77778V4.88889H4V10.2222H9.33333V8.44444H7.55556V7.55556H8.44444V6.66667H9.33333V5.77778H15.5556V6.66667H16.4444V7.55556H17.3333V8.44444H18.2222V15.5556H17.3333V16.4444H16.4444V17.3333H15.5556V18.2222H9.33333V17.3333H8.44444V16.4444H7.55556V15.5556H6.66667V14.6667H4.88889V17.3333H5.77778V18.2222H6.66667V19.1111H7.55556V20H17.3333V19.1111H18.2222V18.2222H19.1111V17.3333H20V6.66667H19.1111Z" fill="white"/>
</svg>
