<svg width="26" height="26" viewBox="0 0 26 26" fill="none" xmlns="http://www.w3.org/2000/svg">
<path d="M16.1402 18.0602C17.0683 17.462 17.8129 16.6184 18.2936 15.6208L17.4117 15.188C16.573 16.9289 14.8613 18.0103 12.9447 18.0103C10.2075 18.0103 7.98059 15.7627 7.98059 13C7.98059 10.2373 10.2075 7.9897 12.9446 7.9897C14.5739 7.9897 16.0968 8.81111 17.0163 10.1354L15.2768 11.8827L19 11.8827L19 8.1428L17.7207 9.42786C17.295 8.84852 16.768 8.34807 16.1606 7.95301C15.2019 7.32957 14.0899 7 12.9446 7C9.66674 7 7 9.69158 7 13C7 16.3084 9.66674 19 12.9446 19C14.0813 19 15.1863 18.675 16.1402 18.0602Z" fill="white"/>
</svg>
