<svg width="20" height="15" viewBox="0 0 20 15" fill="none" xmlns="http://www.w3.org/2000/svg">
<path d="M18.3848 6.48526L17.6777 7.19237L16.9706 6.48526L16.2635 7.19237L15.5563 6.48526L14.8492 7.19237L14.1421 6.48526L13.435 7.19237L12.7279 6.48526L12.0208 7.19237L11.3137 6.48526L10.6066 7.19237L9.89949 6.48526L9.19239 7.19237L8.48528 6.48526L7.77817 7.19237L7.07107 6.48526L6.36396 7.19237L5.65685 6.48526L4.94975 7.19237L4.24264 6.48526L8.48528 2.24262L7.07107 0.828407L0 7.89948L7.07107 14.9705L8.48528 13.5563L4.24264 9.31369L4.94975 8.60658L5.65685 9.31369L6.36396 8.60658L7.07107 9.31369L7.77817 8.60658L8.48528 9.31369L9.19239 8.60658L9.89949 9.31369L10.6066 8.60658L11.3137 9.31369L12.0208 8.60658L12.7279 9.31369L13.435 8.60658L14.1421 9.31369L14.8492 8.60658L15.5563 9.31369L16.2635 8.60658L16.9706 9.31369L17.6777 8.60658L18.3848 9.31369L19.799 7.89948L18.3848 6.48526Z" fill="white"/>
</svg>
