<svg width="42" height="42" viewBox="0 0 42 42" fill="none" xmlns="http://www.w3.org/2000/svg">
<path fill-rule="evenodd" clip-rule="evenodd" d="M39.5183 0H39.5183V2.48182H42V2.48196H39.5183V4.96371V4.96378V7.44546V7.44553V9.92728H42V42L9.92718 42V39.5182H7.44536L7.44535 42V39.5182H4.96359H4.96353H2.48178L2.48178 42H2.48171L2.48171 39.5182H0V39.518H2.48171L2.48171 37.0363V37.0362L2.48171 34.5545V34.5545L2.48171 32.0727H0V9.92727H2.48181V7.44545H0V7.44543H2.4818V4.96368V4.96362V2.48186H0V2.48183H2.4818V8.61266e-06L0 8.58307e-06V0H32.0728V2.48182H34.5546V0H34.5547V2.48182H37.0364H37.0365H39.5183V0ZM7.44542 8.19502e-06L9.92724 8.22461e-06V2.48183L7.44548 2.48183H4.96373H4.96367H2.48191L2.48191 8.61267e-06L4.96367 8.64226e-06L4.96373 8.64226e-06L7.44542 8.19502e-06ZM7.44548 2.48186H4.96373H4.96367H2.48191V4.96362V4.96368V7.44543H4.96373V4.96368H7.44548V2.48186ZM39.5183 4.96378V7.44553H37.0364V4.96378H34.5547V2.48196H37.0364H37.0365H39.5183V4.96371V4.96378ZM34.5544 39.5181H32.0727V41.9999H34.5544H34.5545H37.0361H37.0363H39.518V39.5181V37.0364V37.0363V34.5546H37.0361V37.0363H34.5544V39.5181ZM39.5181 37.0364V39.5181V41.9999H41.9999V39.5181V37.0364V37.0363V34.5546H39.5181V37.0363V37.0364ZM41.9999 32.0727V34.5546H39.5181V32.0727H41.9999ZM2.48178 37.0362L2.48178 34.5545H4.96359V37.0362H7.44535V39.518H4.96359H4.96353H2.48178L2.48178 37.0363V37.0362Z" fill="#447EF7"/>
<path d="M26.8333 16V15.1667H25.1667V14.3333H23.5V13.5H22.6667V12.6667H19.3333V13.5H18.5V14.3333H16.8333V15.1667H15.1667V16H13.5V23.5H14.3333V24.3333H15.1667V25.1667H16V26H16.8333V26.8333H17.6667V27.6667H18.5V28.5H19.3333V29.3333H22.6667V28.5H23.5V27.6667H24.3333V26.8333H25.1667V26H26V25.1667H26.8333V24.3333H27.6667V23.5H28.5V16H26.8333ZM26.8333 21.8333H26V23.5H25.1667V24.3333H24.3333V25.1667H23.5V26H22.6667V26.8333H19.3333V26H18.5V25.1667H17.6667V24.3333H16.8333V23.5H16V21.8333H15.1667V17.6667H16.8333V16.8333H18.5V16H20.1667V15.1667H21.8333V16H23.5V16.8333H25.1667V17.6667H26.8333V21.8333Z" fill="white"/>
</svg>
