<svg width="24" height="24" viewBox="0 0 24 24" fill="none" xmlns="http://www.w3.org/2000/svg">
<path d="M11.5 5H12.4375V5.9375H11.5V5Z" fill="white"/>
<path d="M12.4375 5H11.5V5.9375H12.4375V5Z" fill="white"/>
<path d="M4.9375 10.625H4V11.5625H4.9375V10.625Z" fill="white"/>
<path d="M19 10.625H19.9375V11.5625H19V10.625Z" fill="white"/>
<path d="M7.75 12.5H6.8125V13.4375H7.75V12.5Z" fill="white"/>
<path d="M16.1875 12.5H17.125V13.4375H16.1875V12.5Z" fill="white"/>
<path d="M10.5625 17.1875H9.625V18.125H10.5625V17.1875Z" fill="white"/>
<path d="M13.375 17.1875H14.3125V18.125H13.375V17.1875Z" fill="white"/>
<path d="M11.5 5.9375H10.5625V7.8125H11.5V5.9375Z" fill="white"/>
<path d="M13.375 5.9375H12.4375V7.8125H13.375V5.9375Z" fill="white"/>
<path d="M14.3125 7.8125H13.375V9.6875H14.3125V7.8125Z" fill="white"/>
<path d="M10.5625 7.8125H9.625V9.6875H10.5625V7.8125Z" fill="white"/>
<path d="M9.625 10.625V9.6875H4.9375V10.625H9.625Z" fill="white"/>
<path d="M14.3125 9.6875V10.625H19V9.6875H14.3125Z" fill="white"/>
<path d="M17.125 11.5625V12.5H19V11.5625H17.125Z" fill="white"/>
<path d="M16.1875 13.4375H15.25V15.3125H16.1875V13.4375Z" fill="white"/>
<path d="M8.6875 13.4375H7.75V15.3125H8.6875V13.4375Z" fill="white"/>
<path d="M16.1875 17.1875H17.125V15.3125H16.1875V17.1875Z" fill="white"/>
<path d="M17.125 19.0625H16.1875V20H18.0625V17.1875H17.125V19.0625Z" fill="white"/>
<path d="M16.1875 19.0625V18.125H14.3125V19.0625H16.1875Z" fill="white"/>
<path d="M13.375 17.1875V16.25H10.5625V17.1875H13.375Z" fill="white"/>
<path d="M7.75 18.125V19.0625H9.625V18.125H7.75Z" fill="white"/>
<path d="M7.75 19.0625H6.8125V17.1875H5.875V20H7.75V19.0625Z" fill="white"/>
<path d="M6.8125 17.1875H7.75V15.3125H6.8125V17.1875Z" fill="white"/>
<path d="M6.8125 12.5V11.5625H4.9375V12.5H6.8125Z" fill="white"/>
<path d="M12.4375 5.9375V5H11.5V5.9375M12.4375 5.9375H11.5M12.4375 5.9375H13.375V7.8125M12.4375 5.9375V7.8125H13.375M11.5 5.9375H10.5625V7.8125M11.5 5.9375V7.8125H10.5625M10.5625 7.8125H9.625V9.6875M10.5625 7.8125V9.6875H9.625M13.375 7.8125H14.3125V9.6875M13.375 7.8125V9.6875H14.3125M9.625 9.6875V10.625H4.9375M9.625 9.6875H4.9375V10.625M14.3125 9.6875V10.625H19M14.3125 9.6875H19V10.625M4.9375 10.625H4V11.5625H4.9375M4.9375 10.625V11.5625M19 10.625H19.9375V11.5625H19M19 10.625V11.5625M4.9375 11.5625V12.5H6.8125M4.9375 11.5625H6.8125V12.5M19 11.5625V12.5H17.125M19 11.5625H17.125V12.5M6.8125 12.5H7.75V13.4375M6.8125 12.5V13.4375H7.75M17.125 12.5H16.1875V13.4375M17.125 12.5V13.4375H16.1875M7.75 13.4375H8.6875V15.3125H7.75M7.75 13.4375V15.3125M16.1875 13.4375H15.25V15.3125H16.1875M16.1875 13.4375V15.3125M7.75 15.3125H6.8125V17.1875M7.75 15.3125V17.1875H6.8125M16.1875 15.3125H17.125V17.1875M16.1875 15.3125V17.1875H17.125M6.8125 17.1875H5.875V20H7.75V19.0625M6.8125 17.1875V19.0625H7.75M17.125 17.1875H18.0625V20H16.1875V19.0625M17.125 17.1875V19.0625H16.1875M7.75 19.0625V18.125H9.625M7.75 19.0625H9.625V18.125M16.1875 19.0625V18.125H14.3125M16.1875 19.0625H14.3125V18.125M9.625 18.125V17.1875H10.5625M9.625 18.125H10.5625V17.1875M14.3125 18.125V17.1875H13.375M14.3125 18.125H13.375V17.1875M13.375 17.1875V16.25H10.5625V17.1875M13.375 17.1875H10.5625" stroke="white" stroke-width="0.5"/>
</svg>
