<svg width="7" height="12" viewBox="0 0 7 12" fill="none" xmlns="http://www.w3.org/2000/svg">
<path fill-rule="evenodd" clip-rule="evenodd" d="M-7.49338e-08 10.2857L0 12L1.71429 12L1.71429 10.2857L3.42857 10.2857L3.42857 8.57143L5.14286 8.57143L5.14286 6.85714L6.85714 6.85714L6.85714 5.14286L5.14286 5.14286L5.14286 3.42857L3.42857 3.42857L3.42857 1.71429L1.71429 1.71429L1.71429 -7.49339e-08L-5.24537e-07 0L-4.49603e-07 1.71429L1.71429 1.71429L1.71429 3.42857L3.42857 3.42857L3.42857 5.14286L5.14286 5.14286L5.14286 6.85714L3.42857 6.85714L3.42857 8.57143L1.71429 8.57143L1.71429 10.2857L-7.49338e-08 10.2857Z" fill="white"/>
</svg>
