<svg width="50" height="28" viewBox="0 0 50 28" fill="none" xmlns="http://www.w3.org/2000/svg">
<path fill-rule="evenodd" clip-rule="evenodd" d="M7.46618 26.1333L7.46696 26.1333L9.33285 26.1333L9.33285 28L50 28L50 28L48.1333 28L48.1333 26.1333L48.1333 26.1333L48.1333 24.2667L48.1333 24.2667L48.1333 22.4L50 22.4L50 22.4L48.1333 22.4L48.1333 20.5333L48.1333 20.5333L48.1333 18.6666L50 18.6666L50 9.33332L48.1333 9.33332L48.1333 7.46666L48.1333 5.6L48.1333 3.73334L50 3.73334L50 3.73331L48.1333 3.73331L48.1333 1.86664L48.1333 2.26404e-06L48.1328 2.26409e-06L48.1328 1.86665L48.1328 3.73331L46.2669 3.73331L46.2661 3.73331L44.4003 3.73331L44.4003 1.86665L44.4003 2.5904e-06L44.3997 2.59044e-06L44.3997 1.86665L42.5339 1.86665L42.5331 1.86665L40.6672 1.86665L40.6672 2.91675e-06L9.33285 1.84139e-06L9.33285 1.86667L7.46696 1.86667L7.46618 1.86667L5.60029 1.86667L5.60029 2.1677e-06L5.59977 2.16775e-06L5.59977 1.86667L5.59977 3.73333L3.73389 3.73333L3.73389 5.59998L1.86722 5.59998L1.86722 3.73333L1.86722 1.86666L1.86722 2.49406e-06L1.86668 4.40145e-06L1.8667 1.86666L1.8667 3.73332L1.8667 5.59998L3.61887e-05 5.59998L3.61887e-05 5.60002L1.8667 5.60002L1.8667 7.46667L1.8667 9.33334L3.65151e-05 9.33334L3.7331e-05 18.6667L1.8667 18.6667L1.8667 20.5333L1.8667 22.4L1.8667 24.2666L3.78206e-05 24.2666L3.78206e-05 24.2667L1.8667 24.2667L1.8667 26.1333L1.8667 28L1.86723 28L1.86723 26.1333L1.86723 24.2667L3.73311 24.2667L3.73389 24.2667L5.59977 24.2667L5.59977 26.1333L5.59977 28L5.6003 28L5.6003 26.1333L7.46618 26.1333ZM48.1328 24.2667L48.1328 26.1333L48.1328 26.1333L48.1328 28L46.2669 28L46.2661 28L44.4003 28L44.4003 26.1333L44.4003 26.1333L44.4003 24.2667L46.2661 24.2667L46.2661 22.4L48.1328 22.4L48.1328 24.2667L48.1328 24.2667ZM46.2661 5.60001L48.1328 5.60001L48.1328 3.73334L46.2661 3.73334L46.2661 5.60001ZM44.3997 28L42.5339 28L42.5331 28L40.6672 28L40.6672 26.1333L42.5331 26.1333L42.5339 26.1333L44.3997 26.1333L44.3997 28ZM3.73389 22.4L1.86723 22.4L1.86723 24.2666L3.73389 24.2666L3.73389 22.4Z" fill="#66BE47" fill-opacity="0.5"/>
<mask id="path-2-inside-1_30_7" fill="white">
<path fill-rule="evenodd" clip-rule="evenodd" d="M22.6667 23.3333L3.92382 23.3333L3.92381 23.3333L5.79809 23.3333L7.67146 23.3333L7.67146 21.4679L5.79809 21.4679L5.79718 21.4679L3.92381 21.4679L3.92381 21.4679L5.79809 21.4679L5.79809 19.6025L3.92381 19.6025L3.92381 8.41013L5.79809 8.41013L5.79809 6.54473L3.92381 6.54473L3.92381 6.54466L5.79718 6.54466L5.79809 6.54466L7.67146 6.54466L7.67146 4.67931L22.6667 4.67931L22.6667 4.67933L20.7942 4.67933L20.7932 4.67933L18.92 4.67933L18.92 6.54473L20.7932 6.54473L20.7942 6.54473L22.6667 6.54473L22.6667 6.5448L20.7932 6.5448L20.7932 8.4102L22.6667 8.4102L22.6667 19.6024L20.7932 19.6024L20.7932 21.4678L22.6667 21.4678L22.6667 21.4679L20.7942 21.4679L20.7932 21.4679L18.92 21.4679L18.92 23.3333L20.7932 23.3333L22.6667 23.3333L22.6667 23.3333Z"/>
</mask>
<path fill-rule="evenodd" clip-rule="evenodd" d="M22.6667 23.3333L3.92382 23.3333L3.92381 23.3333L5.79809 23.3333L7.67146 23.3333L7.67146 21.4679L5.79809 21.4679L5.79718 21.4679L3.92381 21.4679L3.92381 21.4679L5.79809 21.4679L5.79809 19.6025L3.92381 19.6025L3.92381 8.41013L5.79809 8.41013L5.79809 6.54473L3.92381 6.54473L3.92381 6.54466L5.79718 6.54466L5.79809 6.54466L7.67146 6.54466L7.67146 4.67931L22.6667 4.67931L22.6667 4.67933L20.7942 4.67933L20.7932 4.67933L18.92 4.67933L18.92 6.54473L20.7932 6.54473L20.7942 6.54473L22.6667 6.54473L22.6667 6.5448L20.7932 6.5448L20.7932 8.4102L22.6667 8.4102L22.6667 19.6024L20.7932 19.6024L20.7932 21.4678L22.6667 21.4678L22.6667 21.4679L20.7942 21.4679L20.7932 21.4679L18.92 21.4679L18.92 23.3333L20.7932 23.3333L22.6667 23.3333L22.6667 23.3333Z" fill="white"/>
<path d="M3.92382 23.3333L2.94517 23.5389L3.11203 24.3333L3.92382 24.3333L3.92382 23.3333ZM22.6667 23.3333L22.6667 24.3333L23.6667 24.3333L23.6667 23.3333L22.6667 23.3333ZM3.92381 23.3333L3.92381 22.3333L2.69196 22.3333L2.94516 23.5388L3.92381 23.3333ZM5.79809 23.3333L5.79809 24.3333L5.79809 24.3333L5.79809 23.3333ZM7.67146 23.3333L7.67147 24.3333L8.67147 24.3333L8.67146 23.3333L7.67146 23.3333ZM7.67146 21.4679L8.67146 21.4679L8.67146 20.4679L7.67146 20.4679L7.67146 21.4679ZM5.79809 21.4679L5.79783 22.4679L5.79809 22.4679L5.79809 21.4679ZM5.79718 21.4679L5.79744 20.4679L5.79718 20.4679L5.79718 21.4679ZM3.92381 21.4679L2.92381 21.4679L2.92381 22.4679L3.92381 22.4679L3.92381 21.4679ZM3.92381 21.4679L3.92381 20.4679L2.92381 20.4679L2.92381 21.4679L3.92381 21.4679ZM5.79809 21.4679L5.79809 22.4679L6.79809 22.4679L6.79809 21.4679L5.79809 21.4679ZM5.79809 19.6025L6.79809 19.6025L6.79809 18.6025L5.79809 18.6025L5.79809 19.6025ZM3.92381 19.6025L2.92381 19.6025L2.92381 20.6025L3.92381 20.6025L3.92381 19.6025ZM3.92381 8.41013L3.92381 7.41013L2.92381 7.41013L2.92381 8.41013L3.92381 8.41013ZM5.79809 8.41013L5.79809 9.41013L6.79809 9.41013L6.79809 8.41013L5.79809 8.41013ZM5.79809 6.54473L6.79809 6.54473L6.79809 5.54473L5.79809 5.54473L5.79809 6.54473ZM3.92381 6.54473L2.92381 6.54473L2.92381 7.54473L3.92381 7.54473L3.92381 6.54473ZM3.92381 6.54466L3.92381 5.54466L2.92381 5.54466L2.92381 6.54466L3.92381 6.54466ZM7.67146 6.54466L7.67146 7.54466L8.67146 7.54466L8.67146 6.54466L7.67146 6.54466ZM7.67146 4.67931L7.67146 3.67931L6.67146 3.67931L6.67146 4.67931L7.67146 4.67931ZM22.6667 4.67931L23.6667 4.67931L23.6667 3.67931L22.6667 3.67931L22.6667 4.67931ZM22.6667 4.67933L22.6667 5.67933L23.6667 5.67933L23.6667 4.67933L22.6667 4.67933ZM18.92 4.67933L18.92 3.67933L17.92 3.67933L17.92 4.67933L18.92 4.67933ZM18.92 6.54473L17.92 6.54473L17.92 7.54473L18.92 7.54473L18.92 6.54473ZM22.6667 6.54473L23.6667 6.54473L23.6667 5.54473L22.6667 5.54473L22.6667 6.54473ZM22.6667 6.5448L22.6667 7.5448L23.6667 7.54479L23.6667 6.5448L22.6667 6.5448ZM20.7932 6.5448L20.7932 5.5448L19.7932 5.5448L19.7932 6.5448L20.7932 6.5448ZM20.7932 8.4102L19.7932 8.4102L19.7932 9.4102L20.7932 9.4102L20.7932 8.4102ZM22.6667 8.4102L23.6667 8.4102L23.6667 7.4102L22.6667 7.4102L22.6667 8.4102ZM22.6667 19.6024L22.6667 20.6024L23.6667 20.6024L23.6667 19.6024L22.6667 19.6024ZM20.7932 19.6024L20.7932 18.6024L19.7932 18.6024L19.7932 19.6024L20.7932 19.6024ZM20.7932 21.4678L19.7932 21.4678L19.7932 22.4678L20.7932 22.4678L20.7932 21.4678ZM22.6667 21.4678L23.6667 21.4678L23.6667 20.4678L22.6667 20.4678L22.6667 21.4678ZM22.6667 21.4679L22.6667 22.4679L23.6667 22.4679L23.6667 21.4679L22.6667 21.4679ZM20.7942 21.4679L20.7942 20.4679L20.7941 20.4679L20.7942 21.4679ZM20.7932 21.4679L20.7932 22.4679L20.7933 22.4679L20.7932 21.4679ZM18.92 21.4679L18.92 20.4679L17.92 20.4679L17.92 21.4679L18.92 21.4679ZM18.92 23.3333L17.92 23.3333L17.92 24.3333L18.92 24.3333L18.92 23.3333ZM20.7932 23.3333L20.7932 24.3333L20.7932 24.3333L20.7932 23.3333ZM22.6667 23.3333L23.6667 23.3333L23.6667 22.3333L22.6667 22.3333L22.6667 23.3333ZM3.92382 24.3333L22.6667 24.3333L22.6667 22.3333L3.92382 22.3333L3.92382 24.3333ZM2.94516 23.5388L2.94517 23.5389L4.90247 23.1278L4.90246 23.1277L2.94516 23.5388ZM5.79809 22.3333L3.92381 22.3333L3.92381 24.3333L5.79809 24.3333L5.79809 22.3333ZM7.67146 22.3333L5.79809 22.3333L5.79809 24.3333L7.67147 24.3333L7.67146 22.3333ZM6.67146 21.4679L6.67146 23.3333L8.67146 23.3333L8.67146 21.4679L6.67146 21.4679ZM5.79809 22.4679L7.67146 22.4679L7.67146 20.4679L5.79809 20.4679L5.79809 22.4679ZM5.79692 22.4679L5.79783 22.4679L5.79835 20.4679L5.79744 20.4679L5.79692 22.4679ZM3.92381 22.4679L5.79718 22.4679L5.79718 20.4679L3.92381 20.4679L3.92381 22.4679ZM2.92381 21.4679L2.92381 21.4679L4.92381 21.4679L4.92381 21.4679L2.92381 21.4679ZM5.79809 20.4679L3.92381 20.4679L3.92381 22.4679L5.79809 22.4679L5.79809 20.4679ZM4.79809 19.6025L4.79809 21.4679L6.79809 21.4679L6.79809 19.6025L4.79809 19.6025ZM3.92381 20.6025L5.79809 20.6025L5.79809 18.6025L3.92381 18.6025L3.92381 20.6025ZM2.92381 8.41013L2.92381 19.6025L4.92381 19.6025L4.92381 8.41013L2.92381 8.41013ZM5.79809 7.41013L3.92381 7.41013L3.92381 9.41013L5.79809 9.41013L5.79809 7.41013ZM4.79809 6.54473L4.79809 8.41013L6.79809 8.41013L6.79809 6.54473L4.79809 6.54473ZM3.92381 7.54473L5.79809 7.54473L5.79809 5.54473L3.92381 5.54473L3.92381 7.54473ZM2.92381 6.54466L2.92381 6.54473L4.92381 6.54473L4.92381 6.54466L2.92381 6.54466ZM5.79718 5.54466L3.92381 5.54466L3.92381 7.54466L5.79718 7.54466L5.79718 5.54466ZM5.79809 5.54466L5.79718 5.54466L5.79718 7.54466L5.79809 7.54466L5.79809 5.54466ZM7.67146 5.54466L5.79809 5.54466L5.79809 7.54466L7.67146 7.54466L7.67146 5.54466ZM6.67146 4.67931L6.67146 6.54466L8.67146 6.54466L8.67146 4.67931L6.67146 4.67931ZM22.6667 3.67931L7.67146 3.67931L7.67146 5.67931L22.6667 5.67931L22.6667 3.67931ZM23.6667 4.67933L23.6667 4.67931L21.6667 4.67931L21.6667 4.67933L23.6667 4.67933ZM20.7942 5.67933L22.6667 5.67933L22.6667 3.67933L20.7942 3.67933L20.7942 5.67933ZM20.7932 5.67933L20.7942 5.67933L20.7942 3.67933L20.7932 3.67933L20.7932 5.67933ZM18.92 5.67933L20.7932 5.67933L20.7932 3.67933L18.92 3.67933L18.92 5.67933ZM19.92 6.54473L19.92 4.67933L17.92 4.67933L17.92 6.54473L19.92 6.54473ZM20.7932 5.54473L18.92 5.54473L18.92 7.54473L20.7932 7.54473L20.7932 5.54473ZM20.7942 5.54473L20.7932 5.54473L20.7932 7.54473L20.7942 7.54473L20.7942 5.54473ZM22.6667 5.54473L20.7942 5.54473L20.7942 7.54473L22.6667 7.54473L22.6667 5.54473ZM23.6667 6.5448L23.6667 6.54473L21.6667 6.54473L21.6667 6.5448L23.6667 6.5448ZM20.7932 7.5448L22.6667 7.5448L22.6667 5.5448L20.7932 5.5448L20.7932 7.5448ZM21.7932 8.4102L21.7932 6.5448L19.7932 6.5448L19.7932 8.4102L21.7932 8.4102ZM22.6667 7.4102L20.7932 7.4102L20.7932 9.4102L22.6667 9.4102L22.6667 7.4102ZM23.6667 19.6024L23.6667 8.4102L21.6667 8.4102L21.6667 19.6024L23.6667 19.6024ZM20.7932 20.6024L22.6667 20.6024L22.6667 18.6024L20.7932 18.6024L20.7932 20.6024ZM21.7932 21.4678L21.7932 19.6024L19.7932 19.6024L19.7932 21.4678L21.7932 21.4678ZM22.6667 20.4678L20.7932 20.4678L20.7932 22.4678L22.6667 22.4678L22.6667 20.4678ZM23.6667 21.4679L23.6667 21.4678L21.6667 21.4678L21.6667 21.4679L23.6667 21.4679ZM20.7942 22.4679L22.6667 22.4679L22.6667 20.4679L20.7942 20.4679L20.7942 22.4679ZM20.7933 22.4679L20.7944 22.4679L20.7941 20.4679L20.7931 20.4679L20.7933 22.4679ZM18.92 22.4679L20.7932 22.4679L20.7932 20.4679L18.92 20.4679L18.92 22.4679ZM19.92 23.3333L19.92 21.4679L17.92 21.4679L17.92 23.3333L19.92 23.3333ZM20.7932 22.3333L18.92 22.3333L18.92 24.3333L20.7932 24.3333L20.7932 22.3333ZM22.6667 22.3333L20.7932 22.3333L20.7932 24.3333L22.6667 24.3333L22.6667 22.3333ZM23.6667 23.3333L23.6667 23.3333L21.6667 23.3333L21.6667 23.3333L23.6667 23.3333Z" fill="white" fill-opacity="0.15" mask="url(#path-2-inside-1_30_7)"/>
</svg>
