<svg width="26" height="26" viewBox="0 0 26 26" fill="none" xmlns="http://www.w3.org/2000/svg">
<rect x="13.5" y="16.75" width="0.75" height="0.75" fill="white"/>
<rect x="13.5" y="17.5" width="0.75" height="0.75" fill="white"/>
<rect x="12.75" y="18.25" width="0.75" height="0.75" fill="white"/>
<rect x="12" y="18.25" width="0.75" height="0.75" fill="white"/>
<rect x="11.25" y="17.5" width="0.75" height="0.75" fill="white"/>
<rect x="11.25" y="16.75" width="0.75" height="0.75" fill="white"/>
<rect x="12" y="16" width="0.75" height="0.75" fill="white"/>
<rect x="12.75" y="16" width="0.75" height="0.75" fill="white"/>
<rect x="12" y="14.5" width="0.75" height="0.75" fill="white"/>
<rect x="12" y="14.5" width="0.75" height="0.75" fill="white"/>
<rect x="12.75" y="14.5" width="0.75" height="0.75" fill="white"/>
<rect x="14.25" y="13" width="0.75" height="0.75" fill="white"/>
<rect x="15" y="12.25" width="0.75" height="0.75" fill="white"/>
<rect x="15.75" y="11.5" width="0.75" height="0.75" fill="white"/>
<rect x="15.75" y="10.75" width="0.75" height="0.75" fill="white"/>
<rect x="15.75" y="10" width="0.75" height="0.75" fill="white"/>
<rect x="15" y="8.5" width="0.75" height="0.75" fill="white"/>
<rect x="14.25" y="7.75" width="0.75" height="0.75" fill="white"/>
<rect x="13.5" y="7" width="0.75" height="0.75" fill="white"/>
<rect x="12" y="7" width="0.75" height="0.75" fill="white"/>
<rect x="12.75" y="7" width="0.75" height="0.75" fill="white"/>
<rect x="12" y="7" width="0.75" height="0.75" fill="white"/>
<rect x="11.25" y="7" width="0.75" height="0.75" fill="white"/>
<rect x="9" y="9.25" width="0.75" height="0.75" fill="white"/>
<rect x="9" y="10" width="0.75" height="0.75" fill="white"/>
<rect width="0.75" height="0.75" transform="matrix(-1 0 0 1 12 13.75)" fill="white"/>
<rect width="0.75" height="0.75" transform="matrix(-1 0 0 1 12 13)" fill="white"/>
<rect width="0.75" height="0.75" transform="matrix(-1 0 0 1 12.75 12.25)" fill="white"/>
<rect width="0.75" height="0.75" transform="matrix(-1 0 0 1 12.75 12.25)" fill="white"/>
<rect width="0.75" height="0.75" transform="matrix(-1 0 0 1 13.5 11.5)" fill="white"/>
<rect width="0.75" height="0.75" transform="matrix(-1 0 0 1 14.25 13.75)" fill="white"/>
<rect width="0.75" height="0.75" transform="matrix(-1 0 0 1 14.25 10.75)" fill="white"/>
<rect width="0.75" height="0.75" transform="matrix(-1 0 0 1 14.25 10.75)" fill="white"/>
<rect width="0.75" height="0.75" transform="matrix(-1 0 0 1 14.25 10)" fill="white"/>
<rect width="0.75" height="0.75" transform="matrix(-1 0 0 1 12.75 9.25)" fill="white"/>
<rect width="0.75" height="0.75" transform="matrix(-1 0 0 1 13.5 9.25)" fill="white"/>
<rect width="0.75" height="0.75" transform="matrix(-1 0 0 1 12.75 9.25)" fill="white"/>
<rect width="0.75" height="0.75" transform="matrix(-1 0 0 1 12 10)" fill="white"/>
<rect width="0.75" height="0.75" transform="matrix(-1 0 0 1 11.25 10.75)" fill="white"/>
<rect width="0.75" height="0.75" transform="matrix(-1 0 0 1 10.5 10.75)" fill="white"/>
<rect width="0.75" height="0.75" transform="matrix(-1 0 0 1 10.5 8.5)" fill="white"/>
<rect width="0.75" height="0.75" transform="matrix(-1 0 0 1 11.25 7.75)" fill="white"/>
<rect width="0.75" height="0.75" transform="matrix(-1 0 0 1 16.5 9.25)" fill="white"/>
</svg>
