<svg width="42" height="42" viewBox="0 0 42 42" fill="none" xmlns="http://www.w3.org/2000/svg">
<path fill-rule="evenodd" clip-rule="evenodd" d="M39.5183 0H39.5183V2.48182H42V2.48196H39.5183V4.96371V4.96378V7.44546V7.44553V9.92728H42V42L9.92718 42V39.5182H7.44536L7.44535 42V39.5182H4.96359H4.96353H2.48178L2.48178 42H2.48171L2.48171 39.5182H0V39.518H2.48171L2.48171 37.0363V37.0362L2.48171 34.5545V34.5545L2.48171 32.0727H0V9.92727H2.48181V7.44545H0V7.44543H2.4818V4.96368V4.96362V2.48186H0V2.48183H2.4818V8.61266e-06L0 8.58307e-06V0H32.0728V2.48182H34.5546V0H34.5547V2.48182H37.0364H37.0365H39.5183V0ZM7.44542 8.19502e-06L9.92724 8.22461e-06V2.48183L7.44548 2.48183H4.96373H4.96367H2.48191L2.48191 8.61267e-06L4.96367 8.64226e-06L4.96373 8.64226e-06L7.44542 8.19502e-06ZM7.44548 2.48186H4.96373H4.96367H2.48191V4.96362V4.96368V7.44543H4.96373V4.96368H7.44548V2.48186ZM39.5183 4.96378V7.44553H37.0364V4.96378H34.5547V2.48196H37.0364H37.0365H39.5183V4.96371V4.96378ZM34.5544 39.5181H32.0727V41.9999H34.5544H34.5545H37.0361H37.0363H39.518V39.5181V37.0364V37.0363V34.5546H37.0361V37.0363H34.5544V39.5181ZM39.5181 37.0364V39.5181V41.9999H41.9999V39.5181V37.0364V37.0363V34.5546H39.5181V37.0363V37.0364ZM41.9999 32.0727V34.5546H39.5181V32.0727H41.9999ZM2.48178 37.0362L2.48178 34.5545H4.96359V37.0362H7.44535V39.518H4.96359H4.96353H2.48178L2.48178 37.0363V37.0362Z" fill="#447EF7"/>
<path fill-rule="evenodd" clip-rule="evenodd" d="M22.3636 14H19.6367V14.875H17.8182V15.75H16.9091V17.5H16V21H16.9091V22.75H17.8182V27.1208H18.7273V27.9958L23.2727 28V27.125H24.1818V22.75H25.0909V21H26V17.5H25.0909V15.75H24.1818V14.875H22.3636V14ZM22.3636 14.875V15.75H24.1818V17.5H25.0909V21H24.1818V22.75H23.2727L23.2731 23.625L21.4552 23.6214V18.375H22.3636V17.4958L19.6364 17.5V18.375H20.5455V23.6214L18.7273 23.625V22.75H17.8182V21H16.9091V17.5H17.8182V15.75H19.6367V14.875H22.3636ZM20.5455 18.375L21.4552 18.3725V18.375H20.5455ZM23.2727 27.125L18.7273 27.1208V26.2458H23.2731L23.2727 27.125ZM18.7273 25.3708V24.5H23.2727L23.2731 25.3708H18.7273Z" fill="white"/>
<path d="M19.6367 14.875V14H22.3636V14.875M19.6367 14.875H17.8182V15.75M19.6367 14.875V15.75H17.8182M19.6367 14.875H22.3636M17.8182 15.75H16.9091V17.5M17.8182 15.75V17.5H16.9091M16.9091 17.5H16V21H16.9091M16.9091 17.5V21M16.9091 21V22.75H17.8182M16.9091 21H17.8182V22.75M17.8182 22.75V27.1208H18.7273M17.8182 22.75H18.7273V23.625L20.5455 23.6214V18.375M18.7273 27.1208V27.9958L23.2727 28V27.125M18.7273 27.1208L23.2727 27.125M18.7273 27.1208V26.2458H23.2731L23.2727 27.125M23.2727 27.125H24.1818V22.75M24.1818 22.75H25.0909V21M24.1818 22.75V21H25.0909M24.1818 22.75H23.2727L23.2731 23.625L21.4552 23.6214V18.375M25.0909 21H26V17.5H25.0909M25.0909 21V17.5M25.0909 17.5V15.75H24.1818M25.0909 17.5H24.1818V15.75M24.1818 15.75V14.875H22.3636M24.1818 15.75H22.3636V14.875M21.4552 18.375H22.3636V17.4958L19.6364 17.5V18.375H20.5455M21.4552 18.375V18.3725L20.5455 18.375M21.4552 18.375H20.5455M18.7273 24.5V25.3708H23.2731L23.2727 24.5H18.7273Z" stroke="white" stroke-width="0.5"/>
</svg>
