<svg width="24" height="24" viewBox="0 0 24 24" fill="none" xmlns="http://www.w3.org/2000/svg">
<path d="M4.28571 16.5714H5.57143V17.8571H4.28571V16.5714Z" fill="white"/>
<path d="M18.4286 16.5714H19.7143V17.8571H18.4286V16.5714Z" fill="white"/>
<path d="M15.8571 10.1429H17.1429V11.4286H15.8571V10.1429Z" fill="white"/>
<path d="M14.5714 11.4286H15.8571V12.7143H14.5714V11.4286Z" fill="white"/>
<path d="M17.1429 8.85714H18.4286V10.1429H17.1429V8.85714Z" fill="white"/>
<path d="M5.57143 8.85714H6.85714V10.1429H5.57143V8.85714Z" fill="white"/>
<path d="M6.85714 10.1429H8.14286V11.4286H6.85714V10.1429Z" fill="white"/>
<path d="M8.14286 11.4286H9.42857V12.7143H8.14286V11.4286Z" fill="white"/>
<path d="M19.7143 16.5714H21V7.57143H19.7143V6.28571H18.4286V8.85714H19.7143V16.5714Z" fill="white"/>
<path d="M14.5714 14V12.7143H9.42857V14H14.5714Z" fill="white"/>
<path d="M4.28571 7.57143H3V16.5714H4.28571V8.85714H5.57143V6.28571H4.28571V7.57143Z" fill="white"/>
<path d="M5.57143 5V6.28571H18.4286V5H5.57143Z" fill="white"/>
<path d="M5.57143 17.8571V19.1429H18.4286V17.8571H5.57143Z" fill="white"/>
<path d="M4.28571 16.5714H3V7.57143H4.28571V6.28571H5.57143M4.28571 16.5714H5.57143V17.8571M4.28571 16.5714V17.8571H5.57143M4.28571 16.5714V8.85714H5.57143M5.57143 17.8571V19.1429H18.4286V17.8571M5.57143 17.8571H18.4286M19.7143 16.5714H18.4286V17.8571M19.7143 16.5714V17.8571H18.4286M19.7143 16.5714H21V7.57143H19.7143V6.28571H18.4286M19.7143 16.5714V8.85714H18.4286M18.4286 8.85714H17.1429V10.1429M18.4286 8.85714V10.1429H17.1429M18.4286 8.85714V6.28571M18.4286 6.28571V5H5.57143V6.28571M18.4286 6.28571H5.57143M17.1429 10.1429H15.8571V11.4286M17.1429 10.1429V11.4286H15.8571M15.8571 11.4286H14.5714V12.7143M15.8571 11.4286V12.7143H14.5714M14.5714 12.7143V14H9.42857V12.7143M14.5714 12.7143H9.42857M5.57143 6.28571V8.85714M5.57143 8.85714H6.85714V10.1429M5.57143 8.85714V10.1429H6.85714M6.85714 10.1429H8.14286V11.4286M6.85714 10.1429V11.4286H8.14286M8.14286 11.4286H9.42857V12.7143M8.14286 11.4286V12.7143H9.42857" stroke="white" stroke-width="0.5"/>
</svg>
