<svg width="106" height="26" viewBox="0 0 106 26" fill="none" xmlns="http://www.w3.org/2000/svg">
<g clip-path="url(#clip0_16_6510)">
<path d="M27.8528 12.9739C27.8082 12.9974 27.8059 13.0466 27.7848 13.0841C27.6488 13.335 27.3792 13.4545 27.1096 13.3842C26.9795 13.3497 26.8649 13.272 26.7848 13.1638C26.7047 13.0555 26.6638 12.9233 26.6689 12.7887C26.6783 12.5168 26.8728 12.28 27.1354 12.2284C27.2694 12.2005 27.4089 12.2195 27.5306 12.2823C27.6522 12.345 27.7486 12.4477 27.8035 12.573C27.82 12.6082 27.8176 12.6527 27.8528 12.6785V12.9739Z" fill="white"/>
<path d="M0.571289 12.7348C0.5877 12.6996 0.606454 12.6621 0.622865 12.6269C0.742427 12.3714 1.00734 12.2331 1.28163 12.2893C1.41331 12.3159 1.53217 12.3862 1.61897 12.4887C1.70576 12.5912 1.75541 12.7201 1.75988 12.8543C1.76457 13.1286 1.57468 13.3818 1.31445 13.4475C1.04251 13.5154 0.772904 13.3912 0.639276 13.1404C0.618177 13.1028 0.615832 13.0536 0.573633 13.0278C0.571289 12.9294 0.571289 12.8309 0.571289 12.7348Z" fill="white"/>
<path d="M8.04932 12.8544C8.04963 12.3669 8.24357 11.8995 8.58848 11.5551C8.93339 11.2106 9.40101 11.0173 9.88847 11.0176C10.3759 11.0179 10.8433 11.2118 11.1878 11.5567C11.5322 11.9016 11.7256 12.3693 11.7253 12.8567C11.7206 13.8882 10.9048 14.6853 9.85214 14.6853C8.86516 14.683 8.04698 13.8531 8.04932 12.8544Z" fill="white"/>
<path d="M10.2154 16.5843C10.2177 15.5738 11.0476 14.7533 12.0651 14.7557C12.4285 14.758 12.783 14.868 13.0839 15.0718C13.3848 15.2755 13.6186 15.5639 13.7556 15.9005C13.8927 16.2371 13.9268 16.6068 13.8538 16.9628C13.7808 17.3188 13.6039 17.6452 13.3455 17.9007C13.087 18.1562 12.7587 18.3293 12.4018 18.3982C12.045 18.4671 11.6758 18.4287 11.3408 18.2878C11.0058 18.1469 10.7201 17.9099 10.5198 17.6067C10.3194 17.3035 10.2135 16.9477 10.2154 16.5843Z" fill="white"/>
<path d="M13.8748 9.09633C13.8754 9.33773 13.8282 9.57686 13.7358 9.79988C13.6434 10.0229 13.5077 10.2254 13.3366 10.3957C13.1654 10.5659 12.9622 10.7006 12.7388 10.7918C12.5153 10.8831 12.2759 10.9291 12.0345 10.9273C11.0194 10.9249 10.1942 10.095 10.2012 9.08227C10.2082 8.0695 11.0382 7.24194 12.0462 7.24663C12.2879 7.24755 12.527 7.29618 12.7498 7.38972C12.9726 7.48326 13.1748 7.61988 13.3447 7.79173C13.5146 7.96359 13.6488 8.16729 13.7398 8.39117C13.8308 8.61505 13.8767 8.85468 13.8748 9.09633Z" fill="white"/>
<path d="M14.5449 16.5795C14.546 16.3379 14.5948 16.0989 14.6884 15.8762C14.782 15.6535 14.9186 15.4514 15.0905 15.2815C15.2623 15.1117 15.4659 14.9774 15.6897 14.8863C15.9135 14.7953 16.153 14.7493 16.3946 14.7509C17.4098 14.7556 18.2326 15.5879 18.2232 16.6006C18.2185 17.0862 18.0222 17.5501 17.6772 17.8917C17.3321 18.2333 16.8661 18.4248 16.3806 18.4246C15.3702 18.4246 14.5403 17.59 14.5449 16.5795Z" fill="white"/>
<path d="M18.5327 14.6618C17.5433 14.6736 16.7205 13.8601 16.7064 12.8567C16.7017 12.6162 16.7445 12.3772 16.8324 12.1534C16.9203 11.9296 17.0516 11.7253 17.2187 11.5523C17.3858 11.3794 17.5854 11.2411 17.806 11.1455C18.0267 11.0499 18.2641 10.9989 18.5045 10.9953C19.5267 10.9788 20.3589 11.7759 20.3706 12.784C20.3847 13.8319 19.5853 14.6478 18.5327 14.6618Z" fill="white"/>
<path d="M14.5308 9.08227C14.5314 8.84091 14.5795 8.60203 14.6725 8.37927C14.7654 8.15651 14.9013 7.95424 15.0724 7.784C15.2435 7.61376 15.4465 7.47889 15.6697 7.3871C15.8929 7.2953 16.1321 7.24837 16.3734 7.24898C17.3792 7.25133 18.202 8.07889 18.1997 9.08462C18.1973 10.095 17.3768 10.9179 16.3687 10.9179C16.1275 10.9182 15.8886 10.8709 15.6656 10.7788C15.4426 10.6867 15.24 10.5515 15.0693 10.381C14.8986 10.2105 14.7632 10.0081 14.6708 9.78525C14.5784 9.5624 14.5308 9.32352 14.5308 9.08227Z" fill="white"/>
<path d="M7.78419 8.06952C7.92596 8.07029 8.06619 8.09898 8.19688 8.15394C8.32756 8.20891 8.44614 8.28907 8.54585 8.38986C8.64555 8.49066 8.72442 8.6101 8.77797 8.74138C8.83151 8.87265 8.85867 9.01319 8.8579 9.15496C8.85713 9.29673 8.82845 9.43696 8.77348 9.56765C8.71852 9.69834 8.63835 9.81692 8.53756 9.91662C8.43677 10.0163 8.31732 10.0952 8.18605 10.1487C8.05477 10.2023 7.91424 10.2294 7.77246 10.2287C7.48614 10.2271 7.21216 10.1119 7.0108 9.90833C6.80944 9.70477 6.69719 9.42956 6.69875 9.14324C6.7003 8.85691 6.81553 8.58294 7.01909 8.38158C7.22265 8.18022 7.49786 8.06797 7.78419 8.06952Z" fill="white"/>
<path d="M20.6377 17.6111C20.424 17.6099 20.2156 17.5454 20.0386 17.4257C19.8617 17.306 19.7243 17.1365 19.6437 16.9387C19.5631 16.7408 19.5431 16.5235 19.586 16.3143C19.629 16.105 19.7331 15.9132 19.8852 15.7632C20.0372 15.6131 20.2303 15.5115 20.4401 15.4713C20.6499 15.431 20.8669 15.4539 21.0637 15.537C21.2605 15.6202 21.4282 15.7598 21.5455 15.9383C21.6629 16.1168 21.7247 16.3261 21.7231 16.5397C21.7224 16.6814 21.6938 16.8215 21.6388 16.9521C21.5839 17.0827 21.5037 17.2012 21.4028 17.3007C21.302 17.4003 21.1825 17.4789 21.0512 17.5322C20.9199 17.5854 20.7793 17.6122 20.6377 17.6111Z" fill="white"/>
<path d="M15.2296 20.2555C15.23 20.3971 15.2026 20.5375 15.1488 20.6685C15.0951 20.7995 15.016 20.9186 14.9162 21.0191C14.8164 21.1196 14.6978 21.1994 14.5671 21.254C14.4364 21.3086 14.2963 21.337 14.1547 21.3374C14.0131 21.3379 13.8727 21.3105 13.7417 21.2567C13.6107 21.2029 13.4916 21.1239 13.3911 21.0241C13.2906 20.9243 13.2108 20.8056 13.1562 20.675C13.1016 20.5443 13.0732 20.4042 13.0728 20.2626C13.0751 19.6601 13.5487 19.1818 14.1418 19.1818C14.749 19.1795 15.2296 19.653 15.2296 20.2555Z" fill="white"/>
<path d="M14.1936 6.49879C13.9806 6.49879 13.7724 6.43571 13.5952 6.31753C13.418 6.19934 13.2798 6.03133 13.198 5.83468C13.1162 5.63804 13.0944 5.42157 13.1354 5.21257C13.1765 5.00358 13.2785 4.81142 13.4286 4.66032C13.5787 4.50923 13.7702 4.40597 13.979 4.36357C14.1877 4.32116 14.4043 4.34152 14.6015 4.42207C14.7986 4.50261 14.9675 4.63974 15.0869 4.81615C15.2062 4.99257 15.2706 5.20037 15.272 5.41335C15.2697 6.02054 14.7938 6.50114 14.1936 6.49879Z" fill="white"/>
<path d="M7.79862 17.6416C7.51342 17.6416 7.23983 17.5286 7.03773 17.3274C6.83562 17.1261 6.72145 16.853 6.72021 16.5678C6.72021 15.97 7.21253 15.4777 7.80566 15.4848C8.39878 15.4918 8.88406 15.9818 8.87937 16.5702C8.87696 16.8552 8.76202 17.1277 8.5596 17.3284C8.35717 17.5291 8.08366 17.6416 7.79862 17.6416Z" fill="white"/>
<path d="M21.7021 9.11038C21.7021 9.7035 21.2215 10.1911 20.6331 10.1958C20.04 10.2005 19.543 9.70585 19.543 9.11507C19.5427 8.97329 19.5703 8.83285 19.6243 8.70175C19.6782 8.57065 19.7575 8.45147 19.8575 8.351C20.0595 8.1481 20.3339 8.03377 20.6202 8.03314C20.9065 8.03252 21.1814 8.14567 21.3843 8.34769C21.4847 8.44772 21.5645 8.56656 21.6191 8.69742C21.6736 8.82828 21.7018 8.96861 21.7021 9.11038Z" fill="white"/>
<path d="M18.127 21.1721C18.1258 20.9899 18.1788 20.8113 18.2793 20.6592C18.3797 20.5071 18.5231 20.3883 18.6912 20.3177C18.8593 20.2472 19.0445 20.2282 19.2235 20.2632C19.4024 20.2981 19.5669 20.3854 19.6961 20.514C19.8253 20.6425 19.9135 20.8066 19.9493 20.9853C19.9852 21.1641 19.9671 21.3494 19.8975 21.5179C19.8278 21.6863 19.7097 21.8303 19.5581 21.9315C19.4065 22.0328 19.2283 22.0867 19.046 22.0864C18.8037 22.0843 18.5719 21.9875 18.4001 21.8166C18.2284 21.6457 18.1303 21.4144 18.127 21.1721Z" fill="white"/>
<path d="M9.42522 20.2696C9.54529 20.2702 9.66406 20.2944 9.77475 20.341C9.88545 20.3875 9.98589 20.4553 10.0704 20.5407C10.1548 20.626 10.2217 20.7272 10.267 20.8383C10.3124 20.9495 10.3354 21.0685 10.3348 21.1886C10.3312 21.4334 10.2312 21.6669 10.0565 21.8385C9.88188 22.0101 9.64662 22.1059 9.40178 22.1052C9.15836 22.1021 8.92614 22.0024 8.75621 21.8281C8.58629 21.6538 8.49257 21.4191 8.49568 21.1757C8.49879 20.9323 8.59847 20.7 8.77279 20.5301C8.94712 20.3602 9.1818 20.2665 9.42522 20.2696Z" fill="white"/>
<path d="M19.0082 5.41103C18.7656 5.41203 18.5325 5.31689 18.3598 5.14642C18.1871 4.97596 18.089 4.74404 18.0869 4.50142C18.0876 4.25684 18.1847 4.0224 18.3572 3.84902C18.5297 3.67563 18.7637 3.57731 19.0082 3.57539C19.2517 3.57539 19.4851 3.67209 19.6572 3.84422C19.8294 4.01634 19.9261 4.24979 19.9261 4.49321C19.9261 4.73663 19.8294 4.97008 19.6572 5.14221C19.4851 5.31433 19.2517 5.41103 19.0082 5.41103Z" fill="white"/>
<path d="M4.58271 13.7804C4.40112 13.7799 4.22376 13.7255 4.07313 13.6241C3.9225 13.5226 3.80539 13.3788 3.73666 13.2107C3.66792 13.0426 3.65066 12.8579 3.68706 12.68C3.72346 12.5021 3.81188 12.339 3.94111 12.2114C4.07034 12.0838 4.23455 11.9975 4.4129 11.9634C4.59126 11.9293 4.77574 11.9489 4.94292 12.0198C5.11011 12.0907 5.25247 12.2096 5.35196 12.3616C5.45144 12.5135 5.50356 12.6915 5.5017 12.8731C5.50206 12.9933 5.47844 13.1124 5.43224 13.2234C5.38604 13.3344 5.31817 13.4351 5.23261 13.5196C5.14704 13.6041 5.0455 13.6706 4.93391 13.7154C4.82232 13.7602 4.70293 13.7823 4.58271 13.7804Z" fill="white"/>
<path d="M23.8469 11.9049C23.967 11.9055 24.0857 11.9297 24.1964 11.9763C24.3071 12.0228 24.4076 12.0906 24.492 12.176C24.5765 12.2613 24.6433 12.3625 24.6887 12.4736C24.7341 12.5848 24.7571 12.7038 24.7565 12.8239C24.7518 13.3302 24.3275 13.7499 23.8258 13.7405C23.7053 13.7391 23.5862 13.714 23.4754 13.6666C23.3645 13.6192 23.2641 13.5504 23.1799 13.4642C23.0097 13.2901 22.9157 13.0556 22.9185 12.8121C22.9213 12.5687 23.0207 12.3364 23.1948 12.1662C23.3689 11.9961 23.6035 11.9021 23.8469 11.9049Z" fill="white"/>
<path d="M10.2973 4.52014C10.2964 4.70097 10.2419 4.87746 10.1406 5.02729C10.0394 5.17713 9.89602 5.29358 9.7286 5.36193C9.56118 5.43027 9.37725 5.44743 9.20008 5.41124C9.02291 5.37505 8.86045 5.28714 8.73324 5.15862C8.60603 5.0301 8.51979 4.86674 8.48542 4.68921C8.45105 4.51168 8.47009 4.32794 8.54015 4.16123C8.61021 3.99452 8.72812 3.85233 8.87899 3.75263C9.02986 3.65294 9.2069 3.60022 9.38773 3.60115C9.50792 3.60133 9.62689 3.62529 9.73778 3.67165C9.84867 3.71802 9.94929 3.78587 10.0338 3.87129C10.1184 3.95671 10.1852 4.05802 10.2304 4.16938C10.2757 4.28074 10.2984 4.39995 10.2973 4.52014Z" fill="white"/>
<path d="M3.95881 18.033C4.10843 18.0314 4.25517 18.0742 4.38045 18.1561C4.50572 18.2379 4.6039 18.355 4.66255 18.4927C4.7212 18.6304 4.73769 18.7823 4.70992 18.9294C4.68215 19.0764 4.61138 19.2119 4.50656 19.3187C4.40175 19.4254 4.26761 19.4987 4.12112 19.5292C3.97463 19.5597 3.82238 19.5461 3.68366 19.49C3.54493 19.4339 3.42596 19.3379 3.34182 19.2142C3.25767 19.0905 3.21213 18.9446 3.21096 18.795C3.2094 18.5948 3.28724 18.4023 3.42742 18.2594C3.56761 18.1166 3.7587 18.0352 3.95881 18.033Z" fill="white"/>
<path d="M25.2417 18.7434C25.2405 18.943 25.161 19.1342 25.0202 19.2758C24.8795 19.4174 24.6888 19.4982 24.4892 19.5006C24.3399 19.5011 24.1938 19.4573 24.0694 19.3747C23.945 19.2921 23.8479 19.1745 23.7903 19.0368C23.7327 18.899 23.7173 18.7473 23.746 18.6008C23.7747 18.4542 23.8461 18.3195 23.9514 18.2136C24.0566 18.1077 24.1909 18.0354 24.3372 18.0058C24.4836 17.9762 24.6354 17.9907 24.7735 18.0474C24.9116 18.1041 25.0298 18.2005 25.1132 18.3244C25.1965 18.4483 25.2412 18.5941 25.2417 18.7434Z" fill="white"/>
<path d="M3.18311 6.93249C3.18334 6.78276 3.22803 6.63647 3.31151 6.51216C3.39499 6.38786 3.5135 6.29115 3.65201 6.23428C3.79053 6.17741 3.94281 6.16295 4.08955 6.19274C4.23629 6.22252 4.37088 6.2952 4.47626 6.40157C4.58164 6.50794 4.65307 6.64321 4.68148 6.79022C4.70989 6.93723 4.69401 7.08937 4.63586 7.22735C4.5777 7.36532 4.47988 7.48292 4.35481 7.56524C4.22973 7.64755 4.08303 7.69088 3.9333 7.68972C3.73379 7.68756 3.54316 7.60687 3.40274 7.46512C3.26231 7.32338 3.1834 7.13201 3.18311 6.93249Z" fill="white"/>
<path d="M14.1653 25.4459C13.7504 25.4483 13.4058 25.1083 13.4058 24.6981C13.4058 24.2784 13.7504 23.9315 14.1653 23.9315C14.5733 23.9338 14.9155 24.2784 14.9179 24.691C14.9202 25.1036 14.5803 25.4436 14.1653 25.4459Z" fill="white"/>
<path d="M14.9388 0.982468C14.9388 1.40211 14.5942 1.74907 14.1792 1.74907C13.7713 1.74907 13.4291 1.40211 13.4244 0.989501C13.4197 0.576893 13.762 0.23696 14.1769 0.234616C14.5919 0.232272 14.9388 0.572205 14.9388 0.982468Z" fill="white"/>
<path d="M24.4541 7.64753C24.0344 7.64519 23.6968 7.31229 23.6968 6.89968C23.695 6.74953 23.7378 6.60221 23.8199 6.47646C23.9019 6.35071 24.0195 6.25219 24.1577 6.19344C24.2959 6.13469 24.4485 6.11835 24.596 6.1465C24.7435 6.17465 24.8793 6.24602 24.9861 6.35153C25.0929 6.45705 25.166 6.59195 25.196 6.73909C25.226 6.88623 25.2115 7.03896 25.1545 7.17787C25.0975 7.31678 25.0004 7.43561 24.8757 7.51923C24.751 7.60286 24.6042 7.64752 24.4541 7.64753Z" fill="white"/>
<path d="M21.3012 1.52171C21.301 1.67921 21.239 1.83036 21.1285 1.9426C21.0181 2.05485 20.8679 2.11922 20.7104 2.12186C20.3822 2.12421 20.1173 1.85226 20.1196 1.51233C20.1195 1.43544 20.1346 1.35928 20.1641 1.28825C20.1935 1.21722 20.2367 1.15271 20.2912 1.09845C20.3457 1.04419 20.4103 1.00124 20.4815 0.97209C20.5526 0.942936 20.6288 0.92815 20.7057 0.928583C20.8626 0.930633 21.0125 0.993708 21.1237 1.10443C21.2349 1.21516 21.2985 1.36483 21.3012 1.52171Z" fill="white"/>
<path d="M8.25571 1.54515C8.25797 1.70239 8.19779 1.85411 8.08836 1.96705C7.97894 2.07999 7.8292 2.14494 7.67196 2.14765C7.35079 2.15234 7.0765 1.88274 7.07181 1.55687C7.07104 1.47914 7.08559 1.40201 7.11462 1.3299C7.14366 1.25778 7.18662 1.19209 7.24104 1.13658C7.29546 1.08107 7.36029 1.03682 7.43181 1.00636C7.50334 0.975902 7.58016 0.959829 7.6579 0.959059C7.73563 0.95829 7.81276 0.972838 7.88487 1.00188C7.95699 1.03091 8.02267 1.07387 8.07819 1.12829C8.1337 1.18272 8.17795 1.24754 8.20841 1.31907C8.23887 1.39059 8.25494 1.46741 8.25571 1.54515Z" fill="white"/>
<path d="M21.3528 24.1425C21.3521 24.221 21.3358 24.2986 21.3049 24.3708C21.2739 24.4429 21.2289 24.5082 21.1725 24.5628C21.1161 24.6174 21.0494 24.6603 20.9763 24.6889C20.9032 24.7175 20.8251 24.7312 20.7466 24.7294C20.6681 24.7275 20.5907 24.71 20.519 24.678C20.4474 24.646 20.3828 24.6 20.329 24.5428C20.2752 24.4855 20.2334 24.4182 20.2059 24.3446C20.1784 24.2711 20.1659 24.1928 20.1689 24.1144C20.172 23.9568 20.2374 23.807 20.3508 23.6976C20.4642 23.5882 20.6162 23.5282 20.7737 23.5306C20.9311 23.5368 21.0797 23.6042 21.1879 23.7186C21.2961 23.8329 21.3553 23.9851 21.3528 24.1425Z" fill="white"/>
<path d="M8.30244 24.1565C8.29902 24.3132 8.23465 24.4623 8.12301 24.5721C8.01137 24.682 7.86127 24.744 7.70463 24.745C7.58732 24.744 7.47293 24.7084 7.37591 24.6424C7.2789 24.5765 7.20361 24.4832 7.15958 24.3745C7.11555 24.2658 7.10475 24.1464 7.12854 24.0316C7.15234 23.9167 7.20966 23.8115 7.29326 23.7292C7.37686 23.6469 7.48299 23.5912 7.59822 23.5692C7.71345 23.5473 7.83261 23.56 7.94063 23.6057C8.04865 23.6514 8.14068 23.7282 8.20508 23.8262C8.26948 23.9243 8.30336 24.0392 8.30244 24.1565Z" fill="white"/>
<path fill-rule="evenodd" clip-rule="evenodd" d="M66.823 16.0286L64.9826 16.0122L64.9897 9.74571L66.5885 9.74806C68.3351 9.7504 69.4088 10.2732 69.8589 11.926C70.5083 14.3055 68.9469 16.0286 66.823 16.0286ZM62.6758 18.026L65.6133 18.0354C67.0949 18.0401 68.5531 17.9275 69.5916 17.4376C71.16 16.6991 72.3814 15.1354 72.3674 12.7957C72.3533 8.81734 69.3596 7.70143 66.1923 7.6944L62.7016 7.68736L62.6758 18.026Z" fill="white"/>
<path fill-rule="evenodd" clip-rule="evenodd" d="M55.2167 13.07L55.2191 9.62147L57.2305 9.60506C58.3582 9.59568 59.2818 10.1067 59.3147 11.286C59.3404 12.212 58.8974 12.7723 58.1026 12.9762C57.9174 13.0231 57.5658 13.0771 57.1672 13.0747L55.2167 13.07ZM59.7788 14.5024C61.7106 13.5248 62.3061 10.1513 60.5009 8.64856C59.6171 7.91243 58.6254 7.7366 57.1344 7.73895L52.9146 7.7788L52.945 17.9041L55.2144 17.8666L55.2214 14.9807L57.6197 14.9736L59.1506 17.9088L61.7622 17.8736L59.7788 14.5024Z" fill="white"/>
<path fill-rule="evenodd" clip-rule="evenodd" d="M44.8649 14.0875L46.3348 10.4279L47.8118 14.0922C46.8271 14.0922 45.8449 14.0969 44.8649 14.0875ZM44.0467 15.9653L48.6253 15.9677L49.4528 17.9065L51.9121 17.8947C51.8839 17.5548 50.0858 13.4217 49.8045 12.8004L47.6781 7.73427L45.1697 7.75068C44.6563 9.08697 40.8795 17.3766 40.8584 17.9088L43.1981 17.8971L44.0467 15.9653Z" fill="white"/>
<path fill-rule="evenodd" clip-rule="evenodd" d="M39.4293 10.9038L40.646 9.30497C40.1045 8.3977 38.1305 7.60765 36.8739 7.60765C28.9781 7.60765 29.9276 18.0119 36.2503 18.0236C39.1339 18.0283 39.6942 17.0343 40.6624 16.3381L39.3684 14.7767C38.9112 14.908 37.4882 16.4576 35.5564 15.7004C31.8429 14.2422 33.9318 8.28752 37.8515 9.88637C38.6322 10.2029 39.0167 10.4842 39.4293 10.9038Z" fill="white"/>
<path fill-rule="evenodd" clip-rule="evenodd" d="M76.4386 14.132L77.9062 10.4725L79.3832 14.1367C78.4009 14.1367 77.4209 14.1414 76.4386 14.132ZM75.6205 16.0099L80.199 16.0122L81.0266 17.951L83.4858 17.9393C83.4577 17.5994 81.6595 13.4662 81.3782 12.845L79.2519 7.77882L76.7434 7.79523C76.23 9.13152 72.4532 17.4212 72.4321 17.9534L74.7741 17.9416L75.6205 16.0099Z" fill="white"/>
<path fill-rule="evenodd" clip-rule="evenodd" d="M84.6104 7.73192H86.7297L91.6153 14.2281L91.6481 7.73192H93.7674L93.7416 17.8244L91.6387 17.822L86.7508 11.3633L86.6781 17.8033H84.6877L84.6104 7.73192Z" fill="white"/>
<path fill-rule="evenodd" clip-rule="evenodd" d="M100.431 7.6991C103.416 7.6991 105.838 10.0224 105.838 12.8848C105.838 15.7473 103.418 18.0729 100.431 18.0729C97.4448 18.0729 95.0254 15.7496 95.0254 12.8848C95.0254 10.02 97.4448 7.6991 100.431 7.6991ZM100.431 9.66367C102.155 9.66367 103.549 11.1055 103.549 12.8872C103.549 14.6689 102.152 16.1107 100.431 16.1107C98.7107 16.1107 97.3135 14.6689 97.3135 12.8872C97.3135 11.1055 98.7084 9.66367 100.431 9.66367Z" fill="white"/>
</g>
<defs>
<clipPath id="clip0_16_6510">
<rect width="105.265" height="25.2113" fill="white" transform="translate(0.571289 0.234665)"/>
</clipPath>
</defs>
</svg>
