<svg width="75" height="21" viewBox="0 0 75 21" fill="none" xmlns="http://www.w3.org/2000/svg">
<path d="M9.48651 0.93866L0.998047 5.84226V15.6466L9.48651 20.5474L17.9693 15.6466V5.84226L9.48651 0.93866ZM15.4563 14.1944L9.48651 17.6428L3.51393 14.1944V7.29597L9.48651 3.84889L15.4563 7.29597V14.1944Z" fill="white"/>
<path d="M9.48633 20.5474L17.9698 15.6466V5.84226L9.48633 0.93866V3.84748L15.4565 7.29597V14.1972L9.48633 17.6428V20.5474Z" fill="white"/>
<path d="M9.48152 0.93866L0.998047 5.83944V15.6438L9.48152 20.5474V17.6386L3.5113 14.1915V7.29597L9.48152 3.84466V0.93866Z" fill="white"/>
<path d="M13.4463 13.0345L9.48361 15.3217L5.51807 13.0345V8.45583L9.48361 6.16579L13.4463 8.45583L11.7963 9.41508L9.48361 8.07157L7.17097 9.41508V12.0781L9.48361 13.4159L11.7963 12.0781L13.4463 13.0345Z" fill="white"/>
<path d="M23.345 10.8151V10.7861C23.3385 10.2238 23.4443 9.66586 23.6565 9.14507C23.8686 8.62429 24.1826 8.15114 24.5802 7.75345C24.9777 7.35575 25.4508 7.04152 25.9715 6.82922C26.4922 6.61692 27.0501 6.51083 27.6124 6.51719C28.2288 6.49512 28.8424 6.61143 29.4081 6.85758C29.9737 7.10374 30.477 7.47348 30.881 7.93964L29.7048 9.19538C29.1312 8.60498 28.527 8.1706 27.5986 8.1706C26.2358 8.1706 25.2294 9.34833 25.2294 10.7708V10.8029C25.2294 12.259 26.2358 13.4184 27.6766 13.4184C28.0844 13.4115 28.4861 13.3183 28.8552 13.1448C29.2243 12.9713 29.5525 12.7216 29.8179 12.412L30.9498 13.53C30.3902 14.2078 29.6356 14.6969 28.7884 14.9311C27.9412 15.1653 27.0425 15.1331 26.2143 14.839C25.386 14.5448 24.6683 14.003 24.1586 13.287C23.6488 12.571 23.3717 11.7155 23.3649 10.8366L23.345 10.8151Z" fill="white"/>
<path d="M32.6211 6.68082H34.5101V8.51625C35.0209 7.29263 35.9646 6.45598 37.4054 6.51563V8.50401H37.2984C35.6541 8.50401 34.5101 9.57467 34.5101 11.7389V14.8531H32.6211V6.68082Z" fill="white"/>
<path d="M38.3042 10.8151V10.7861C38.3298 9.64963 38.7982 8.56813 39.6095 7.77197C40.4209 6.9758 41.511 6.52791 42.6477 6.52373C43.7844 6.51954 44.8778 6.95938 45.695 7.74955C46.5122 8.53971 46.9885 9.61773 47.0225 10.7539V10.7861C47.0235 11.3566 46.91 11.9216 46.6888 12.4475C46.4675 12.9734 46.143 13.4496 45.7344 13.8478C45.3257 14.246 44.8414 14.5582 44.3099 14.7658C43.7785 14.9734 43.2108 15.0722 42.6404 15.0565C42.0751 15.0706 41.5127 14.9712 40.9865 14.7643C40.4602 14.5573 39.9808 14.247 39.5766 13.8516C39.1723 13.4562 38.8515 12.9837 38.6329 12.4622C38.4144 11.9406 38.3026 11.3806 38.3042 10.8151ZM45.1473 10.8151V10.7861C45.1615 10.4469 45.1073 10.1084 44.9879 9.79061C44.8686 9.47283 44.6866 9.18229 44.4527 8.93628C44.2189 8.69027 43.9379 8.49381 43.6265 8.35859C43.3152 8.22337 42.9798 8.15215 42.6404 8.14916C41.1354 8.14916 40.1748 9.32843 40.1748 10.7494V10.7815C40.1628 11.1182 40.2174 11.454 40.3354 11.7695C40.5145 12.244 40.8327 12.6532 41.2484 12.9436C41.6641 13.234 42.1578 13.392 42.6649 13.397C44.1868 13.4015 45.1473 12.2238 45.1473 10.8151Z" fill="white"/>
<path d="M48.9105 6.68083H50.7918V7.93656C51.0585 7.49828 51.4343 7.13668 51.8826 6.88709C52.3308 6.6375 52.8361 6.50846 53.3492 6.51258C55.1846 6.51258 56.2552 7.75149 56.2552 9.64045V14.8607H54.3846V10.211C54.3846 8.93993 53.7514 8.21341 52.6349 8.21341C51.5183 8.21341 50.7918 8.97817 50.7918 10.2416V14.8684H48.9028L48.9105 6.68083Z" fill="white"/>
<path d="M58.0791 10.8151V10.7861C58.1047 9.64963 58.5731 8.56813 59.3844 7.77197C60.1958 6.9758 61.2859 6.52791 62.4226 6.52373C63.5593 6.51954 64.6527 6.95938 65.4699 7.74955C66.2871 8.53971 66.7634 9.61773 66.7974 10.7539V10.7861C66.7984 11.3566 66.685 11.9216 66.4637 12.4475C66.2424 12.9734 65.9179 13.4496 65.5093 13.8478C65.1006 14.246 64.6163 14.5582 64.0848 14.7658C63.5534 14.9734 62.9857 15.0722 62.4153 15.0565C61.8503 15.0716 61.2879 14.9727 60.7619 14.7659C59.9691 14.4538 59.2889 13.9097 58.8103 13.2049C58.3317 12.5 58.0768 11.6671 58.0791 10.8151ZM64.9237 10.8151V10.7861C64.9382 10.4466 64.884 10.1078 64.7644 9.78976C64.6448 9.47175 64.4623 9.18115 64.2278 8.93534C63.9946 8.68893 63.7135 8.49272 63.4019 8.35871C63.0905 8.22311 62.7549 8.15184 62.4153 8.14916C60.9103 8.14916 59.9497 9.32843 59.9497 10.7494V10.7815C59.9364 11.1198 59.991 11.4573 60.1103 11.7741C60.2889 12.2485 60.6069 12.6578 61.0223 12.9483C61.4378 13.2387 61.9314 13.3967 62.4383 13.4015C63.9525 13.4015 64.9237 12.2238 64.9237 10.8151Z" fill="white"/>
<path d="M68.0342 13.79L68.8708 12.519C69.6343 13.1301 70.5721 13.483 71.549 13.527C72.3566 13.527 72.8185 13.1706 72.8185 12.6444V12.6123C72.8185 11.9791 71.9543 11.7619 70.9938 11.4667C69.7855 11.1103 68.4364 10.63 68.4364 9.08216V9.05004C68.4364 7.48381 69.7243 6.54163 71.3502 6.54163C72.4186 6.56143 73.4595 6.88332 74.3526 7.47005L73.6093 8.80073C72.9208 8.34809 72.1265 8.08194 71.3043 8.02832C70.5931 8.02832 70.1587 8.3847 70.1587 8.83285V8.86497C70.1587 9.47678 71.0412 9.71538 71.9941 10.0259C73.1871 10.3991 74.5346 10.9436 74.5346 12.4135V12.441C74.5346 14.1632 73.2009 15.0136 71.497 15.0136C70.2385 15.0041 69.0194 14.5733 68.0342 13.79Z" fill="white"/>
</svg>
