<svg width="76" height="17" viewBox="0 0 76 17" fill="none" xmlns="http://www.w3.org/2000/svg">
<path d="M74.9695 8.00981C74.6842 7.06952 73.8468 6.50047 72.6697 6.44164C72.0561 6.41099 71.1635 6.44126 70.6645 6.4639H70.6641L70.6635 6.46395L70.6626 6.46397C70.6124 6.46625 70.5662 6.46836 70.5247 6.47017C70.0715 6.48995 69.5283 6.53328 69.2576 6.55901L69.2569 6.55909C69.1831 6.56609 69.1758 6.56683 69.1553 6.59294C69.1347 6.61922 69.1385 6.66838 69.1385 6.66838C69.1385 6.66838 69.1384 6.80476 69.1551 6.84273C69.172 6.88067 69.2798 6.89494 69.2798 6.89494C69.3466 6.91288 69.4103 6.92862 69.4704 6.94351L69.4705 6.94356C69.7736 7.0186 69.9864 7.07131 70.0715 7.27023C70.1289 7.40461 70.1326 7.87191 70.1333 10.377C70.1339 13.0185 70.1335 13.3421 70.0628 13.5168C69.9751 13.7332 69.8073 13.8482 69.4203 13.9568C69.4203 13.9568 69.249 14.0045 69.203 14.0471C69.1569 14.0897 69.1482 14.1848 69.1482 14.1848C69.1482 14.1848 69.1446 14.2732 69.184 14.3156C69.2235 14.3579 69.3288 14.3378 69.3288 14.3378L70.3322 14.3404L71.9964 14.3538C71.9964 14.3538 72.0644 14.3628 72.0997 14.3179C72.1349 14.2729 72.126 14.1846 72.126 14.1846C72.126 14.1846 72.126 14.0902 72.0821 14.0477C72.0382 14.0052 71.8682 13.9654 71.8682 13.9654C71.4924 13.873 71.2996 13.7523 71.2143 13.5566C71.1509 13.4112 71.1441 13.0184 71.1346 12.2006V11.0014C71.1765 11.0251 71.2149 11.052 71.2555 11.0804C71.4474 11.2146 71.6875 11.3827 72.5849 11.4086C73.672 11.4402 74.3259 10.9564 74.7149 10.3945C75.1039 9.83281 75.2548 8.95009 74.9695 8.00981ZM73.5563 10.3518C73.1191 10.7628 72.2581 10.8754 71.6736 10.761C71.4892 10.7249 71.384 10.6693 71.3028 10.6264L71.2947 10.6221L71.1451 10.5433L71.1364 9.10008C71.131 8.1958 71.1405 7.60658 71.1617 7.52238C71.1812 7.04557 71.8845 6.98626 72.2282 7.00388C73.6984 7.00388 73.958 8.24265 74.0009 8.88681C74.0009 9.29761 73.9937 9.94073 73.5563 10.3518Z" fill="white"/>
<path d="M68.3471 14.0111C68.3151 13.9772 68.0986 13.9414 68.0986 13.9414C67.8222 13.8968 67.6846 13.6686 67.5821 13.4987C67.5559 13.4553 67.5321 13.4158 67.5088 13.3842C67.4613 13.3193 67.2916 12.9645 67.1587 12.6232C67.0258 12.282 66.726 11.511 66.4925 10.91C66.259 10.3091 65.933 9.47083 65.7682 9.0472C65.6034 8.62357 65.2903 7.81754 65.0723 7.25601C65.0365 7.16382 65.0044 7.08106 64.9758 7.00691L64.9756 7.00662C64.8294 6.62947 64.7705 6.47733 64.7543 6.45673C64.7018 6.38988 64.5391 6.45673 64.5391 6.45673C64.5391 6.45673 64.4672 6.4843 64.3584 6.52557L63.9658 6.72829L63.683 7.43406C63.5276 7.82223 63.2432 8.53476 63.0511 9.01749C62.7012 9.89673 62.4701 10.4744 62.2269 11.0774C62.1554 11.2547 61.9395 11.7948 61.747 12.2775C61.5546 12.7601 61.3622 13.2195 61.3196 13.2983C61.3125 13.3115 61.3049 13.3255 61.297 13.3404C61.1895 13.5427 61.0025 13.894 60.6724 13.9471C60.6724 13.9471 60.4909 13.9649 60.4237 14.0314C60.3565 14.0979 60.363 14.1521 60.363 14.1521V14.2357C60.363 14.2357 60.3691 14.2763 60.4072 14.2965C60.4452 14.3167 60.4968 14.3179 60.4968 14.3179L61.7043 14.3041H62.9523C62.9523 14.3041 63.0407 14.3144 63.0747 14.2862C63.1088 14.258 63.1181 14.2161 63.1181 14.2161V14.128C63.1181 14.128 63.1007 14.0324 63.0513 13.9952C63.002 13.9579 62.8167 13.9324 62.8167 13.9324C62.317 13.8667 62.231 13.4889 62.2927 13.1491C62.3231 12.9821 62.5238 12.3645 62.75 11.7427L62.8282 11.5278L64.1359 11.5178C64.8551 11.5123 65.4762 11.516 65.5159 11.5261C65.5726 11.5405 65.6521 11.7018 65.8854 12.2766C66.2389 13.1475 66.2672 13.2536 66.1889 13.4165C66.1841 13.4264 66.1791 13.4374 66.1736 13.4492C66.1002 13.6068 65.9575 13.9129 65.5982 13.9441C65.5982 13.9441 65.4075 13.9507 65.3601 14.0077C65.3127 14.0647 65.3229 14.1304 65.3229 14.1304V14.2174C65.3229 14.2174 65.3357 14.2686 65.3601 14.2888C65.3846 14.3091 65.426 14.3039 65.426 14.3039L66.613 14.2954L68.2817 14.2953C68.2817 14.2953 68.3471 14.3023 68.365 14.2772C68.3827 14.252 68.3864 14.2224 68.3864 14.2224V14.1066C68.3865 14.1066 68.3792 14.0451 68.3471 14.0111ZM64.1861 10.7218C63.5117 10.7218 63.1181 10.7089 63.1181 10.6867C63.1181 10.6674 63.1406 10.5908 63.1683 10.5166C63.2123 10.3984 63.4314 9.77122 63.9154 8.37845C63.99 8.16337 64.0594 7.97365 64.0693 7.95693C64.1035 7.8996 64.1453 7.96353 64.2554 8.24107C64.316 8.39373 64.4087 8.62345 64.4614 8.7515C64.5141 8.87955 64.6616 9.2423 64.7892 9.55748C64.9168 9.87276 65.0736 10.2563 65.1377 10.41C65.2017 10.5638 65.254 10.6967 65.254 10.7055C65.2541 10.7145 64.7735 10.7218 64.1861 10.7218Z" fill="white"/>
<path d="M43.3656 8.91269C42.9914 7.66782 43.6086 6.63524 44.9255 6.30343C45.3032 6.20822 47.0134 6.2512 47.3063 6.36326C47.414 6.40433 47.4609 6.56199 47.4618 6.88603C47.4625 7.14116 47.4904 7.4511 47.5236 7.57468C47.574 7.76202 47.5445 7.79889 47.3468 7.79586C47.168 7.79306 47.0599 7.68829 46.9089 7.37127C46.6678 6.86491 46.3759 6.70386 45.6955 6.70197C44.8269 6.69949 44.1915 7.28427 44.2949 7.99084C44.3623 8.45062 44.8217 8.90306 45.8526 9.52494C46.8335 10.1166 47.406 10.6031 47.6341 11.0391C48.2442 12.2044 47.7233 13.4516 46.3642 14.08C45.6666 14.4025 44.4973 14.4358 43.6753 14.1566L43.1489 13.9778V13.1367C43.1489 12.375 43.1671 12.2954 43.3407 12.2954C43.486 12.2954 43.5487 12.3915 43.5996 12.6923C43.7265 13.44 44.2948 13.894 45.1041 13.894C45.897 13.894 46.4513 13.4608 46.6636 12.6753C46.7541 12.3407 46.7384 12.2173 46.559 11.8482C46.3441 11.4056 45.9739 11.1119 44.7168 10.3867C44.0194 9.98423 43.526 9.44615 43.3656 8.91269Z" fill="white"/>
<path d="M18.7243 6.80038C18.5528 6.80038 18.4858 6.74435 18.4858 6.60057C18.4858 6.41021 18.5528 6.40075 19.897 6.40075C21.1445 6.40075 21.3042 6.41954 21.2756 6.5627C21.2577 6.65179 21.0852 6.77537 20.8923 6.83743L20.5413 6.95024L20.5114 9.49798C20.4913 11.198 20.5195 12.1786 20.596 12.4453C20.8236 13.2383 21.5179 13.6942 22.4975 13.6942C23.1794 13.6942 23.5778 13.5348 24.0784 13.0612C24.6166 12.5522 24.7025 12.0685 24.7008 9.55471C24.6992 7.07511 24.656 6.87049 24.1235 6.81907C23.8811 6.79562 23.7999 6.73909 23.7999 6.59421C23.7999 6.41361 23.8799 6.40073 25.0031 6.40073C26.1394 6.40073 26.2062 6.41177 26.2062 6.60054C26.2062 6.72365 26.1388 6.80095 26.0308 6.80187C25.5664 6.80597 25.5578 6.85011 25.4954 9.56908C25.4305 12.3926 25.3699 12.7269 24.7977 13.4186C24.6327 13.6181 24.2391 13.9079 23.9233 14.0625C23.4084 14.3144 23.2446 14.3433 22.3461 14.3417C21.5177 14.34 21.2562 14.3 20.8421 14.1115C20.2375 13.8362 19.8443 13.4801 19.5545 12.9449C19.3521 12.5712 19.3349 12.369 19.288 9.83763C19.2344 6.94009 19.2083 6.80038 18.7243 6.80038Z" fill="white"/>
<path d="M28.1056 6.80039C27.8764 6.80039 27.8096 6.75528 27.8096 6.60058C27.8096 6.41324 27.8736 6.40126 28.8372 6.40892L29.865 6.41711L30.3567 6.98343C30.6269 7.29484 31.5082 8.26907 32.3148 9.14819C33.1215 10.0275 34.0475 11.0502 34.3727 11.4212C34.6979 11.7922 35.004 12.0957 35.0529 12.0957C35.1032 12.0957 35.1282 11.0478 35.1103 9.68899L35.0787 7.28236L34.7973 7.04137C34.6426 6.90881 34.4059 6.80039 34.271 6.80039C34.0917 6.80039 34.026 6.74604 34.026 6.5978C34.026 6.40267 34.0771 6.39614 35.4046 6.42295C36.5333 6.44573 36.7832 6.47719 36.7832 6.59646C36.7832 6.6815 36.6436 6.77068 36.4481 6.81059C36.2638 6.84818 36.0607 6.93089 35.9968 6.99442C35.9145 7.07644 35.8726 8.13705 35.8522 10.6519L35.8234 14.1937H35.5328C35.2826 14.1937 34.9849 13.9122 33.3928 12.1706C32.3756 11.0577 31.1882 9.73522 30.7543 9.23169C30.3202 8.72791 29.9313 8.31208 29.89 8.30751C29.7736 8.29446 29.8017 12.7943 29.9208 13.2214C30.0136 13.5543 30.0774 13.6116 30.4718 13.7168C30.7894 13.8014 30.9177 13.8872 30.9177 14.0147C30.9177 14.1784 30.7967 14.1938 29.5141 14.1938C28.2084 14.1938 28.1104 14.1807 28.1104 14.0065C28.1104 13.8789 28.2048 13.8003 28.4066 13.7601C29.0189 13.6381 29.0595 13.4445 29.0939 10.4844C29.1131 8.8266 29.0848 7.66663 29.0192 7.42376C28.9037 6.99661 28.6162 6.80039 28.1056 6.80039Z" fill="white"/>
<path d="M38.6186 6.80037C38.4037 6.80037 38.3369 6.75295 38.3369 6.60056C38.3369 6.4096 38.4037 6.40074 39.8409 6.40074C41.2779 6.40074 41.3448 6.40958 41.3448 6.60056C41.3448 6.74714 41.2779 6.80037 41.0941 6.80037C40.9563 6.80037 40.7514 6.89209 40.6389 7.00421C40.4403 7.20216 40.4352 7.30055 40.4635 10.3594C40.491 13.3454 40.5028 13.5182 40.6871 13.6524C40.7942 13.7304 40.986 13.7941 41.1133 13.7941C41.2779 13.7941 41.3448 13.8517 41.3448 13.9939C41.3448 14.1848 41.2779 14.1937 39.8409 14.1937C38.4379 14.1937 38.3369 14.1811 38.3369 14.0067C38.3369 13.8661 38.4353 13.804 38.7341 13.7564C39.3274 13.6618 39.3578 13.4682 39.3208 10.0143C39.2912 7.24829 39.2785 7.07582 39.0948 6.94207C38.9877 6.86415 38.7734 6.80037 38.6186 6.80037Z" fill="white"/>
<path d="M49.1087 6.80038C48.9715 6.80038 48.8672 6.72437 48.8347 6.60057C48.7841 6.40735 48.8317 6.40075 50.2769 6.40075C51.7046 6.40075 51.7715 6.40959 51.7715 6.60057C51.7715 6.75413 51.7046 6.80038 51.4829 6.80038C50.8517 6.80038 50.8659 6.91466 51.8212 9.52754C52.3074 10.8576 52.7796 12.1209 52.8703 12.3351L53.0352 12.7245L53.8011 10.6866C54.7026 8.28775 54.8196 7.84415 54.6666 7.40665C54.5599 7.10172 54.1449 6.80036 53.8319 6.80036C53.7434 6.80036 53.6764 6.71444 53.6764 6.60054C53.6764 6.40929 53.7434 6.40073 55.2306 6.40073C56.7179 6.40073 56.7847 6.40929 56.7847 6.60054C56.7847 6.74271 56.7179 6.80036 56.5533 6.80036C56.1317 6.80036 55.9458 7.02437 56.0063 7.45961C56.0687 7.90755 57.7931 12.7225 57.8655 12.6504C57.9831 12.5333 59.8929 7.34995 59.8929 7.14797C59.8929 6.90587 59.7229 6.80036 59.3333 6.80036C59.1577 6.80036 59.0908 6.74532 59.0908 6.60054C59.0908 6.41179 59.1577 6.40073 60.2941 6.40073C61.3145 6.40073 61.4972 6.4243 61.4972 6.55578C61.4972 6.64109 61.3722 6.7543 61.2193 6.80733C60.8757 6.92677 60.7893 7.063 60.3581 8.16692C60.1688 8.65167 59.5763 10.1689 59.0413 11.5382C58.5064 12.9077 58.0456 14.0879 58.0176 14.1609C57.9894 14.234 57.8237 14.2937 57.649 14.2937H57.3316L56.6115 12.4203C56.2153 11.3901 55.7472 10.1695 55.5715 9.70789C55.2702 8.91697 55.2449 8.88268 55.1315 9.10835C55.0654 9.24027 54.5895 10.463 54.0739 11.8257L53.1366 14.3034L52.7868 14.2736L52.437 14.2437L51.1028 10.7547C50.3574 8.80528 49.6719 7.16284 49.5494 7.03293C49.4288 6.90498 49.2305 6.80038 49.1087 6.80038Z" fill="white"/>
<path d="M9.79415 11.9433C9.70812 11.9699 9.36938 12.0369 9.0414 12.092C8.37738 12.2037 8.08096 12.2828 7.78327 12.4277C7.57214 12.5303 7.31647 12.6842 7.3317 12.6995C7.33654 12.7045 7.38478 12.6929 7.43876 12.6737C7.81424 12.5405 8.23206 12.4716 8.86692 12.4383C9.11887 12.4251 9.40537 12.404 9.50373 12.3915C10.0693 12.3195 10.4613 12.1459 10.7661 11.8326C10.9357 11.6583 11.0368 11.4957 11.1183 11.2666C11.1699 11.1213 11.177 11.0674 11.1774 10.8099C11.1778 10.5476 11.1716 10.4995 11.1156 10.3382C11.0423 10.1267 10.9558 9.96785 10.8463 9.84372L10.7672 9.75406L10.8098 9.88226C10.8332 9.95278 10.8694 10.1132 10.8904 10.2389C11.024 11.0425 10.6065 11.6917 9.79415 11.9433Z" fill="white"/>
<path d="M7.88146 4.76702C8.10569 4.98234 8.33106 5.24973 8.69573 5.73294C9.51673 6.82093 9.86501 7.12405 10.5562 7.35163C10.9624 7.48544 11.3721 7.54785 12.0959 7.58641C12.8973 7.62905 13.2 7.69419 13.4861 7.88544C13.6449 7.99153 13.7689 8.12313 13.8923 8.31639L13.964 8.42868L13.949 8.30515C13.8915 7.83127 13.5564 7.16554 13.1299 6.67737L13.0521 6.58841L13.0129 6.76723C12.9139 7.21743 12.7007 7.54103 12.5026 7.54128C12.4057 7.5414 12.308 7.47899 12.2729 7.39459C12.229 7.28883 12.2326 7.24967 12.2979 7.12616C12.4181 6.89915 12.4477 6.59516 12.3884 6.19853C12.3713 6.08396 12.346 5.97651 12.3322 5.95983C12.2891 5.90747 11.9432 5.70371 11.7238 5.60132C10.9264 5.22926 9.97299 5.10833 9.03583 5.26048L8.81333 5.29658L8.65784 5.12173C8.07251 4.46345 7.52414 4.09276 6.92154 3.94811C6.66338 3.88609 6.28882 3.85249 6.13015 3.87716C6.04736 3.89006 6.05481 3.89321 6.23073 3.92078C6.87149 4.02121 7.37207 4.27781 7.88146 4.76702Z" fill="white"/>
<path d="M7.84976 8.80798C7.88778 8.60427 7.71263 8.3221 7.47132 8.19817C7.34682 8.13429 7.08206 8.1089 6.95402 8.14861C6.75256 8.21112 6.55672 8.42677 6.49607 8.65289C6.45912 8.79089 6.48006 9.03284 6.53553 9.10758C6.62496 9.22821 6.71152 9.26002 6.94583 9.25841C7.40462 9.25516 7.80343 9.05636 7.84976 8.80798ZM7.49028 8.57216C7.44157 8.64212 7.29071 8.70855 7.18046 8.70855C7.01484 8.70855 6.83416 8.58981 6.83416 8.48096C6.83416 8.26236 7.18063 8.14533 7.40978 8.28673C7.53009 8.36093 7.561 8.47067 7.49028 8.57216Z" fill="white"/>
<path d="M11.5864 5.07716C11.717 5.13584 11.9292 5.24679 12.0577 5.3237C12.566 5.62732 12.6526 5.80457 12.6534 6.54182C12.6537 6.90872 12.649 6.9575 12.6039 7.06838C12.5436 7.21688 12.5541 7.24494 12.6209 7.11337C12.7444 6.8701 12.7955 6.62689 12.8028 6.24783C12.8075 6.00461 12.8148 5.95317 12.8488 5.91892C12.8857 5.8818 12.8946 5.88125 12.9546 5.91242C13.044 5.95883 13.4484 6.28384 13.6243 6.4505L13.7682 6.58673L13.6243 6.39608C13.5452 6.29121 13.327 6.04695 13.1394 5.85326C12.7394 5.4404 12.7078 5.38526 12.6523 5.00303C12.6085 4.7018 12.6189 4.44289 12.6825 4.2536C12.7059 4.18392 12.721 4.12697 12.7159 4.12697C12.7109 4.12697 12.6785 4.19012 12.644 4.26735C12.5566 4.46235 12.513 4.67596 12.4948 4.99981C12.4831 5.20868 12.4714 5.27972 12.4473 5.28906C12.4112 5.30295 12.3623 5.28799 12.0656 5.17272C11.8661 5.0952 11.3705 4.94908 11.3561 4.96355C11.3523 4.96742 11.456 5.01849 11.5864 5.07716Z" fill="white"/>
<path d="M11.6205 16.2892C11.1761 16.4642 10.7245 16.4522 10.4622 16.2582C10.297 16.1362 10.1638 15.893 10.0954 15.5888C10.0835 15.5361 10.0444 15.3036 10.0084 15.0721C9.91724 14.4852 9.82964 14.2215 9.62545 13.9187C9.41658 13.609 9.01489 13.349 8.5659 13.2329C8.28579 13.1604 7.78186 13.1408 7.47931 13.1905C6.77745 13.3056 6.00688 13.6808 5.38755 14.209L5.20312 14.3663L5.3652 14.3918C6.21081 14.5252 6.43844 14.6434 7.02498 15.2537C7.36255 15.6049 7.47658 15.683 7.7565 15.7552C8.16771 15.8612 8.5731 15.6665 8.71214 15.2959C8.77426 15.1304 8.76592 14.8562 8.69465 14.7185C8.52518 14.3908 8.03125 14.2848 7.79248 14.525C7.59353 14.7249 7.65145 15.0262 7.89889 15.078C7.95552 15.0899 7.95395 15.0874 7.88449 15.0557C7.7762 15.0062 7.72917 14.9376 7.72858 14.8285C7.72711 14.5727 8.01704 14.4291 8.28663 14.5519C8.48406 14.642 8.56243 14.7595 8.56243 14.9656C8.56243 15.283 8.29504 15.5222 7.98378 15.4831C7.81739 15.4622 7.61401 15.3547 7.50484 15.2302C7.23031 14.9166 7.33726 14.4219 7.72051 14.232C8.01232 14.0876 8.40021 14.1231 8.70095 14.3221C9.04651 14.5507 9.19351 14.7596 9.49113 15.4453C9.58806 15.6685 9.71273 15.9199 9.76814 16.0038C10.0502 16.4301 10.3879 16.6392 10.7948 16.6392C11.0193 16.6392 11.1881 16.5977 11.4005 16.4906C11.5583 16.411 11.7821 16.2597 11.7659 16.2435C11.7613 16.2389 11.6959 16.2595 11.6205 16.2892Z" fill="white"/>
<path d="M14.8106 10.331C14.6603 9.38776 14.0301 8.69536 13.0114 8.35412C12.691 8.2467 12.3436 8.17329 11.7263 8.08224C10.6771 7.92767 10.2981 7.81056 9.95973 7.53638C9.88687 7.47739 9.82235 7.42912 9.81629 7.42912C9.81024 7.42912 9.80518 7.54881 9.80518 7.6951C9.80518 8.68918 10.393 9.27828 12.062 9.95698C13.1732 10.409 13.6279 10.6427 13.9662 10.9364C14.2637 11.1947 14.441 11.5395 14.4581 11.8936C14.4612 11.9598 14.4736 12.0083 14.4862 12.0042C14.5314 11.9894 14.702 11.6037 14.7579 11.3898C14.8287 11.1189 14.8543 10.605 14.8106 10.331Z" fill="white"/>
<path d="M13.8539 11.6955C13.5898 11.3635 13.2013 11.073 12.52 10.6979C11.9741 10.3972 11.7691 10.2802 11.667 10.2108C11.6156 10.1758 11.5633 10.1472 11.5507 10.1472C11.5381 10.1472 11.5172 10.1851 11.5042 10.2315C11.3827 10.665 11.4336 11.1298 11.6555 11.6113C11.7667 11.853 11.8776 12.0355 12.3303 12.721C12.7195 13.3107 12.9123 13.6596 13.0069 13.9455C13.1614 14.4124 13.1381 14.832 12.9338 15.2633C12.8856 15.3653 12.8532 15.4485 12.8618 15.4483C12.8705 15.4481 12.9503 15.4081 13.0393 15.3594C13.6465 15.0266 14.0723 14.4562 14.2554 13.7301C14.3135 13.4999 14.3364 12.9496 14.2973 12.7209C14.2284 12.3172 14.0853 11.9862 13.8539 11.6955Z" fill="white"/>
<path d="M5.29291 13.7028C5.49838 13.4816 5.54662 13.3594 5.54821 13.0563C5.54918 12.858 5.5423 12.8165 5.4892 12.7024C5.40286 12.5167 5.24558 12.3623 4.89903 12.123C4.44489 11.8094 4.25093 11.557 4.19732 11.2098C4.15338 10.925 4.20437 10.724 4.45563 10.1922C4.71562 9.64158 4.78007 9.40705 4.82369 8.8521C4.85179 8.49359 4.8908 8.35219 4.99279 8.23876C5.0991 8.12041 5.19493 8.08031 5.45808 8.04396C5.88716 7.98477 6.16041 7.87266 6.38504 7.66356C6.57992 7.48226 6.66139 7.30748 6.67389 7.04446L6.68345 6.84507L6.57453 6.71687C6.18026 6.25247 0.700666 0.173309 0.676421 0.173309C0.67121 0.173309 0.80102 0.337563 0.964728 0.538321C2.82433 2.8181 4.8661 5.68214 5.19635 6.14537C5.21399 6.17011 5.22672 6.18798 5.23429 6.19855C5.41036 6.44437 5.55568 6.62704 5.66601 6.76581V6.76583C5.91109 7.07384 5.9838 7.16526 5.83753 7.24916C5.71964 7.31689 5.59801 7.33922 5.47662 7.33922C5.33931 7.33922 5.18459 7.27244 5.07197 7.16452C4.99237 7.08826 4.44757 6.28915 3.70578 5.12654C3.13825 4.23695 2.66325 3.49904 2.6503 3.48671C2.62032 3.45817 2.62084 3.45911 3.64791 5.31531C4.29284 6.48095 4.73399 7.3423 4.73399 7.39739C4.73399 7.50948 4.70376 7.56839 4.56685 7.72265C4.3386 7.97981 4.23658 8.26879 4.16298 8.86677C4.08044 9.53706 3.84825 10.0106 3.20493 10.821C2.8283 11.2955 2.76666 11.3824 2.67172 11.5736C2.55198 11.8145 2.51912 11.9493 2.50572 12.2533C2.49163 12.5749 2.51912 12.7825 2.61635 13.0899C2.70149 13.359 2.79031 13.5367 3.01752 13.8921C3.21356 14.1988 3.3264 14.4266 3.3264 14.5159C3.3264 14.5868 3.33982 14.5869 3.64357 14.5176C4.37059 14.3518 4.9609 14.0602 5.29291 13.7028ZM3.54778 12.6172C3.46236 12.7698 3.29937 12.82 3.18421 12.7289C3.11279 12.6724 3.1077 12.5893 3.17004 12.4946C3.23155 12.4012 3.22585 12.3556 3.1477 12.315C3.1013 12.2908 3.0807 12.2634 3.0807 12.2258C3.0807 12.1025 3.29955 12.0579 3.44043 12.1525C3.58959 12.2527 3.63692 12.4577 3.54778 12.6172Z" fill="white"/>
<path d="M7.59512 6.97396C7.80253 6.99289 7.86487 6.92725 7.77104 6.78886C7.64078 6.59666 7.48055 6.30071 7.43814 6.17402C7.41176 6.09533 7.35454 5.86284 7.31091 5.65739C7.16194 4.95595 7.01556 4.68281 6.67735 4.4753C6.55406 4.39971 6.29089 4.30075 6.1382 4.27263L6.05696 4.25764L6.04212 4.43381C5.99432 5.00298 6.21523 5.7644 6.57238 6.26098C6.84919 6.64589 7.27835 6.94507 7.59512 6.97396Z" fill="white"/>
</svg>
