<svg width="64" height="18" viewBox="0 0 64 18" fill="none" xmlns="http://www.w3.org/2000/svg">
<path d="M16.8117 3.57837V13.9087H14.7188V3.57837H16.8117Z" fill="white"/>
<path d="M25.3414 6.94009V13.9237C25.3414 16.088 23.6641 17.4151 21.6139 17.4151C19.6355 17.4151 18.159 16.1741 18.0154 14.429L20.0944 14.4426C20.1804 15.1789 20.8254 15.5109 21.6857 15.5109C22.4884 15.5109 23.2482 15.078 23.2482 13.9379V13.0579C22.7177 13.4041 22.0295 13.6067 21.2697 13.6067C19.3631 13.6067 17.8291 12.0479 17.8291 10.2588C17.8291 8.18115 19.3631 6.78157 21.2697 6.78157C22.0295 6.78157 22.7177 6.98343 23.2482 7.32959V6.95464L25.3414 6.94009ZM23.2482 11.0528V9.34971C22.818 8.72919 22.2303 8.51275 21.6426 8.51275C20.6103 8.51275 19.9078 9.20543 19.9078 10.2588C19.9078 11.0379 20.6248 11.8751 21.6426 11.8751C22.2303 11.8887 22.8326 11.6726 23.2482 11.0528Z" fill="white"/>
<path d="M33.685 10.3455C33.685 12.4957 32.1076 14.0246 29.9859 14.0246C27.85 14.0246 26.2729 12.4957 26.2729 10.3455C26.2729 8.20993 27.85 6.65152 29.9859 6.65152C32.1076 6.65152 33.685 8.20991 33.685 10.3455ZM31.6632 10.3455C31.6632 9.33548 31.0037 8.51274 29.9859 8.51274C28.9538 8.51274 28.2944 9.33548 28.2944 10.3455C28.2944 11.384 28.9538 12.1637 29.9859 12.1637C31.0037 12.1488 31.6632 11.384 31.6632 10.3455Z" fill="white"/>
<path d="M46.6719 6.95464V13.8952L44.6213 13.9088V13.5199C44.0916 13.8654 43.4033 14.0822 42.6433 14.0822C40.737 14.0822 39.2026 12.4523 39.2026 10.4465C39.2026 8.42633 40.737 6.79581 42.6433 6.79581C43.4033 6.79581 44.0916 7.01224 44.6213 7.35874V6.9689L46.6719 6.95464ZM44.6078 11.4998V9.37814C44.1769 8.75828 43.5754 8.58487 42.9732 8.58487C41.9265 8.58487 41.1949 9.4364 41.1949 10.4465C41.1949 11.4416 41.9265 12.2931 42.9732 12.2931C43.5754 12.2931 44.1769 12.1203 44.6078 11.4998Z" fill="white"/>
<path d="M55.1003 10.1436V13.9088H53.0789V10.3889C53.0789 9.24876 52.52 8.65703 51.5167 8.65703C51.0005 8.65703 50.4125 8.96018 49.9247 9.53735V13.9088H47.8613V6.96888H49.9247V7.48847C50.4843 7.04102 51.1441 6.79581 51.9177 6.79581C53.7529 6.79581 55.1003 8.09443 55.1003 10.1436Z" fill="white"/>
<path d="M13.7594 13.8952H11.6377L10.2469 8.71496L7.26488 13.8952H4.8851L9.4872 5.87248L8.74168 3.07337L2.5341 13.8952H0.154297L8.02495 0.173309H10.1179L11.0212 3.5926H13.1714L11.7092 6.16108L13.7594 13.8952Z" fill="white"/>
<path d="M63.4299 3.57837V13.9087H61.3367V13.5199C60.8063 13.8654 60.1187 14.0822 59.3586 14.0822C57.4517 14.0822 55.918 12.4523 55.918 10.4322C55.918 8.42633 57.4517 6.7958 59.3586 6.7958C60.1187 6.7958 60.8063 7.01224 61.3367 7.35874V3.57837H63.4299ZM61.3367 11.4998V9.3646C60.9072 8.74372 60.2907 8.57063 59.6878 8.57063C58.627 8.57063 57.896 9.42148 57.896 10.4322C57.896 11.4565 58.627 12.3073 59.6878 12.3073C60.2907 12.3073 60.8923 12.1346 61.3367 11.4998Z" fill="white"/>
<path d="M38.816 8.71496C38.3568 8.77254 37.2959 8.83046 36.6659 9.69588V13.9088H34.6011V6.98346H36.6659V7.50305C37.1387 7.09896 37.8405 6.85373 38.816 6.95467" fill="white"/>
</svg>
