<svg width="73" height="17" viewBox="0 0 73 17" fill="none" xmlns="http://www.w3.org/2000/svg">
<path d="M18.0764 8.0878C18.0543 7.47882 18.1557 6.87194 18.3757 6.30283C18.5952 5.73406 18.9284 5.21553 19.3549 4.77766C19.7809 4.34013 20.2918 3.99265 20.8566 3.7563C21.4217 3.5199 22.0286 3.39939 22.6416 3.40246C24.9505 3.40246 26.3169 4.7495 26.7294 6.3306L25.2801 6.81704C25.1529 6.22719 24.8159 5.70295 24.3311 5.34072C23.8463 4.97782 23.2465 4.80139 22.6416 4.84327C21.1451 4.84327 19.649 5.92655 19.649 8.11727C19.649 10.3073 21.1099 11.3497 22.659 11.3497C23.2676 11.3678 23.8641 11.181 24.3535 10.8215C24.8426 10.4613 25.1962 9.94844 25.3568 9.36458L26.7644 9.82125C26.5234 10.7123 25.9831 11.495 25.2329 12.0381C24.4828 12.5817 23.5681 12.8535 22.6415 12.808C22.0229 12.82 21.4089 12.7042 20.8378 12.4685C20.2668 12.2335 19.7505 11.8827 19.322 11.4395C18.8932 10.9963 18.5615 10.47 18.3472 9.89284C18.1326 9.31635 18.0406 8.70171 18.0764 8.0878Z" fill="white"/>
<path d="M29.5558 12.5917H28.0718V3.37895H29.5558V6.99243C29.772 6.73835 30.0435 6.53616 30.3495 6.40122C30.6558 6.26633 30.9885 6.20207 31.323 6.21347C32.8609 6.21347 33.6027 7.30877 33.6027 8.67363V12.5917H32.1592V8.92536C32.1866 8.74723 32.1726 8.56481 32.1191 8.39242C32.0655 8.22001 31.9745 8.06167 31.8513 7.92976C31.7274 7.79722 31.5754 7.69473 31.4068 7.62845C31.2379 7.56282 31.0562 7.53539 30.8754 7.5488C30.696 7.5488 30.5186 7.58633 30.3543 7.65826C30.1898 7.73025 30.0425 7.83536 29.921 7.9669C29.7998 8.09847 29.7074 8.25383 29.6495 8.42253C29.592 8.59194 29.5699 8.77071 29.5856 8.94879L29.5558 12.5917Z" fill="white"/>
<path d="M36.9184 9.04248L38.5152 8.79677C38.874 8.74993 38.9745 8.56778 38.9745 8.35123C38.9745 7.83 38.6209 7.40819 37.7962 7.40819C37.6368 7.3948 37.4774 7.41357 37.3254 7.46308C37.1734 7.51296 37.0342 7.59301 36.9151 7.69812C36.7945 7.80323 36.6981 7.93146 36.6298 8.07507C36.5616 8.21835 36.524 8.37435 36.5174 8.53304L35.1636 8.22842C35.2747 7.15648 36.2529 6.20172 37.7841 6.20172C39.7043 6.20172 40.4354 7.28537 40.4354 8.54442V11.6196C40.4313 11.953 40.4568 12.2858 40.5117 12.6152H39.1271C39.0803 12.354 39.0602 12.0889 39.0682 11.8245C38.8621 12.1398 38.5754 12.3955 38.2393 12.567C37.9019 12.7383 37.5256 12.82 37.148 12.8026C36.8843 12.8241 36.6191 12.7919 36.3687 12.7089C36.1183 12.6259 35.8867 12.4926 35.6884 12.3179C35.4916 12.1438 35.3309 11.9309 35.2185 11.6925C35.106 11.4549 35.0431 11.1971 35.0337 10.934C35.0337 9.80375 35.8518 9.19446 36.9184 9.04248ZM38.9745 10.0381V9.75688L37.3489 9.99724C37.1279 10.0046 36.9177 10.0964 36.7637 10.253C36.6084 10.4104 36.5207 10.6206 36.5174 10.8409C36.52 10.954 36.5455 11.0658 36.5923 11.169C36.6405 11.272 36.7088 11.3645 36.7945 11.4394C36.8796 11.5151 36.9794 11.572 37.0878 11.6068C37.1962 11.6416 37.3115 11.6544 37.4253 11.643C37.6395 11.6644 37.8564 11.6376 38.0587 11.5633C38.2608 11.4897 38.4443 11.3705 38.5929 11.2158C38.7429 11.0611 38.854 10.875 38.9203 10.6708C38.9865 10.4666 39.0046 10.2503 38.9745 10.0381Z" fill="white"/>
<path d="M42.9549 3.24973C43.0834 3.24842 43.2119 3.27218 43.3312 3.32002C43.4503 3.36789 43.5588 3.4389 43.6499 3.5289C43.7422 3.61865 43.8145 3.72577 43.8641 3.8436C43.9136 3.96175 43.9391 4.08831 43.9391 4.21656C43.9391 4.47097 43.8373 4.71532 43.6565 4.89546C43.4744 5.07554 43.2294 5.17667 42.973 5.17667C42.7165 5.17667 42.4714 5.07554 42.29 4.89546C42.1085 4.71532 42.0068 4.47097 42.0068 4.21656C42.0068 3.9641 42.106 3.72173 42.2834 3.541C42.4608 3.36056 42.7018 3.25612 42.9549 3.24973ZM42.2304 12.6212V6.3952H43.698V12.5917L42.2304 12.6212Z" fill="white"/>
<path d="M47.1014 12.5917H45.6177V6.39524H47.0665V7.22077C47.254 6.90407 47.5245 6.64294 47.8491 6.46586C48.1739 6.28876 48.5394 6.20139 48.9104 6.21346C50.4295 6.21346 51.16 7.30876 51.16 8.67362V12.5917H49.6757V8.92535C49.6757 8.16406 49.3282 7.54879 48.3975 7.54879C48.2121 7.55015 48.0293 7.59027 47.8606 7.66664C47.6919 7.74301 47.5419 7.85414 47.4194 7.99201C47.2969 8.13027 47.2058 8.29265 47.1508 8.46878C47.0959 8.64482 47.0793 8.83031 47.1014 9.01304V12.5917H47.1014Z" fill="white"/>
<path d="M52.9683 12.5917V3.37895H54.4527V12.5917H52.9683Z" fill="white"/>
<path d="M57.1028 3.24974C57.3605 3.24974 57.6076 3.3515 57.7903 3.53295C57.9724 3.7144 58.0743 3.96009 58.0743 4.2166C58.0729 4.40605 58.0154 4.59081 57.9095 4.74787C57.8024 4.90486 57.6518 5.02707 57.4757 5.099C57.2989 5.17099 57.1054 5.18939 56.9186 5.15225C56.7319 5.11512 56.5598 5.02369 56.4258 4.88945C56.2907 4.75553 56.1988 4.58515 56.1614 4.39936C56.124 4.21356 56.1427 4.02107 56.215 3.84567C56.2873 3.67027 56.4098 3.5203 56.5678 3.41449C56.7259 3.30835 56.912 3.25111 57.1028 3.24974ZM56.3723 12.6212V6.39521H57.8452V12.5917L56.3723 12.6212Z" fill="white"/>
<path d="M61.2488 12.5917H59.7651V6.39522H61.2086V7.22075C61.3962 6.90469 61.668 6.64462 61.992 6.46752C62.3161 6.29005 62.6816 6.2027 63.0513 6.21344C64.5771 6.21344 65.3076 7.30874 65.3076 8.6736V12.5917H63.8225V8.92533C63.8507 8.7472 63.8373 8.56478 63.7837 8.39239C63.7301 8.22 63.6377 8.06164 63.5146 7.92973C63.3913 7.79719 63.24 7.6947 63.07 7.62842C62.9012 7.56279 62.7197 7.53535 62.5384 7.54877C62.3549 7.55013 62.1715 7.58995 62.0034 7.66662C61.8346 7.74296 61.6847 7.85412 61.5622 7.99238C61.4404 8.13064 61.35 8.2933 61.2957 8.4694C61.2422 8.64544 61.226 8.83026 61.2488 9.01302V12.5917H61.2488Z" fill="white"/>
<path d="M70.3847 9.01302L72.9999 12.5917H71.1801L69.3476 10.0381L68.5824 10.8409V12.5977H67.1094V3.37895H68.5824V8.90189L70.9739 6.39522H72.947L70.3847 9.01302Z" fill="white"/>
<path d="M7.09993 3.5821L11.1441 5.89146V10.5287L7.1111 12.8529L3.06678 10.5473V5.91001L7.09993 3.5821ZM7.09993 0.173309L5.6159 1.0292L1.57534 3.35691L0.0913086 4.21302V5.91719V10.5511V12.2553L1.57534 13.1038L5.61946 15.4131L7.1035 16.2616L8.58774 15.4059L12.6207 13.078L14.1048 12.2257V10.5216V5.88409V4.17967L12.6207 3.3312L8.57664 1.02184L7.09254 0.173326H7.09993V0.173309Z" fill="white"/>
</svg>
