<svg width="50" height="50" viewBox="0 0 50 50" fill="none" xmlns="http://www.w3.org/2000/svg">
<path fill-rule="evenodd" clip-rule="evenodd" d="M0 0H38.1821V2.95455H41.1366H44.091H44.0912H47.0456H50V2.95467H47.0456H44.0912H44.091H41.1366V5.90922L44.091 5.90922V8.86377H47.0456V11.8182H50L50 38.1818H47.0455V41.1363V44.0908V44.0909V47.0454V49.9999H50L50 50L11.8182 50V47.0455H8.86364V50H8.86359L8.86359 47.0455H5.9091H5.90904H2.95456L2.95456 50H2.95449L2.95449 47.0455H0V47.0453H2.95449L2.95449 44.0908L2.95449 41.1363V41.1362L2.95449 38.1818H0V0ZM11.8183 2.95462L8.86377 2.95462V7.5446e-05L11.8183 7.54812e-05V2.95462ZM5.90922 7.54107e-05H5.90935L8.86377 7.5446e-05V2.95462H5.90935H5.90922H2.9548V7.53755e-05L5.90922 7.54107e-05ZM8.86377 5.90917V2.95462H5.90935H5.90922H2.9548V5.90917H5.90922H5.90935H8.86377ZM2.9548 8.86371V5.90917H5.90935V8.86371H2.9548ZM6.61567e-05 7.53403e-05L6.61214e-05 2.95462H2.95461V7.53755e-05L6.61567e-05 7.53403e-05ZM6.61214e-05 5.90917L6.61567e-05 2.95462H2.95461V5.90917H6.61214e-05ZM6.61567e-05 5.90917L6.61214e-05 8.86364H6.36135e-05L6.35783e-05 11.8182H2.95461L2.95461 8.86371V5.90917H6.61567e-05ZM38.1819 49.9999L38.1819 47.0454H41.1364H41.1364H44.0907V47.0453H41.1364V44.0908H44.0907V41.1363H47.0452V44.0908V47.0454V49.9999H44.0909H44.0907H41.1364H41.1364H38.1819ZM2.95456 44.0908L2.95456 41.1362H5.9091L5.9091 44.0908L8.86359 44.0908L8.86359 47.0453H5.9091H5.90904H2.95456L2.95456 44.0908Z" fill="#408CFF"/>
<path d="M21.1667 25.375H22.2083V26.4167H28.4583V25.375H29.5V24.3333H30.5417V18.0833H29.5V17.0417H28.4583V16H22.2083V17.0417H21.1667V18.0833H20.125V24.3333H21.1667V25.375ZM22.2083 20.1667H23.25V19.125H24.2917V18.0833H26.375V19.125H27.4167V20.1667H28.4583V22.25H27.4167V23.2917H26.375V24.3333H24.2917V23.2917H23.25V22.25H22.2083V20.1667Z" fill="white"/>
<path d="M32.625 28.5H31.5833V27.4584H19.0833V28.5H18.0417V29.5417H17V34.75H19.0833V31.625H20.125V30.5834H21.1667V29.5417H29.5V30.5834H30.5417V31.625H31.5833V34.75H33.6667V29.5417H32.625V28.5Z" fill="white"/>
</svg>
