<svg width="50" height="50" viewBox="0 0 50 50" fill="none" xmlns="http://www.w3.org/2000/svg">
<path fill-rule="evenodd" clip-rule="evenodd" d="M0 0H38.1821V2.95455H41.1366H44.091H44.0912H47.0456H50V2.95467H47.0456H44.0912H44.091H41.1366V5.90922L44.091 5.90922V8.86377H47.0456V11.8182H50L50 38.1818H47.0455V41.1363V44.0908V44.0909V47.0454V49.9999H50L50 50L11.8182 50V47.0455H8.86364V50H8.86359L8.86359 47.0455H5.9091H5.90904H2.95456L2.95456 50H2.95449L2.95449 47.0455H0V47.0453H2.95449L2.95449 44.0908L2.95449 41.1363V41.1362L2.95449 38.1818H0V0ZM11.8183 2.95462L8.86377 2.95462V7.5446e-05L11.8183 7.54812e-05V2.95462ZM5.90922 7.54107e-05H5.90935L8.86377 7.5446e-05V2.95462H5.90935H5.90922H2.9548V7.53755e-05L5.90922 7.54107e-05ZM8.86377 5.90917V2.95462H5.90935H5.90922H2.9548V5.90917H5.90922H5.90935H8.86377ZM2.9548 8.86371V5.90917H5.90935V8.86371H2.9548ZM6.61567e-05 7.53403e-05L6.61214e-05 2.95462H2.95461V7.53755e-05L6.61567e-05 7.53403e-05ZM6.61214e-05 5.90917L6.61567e-05 2.95462H2.95461V5.90917H6.61214e-05ZM6.61567e-05 5.90917L6.61214e-05 8.86364H6.36135e-05L6.35783e-05 11.8182H2.95461L2.95461 8.86371V5.90917H6.61567e-05ZM38.1819 49.9999L38.1819 47.0454H41.1364H41.1364H44.0907V47.0453H41.1364V44.0908H44.0907V41.1363H47.0452V44.0908V47.0454V49.9999H44.0909H44.0907H41.1364H41.1364H38.1819ZM2.95456 44.0908L2.95456 41.1362H5.9091L5.9091 44.0908L8.86359 44.0908L8.86359 47.0453H5.9091H5.90904H2.95456L2.95456 44.0908Z" fill="#FC6E5F"/>
<path d="M20.8 16V17.2H23.2V18.4H24.4V17.2H25.6V18.4H26.8V17.2H29.2V16H20.8Z" fill="white"/>
<path d="M19.6 17.2H18.4V18.4H20.8V17.2H19.6Z" fill="white"/>
<path d="M17.2 20.8H18.4V18.4H17.2L17.2 19.6V20.8Z" fill="white"/>
<path d="M20.8 29.2H22V25.6H28V29.2H29.2V25.6H32.8V29.2H34V20.8H32.8V24.4H29.2V20.8H28V24.4H22V20.8H20.8V24.4H17.2V20.8H16V29.2H17.2L17.2 25.6H20.8V29.2Z" fill="white"/>
<path d="M22 20.8H23.2V18.4H22V20.8Z" fill="white"/>
<path d="M26.8 20.8H28V18.4H26.8V20.8Z" fill="white"/>
<path d="M31.6 18.4V17.2H29.2V18.4H31.6Z" fill="white"/>
<path d="M31.6 20.8H32.8V18.4H31.6V20.8Z" fill="white"/>
<path d="M32.8 29.2H31.6V31.6H32.8V29.2Z" fill="white"/>
<path d="M31.6 32.8V31.6H29.2V32.8H31.6Z" fill="white"/>
<path d="M28 29.2H26.8V31.6H28V29.2Z" fill="white"/>
<path d="M20.8 32.8V34H29.2V32.8H26.8V31.6H25.6V32.8H24.4V31.6H23.2V32.8H20.8Z" fill="white"/>
<path d="M23.2 29.2H22V31.6H23.2V29.2Z" fill="white"/>
<path d="M18.4 31.6V32.8H20.8V31.6H18.4Z" fill="white"/>
<path d="M18.4 29.2H17.2V31.6H18.4V29.2Z" fill="white"/>
<path d="M18.4 18.4V17.2H19.6H20.8M18.4 18.4H17.2L17.2 19.6V20.8M18.4 18.4H20.8V17.2M18.4 18.4V20.8H17.2M31.6 18.4V17.2H29.2M31.6 18.4H32.8V20.8M31.6 18.4H29.2V17.2M31.6 18.4V20.8H32.8M22 20.8H23.2V18.4M22 20.8H20.8V24.4H17.2V20.8M22 20.8V18.4H23.2M22 20.8V24.4H28V20.8M18.4 31.6V32.8H20.8M18.4 31.6H17.2V29.2M18.4 31.6H20.8V32.8M18.4 31.6V29.2H17.2M31.6 31.6V32.8H29.2M31.6 31.6H32.8V29.2M31.6 31.6H29.2V32.8M31.6 31.6V29.2H32.8M20.8 17.2V16H29.2V17.2M20.8 17.2H23.2V18.4M29.2 17.2H26.8V18.4M22 29.2H20.8V25.6H17.2L17.2 29.2M22 29.2H23.2V31.6M22 29.2V25.6H28V29.2M22 29.2V31.6H23.2M28 29.2H29.2V25.6H32.8V29.2M28 29.2H26.8V31.6M28 29.2V31.6H26.8M28 20.8H29.2V24.4H32.8V20.8M28 20.8H26.8V18.4M28 20.8V18.4H26.8M20.8 32.8V34H29.2V32.8M20.8 32.8H23.2V31.6M29.2 32.8H26.8V31.6M23.2 31.6H24.4V32.8H25.6V31.6H26.8M23.2 18.4H24.4V17.2H25.6V18.4H26.8M17.2 20.8H16V29.2H17.2M32.8 20.8H34V29.2H32.8" stroke="white" stroke-width="0.6"/>
</svg>
