<svg width="50" height="50" viewBox="0 0 50 50" fill="none" xmlns="http://www.w3.org/2000/svg">
<path fill-rule="evenodd" clip-rule="evenodd" d="M0 0H38.1821V2.95455H41.1366H44.091H44.0912H47.0456H50V2.95467H47.0456H44.0912H44.091H41.1366V5.90922L44.091 5.90922V8.86377H47.0456V11.8182H50L50 38.1818H47.0455V41.1363V44.0908V44.0909V47.0454V49.9999H50L50 50L11.8182 50V47.0455H8.86364V50H8.86359L8.86359 47.0455H5.9091H5.90904H2.95456L2.95456 50H2.95449L2.95449 47.0455H0V47.0453H2.95449L2.95449 44.0908L2.95449 41.1363V41.1362L2.95449 38.1818H0V0ZM11.8183 2.95462L8.86377 2.95462V7.5446e-05L11.8183 7.54812e-05V2.95462ZM5.90922 7.54107e-05H5.90935L8.86377 7.5446e-05V2.95462H5.90935H5.90922H2.9548V7.53755e-05L5.90922 7.54107e-05ZM8.86377 5.90917V2.95462H5.90935H5.90922H2.9548V5.90917H5.90922H5.90935H8.86377ZM2.9548 8.86371V5.90917H5.90935V8.86371H2.9548ZM6.61567e-05 7.53403e-05L6.61214e-05 2.95462H2.95461V7.53755e-05L6.61567e-05 7.53403e-05ZM6.61214e-05 5.90917L6.61567e-05 2.95462H2.95461V5.90917H6.61214e-05ZM6.61567e-05 5.90917L6.61214e-05 8.86364H6.36135e-05L6.35783e-05 11.8182H2.95461L2.95461 8.86371V5.90917H6.61567e-05ZM38.1819 49.9999L38.1819 47.0454H41.1364H41.1364H44.0907V47.0453H41.1364V44.0908H44.0907V41.1363H47.0452V44.0908V47.0454V49.9999H44.0909H44.0907H41.1364H41.1364H38.1819ZM2.95456 44.0908L2.95456 41.1362H5.9091L5.9091 44.0908L8.86359 44.0908L8.86359 47.0453H5.9091H5.90904H2.95456L2.95456 44.0908Z" fill="#7CB14B"/>
<path d="M28.375 16V17.125H21.625V16H28.375Z" fill="white"/>
<path d="M19.375 18.25V17.125H21.625V18.25H19.375Z" fill="white"/>
<path d="M18.25 19.375V18.25H19.375V19.375H18.25Z" fill="white"/>
<path d="M17.125 21.625V19.375H18.25V21.625H17.125Z" fill="white"/>
<path d="M17.125 28.375H16V21.625H17.125V28.375Z" fill="white"/>
<path d="M18.25 30.625H17.125V28.375H18.25V30.625Z" fill="white"/>
<path d="M19.375 31.75H18.25V30.625H19.375V31.75Z" fill="white"/>
<path d="M21.625 32.875H19.375V31.75H21.625V32.875Z" fill="white"/>
<path d="M28.375 32.875V34H21.625V32.875H28.375Z" fill="white"/>
<path d="M30.625 31.75V32.875H28.375V31.75H30.625Z" fill="white"/>
<path d="M31.75 30.625V31.75H30.625V30.625H31.75Z" fill="white"/>
<path d="M32.875 28.375V30.625H31.75V28.375H32.875Z" fill="white"/>
<path d="M32.875 21.625H34V28.375H32.875V21.625Z" fill="white"/>
<path d="M31.75 19.375H32.875V21.625H31.75V19.375Z" fill="white"/>
<path d="M30.625 18.25H31.75V19.375H30.625V18.25Z" fill="white"/>
<path d="M30.625 18.25V17.125H28.375V18.25H30.625Z" fill="white"/>
<path d="M21.625 28.375H22.75V29.5H23.875V30.625H25V29.5H27.25V28.375H28.375V26.125H27.25V25H25V23.875H22.75V21.625H27.25V22.75H28.375V21.625H27.25V20.5H26.125V19.375H25V20.5H22.75V21.625H21.625V23.875H22.75V25H25V26.125H27.25V28.375H22.75V27.25H21.625V28.375Z" fill="white"/>
<path d="M28.375 17.125V16H21.625V17.125M28.375 17.125H21.625M28.375 17.125H30.625V18.25M28.375 17.125V18.25H30.625M21.625 17.125H19.375V18.25M21.625 17.125V18.25H19.375M19.375 18.25H18.25V19.375M19.375 18.25V19.375H18.25M18.25 19.375H17.125V21.625M18.25 19.375V21.625H17.125M17.125 21.625H16V28.375H17.125M17.125 21.625V28.375M17.125 28.375V30.625H18.25M17.125 28.375H18.25V30.625M18.25 30.625V31.75H19.375M18.25 30.625H19.375V31.75M19.375 31.75V32.875H21.625M19.375 31.75H21.625V32.875M21.625 32.875V34H28.375V32.875M21.625 32.875H28.375M28.375 32.875H30.625V31.75M28.375 32.875V31.75H30.625M30.625 31.75H31.75V30.625M30.625 31.75V30.625H31.75M31.75 30.625H32.875V28.375M31.75 30.625V28.375H32.875M32.875 28.375H34V21.625H32.875M32.875 28.375V21.625M32.875 21.625V19.375H31.75M32.875 21.625H31.75V19.375M31.75 19.375V18.25H30.625M31.75 19.375H30.625V18.25M22.75 28.375H21.625V27.25H22.75V28.375ZM22.75 28.375V29.5H23.875V30.625H25V29.5H27.25V28.375M22.75 28.375H27.25M27.25 28.375H28.375V26.125H27.25M27.25 28.375V26.125M27.25 26.125V25H25M27.25 26.125H25V25M25 25V23.875H22.75M25 25H22.75V23.875M22.75 23.875V21.625M22.75 23.875H21.625V21.625H22.75M22.75 21.625H27.25M22.75 21.625V20.5H25V19.375H26.125V20.5H27.25V21.625M27.25 21.625V22.75H28.375V21.625H27.25Z" stroke="white" stroke-width="0.5"/>
</svg>
