<svg width="24" height="24" viewBox="0 0 24 24" fill="none" xmlns="http://www.w3.org/2000/svg">
<path d="M7.78589 5.27068C6.97599 5.79742 6.27334 6.46469 5.70574 7.23714L4 5.52374L4 10.5103L8.96426 10.5103L6.64495 8.18056C7.87091 6.41486 9.90146 5.31959 12.0738 5.31959C15.7234 5.31959 18.6926 8.31639 18.6926 12C18.6926 15.6836 15.7234 18.6804 12.0738 18.6804C9.51822 18.6804 7.23599 17.2385 6.11771 14.9173L4.94195 15.4944C5.58276 16.8246 6.57561 17.9493 7.81304 18.7469C9.0849 19.5667 10.5582 20 12.0738 20C16.4443 20 20 16.4112 20 12C20 7.58877 16.4443 4 12.0738 4C10.5468 4 9.06411 4.43938 7.78589 5.27068Z" fill="white"/>
</svg>
