<svg width="24" height="24" viewBox="0 0 24 24" fill="none" xmlns="http://www.w3.org/2000/svg">
<path d="M6 6H7V7H6V6Z" fill="white"/>
<path d="M6 18L6 17H7V18H6Z" fill="white"/>
<path d="M17 6H18V7H17V6Z" fill="white"/>
<path d="M14 14H13V13H14V14Z" fill="white"/>
<path d="M10 13H11V14H10V13Z" fill="white"/>
<path d="M14 11H13V10L14 10V11Z" fill="white"/>
<path d="M16 9H15V8L16 8V9Z" fill="white"/>
<path d="M11 11H10V10L11 10V11Z" fill="white"/>
<path d="M17 17H18V18H17V17Z" fill="white"/>
<path d="M7 18V19H17V18H7Z" fill="white"/>
<path d="M11 14V15H13V14H11Z" fill="white"/>
<path d="M13 10V9L11 9V10L13 10Z" fill="white"/>
<path d="M10 11H9V13H10V11Z" fill="white"/>
<path d="M14 13H15V11H14V13Z" fill="white"/>
<path d="M18 17H19V7H18V17Z" fill="white"/>
<path d="M7 5V6H17V5H7Z" fill="white"/>
<path d="M5 17H6L6 7H5L5 17Z" fill="white"/>
<path d="M7 6V5H17V6M7 6H6V7M7 6V7H6M7 6H17M6 7H5L5 17H6M6 7L6 17M7 18V19H17V18M7 18V17H6M7 18H6L6 17M7 18H17M18 17H19V7H18M18 17H17V18M18 17V18H17M18 17V7M17 6H18V7M17 6V7H18M13 14H14V13M13 14V13H14M13 14V15H11V14M13 14H11M14 13H15V11H14M14 13V11M10 11H9V13H10M10 11H11V10M10 11V10L11 10M10 11V13M10 13H11V14M10 13V14H11M14 11H13V10M14 11V10L13 10M13 10V9L11 9V10M13 10L11 10M16 9H15V8L16 8V9Z" stroke="white" stroke-width="0.5"/>
</svg>
