<svg width="24" height="24" viewBox="0 0 24 24" fill="none" xmlns="http://www.w3.org/2000/svg">
<path d="M6.78182 3H14.3455V4.89091H6.78182V3ZM4.89091 6.78182V4.89091H6.78182V6.78182H4.89091ZM4.89091 14.3455H3V6.78182H4.89091V14.3455ZM6.78182 16.2364H4.89091V14.3455H6.78182V16.2364ZM14.3455 16.2364V18.1273H6.78182V16.2364H14.3455ZM16.2364 14.3455H14.3455V16.2364H16.2364V18.1273H18.1273V20.0182H20.0182V21.9091H21.9091V20.0182H20.0182V18.1273H18.1273V16.2364H16.2364V14.3455ZM16.2364 6.78182H18.1273V14.3455H16.2364V6.78182ZM16.2364 6.78182V4.89091H14.3455V6.78182H16.2364Z" fill="white"/>
</svg>
