<svg width="24" height="24" viewBox="0 0 24 24" fill="none" xmlns="http://www.w3.org/2000/svg">
<path d="M15 4V5H9V4H15Z" fill="white"/>
<path d="M7 6V5H9V6H7Z" fill="white"/>
<path d="M6 7V6H7V7H6Z" fill="white"/>
<path d="M5 9V7H6V9H5Z" fill="white"/>
<path d="M5 15H4V9H5V15Z" fill="white"/>
<path d="M6 17H5V15H6V17Z" fill="white"/>
<path d="M7 18H6V17H7V18Z" fill="white"/>
<path d="M9 19H7V18H9V19Z" fill="white"/>
<path d="M15 19V20H9V19H15Z" fill="white"/>
<path d="M17 18V19H15V18H17Z" fill="white"/>
<path d="M18 17V18H17V17H18Z" fill="white"/>
<path d="M19 15V17H18V15H19Z" fill="white"/>
<path d="M19 9H20V15H19V9Z" fill="white"/>
<path d="M18 7H19V9H18V7Z" fill="white"/>
<path d="M17 6H18V7H17V6Z" fill="white"/>
<path d="M17 6V5H15V6H17Z" fill="white"/>
<path d="M9 15H10V16H11V17H12V16H14V15H15V13H14V12H12V11H10V9H14V10H15V9H14V8H13V7H12V8H10V9H9V11H10V12H12V13H14V15H10V14H9V15Z" fill="white"/>
<path d="M15 5V4H9V5M15 5H9M15 5H17V6M15 5V6H17M9 5H7V6M9 5V6H7M7 6H6V7M7 6V7H6M6 7H5V9M6 7V9H5M5 9H4V15H5M5 9V15M5 15V17H6M5 15H6V17M6 17V18H7M6 17H7V18M7 18V19H9M7 18H9V19M9 19V20H15V19M9 19H15M15 19H17V18M15 19V18H17M17 18H18V17M17 18V17H18M18 17H19V15M18 17V15H19M19 15H20V9H19M19 15V9M19 9V7H18M19 9H18V7M18 7V6H17M18 7H17V6M10 15H9V14H10V15ZM10 15V16H11V17H12V16H14V15M10 15H14M14 15H15V13H14M14 15V13M14 13V12H12M14 13H12V12M12 12V11H10M12 12H10V11M10 11V9M10 11H9V9H10M10 9H14M10 9V8H12V7H13V8H14V9M14 9V10H15V9H14Z" stroke="white" stroke-width="0.5"/>
</svg>
