<svg width="35" height="35" viewBox="0 0 35 35" fill="none" xmlns="http://www.w3.org/2000/svg">
<path fill-rule="evenodd" clip-rule="evenodd" d="M14.165 9H10.5825V10.8H8.7913V12.6H10.5826V10.8H14.165V12.6H15.9562V10.8H14.165V9ZM23.1213 9H19.5388V10.8H17.7476V12.6H19.5389V10.8L23.1213 10.8V12.6H24.9126V10.8L23.1213 10.8V9ZM8.79126 12.6H7V18H8.79126V12.6ZM8.7913 18H10.5826V19.8H12.3737V21.6H10.5825V19.8H8.7913V18ZM12.3738 21.6H14.1651V23.4H15.9562V25.2H14.165V23.4H12.3738V21.6ZM15.9563 25.2H17.7476V27H15.9563V25.2ZM21.3301 23.4H19.5389V25.2H17.7476V23.4H19.5388V21.6H21.3301V23.4ZM23.1213 19.8L21.3301 19.8V21.6H23.1214V19.8L24.9126 19.8V18H23.1213V19.8ZM26.7039 12.6H24.9126V18H26.7039V12.6ZM17.7476 12.6H15.9563V14.4H17.7476V12.6Z" fill="white"/>
</svg>
