<svg width="24" height="24" viewBox="0 0 24 24" fill="none" xmlns="http://www.w3.org/2000/svg">
<path d="M12 8H13V9H12V8Z" fill="white"/>
<path d="M13 7H14V8H13V7Z" fill="white"/>
<path d="M19 8H20V9H19V8Z" fill="white"/>
<path d="M16 14H17V15H16V14Z" fill="white"/>
<path d="M15 15H16V16H15V15Z" fill="white"/>
<path d="M7 16H8V17H7V16Z" fill="white"/>
<path d="M8 15H9V16H8V15Z" fill="white"/>
<path d="M9 14H10V15H9V14Z" fill="white"/>
<path d="M8 13H9V14H8V13Z" fill="white"/>
<path d="M6 10H7V11H6V10Z" fill="white"/>
<path d="M5 9H6V10H5V9Z" fill="white"/>
<path d="M4 8H5V9H4V8Z" fill="white"/>
<path d="M13 18V17H8V18H13Z" fill="white"/>
<path d="M15 17V16H13V17H15Z" fill="white"/>
<path d="M18 11H17V14H18V11Z" fill="white"/>
<path d="M19 9H18V11H19V9Z" fill="white"/>
<path d="M17 7V8H19V7H17Z" fill="white"/>
<path d="M14 6V7H17V6H14Z" fill="white"/>
<path d="M10 9V10H12V9H10Z" fill="white"/>
<path d="M7 8V9H10V8H7Z" fill="white"/>
<path d="M5 7V8H7V7H5Z" fill="white"/>
<path d="M7 13H8V11H7V13Z" fill="white"/>
<path d="M5 8V7H7V8M5 8H4V9H5M5 8V9M5 8H7M7 8V9H10M7 8H10V9M10 9V10H12V9M10 9H12M12 9H13V8M12 9V8H13M13 8H14V7M13 8V7H14M14 7V6H17V7M14 7H17M17 7V8H19M17 7H19V8M19 8H20V9H19M19 8V9M19 9H18V11M19 9V11H18M18 11H17V14M18 11V14H17M17 14H16V15M17 14V15H16M16 15H15V16M16 15V16H15M15 16V17H13M15 16H13V17M13 17V18H8V17M13 17H8M8 17V16M8 17H7V16H8M8 16H9V15M8 16V15H9M9 15H10V14H9M9 15V14M9 14V13H8M9 14H8V13M8 13H7V11M8 13V11H7M7 11V10H6M7 11H6V10M6 10V9H5M6 10H5V9" stroke="white" stroke-width="0.5"/>
</svg>
