<svg width="16" height="16" viewBox="0 0 16 16" fill="none" xmlns="http://www.w3.org/2000/svg">
<path d="M9.75 10.625V8H10.625V10.625H9.75Z" fill="#99A3C9"/>
<path d="M9.75 7.125V8H7.125V10.625H9.75V11.5H8V12.375H7.125V11.5H5.375V10.625H6.25V5.375H5.375V4.5H8V3.625H8.875V4.5H9.75V5.375H7.125V7.125H9.75Z" fill="#99A3C9"/>
<path d="M9.75 7.125V5.375H10.625V7.125H9.75Z" fill="#99A3C9"/>
<path fill-rule="evenodd" clip-rule="evenodd" d="M5.375 1V1.875H3.625V2.75H2.75L2.74999 3.625H1.87499L1.875 5.375H1V10.625H1.875V12.375H2.75V13.25H3.625V14.125H5.375V15H10.625V14.125H12.375V13.25H13.25V12.375H14.125V10.625H15V5.375H14.125V3.625H13.25V2.75H12.375V1.875H10.625V1H5.375ZM10.625 1.875L10.625 2.75H12.375V3.625H13.25V5.375H14.125V10.625H13.25V12.375H12.375V13.25H10.625L10.625 14.125H5.375V13.25H3.625V12.375H2.75V10.625H1.875V5.375H2.75L2.74999 3.625H3.625V2.75H5.375V1.875H10.625Z" fill="#99A3C9"/>
<path d="M5.375 1.875V1H10.625V1.875M5.375 1.875H3.625V2.75M5.375 1.875V2.75H3.625M5.375 1.875H10.625M3.625 2.75H2.75L2.74999 3.625M3.625 2.75V3.625H2.74999M2.74999 3.625H1.87499L1.875 5.375M2.74999 3.625L2.75 5.375H1.875M1.875 5.375H1V10.625H1.875M1.875 5.375V10.625M1.875 10.625V12.375H2.75M1.875 10.625H2.75V12.375M2.75 12.375V13.25H3.625M2.75 12.375H3.625V13.25M3.625 13.25V14.125H5.375M3.625 13.25H5.375V14.125M5.375 14.125V15H10.625V14.125M5.375 14.125H10.625M10.625 14.125H12.375V13.25M10.625 14.125L10.625 13.25H12.375M12.375 13.25H13.25V12.375M12.375 13.25V12.375H13.25M13.25 12.375H14.125V10.625M13.25 12.375V10.625H14.125M14.125 10.625H15V5.375H14.125M14.125 10.625V5.375M14.125 5.375V3.625H13.25M14.125 5.375H13.25V3.625M13.25 3.625V2.75H12.375M13.25 3.625H12.375V2.75M12.375 2.75V1.875H10.625M12.375 2.75H10.625L10.625 1.875M9.75 8V10.625M9.75 8H10.625V10.625H9.75M9.75 8V7.125M9.75 8H7.125V10.625H9.75M9.75 10.625V11.5H8V12.375H7.125V11.5H5.375V10.625H6.25V5.375H5.375V4.5H8V3.625H8.875V4.5H9.75V5.375M9.75 7.125H7.125V5.375H9.75M9.75 7.125V5.375M9.75 7.125H10.625V5.375H9.75" stroke="#99A3C9" stroke-width="0.4"/>
</svg>
