<svg width="42" height="42" viewBox="0 0 42 42" fill="none" xmlns="http://www.w3.org/2000/svg">
<path fill-rule="evenodd" clip-rule="evenodd" d="M39.5183 0H39.5183V2.48182H42V2.48196H39.5183V4.96371V4.96378V7.44546V7.44553V9.92728H42V42L9.92718 42V39.5182H7.44536L7.44535 42V39.5182H4.96359H4.96353H2.48178L2.48178 42H2.48171L2.48171 39.5182H0V39.518H2.48171L2.48171 37.0363V37.0362L2.48171 34.5545V34.5545L2.48171 32.0727H0V9.92727H2.48181V7.44545H0V7.44543H2.4818V4.96368V4.96362V2.48186H0V2.48183H2.4818V8.61266e-06L0 8.58307e-06V0H32.0728V2.48182H34.5546V0H34.5547V2.48182H37.0364H37.0365H39.5183V0ZM7.44542 8.19502e-06L9.92724 8.22461e-06V2.48183L7.44548 2.48183H4.96373H4.96367H2.48191L2.48191 8.61267e-06L4.96367 8.64226e-06L4.96373 8.64226e-06L7.44542 8.19502e-06ZM7.44548 2.48186H4.96373H4.96367H2.48191V4.96362V4.96368V7.44543H4.96373V4.96368H7.44548V2.48186ZM39.5183 4.96378V7.44553H37.0364V4.96378H34.5547V2.48196H37.0364H37.0365H39.5183V4.96371V4.96378ZM34.5544 39.5181H32.0727V41.9999H34.5544H34.5545H37.0361H37.0363H39.518V39.5181V37.0364V37.0363V34.5546H37.0361V37.0363H34.5544V39.5181ZM39.5181 37.0364V39.5181V41.9999H41.9999V39.5181V37.0364V37.0363V34.5546H39.5181V37.0363V37.0364ZM41.9999 32.0727V34.5546H39.5181V32.0727H41.9999ZM2.48178 37.0362L2.48178 34.5545H4.96359V37.0362H7.44535V39.518H4.96359H4.96353H2.48178L2.48178 37.0363V37.0362Z" fill="#447EF7"/>
<path d="M24 13V14H18V13H24Z" fill="white"/>
<path d="M16 15V14H18V15H16Z" fill="white"/>
<path d="M15 16V15H16V16H15Z" fill="white"/>
<path d="M14 18V16H15V18H14Z" fill="white"/>
<path d="M14 24H13V18H14V24Z" fill="white"/>
<path d="M15 26H14V24H15V26Z" fill="white"/>
<path d="M16 27H15V26H16V27Z" fill="white"/>
<path d="M18 28H16V27H18V28Z" fill="white"/>
<path d="M24 28V29H18V28H24Z" fill="white"/>
<path d="M26 27V28H24V27H26Z" fill="white"/>
<path d="M27 26V27H26V26H27Z" fill="white"/>
<path d="M28 24V26H27V24H28Z" fill="white"/>
<path d="M28 18H29V24H28V18Z" fill="white"/>
<path d="M27 16H28V18H27V16Z" fill="white"/>
<path d="M26 15H27V16H26V15Z" fill="white"/>
<path d="M26 15V14H24V15H26Z" fill="white"/>
<path d="M18 24H19V25H20V26H21V25H23V24H24V22H23V21H21V20H19V18H23V19H24V18H23V17H22V16H21V17H19V18H18V20H19V21H21V22H23V24H19V23H18V24Z" fill="white"/>
<path d="M24 14V13H18V14M24 14H18M24 14H26V15M24 14V15H26M18 14H16V15M18 14V15H16M16 15H15V16M16 15V16H15M15 16H14V18M15 16V18H14M14 18H13V24H14M14 18V24M14 24V26H15M14 24H15V26M15 26V27H16M15 26H16V27M16 27V28H18M16 27H18V28M18 28V29H24V28M18 28H24M24 28H26V27M24 28V27H26M26 27H27V26M26 27V26H27M27 26H28V24M27 26V24H28M28 24H29V18H28M28 24V18M28 18V16H27M28 18H27V16M27 16V15H26M27 16H26V15M19 24H18V23H19V24ZM19 24V25H20V26H21V25H23V24M19 24H23M23 24H24V22H23M23 24V22M23 22V21H21M23 22H21V21M21 21V20H19M21 21H19V20M19 20V18M19 20H18V18H19M19 18H23M19 18V17H21V16H22V17H23V18M23 18V19H24V18H23Z" stroke="white" stroke-width="0.5"/>
</svg>
