<svg width="16" height="16" viewBox="0 0 16 16" fill="none" xmlns="http://www.w3.org/2000/svg">
<path d="M6.38461 7.46154V6.38462H2.07692L2.07692 7.46154H6.38461Z" fill="white"/>
<path d="M2.07692 2.07692H1L1 6.38462H2.07692V2.07692Z" fill="white"/>
<path d="M6.38461 2.07692V1L2.07692 1V2.07692L6.38461 2.07692Z" fill="white"/>
<path d="M7.46154 2.07692L6.38461 2.07692V6.38462H7.46154V2.07692Z" fill="white"/>
<path d="M9.61538 2.07692H8.53846V6.38462H9.61538V2.07692Z" fill="white"/>
<path d="M13.9231 2.07692V1L9.61538 1V2.07692L13.9231 2.07692Z" fill="white"/>
<path d="M13.9231 7.46154V6.38462H9.61538V7.46154H13.9231Z" fill="white"/>
<path d="M15 2.07692L13.9231 2.07692V6.38462H15V2.07692Z" fill="white"/>
<path d="M2.07692 9.61539H1L1 13.9231H2.07692V9.61539Z" fill="white"/>
<path d="M6.38461 9.61539V8.53846H2.07692V9.61539H6.38461Z" fill="white"/>
<path d="M6.38461 15V13.9231H2.07692L2.07692 15H6.38461Z" fill="white"/>
<path d="M7.46154 9.61539H6.38461V13.9231H7.46154V9.61539Z" fill="white"/>
<path d="M9.61538 9.61539H8.53846V13.9231H9.61538V9.61539Z" fill="white"/>
<path d="M13.9231 15V13.9231H9.61538V15H13.9231Z" fill="white"/>
<path d="M15 9.61539H13.9231V13.9231H15V9.61539Z" fill="white"/>
<path d="M13.9231 9.61539V8.53846H9.61538V9.61539H13.9231Z" fill="white"/>
<path d="M6.38461 2.07692V1L2.07692 1V2.07692M6.38461 2.07692L7.46154 2.07692V6.38462H6.38461M6.38461 2.07692L2.07692 2.07692M6.38461 2.07692V6.38462M6.38461 9.61538V8.53846H2.07692V9.61538M6.38461 9.61538H7.46154V13.9231H6.38461M6.38461 9.61538H2.07692M6.38461 9.61538V13.9231M13.9231 2.07692V1L9.61538 1V2.07692M13.9231 2.07692L15 2.07692V6.38462H13.9231M13.9231 2.07692L9.61538 2.07692M13.9231 2.07692V6.38462M13.9231 9.61538V8.53846H9.61538V9.61538M13.9231 9.61538H15V13.9231H13.9231M13.9231 9.61538H9.61538M13.9231 9.61538V13.9231M2.07692 2.07692L1 2.07692L1 6.38462H2.07692M2.07692 2.07692V6.38462M2.07692 9.61538H1L1 13.9231H2.07692M2.07692 9.61538V13.9231M9.61538 2.07692L8.53846 2.07692V6.38462H9.61538M9.61538 2.07692V6.38462M9.61538 9.61538H8.53846V13.9231H9.61538M9.61538 9.61538V13.9231M6.38461 6.38462V7.46154H2.07692L2.07692 6.38462M6.38461 6.38462H2.07692M6.38461 13.9231V15H2.07692L2.07692 13.9231M6.38461 13.9231H2.07692M13.9231 6.38462V7.46154H9.61538V6.38462M13.9231 6.38462H9.61538M13.9231 13.9231V15H9.61538V13.9231M13.9231 13.9231H9.61538" stroke="white" stroke-width="0.5"/>
</svg>
