<svg width="16" height="16" viewBox="0 0 16 16" fill="none" xmlns="http://www.w3.org/2000/svg">
<path d="M2.16667 2.16666H1V13.8333H2.16667V2.16666Z" fill="white"/>
<path d="M2.1667 1L2.16667 2.16666L4.50001 2.16667V1H2.1667Z" fill="white"/>
<path d="M4.50001 2.16667L4.5 3.33334L6.83334 3.33333L6.83336 2.16667L4.50001 2.16667Z" fill="white"/>
<path d="M6.83334 3.33333V4.49999L9.16669 4.5L9.16666 3.33333H6.83334Z" fill="white"/>
<path d="M9.16669 4.5V5.66667L11.5 5.66668L11.5 4.5H9.16669Z" fill="white"/>
<path d="M11.5 5.66668V6.83334L13.8333 6.83332L13.8334 5.66668H11.5Z" fill="white"/>
<path d="M13.8333 9.16668H15V6.83332H13.8333V9.16668Z" fill="white"/>
<path d="M11.5 9.16666V10.3333H13.8334L13.8333 9.16668L11.5 9.16666Z" fill="white"/>
<path d="M9.16669 10.3333V11.5H11.5L11.5 10.3333L9.16669 10.3333Z" fill="white"/>
<path d="M6.83334 11.5V12.6667H9.16666L9.16669 11.5L6.83334 11.5Z" fill="white"/>
<path d="M4.5 12.6667L4.50001 13.8333L6.83336 13.8333L6.83334 12.6667L4.5 12.6667Z" fill="white"/>
<path d="M2.16667 13.8333L2.1667 15H4.50001V13.8333L2.16667 13.8333Z" fill="white"/>
<path d="M2.16667 2.16666H1V13.8333H2.16667M2.16667 2.16666L2.1667 1H4.50001V2.16667M2.16667 2.16666V13.8333M2.16667 2.16666L4.50001 2.16667M2.16667 13.8333L2.1667 15H4.50001V13.8333M2.16667 13.8333L4.50001 13.8333M4.50001 13.8333L4.5 12.6667L6.83334 12.6667M4.50001 13.8333L6.83336 13.8333L6.83334 12.6667M4.50001 2.16667L4.5 3.33334L6.83334 3.33333M4.50001 2.16667L6.83336 2.16667L6.83334 3.33333M6.83334 12.6667V11.5L9.16669 11.5M6.83334 12.6667H9.16666L9.16669 11.5M6.83334 3.33333V4.49999L9.16669 4.5M6.83334 3.33333H9.16666L9.16669 4.5M9.16669 11.5V10.3333L11.5 10.3333M9.16669 11.5H11.5L11.5 10.3333M9.16669 4.5V5.66667L11.5 5.66667M9.16669 4.5H11.5L11.5 5.66667M11.5 10.3333V9.16666L13.8333 9.16668M11.5 10.3333H13.8334L13.8333 9.16668M11.5 5.66667V6.83334L13.8333 6.83332M11.5 5.66667H13.8334L13.8333 6.83332M13.8333 9.16668H15V6.83332H13.8333M13.8333 9.16668V6.83332" stroke="white" stroke-width="0.5"/>
</svg>
