<svg width="16" height="16" viewBox="0 0 16 16" fill="none" xmlns="http://www.w3.org/2000/svg">
<path d="M15.1111 2.66667V1.77778H14.2222V0.888889H13.3333V0H4.44444V0.888889H3.55556V1.77778H2.66667V2.66667H1.77778V1.77778V0.888889H0V6.22222H5.33333V4.44444H3.55556V3.55556H4.44444V2.66667H5.33333V1.77778H11.5556V2.66667H12.4444V3.55556H13.3333V4.44444H14.2222V11.5556H13.3333V12.4444H12.4444V13.3333H11.5556V14.2222H5.33333V13.3333H4.44444V12.4444H3.55556V11.5556H2.66667V10.6667H0.888889V13.3333H1.77778V14.2222H2.66667V15.1111H3.55556V16H13.3333V15.1111H14.2222V14.2222H15.1111V13.3333H16V2.66667H15.1111Z" fill="white"/>
</svg>
