<svg width="10" height="16" viewBox="0 0 10 16" fill="none" xmlns="http://www.w3.org/2000/svg">
<path d="M8 4H7H6V5V6V7H7H8V6H7V5H8V4Z" fill="white"/>
<path d="M9 9V8V7H8V8V9H9Z" fill="white"/>
<path d="M7 14V13V12V11V10H8V9H7H6V10V11V12V13V14H7Z" fill="white"/>
<path d="M3 9H2V10H3V11V12V13V14H4V13V12V11V10V9H3Z" fill="white"/>
<path d="M2 7H1V8V9H2V8V7Z" fill="white"/>
<path d="M4 7V6V5V4V3V2H3V3V4V5V6H2V7H3H4Z" fill="white"/>
<path d="M5 1H4V2H5H6H7H8V1H7H6H5Z" fill="white"/>
<path d="M9 2H8V3V4H9V3V2Z" fill="white"/>
<path d="M5 14H4V15H5H6V14H5Z" fill="white"/>
<path d="M4 2H3V3V4V5V6H2V7M4 2V3V4V5V6V7H3H2M4 2H5H6H7H8M4 2V1H5H6H7H8V2M8 2H9V3V4H8M8 2V3V4M8 4H7H6V5V6V7H7H8M8 4V5H7V6H8V7M8 7H9V8V9H8M8 7V8V9M2 7H1V8V9H2M2 7V8V9M2 9H3H4V10V11V12V13V14M2 9V10H3V11V12V13V14H4M4 14H5H6M4 14V15H5H6V14M6 14H7V13V12V11V10H8V9M6 14V13V12V11V10V9H7H8" stroke="white" stroke-width="0.5"/>
</svg>
