<svg width="16" height="15" viewBox="0 0 16 15" fill="none" xmlns="http://www.w3.org/2000/svg">
<path d="M1 7H2V8H1V7Z" fill="white"/>
<path d="M10 13H11V14H10V13Z" fill="white"/>
<path d="M9 12H10V13H9V12Z" fill="white"/>
<path d="M7 8H8V9H7V8Z" fill="white"/>
<path d="M8 7H9V8H8V7Z" fill="white"/>
<path d="M9 6H10V7H9V6Z" fill="white"/>
<path d="M10 5H11V6H10V5Z" fill="white"/>
<path d="M11 4H12V5H11V4Z" fill="white"/>
<path d="M12 3H13V4H12V3Z" fill="white"/>
<path d="M2 6V7H4V6H2Z" fill="white"/>
<path d="M4 9V8H2V9H4Z" fill="white"/>
<path d="M7 12H6V10H7V9H4V10H5V14H6V13H7V12Z" fill="white"/>
<path d="M9 11H8V10H7V12H9V11Z" fill="white"/>
<path d="M12 10H11V13H12V10Z" fill="white"/>
<path d="M13 7H12V10H13V7Z" fill="white"/>
<path d="M4 5V6H6V5H4Z" fill="white"/>
<path d="M6 4V5H8V4H6Z" fill="white"/>
<path d="M8 3V4H10V3H8Z" fill="white"/>
<path d="M12 3V2H10V3H12Z" fill="white"/>
<path d="M12 1V2H14V1H12Z" fill="white"/>
<path d="M15 2H14V4H15V2Z" fill="white"/>
<path d="M14 4H13V7H14V4Z" fill="white"/>
<path d="M2 7V6H4M2 7H1V8H2M2 7V8M2 7H4V6M2 8V9H4M2 8H4V9M4 6V5H6M4 6H6V5M6 5V4H8M6 5H8V4M8 4V3H10M8 4H10V3M10 3V2H12M10 3H12M12 2V3M12 2V1H14V2M12 2H14M12 3H13V4M12 3V4M14 2H15V4H14M14 2V4M14 4H13M14 4V7H13M13 4H12M13 4V7M13 7H12V10M13 7V10H12M12 10H11V13M12 10V13H11M11 13H10M11 13V14H10V13M10 13V12H9M10 13H9V12M9 12V11H8V10H7M9 12H7M7 10V9M7 10H6V12H7M7 10V12M7 12V13H6V14H5V10H4V9M4 9H7M7 9H8V8M7 9V8H8M8 8H9V7M8 8V7H9M9 7H10V6M9 7V6H10M10 6H11V5M10 6V5H11M11 5H12V4M11 5V4H12" stroke="white" stroke-width="0.5"/>
</svg>
