<svg width="15" height="18" viewBox="0 0 15 18" fill="none" xmlns="http://www.w3.org/2000/svg">
<g clip-path="url(#clip0_16_4861)">
<path d="M3.33008 3.42661V0.855957H2.4754V3.42661H3.33008Z" fill="black"/>
<path d="M2.47021 6.00003V3.42938H1.61554V6.00003H2.47021Z" fill="black"/>
<path d="M10.1729 4.28532V2.57065H9.31818V4.28532H10.1729Z" fill="black"/>
<path d="M11.0303 2.57063V0.855957H10.1756V2.57063H11.0303Z" fill="black"/>
<path d="M9.32129 6.00001V4.28534H8.46662V6.00001H9.32129Z" fill="black"/>
<path d="M13.6001 10.2826V9.42661H12.7454V10.2826H13.6001Z" fill="black"/>
<path d="M5.03955 17.1413V14.5706H4.18488V17.1413H5.03955Z" fill="black"/>
<path d="M14.4546 9.42933V7.71466H13.5999V9.42933H14.4546Z" fill="black"/>
<path d="M8.46387 6.85601V6.00003H7.60919V6.85601H8.46387Z" fill="black"/>
<path d="M12.7427 11.1413V10.2853H11.888V11.1413H12.7427Z" fill="black"/>
<path d="M11.8877 12V11.144H11.033V12H11.8877Z" fill="black"/>
<path d="M11.0332 12.8559V12H10.1785V12.8559H11.0332Z" fill="black"/>
<path d="M10.1758 13.7147V12.8587H9.32111V13.7147H10.1758Z" fill="black"/>
<path d="M9.32129 14.5679V13.7119H8.46662V14.5679H9.32129Z" fill="black"/>
<path d="M6.75146 17.1413V16.2853H5.89679V17.1413H6.75146Z" fill="black"/>
<path d="M5.89697 18V17.144H5.0423V18H5.89697Z" fill="black"/>
<path d="M8.46387 15.4267V14.5707H7.60919V15.4267H8.46387Z" fill="black"/>
<path d="M7.60889 16.2853V15.4294H6.75421V16.2853H7.60889Z" fill="black"/>
<path d="M6.75146 12V9.42932H5.89679V12H6.75146Z" fill="black"/>
<path d="M5.89404 14.5707V12H5.03937V14.5707H5.89404Z" fill="black"/>
<path d="M1.61523 8.57065L1.61523 6H0.760562L0.760562 8.57065H1.61523Z" fill="black"/>
<path d="M6.75142 8.57065H1.61523V9.42663H6.75142V8.57065Z" fill="black"/>
<path d="M10.1732 0H3.32764V0.855978H10.1732V0Z" fill="black"/>
<path d="M8.46391 7.71466L13.6001 7.71466V6.85868L8.46391 6.85868V7.71466Z" fill="black"/>
<path d="M3.33008 0.85597L3.33008 8.57065H4.18475V0.85597H3.33008Z" fill="#FFD91D"/>
<path d="M2.47266 3.42663L2.47266 8.57065H3.32733L3.32733 3.42663H2.47266Z" fill="#FFD91D"/>
<path d="M5.89404 12V16.2853H6.74871V12H5.89404Z" fill="#FFD91D"/>
<path d="M1.61816 6L1.61816 8.57065H2.47284V6H1.61816Z" fill="#FFD91D"/>
<path d="M9.31836 7.71468V12.8587H10.173V7.71468H9.31836Z" fill="#FFD91D"/>
<path d="M11.0305 7.71466H10.1758V12H11.0305V7.71466Z" fill="#FFD91D"/>
<path d="M11.8849 7.71466H11.0303V11.144H11.8849V7.71466Z" fill="#FFD91D"/>
<path d="M12.7399 7.71466H11.8853V10.2853H12.7399V7.71466Z" fill="#FFD91D"/>
<path d="M5.89422 14.5707H5.03955V17.1413H5.89422V14.5707Z" fill="#FFD91D"/>
<path d="M13.5973 7.71466H12.7427V9.42934H13.5973V7.71466Z" fill="#FFD91D"/>
<path d="M10.173 0.855957H9.31836V2.57063H10.173V0.855957Z" fill="#FFD91D"/>
<path d="M4.18506 0.85597L4.18506 8.57065H5.03973V0.85597H4.18506Z" fill="#FFD91D"/>
<path d="M5.03955 0.85597L5.03955 8.57065H5.89423V0.85597H5.03955Z" fill="#FFD91D"/>
<path d="M5.89697 0.858685L5.89697 8.57336H6.75165V0.858685H5.89697Z" fill="#FFD91D"/>
<path d="M6.75146 0.858702L6.75146 15.4294H7.60614L7.60614 0.858702H6.75146Z" fill="#FFD91D"/>
<path d="M7.60645 7.7147V14.5707H8.46112V7.7147H7.60645Z" fill="#FFD91D"/>
<path d="M8.46387 7.71467V13.7147H9.31854V7.71467H8.46387Z" fill="#FFD91D"/>
<path d="M7.60889 0.855981V6H8.46356V0.855981H7.60889Z" fill="#FFD91D"/>
<path d="M8.46387 0.855993V4.28534H9.31854V0.855993H8.46387Z" fill="#FFD91D"/>
<path d="M5.03936 17.144H5.89404V15.4294H5.03936V17.144Z" fill="#FFA72E"/>
<path d="M5.89679 16.2853H6.75146V14.5706H5.89679V16.2853Z" fill="#FFA72E"/>
<path d="M6.75177 15.4294H7.60645V13.7147H6.75177V15.4294Z" fill="#FFA72E"/>
<path d="M7.60919 14.5707H8.46387V12.856H7.60919V14.5707Z" fill="#FFA72E"/>
<path d="M8.46662 13.7147H9.32129V12H8.46662V13.7147Z" fill="#FFA72E"/>
<path d="M9.31818 12.856H10.1729V11.1413H9.31818V12.856Z" fill="#FFA72E"/>
<path d="M10.1756 12H11.0303V10.2853H10.1756V12Z" fill="#FFA72E"/>
<path d="M11.0306 11.144H11.8853V9.42933H11.0306V11.144Z" fill="#FFA72E"/>
<path d="M11.888 10.2853H12.7427V9.42936H11.888V10.2853Z" fill="#FFA72E"/>
<path d="M12.7454 9.42935H13.6001V7.71468H12.7454V9.42935Z" fill="#FFA72E"/>
<path d="M1.61798 8.57336H2.47266L2.47266 6.00271H1.61798L1.61798 8.57336Z" fill="#FFA72E"/>
<path d="M6.75177 11.9674H7.60645V8.57067H6.75177V11.9674Z" fill="#FFA72E"/>
<path d="M2.47266 8.57336H6.75146V7.71738L2.47266 7.71738V8.57336Z" fill="#FFA72E"/>
<path d="M8.46388 8.57336H12.7427V7.71738L8.46388 7.71738V8.57336Z" fill="#FFA72E"/>
<path d="M7.60919 7.71466H8.46387V6.85868H7.60919V7.71466Z" fill="#FFA72E"/>
<path d="M6.75177 6.8587H7.60645V6.00273H6.75177V6.8587Z" fill="#FFA72E"/>
<path d="M8.46662 4.28534H9.32129V3.42936H8.46662V4.28534Z" fill="#FFA72E"/>
<path d="M7.60919 6H8.46387V4.28533H7.60919V6Z" fill="#FFA72E"/>
<path d="M5.89679 12.8587H6.75146V12.0027H5.89679V12.8587Z" fill="#FFA72E"/>
<path d="M2.4754 6.00003H3.33008L3.33008 3.42938H2.4754L2.4754 6.00003Z" fill="#FFA72E"/>
<path d="M2.4754 7.71466H3.33008V6.85868H2.4754V7.71466Z" fill="#FFA72E"/>
</g>
<defs>
<clipPath id="clip0_16_4861">
<rect width="13.6938" height="18" fill="white" transform="translate(0.760742)"/>
</clipPath>
</defs>
</svg>
