<svg width="10" height="15" viewBox="0 0 10 15" fill="none" xmlns="http://www.w3.org/2000/svg">
<path d="M3.34094 14.44H6.22094V13H7.66094V11.56H9.10094V7.24H7.66094V5.8H3.34094V4.36H9.10094V1.48H6.22094V0.04H3.34094V1.48H1.90094V2.92H0.460938V7.24H1.90094V8.68H6.22094V10.12H0.460938V13H3.34094V14.44Z" fill="#66BE47"/>
<path d="M3.34094 14.44H3.14094V14.64H3.34094V14.44ZM6.22094 14.44V14.64H6.42094V14.44H6.22094ZM6.22094 13V12.8H6.02094V13H6.22094ZM7.66094 13V13.2H7.86094V13H7.66094ZM7.66094 11.56V11.36H7.46094V11.56H7.66094ZM9.10094 11.56V11.76H9.30094V11.56H9.10094ZM9.10094 7.24H9.30094V7.04H9.10094V7.24ZM7.66094 7.24H7.46094V7.44H7.66094V7.24ZM7.66094 5.8H7.86094V5.6H7.66094V5.8ZM3.34094 5.8H3.14094V6H3.34094V5.8ZM3.34094 4.36V4.16H3.14094V4.36H3.34094ZM9.10094 4.36V4.56H9.30094V4.36H9.10094ZM9.10094 1.48H9.30094V1.28H9.10094V1.48ZM6.22094 1.48H6.02094V1.68H6.22094V1.48ZM6.22094 0.04H6.42094V-0.16H6.22094V0.04ZM3.34094 0.04V-0.16H3.14094V0.04H3.34094ZM3.34094 1.48V1.68H3.54094V1.48H3.34094ZM1.90094 1.48V1.28H1.70094V1.48H1.90094ZM1.90094 2.92V3.12H2.10094V2.92H1.90094ZM0.460938 2.92V2.72H0.260938V2.92H0.460938ZM0.460938 7.24H0.260938V7.44H0.460938V7.24ZM1.90094 7.24H2.10094V7.04H1.90094V7.24ZM1.90094 8.68H1.70094V8.88H1.90094V8.68ZM6.22094 8.68H6.42094V8.48H6.22094V8.68ZM6.22094 10.12V10.32H6.42094V10.12H6.22094ZM0.460938 10.12V9.92H0.260938V10.12H0.460938ZM0.460938 13H0.260938V13.2H0.460938V13ZM3.34094 13H3.54094V12.8H3.34094V13ZM3.34094 14.64H6.22094V14.24H3.34094V14.64ZM6.42094 14.44V13H6.02094V14.44H6.42094ZM6.22094 13.2H7.66094V12.8H6.22094V13.2ZM7.86094 13V11.56H7.46094V13H7.86094ZM7.66094 11.76H9.10094V11.36H7.66094V11.76ZM9.30094 11.56V7.24H8.90094V11.56H9.30094ZM9.10094 7.04H7.66094V7.44H9.10094V7.04ZM7.86094 7.24V5.8H7.46094V7.24H7.86094ZM7.66094 5.6H3.34094V6H7.66094V5.6ZM3.54094 5.8V4.36H3.14094V5.8H3.54094ZM3.34094 4.56H9.10094V4.16H3.34094V4.56ZM9.30094 4.36V1.48H8.90094V4.36H9.30094ZM9.10094 1.28H6.22094V1.68H9.10094V1.28ZM6.42094 1.48V0.04H6.02094V1.48H6.42094ZM6.22094 -0.16H3.34094V0.24H6.22094V-0.16ZM3.14094 0.04V1.48H3.54094V0.04H3.14094ZM3.34094 1.28H1.90094V1.68H3.34094V1.28ZM1.70094 1.48V2.92H2.10094V1.48H1.70094ZM1.90094 2.72H0.460938V3.12H1.90094V2.72ZM0.260938 2.92V7.24H0.660937V2.92H0.260938ZM0.460938 7.44H1.90094V7.04H0.460938V7.44ZM1.70094 7.24V8.68H2.10094V7.24H1.70094ZM1.90094 8.88H6.22094V8.48H1.90094V8.88ZM6.02094 8.68V10.12H6.42094V8.68H6.02094ZM6.22094 9.92H0.460938V10.32H6.22094V9.92ZM0.260938 10.12V13H0.660937V10.12H0.260938ZM0.460938 13.2H3.34094V12.8H0.460938V13.2ZM3.14094 13V14.44H3.54094V13H3.14094Z" fill="#1C1E26"/>
</svg>
