<svg width="24" height="35" viewBox="0 0 24 35" fill="none" xmlns="http://www.w3.org/2000/svg">
<path d="M13.5723 13.4069C9.84758 13.6384 11.52 18.4894 15.6378 18.2334C19.6658 17.983 17.5408 13.1603 13.5723 13.4069Z" fill="white"/>
<path d="M12 10.4107C9.62663 10.4107 7.30655 11.1145 5.33316 12.4331C3.35977 13.7516 1.8217 15.6258 0.913448 17.8185C0.00519661 20.0112 -0.23244 22.424 0.230583 24.7518C0.693606 27.0796 1.83649 29.2178 3.51472 30.896C5.19295 32.5742 7.33115 33.7171 9.65892 34.1801C11.9867 34.6431 14.3995 34.4055 16.5922 33.4973C18.7849 32.589 20.6591 31.0509 21.9776 29.0775C23.2962 27.1042 24 24.7841 24 22.4107C24 19.2281 22.7357 16.1759 20.4853 13.9254C18.2348 11.675 15.1826 10.4107 12 10.4107ZM12 33.1531C9.87584 33.1534 7.79928 32.5239 6.03293 31.344C4.26657 30.1642 2.88977 28.487 2.07663 26.5247C1.26349 24.5623 1.05054 22.4029 1.46471 20.3195C1.87889 18.2361 2.90158 16.3224 4.40346 14.8202C5.90533 13.3181 7.81893 12.295 9.90224 11.8805C11.9856 11.466 14.145 11.6785 16.1075 12.4913C18.07 13.3041 19.7474 14.6806 20.9276 16.4468C22.1077 18.2129 22.7376 20.2894 22.7376 22.4135C22.7376 25.2615 21.6064 27.9929 19.5928 30.0069C17.5791 32.0209 14.848 33.1526 12 33.1531ZM11.6381 2.03339C8.7893 4.18677 9.28441 7.48913 9.28441 7.48913C9.28441 7.48913 7.49386 2.84126 5.16851 0C4.85481 3.65764 6.00095 8.50394 6.00095 8.50394C6.00095 8.50394 4.54489 5.49921 0.977013 5.33102C3.93638 7.03181 5.08441 10.0961 5.34709 10.9181C7.11067 9.8295 9.12748 9.21921 11.1987 9.1474C10.9654 8.38205 10.1358 5.15716 11.6381 2.03339Z" fill="white"/>
<path d="M3.86172 23.5871V26.0986H2.81763V19.628H5.01731C5.76188 19.628 6.32251 19.8053 6.6992 20.16C7.0759 20.5146 7.26487 21.0003 7.26613 21.617C7.26613 22.2287 7.07369 22.7099 6.68881 23.0608C6.30393 23.4116 5.74802 23.5871 5.02109 23.5871H3.86172ZM6.20219 21.617C6.20219 21.2504 6.09983 20.9707 5.89511 20.7779C5.69038 20.5852 5.36188 20.4891 4.9096 20.4898H3.86172V22.7348H4.90676C5.77038 22.7348 6.20219 22.3622 6.20219 21.617ZM9.05857 25.2831H11.2951V26.0986H8.01353V19.628H9.05857V25.2831ZM16.079 24.6964H13.3483L12.8532 26.0986H11.7345L14.1184 19.7291H15.3184L17.6929 26.0986H16.5742L16.079 24.6964ZM15.7861 23.8904L14.7137 20.8668L13.6412 23.8904H15.7861ZM21.8872 19.628L19.7338 23.743V26.0986H18.6822V23.743L16.5194 19.628H17.7298L19.2151 22.6252L20.6995 19.628H21.8872Z" fill="white"/>
</svg>
