<svg width="50" height="50" viewBox="0 0 50 50" fill="none" xmlns="http://www.w3.org/2000/svg">
<path fill-rule="evenodd" clip-rule="evenodd" d="M47.0455 0H47.0456V2.95455H50V2.95468H47.0456V5.90918V5.90923V8.86365V8.86373V11.8182H50V50L11.8181 50V47.0455H8.86354L8.86353 50L8.86353 47.0455H5.90906H5.90898H2.95452L2.95452 50H2.95445L2.95445 47.0455H0V47.0453H2.95445L2.95445 44.0908V44.0908L2.95445 41.1363L2.95445 38.1818H0V0H38.1819V2.95455H41.1365V0H41.1365V2.95455H44.091H44.0911H47.0455V0ZM11.8182 2.95455V3.00195e-06L8.86372 2.96672e-06L8.86364 2.96672e-06L5.90925 2.93149e-06L5.90917 2.93149e-06L2.95471 2.89626e-06V2.95455H5.90917H5.90925H8.86364H8.86372L11.8182 2.95455ZM8.86372 5.90912V2.95458H5.90925H5.90917H2.95471V5.90908V5.90912V8.86362H5.90925V5.90912H8.86372ZM2.32867e-05 2.86102e-06L2.32515e-05 2.95455H2.95457V2.89626e-06L2.32867e-05 2.86102e-06ZM2.32867e-05 5.90908V2.95458H2.95457V5.90908V5.90912V8.86362H2.32515e-05V5.90912L2.32867e-05 5.90908ZM1.16257e-05 11.8182L1.1661e-05 8.86364H2.95456V11.8182H1.16257e-05ZM47.0455 5.90923V8.86373H44.091V5.90923H41.1365V2.95468H44.091H44.0911H47.0455V5.90918V5.90923ZM41.1362 50H38.1818V47.0454H41.1362H41.1363H44.0906H44.0908H47.0452V50H44.0908H44.0906L41.1363 50L41.1362 50ZM41.1362 47.0454H44.0906H44.0908H47.0452L47.0452 44.0909L47.0452 44.0908V41.1364H44.0906V44.0908H41.1362V47.0454ZM49.9999 44.0909V47.0454H47.0454V44.0909V44.0908V41.1364H49.9999V44.0908V44.0909ZM49.9999 38.1818V41.1364H47.0454V38.1818H49.9999ZM2.95452 44.0908L2.95452 41.1363H5.90906L5.90906 44.0908H8.86353V47.0453H5.90906H5.90898H2.95452L2.95452 44.0908V44.0908ZM47.0454 47.0454V50L49.9999 50V47.0454H47.0454Z" fill="#447EF7"/>
<path d="M22 25H24V27H26V25H28V33H32V17H28V19H26V21H24V19H22V17H18V33H22V25Z" fill="white"/>
</svg>
