<svg width="32" height="32" viewBox="0 0 32 32" fill="none" xmlns="http://www.w3.org/2000/svg">
<path d="M25.7059 20.4118H27.4706V16.8823H31V15.1176H27.4706V11.5882H25.7059V15.1176H20.4118V16.8823H25.7059V20.4118Z" fill="white"/>
<path d="M25.7059 8.05882H23.9412V11.5882H25.7059V8.05882Z" fill="white"/>
<path d="M23.9412 8.05882V6.29412H20.4118V8.05882H23.9412Z" fill="white"/>
<path d="M15.1176 11.5882H16.8824V6.29412H20.4118V4.52941H16.8824V1H15.1176V4.52941H11.5882V6.29412H15.1176V11.5882Z" fill="white"/>
<path d="M8.05882 6.29412V8.05882H11.5882V6.29412H8.05882Z" fill="white"/>
<path d="M8.05882 8.05882H6.29412V11.5882H8.05882V8.05882Z" fill="white"/>
<path d="M11.5882 16.8823V15.1176H6.29412V11.5882H4.52941V15.1176H1V16.8823H4.52941V20.4118H6.29412V16.8823H11.5882Z" fill="white"/>
<path d="M8.05882 23.9412V25.7059H11.5882V23.9412H8.05882Z" fill="white"/>
<path d="M6.29412 23.9412H8.05882V20.4118H6.29412V23.9412Z" fill="white"/>
<path d="M11.5882 25.7059V27.4706H15.1176V31H16.8824V27.4706H20.4118V25.7059H16.8824V20.4118H15.1176V25.7059H11.5882Z" fill="white"/>
<path d="M23.9412 25.7059V23.9412H20.4118V25.7059H23.9412Z" fill="white"/>
<path d="M23.9412 23.9412H25.7059V20.4118H23.9412V23.9412Z" fill="white"/>
<path d="M11.5882 25.7059V27.4706H15.1176V31H16.8824V27.4706H20.4118V25.7059M11.5882 25.7059V23.9412H8.05882M11.5882 25.7059H15.1176V20.4118H16.8824V25.7059H20.4118M11.5882 25.7059H8.05882V23.9412M20.4118 25.7059V23.9412H23.9412M20.4118 25.7059H23.9412V23.9412M23.9412 23.9412H25.7059V20.4118M23.9412 23.9412V20.4118H25.7059M25.7059 20.4118H27.4706V16.8824H31V15.1176H27.4706V11.5882H25.7059M25.7059 20.4118V16.8824H20.4118V15.1176H25.7059V11.5882M25.7059 11.5882H23.9412V8.05882M25.7059 11.5882V8.05882H23.9412M23.9412 8.05882V6.29412H20.4118M23.9412 8.05882H20.4118V6.29412M11.5882 6.29412V4.52941H15.1176V1H16.8824V4.52941H20.4118V6.29412M11.5882 6.29412V8.05882H8.05882M11.5882 6.29412H15.1176V11.5882H16.8824V6.29412H20.4118M11.5882 6.29412H8.05882V8.05882M6.29412 11.5882H4.52941V15.1176H1V16.8824H4.52941V20.4118H6.29412M6.29412 11.5882H8.05882V8.05882M6.29412 11.5882V15.1176H11.5882V16.8824H6.29412V20.4118M6.29412 11.5882V8.05882H8.05882M8.05882 23.9412H6.29412V20.4118M8.05882 23.9412V20.4118H6.29412" stroke="white" stroke-width="0.5"/>
</svg>
