<svg width="23" height="19" viewBox="0 0 23 19" fill="none" xmlns="http://www.w3.org/2000/svg">
<path d="M5.0259 2.34197H3.68393V5.0259H1V6.36787H3.68393V9.0518H5.0259V2.34197Z" fill="white"/>
<path d="M9.0518 2.34197V1H5.0259V2.34197H9.0518Z" fill="white"/>
<path d="M9.0518 9.0518H10.3938V6.36787H22.4715V5.0259H10.3938V2.34197H9.0518V9.0518Z" fill="white"/>
<path d="M5.0259 9.0518V10.3938H9.0518V9.0518H5.0259Z" fill="white"/>
<path d="M1 13.0777V14.4197H13.0777V17.1036H14.4197V10.3938H13.0777V13.0777H1Z" fill="white"/>
<path d="M14.4197 9.0518V10.3938H18.4456V9.0518H14.4197Z" fill="white"/>
<path d="M22.4715 14.4197V13.0777H19.7875V10.3938H18.4456V17.1036H19.7875V14.4197H22.4715Z" fill="white"/>
<path d="M14.4197 17.1036V18.4456H18.4456V17.1036H14.4197Z" fill="white"/>
<path d="M5.0259 2.34197H3.68393V5.0259H1V6.36787H3.68393V9.0518H5.0259M5.0259 2.34197V1H9.0518V2.34197M5.0259 2.34197V9.0518M5.0259 2.34197H9.0518M5.0259 9.0518V10.3938H9.0518V9.0518M5.0259 9.0518H9.0518M9.0518 2.34197H10.3938V5.0259H22.4715V6.36787H10.3938V9.0518H9.0518M9.0518 2.34197V9.0518M18.4456 10.3938H19.7875V13.0777H22.4715V14.4197H19.7875V17.1036H18.4456M18.4456 10.3938V9.0518H14.4197V10.3938M18.4456 10.3938V17.1036M18.4456 10.3938H14.4197M14.4197 10.3938H13.0777V13.0777H1V14.4197H13.0777V17.1036H14.4197M14.4197 10.3938V17.1036M14.4197 17.1036V18.4456H18.4456V17.1036M14.4197 17.1036H18.4456" stroke="#737B93" stroke-width="0.5"/>
</svg>
