<svg width="18" height="30" viewBox="0 0 18 30" fill="none" xmlns="http://www.w3.org/2000/svg">
<path fill-rule="evenodd" clip-rule="evenodd" d="M10.6 2.75V1H7.4V2.75H5.8V4.5H4.2V18.5H2.6V20.25H1V22H5.8V27.25H4.2V29H13.8V27.25H12.2V22H17V20.25H15.4V18.5H13.8V4.5H12.2V2.75H10.6ZM10.6 2.75V4.5H12.2V16.75H5.8V4.5H7.4V2.75H10.6ZM13.8 18.5V20.25H4.2V18.5H13.8ZM7.4 22H10.6V27.25H7.4V22Z" fill="white"/>
<path d="M10.6 2.75V1H7.4V2.75M10.6 2.75H12.2V4.5M10.6 2.75V4.5H12.2M10.6 2.75H7.4M7.4 2.75H5.8V4.5M7.4 2.75V4.5H5.8M5.8 4.5H4.2V18.5M5.8 4.5V16.75H12.2V4.5M4.2 18.5H2.6V20.25H1V22H5.8V27.25H4.2V29H13.8V27.25H12.2V22H17V20.25H15.4V18.5H13.8M4.2 18.5V20.25H13.8V18.5M4.2 18.5H13.8M13.8 18.5V4.5H12.2M10.6 22H7.4V27.25H10.6V22Z" stroke="white" stroke-width="0.5"/>
</svg>
