<svg width="26" height="18" viewBox="0 0 26 18" fill="none" xmlns="http://www.w3.org/2000/svg">
<path d="M9 11.6667H10.3333V13H9V11.6667Z" fill="white"/>
<path d="M15.6667 11.6667H17V13H15.6667V11.6667Z" fill="white"/>
<path d="M3.66667 6.33333H5V7.66667H3.66667V6.33333Z" fill="white"/>
<path d="M9 11.6667H10.3333V13H9V11.6667Z" fill="white"/>
<path d="M2.33333 2.33333H3.66667V3.66667H2.33333V2.33333Z" fill="white"/>
<path d="M22.3333 2.33333H23.6667V3.66667H22.3333V2.33333Z" fill="white"/>
<path d="M15.6667 11.6667H17V13H15.6667V11.6667Z" fill="white"/>
<path d="M19.6667 7.66667H21V9H19.6667V7.66667Z" fill="white"/>
<path d="M21 6.33333H22.3333V7.66667H21V6.33333Z" fill="white"/>
<path d="M22.3333 14.3333H23.6667V15.6667H22.3333V14.3333Z" fill="white"/>
<path d="M2.33333 14.3333H3.66667V15.6667H2.33333V14.3333Z" fill="white"/>
<path d="M5 5H6.33333V6.33333H5V5Z" fill="white"/>
<path d="M6.33333 6.33333H7.66667V7.66667H6.33333V6.33333Z" fill="white"/>
<path d="M5 7.66667H6.33333V9H5V7.66667Z" fill="white"/>
<path d="M18.3333 6.33334H19.6667L19.6667 7.66667L18.3333 7.66668V6.33334Z" fill="white"/>
<path d="M19.6667 5H21L21 6.33333L19.6667 6.33334L19.6667 5Z" fill="white"/>
<path d="M10.3333 10.3333V11.6667H15.6667L15.6667 10.3333H10.3333Z" fill="white"/>
<path d="M7.66666 15.6667L9 15.6667L9 13L7.66667 13L7.66666 15.6667Z" fill="white"/>
<path d="M7.66666 17V15.6667L3.66667 15.6667V17L7.66666 17Z" fill="white"/>
<path d="M2.33333 3.66667H1V14.3333H2.33333V3.66667Z" fill="white"/>
<path d="M3.66667 1V2.33333H9V1H3.66667Z" fill="white"/>
<path d="M17 3.66667V2.33333H9V3.66667H17Z" fill="white"/>
<path d="M22.3333 2.33333V1H17V2.33333H22.3333Z" fill="white"/>
<path d="M25 3.66667H23.6667V14.3333H25V3.66667Z" fill="white"/>
<path d="M18.3333 15.6667L18.3333 17L22.3333 17V15.6667L18.3333 15.6667Z" fill="white"/>
<path d="M17 15.6667H18.3333V13L17 13L17 15.6667Z" fill="white"/>
<path d="M7.66666 15.6667V17L3.66667 17V15.6667M7.66666 15.6667L9 15.6667L9 13M7.66666 15.6667L3.66667 15.6667M7.66666 15.6667L7.66667 13L9 13M10.3333 11.6667H9V13M10.3333 11.6667V13H9M10.3333 11.6667V10.3333H15.6667L15.6667 11.6667M10.3333 11.6667H15.6667M15.6667 11.6667H17V13M15.6667 11.6667V13H17M17 13L18.3333 13V15.6667M17 13L17 15.6667H18.3333M18.3333 15.6667L18.3333 17L22.3333 17V15.6667M18.3333 15.6667L22.3333 15.6667M5 6.33333H3.66667V7.66667H5M5 6.33333V7.66667M5 6.33333H6.33333M5 6.33333V5H6.33333V6.33333M5 7.66667H6.33333M5 7.66667V9H6.33333V7.66667M2.33333 3.66667H1V14.3333H2.33333M2.33333 3.66667H3.66667V2.33333M2.33333 3.66667V2.33333H3.66667M2.33333 3.66667V14.3333M3.66667 2.33333V1H9V2.33333M3.66667 2.33333H9M22.3333 2.33333V1H17V2.33333M22.3333 2.33333H23.6667V3.66667M22.3333 2.33333V3.66667H23.6667M22.3333 2.33333H17M23.6667 3.66667H25V14.3333H23.6667M23.6667 3.66667V14.3333M17 2.33333V3.66667H9V2.33333M17 2.33333H9M19.6667 7.66667H21M19.6667 7.66667V9H21V7.66667M19.6667 7.66667L19.6667 6.33334M19.6667 7.66667L18.3333 7.66668V6.33334H19.6667M21 7.66667H22.3333V6.33333H21M21 7.66667V6.33333M2.33333 14.3333H3.66667V15.6667M2.33333 14.3333V15.6667H3.66667M22.3333 15.6667H23.6667V14.3333M22.3333 15.6667V14.3333H23.6667M21 6.33333L21 5H19.6667L19.6667 6.33334M21 6.33333L19.6667 6.33334M6.33333 6.33333H7.66667V7.66667H6.33333M6.33333 6.33333V7.66667" stroke="white" stroke-width="0.5"/>
</svg>
