<svg width="26" height="29" viewBox="0 0 26 29" fill="none" xmlns="http://www.w3.org/2000/svg">
<path d="M14.7143 1V2.6875H11.2857V1H14.7143Z" fill="white"/>
<path d="M9.57143 4.375V2.6875H11.2857V4.375H9.57143Z" fill="white"/>
<path d="M7.85714 6.0625V4.375H9.57143V6.0625H7.85714Z" fill="white"/>
<path fill-rule="evenodd" clip-rule="evenodd" d="M18.1429 6.0625V19.5625H7.85714V6.0625H6.14286V14.5H4.42857V16.1875H2.71429V17.875H1V22.9375H2.71429V24.625H4.42857V22.9375H6.14286V21.25H7.85714V24.625H9.57143V26.3125H11.2857V28H14.7143V26.3125H16.4286V24.625H18.1429V21.25H19.8571V22.9375H21.5714V24.625H23.2857V22.9375H25V17.875H23.2857V16.1875H21.5714V14.5H19.8571V6.0625H18.1429ZM21.5714 16.1875V17.875H23.2857V22.9375H21.5714V21.25H19.8571V16.1875H21.5714ZM16.4286 24.625H14.7143V26.3125H11.2857V24.625H9.57143V21.25H16.4286V24.625ZM6.14286 21.25H4.42857V22.9375H2.71429V17.875H4.42857V16.1875H6.14286V21.25Z" fill="white"/>
<path d="M16.4286 4.375H18.1429V6.0625H16.4286V4.375Z" fill="white"/>
<path d="M16.4286 4.375V2.6875H14.7143V4.375H16.4286Z" fill="white"/>
<path d="M11.2857 7.75V11.125H9.57143V7.75H11.2857Z" fill="white"/>
<path d="M14.7143 7.75H11.2857V6.0625H14.7143V7.75Z" fill="white"/>
<path d="M14.7143 11.125V7.75H16.4286V11.125H14.7143Z" fill="white"/>
<path d="M14.7143 11.125H11.2857V12.8125H14.7143V11.125Z" fill="white"/>
<path d="M14.7143 2.6875V1H11.2857V2.6875M14.7143 2.6875H16.4286V4.375M14.7143 2.6875V4.375H16.4286M14.7143 2.6875H11.2857M11.2857 2.6875H9.57143V4.375M11.2857 2.6875V4.375H9.57143M9.57143 4.375H7.85714V6.0625M9.57143 4.375V6.0625H7.85714M7.85714 6.0625H6.14286V14.5H4.42857V16.1875M7.85714 6.0625V19.5625H18.1429V6.0625M18.1429 6.0625H19.8571V14.5H21.5714V16.1875M18.1429 6.0625V4.375H16.4286M18.1429 6.0625H16.4286V4.375M4.42857 16.1875H2.71429V17.875M4.42857 16.1875V17.875H2.71429M4.42857 16.1875H6.14286V21.25M2.71429 17.875H1V22.9375H2.71429M2.71429 17.875V22.9375M2.71429 22.9375V24.625H4.42857V22.9375M2.71429 22.9375H4.42857M4.42857 22.9375H6.14286V21.25M4.42857 22.9375V21.25H6.14286M6.14286 21.25H7.85714V24.625H9.57143M9.57143 24.625V26.3125H11.2857M9.57143 24.625H11.2857V26.3125M9.57143 24.625V21.25H16.4286V24.625M11.2857 26.3125V28H14.7143V26.3125M11.2857 26.3125H14.7143M14.7143 26.3125H16.4286V24.625M14.7143 26.3125V24.625H16.4286M16.4286 24.625H18.1429V21.25H19.8571M19.8571 21.25V22.9375H21.5714M19.8571 21.25H21.5714V22.9375M19.8571 21.25V16.1875H21.5714M21.5714 22.9375V24.625H23.2857V22.9375M21.5714 22.9375H23.2857M23.2857 22.9375H25V17.875H23.2857M23.2857 22.9375V17.875M23.2857 17.875V16.1875H21.5714M23.2857 17.875H21.5714V16.1875M11.2857 7.75H9.57143V11.125H11.2857M11.2857 7.75V6.0625H14.7143V7.75M11.2857 7.75V11.125M11.2857 7.75H14.7143M11.2857 11.125V12.8125H14.7143V11.125M11.2857 11.125H14.7143M14.7143 7.75H16.4286V11.125H14.7143M14.7143 7.75V11.125" stroke="white" stroke-width="0.5"/>
</svg>
