<svg width="32" height="26" viewBox="0 0 32 26" fill="none" xmlns="http://www.w3.org/2000/svg">
<path fill-rule="evenodd" clip-rule="evenodd" d="M1 14.7143V18.1429H2.66667V19.8571H7.66667V21.5714H6V23.2857H4.33333V25H6V23.2857H7.66667V21.5714H9.33333V19.8571H14.3333V21.5714H16V23.2857H17.6667V25H19.3333V23.2857H17.6667V21.5714H16V19.8571H22.6667V21.5714H24.3333V23.2857H26V25H27.6667V23.2857H26V21.5714H24.3333V19.8571H29.3333V18.1429H31V14.7143H29.3333V13H27.6667V9.57143H26V6.14286H24.3333V4.42857H22.6667V2.71429H19.3333V1H12.6667V2.71429H9.33333V4.42857H7.66667V6.14286H6V9.57143H4.33333V13H2.66667V14.7143H1ZM6 9.57143H7.66667V6.14286H9.33333V4.42857H12.6667V2.71429H19.3333V4.42857H22.6667V6.14286H24.3333V9.57143H26V13H6V9.57143ZM2.66667 14.7143V18.1429H29.3333V14.7143H2.66667Z" fill="white"/>
<path d="M2.66667 18.1429H1V14.7143H2.66667M2.66667 18.1429V19.8571H7.66667V21.5714M2.66667 18.1429V14.7143M2.66667 18.1429H29.3333M7.66667 21.5714H6V23.2857M7.66667 21.5714V23.2857H6M7.66667 21.5714H9.33333V19.8571H14.3333V21.5714H16M6 23.2857H4.33333V25H6V23.2857ZM16 21.5714V23.2857H17.6667M16 21.5714H17.6667V23.2857M16 21.5714V19.8571H22.6667V21.5714H24.3333M17.6667 23.2857V25H19.3333V23.2857H17.6667ZM24.3333 21.5714V23.2857H26M24.3333 21.5714H26V23.2857M24.3333 21.5714V19.8571H29.3333V18.1429M26 23.2857V25H27.6667V23.2857H26ZM29.3333 18.1429H31V14.7143H29.3333M29.3333 18.1429V14.7143M29.3333 14.7143V13H27.6667V9.57143H26M29.3333 14.7143H2.66667M26 9.57143H24.3333V6.14286M26 9.57143V6.14286H24.3333M26 9.57143V13H6V9.57143M24.3333 6.14286V4.42857H22.6667M24.3333 6.14286H22.6667V4.42857M22.6667 4.42857V2.71429H19.3333M22.6667 4.42857H19.3333V2.71429M19.3333 2.71429V1H12.6667V2.71429M19.3333 2.71429H12.6667M12.6667 2.71429V4.42857H9.33333M12.6667 2.71429H9.33333V4.42857M9.33333 4.42857H7.66667V6.14286M9.33333 4.42857V6.14286H7.66667M7.66667 6.14286H6V9.57143M7.66667 6.14286V9.57143H6M6 9.57143H4.33333V13H2.66667V14.7143" stroke="white" stroke-width="0.5"/>
</svg>
