<svg width="46" height="45" viewBox="0 0 46 45" fill="none" xmlns="http://www.w3.org/2000/svg">
<path fill-rule="evenodd" clip-rule="evenodd" d="M0 0H45.2143V0.000135449L40.6944 0.000135253V0.000135646L36.1744 0.000135449L36.1744 4.50013H40.6944H40.6958H45.2143V4.50022H40.6944V9.00022H45.2143V36H40.6944V40.5H45.2143V40.5002H40.6958H40.6944H36.1744V45H0V0ZM0.000960908 4.50039H4.52239V9.00039H0.000960908V4.50039ZM9.0424 0.000209669H4.52097V0.000210062H0.000960513V4.5002L4.52097 4.5002L4.52239 4.5002L9.0424 4.5002V0.000209669ZM9.0424 40.5H4.52239H4.52097H0.000960385L0.000960582 45H4.52097H4.52239H9.0424V40.5ZM0.000959989 40.4998L0.000959792 35.9998H4.52239V40.4998H0.000959989Z" fill="#E86161"/>
<path d="M30.375 16.375V15.5H29.5V14.625H28.625V13.75H16.375V14.625H15.5V15.5H14.625V16.375H13.75V28.625H14.625V29.5H15.5V30.375H16.375V31.25H28.625V30.375H29.5V29.5H30.375V28.625H31.25V16.375H30.375ZM29.5 26.875H26.875V25.125H25.125V23.375H23.375V21.625H21.625V19.875H19.875V18.125H18.125V15.5H26.875V16.375H27.75V17.25H28.625V18.125H29.5V26.875ZM17.25 28.625V27.75H16.375V26.875H15.5V18.125H16.375V19.875H18.125V21.625H19.875V23.375H21.625V25.125H23.375V26.875H25.125V28.625H26.875V29.5H18.125V28.625H17.25Z" fill="white"/>
</svg>
