<svg width="75" height="42" viewBox="0 0 75 42" fill="none" xmlns="http://www.w3.org/2000/svg">
<path fill-rule="evenodd" clip-rule="evenodd" d="M63.8008 2.8H63.7996L61.0008 2.8V0L0 3.67151e-06V1.88031e-05H2.8V2.80001V2.80002V5.59999V5.60001V8.39999H0V8.40004H2.8V11.2V11.2V14H0V28H2.8V30.8V33.6V36.4H0V36.4H2.8V39.2V42H2.80078V39.2V36.4H5.59961H5.60078H8.39961V39.2V42H8.40039V39.2H11.1992H11.2004H13.9992V42L61.0008 42V39.2H63.7996H63.8008H66.5996V42H66.6004V39.2V36.4H69.3992V33.6H72.1992V36.4V39.2V42H72.2V39.2V36.4V33.6V30.8V28H75V14H72.2V11.2V8.40002V5.59999V2.8V9.79055e-07L72.1992 9.78987e-07V2.8V5.59999L69.4004 5.59999H69.3992H66.6004V2.8V4.89528e-07L66.5996 4.89459e-07V2.8L63.8008 2.8ZM2.80078 5.59999V2.80002V2.80001V1.88031e-05H5.59961H5.60078H8.39961V2.80001V2.80002V5.60001H5.60078V8.39999H2.80078V5.60001V5.59999ZM5.60078 33.6H2.80078V36.4H5.60078V33.6ZM8.40039 1.88031e-05H11.1992H11.2004H13.9992V2.80002H11.2004H11.1992H8.40039V1.88031e-05ZM69.3992 5.60004V8.40004H72.1992V5.60004H69.3992Z" fill="#66BE47"/>
<mask id="path-2-inside-1_54_24955" fill="white">
<path fill-rule="evenodd" clip-rule="evenodd" d="M41 7H69.1143V7.00008L66.303 7.00008V7.00008L63.4931 7.00008V9.79818L66.303 9.79818L66.3045 9.79818H69.1143V9.79822L66.303 9.79822V12.5963H69.1143V29.3848L66.303 29.3848V32.1829H69.1143V32.183H66.3045H66.303H63.4931L63.4931 34.981H41V34.981H43.8091H43.8105H46.6205V32.1829H43.8105H43.8091H41V32.1828H43.8105L43.8105 29.3847H41V12.5964H43.8105V9.7983H41V9.79819L43.8091 9.79819L43.8105 9.79819L46.6205 9.79819V7.00009H43.8091V7.00009H41V7Z"/>
</mask>
<path fill-rule="evenodd" clip-rule="evenodd" d="M41 7H69.1143V7.00008L66.303 7.00008V7.00008L63.4931 7.00008V9.79818L66.303 9.79818L66.3045 9.79818H69.1143V9.79822L66.303 9.79822V12.5963H69.1143V29.3848L66.303 29.3848V32.1829H69.1143V32.183H66.3045H66.303H63.4931L63.4931 34.981H41V34.981H43.8091H43.8105H46.6205V32.1829H43.8105H43.8091H41V32.1828H43.8105L43.8105 29.3847H41V12.5964H43.8105V9.7983H41V9.79819L43.8091 9.79819L43.8105 9.79819L46.6205 9.79819V7.00009H43.8091V7.00009H41V7Z" fill="white"/>
<path d="M69.1143 7H70.1143V6H69.1143V7ZM41 7V6H40V7H41ZM69.1143 7.00008V8.00008H70.1143V7.00008H69.1143ZM66.303 7.00008V6.00008L65.303 6.00008V7.00008H66.303ZM66.303 7.00008V8.00008L67.303 8.00008V7.00008H66.303ZM63.4931 7.00008V6.00008L62.4931 6.00008V7.00008H63.4931ZM63.4931 9.79818H62.4931V10.7982H63.4931V9.79818ZM66.303 9.79818L66.3032 8.79818H66.303V9.79818ZM66.3045 9.79818L66.3044 10.7982H66.3045V9.79818ZM69.1143 9.79818H70.1143V8.79818H69.1143V9.79818ZM69.1143 9.79822V10.7982H70.1143V9.79822H69.1143ZM66.303 9.79822V8.79822L65.303 8.79822V9.79822H66.303ZM66.303 12.5963H65.303V13.5963H66.303V12.5963ZM69.1143 12.5963H70.1143V11.5963H69.1143V12.5963ZM69.1143 29.3848V30.3848H70.1143V29.3848H69.1143ZM66.303 29.3848V28.3848H65.303V29.3848H66.303ZM66.303 32.1829H65.303V33.1829H66.303V32.1829ZM69.1143 32.1829H70.1143V31.1829H69.1143V32.1829ZM69.1143 32.183V33.183H70.1143V32.183H69.1143ZM63.4931 32.183V31.183H62.4931V32.183H63.4931ZM63.4931 34.981V35.981H64.4931V34.981H63.4931ZM41 34.981H40V35.981H41V34.981ZM41 34.981V33.981H40V34.981H41ZM46.6205 34.981V35.981H47.6205V34.981H46.6205ZM46.6205 32.1829H47.6205V31.1829H46.6205V32.1829ZM41 32.1829H40V33.1829H41V32.1829ZM41 32.1828V31.1828H40V32.1828H41ZM43.8105 32.1828V33.1828H44.8105V32.1828H43.8105ZM43.8105 29.3847H44.8105V28.3847H43.8105V29.3847ZM41 29.3847H40V30.3847H41V29.3847ZM41 12.5964V11.5964H40V12.5964H41ZM43.8105 12.5964V13.5964H44.8105V12.5964H43.8105ZM43.8105 9.7983H44.8105V8.7983H43.8105V9.7983ZM41 9.7983H40V10.7983H41V9.7983ZM41 9.79819L41 8.79819L40 8.79819V9.79819H41ZM43.8091 9.79819L43.8092 8.79819H43.8091V9.79819ZM43.8105 9.79819L43.8104 10.7982H43.8105V9.79819ZM46.6205 9.79819V10.7982H47.6205V9.79819H46.6205ZM46.6205 7.00009H47.6205V6.00009H46.6205V7.00009ZM43.8091 7.00009V6.00009H42.8091V7.00009H43.8091ZM43.8091 7.00009V8.00009H44.8091V7.00009H43.8091ZM41 7.00009H40V8.00009H41V7.00009ZM69.1143 6H41V8H69.1143V6ZM70.1143 7.00008V7H68.1143V7.00008H70.1143ZM66.303 8.00008L69.1143 8.00008V6.00008L66.303 6.00008V8.00008ZM67.303 7.00008V7.00008H65.303V7.00008H67.303ZM63.4931 8.00008L66.303 8.00008V6.00008L63.4931 6.00008V8.00008ZM64.4931 9.79818V7.00008H62.4931V9.79818H64.4931ZM66.303 8.79818L63.4931 8.79818V10.7982L66.303 10.7982V8.79818ZM66.3047 8.79818L66.3032 8.79818L66.3029 10.7982L66.3044 10.7982L66.3047 8.79818ZM69.1143 8.79818H66.3045V10.7982H69.1143V8.79818ZM70.1143 9.79822V9.79818H68.1143V9.79822H70.1143ZM66.303 10.7982L69.1143 10.7982V8.79822L66.303 8.79822V10.7982ZM67.303 12.5963V9.79822H65.303V12.5963H67.303ZM69.1143 11.5963H66.303V13.5963H69.1143V11.5963ZM70.1143 29.3848V12.5963H68.1143V29.3848H70.1143ZM66.303 30.3848L69.1143 30.3848V28.3848L66.303 28.3848V30.3848ZM67.303 32.1829V29.3848H65.303V32.1829H67.303ZM69.1143 31.1829H66.303V33.1829H69.1143V31.1829ZM70.1143 32.183V32.1829H68.1143V32.183H70.1143ZM66.3045 33.183H69.1143V31.183H66.3045V33.183ZM66.303 33.183H66.3045V31.183H66.303V33.183ZM63.4931 33.183H66.303V31.183H63.4931V33.183ZM64.4931 34.981L64.4931 32.183H62.4931L62.4931 34.981H64.4931ZM41 35.981H63.4931V33.981H41V35.981ZM40 34.981V34.981H42V34.981H40ZM43.8091 33.981H41V35.981H43.8091V33.981ZM43.8105 33.981H43.8091V35.981H43.8105V33.981ZM46.6205 33.981H43.8105V35.981H46.6205V33.981ZM45.6205 32.1829V34.981H47.6205V32.1829H45.6205ZM43.8105 33.1829H46.6205V31.1829H43.8105V33.1829ZM43.8091 33.1829H43.8105V31.1829H43.8091V33.1829ZM41 33.1829H43.8091V31.1829H41V33.1829ZM40 32.1828V32.1829H42V32.1828H40ZM43.8105 31.1828H41V33.1828H43.8105V31.1828ZM42.8105 29.3847L42.8105 32.1828H44.8105L44.8105 29.3847H42.8105ZM41 30.3847H43.8105V28.3847H41V30.3847ZM40 12.5964V29.3847H42V12.5964H40ZM43.8105 11.5964H41V13.5964H43.8105V11.5964ZM42.8105 9.7983V12.5964H44.8105V9.7983H42.8105ZM41 10.7983H43.8105V8.7983H41V10.7983ZM40 9.79819V9.7983H42V9.79819H40ZM43.8091 8.79819L41 8.79819L41 10.7982L43.8091 10.7982V8.79819ZM43.8107 8.79819L43.8092 8.79819L43.8089 10.7982L43.8104 10.7982L43.8107 8.79819ZM46.6205 8.79819L43.8105 8.79819V10.7982L46.6205 10.7982V8.79819ZM45.6205 7.00009V9.79819H47.6205V7.00009H45.6205ZM43.8091 8.00009H46.6205V6.00009H43.8091V8.00009ZM44.8091 7.00009V7.00009H42.8091V7.00009H44.8091ZM41 8.00009H43.8091V6.00009H41V8.00009ZM40 7V7.00009H42V7H40Z" fill="white" fill-opacity="0.15" mask="url(#path-2-inside-1_54_24955)"/>
<path d="M58.7685 16.8757V17.8439H57.8003V18.8121H56.8321V19.7803H55.8639V20.7485H54.8957V21.7167H53.9275V22.6849H53.4434V23.169H52.4752V22.6849H51.9911V21.7167H51.0229V21.2326H50.0547V22.6849H51.0229V23.6531H51.9911V24.6213H52.4752V25.1054H53.4434V24.6213H53.9275V23.6531H54.8957V22.6849H55.8639V21.7167H56.8321V20.7485H57.8003V19.7803H58.7685V18.8121H59.7367V16.8757H58.7685Z" fill="#66BE47"/>
</svg>
