<svg width="46" height="45" viewBox="0 0 46 45" fill="none" xmlns="http://www.w3.org/2000/svg">
<path fill-rule="evenodd" clip-rule="evenodd" d="M0 0H45.2143V0.000135449L40.6944 0.000135253V0.000135646L36.1744 0.000135449L36.1744 4.50013H40.6944H40.6958H45.2143V4.50022H40.6944V9.00022H45.2143V36H40.6944V40.5H45.2143V40.5002H40.6958H40.6944H36.1744V45H0V0ZM0.000960908 4.50039H4.52239V9.00039H0.000960908V4.50039ZM9.0424 0.000209669H4.52097V0.000210062H0.000960513V4.5002L4.52097 4.5002L4.52239 4.5002L9.0424 4.5002V0.000209669ZM9.0424 40.5H4.52239H4.52097H0.000960385L0.000960582 45H4.52097H4.52239H9.0424V40.5ZM0.000959989 40.4998L0.000959792 35.9998H4.52239V40.4998H0.000959989Z" fill="#FFA72E"/>
<path d="M24 27H22V29H24V27Z" fill="white"/>
<path d="M24 17H22V25H24V17Z" fill="white"/>
<path d="M32 16V15H31V14H30V13H16V14H15V15H14V16H13V30H14V31H15V32H16V33H30V32H31V31H32V30H33V16H32ZM31 28H30V29H29V30H28V31H18V30H17V29H16V28H15V18H16V17H17V16H18V15H28V16H29V17H30V18H31V28Z" fill="white"/>
</svg>
