<svg width="13" height="12" viewBox="0 0 13 12" fill="none" xmlns="http://www.w3.org/2000/svg">
<mask id="path-1-inside-1_54_11290" fill="white">
<path fill-rule="evenodd" clip-rule="evenodd" d="M0.0429688 1.20004V1.19999L1.24863 1.19999L1.24868 1.19999L2.45434 1.19999V0H9.68862V1.19999H10.8943L10.8943 1.19999L12.1 1.19999V0H12.1001V12H12.1V10.8H10.8943H10.8943H9.68862V12H0.0429688V12H1.24838V10.8H0.0429688V10.7999H1.24838L1.24838 9.5999H0.0429688V2.40003H1.24868V1.20004H0.0429688ZM12.1 10.8H10.8943V9.59995L12.1 9.59995V10.8ZM12.1 1.20004V2.40004L10.8943 2.40003V1.20004H12.1ZM1.24853 10.8V12H2.45424L2.45424 10.8H1.24853Z"/>
</mask>
<path fill-rule="evenodd" clip-rule="evenodd" d="M0.0429688 1.20004V1.19999L1.24863 1.19999L1.24868 1.19999L2.45434 1.19999V0H9.68862V1.19999H10.8943L10.8943 1.19999L12.1 1.19999V0H12.1001V12H12.1V10.8H10.8943H10.8943H9.68862V12H0.0429688V12H1.24838V10.8H0.0429688V10.7999H1.24838L1.24838 9.5999H0.0429688V2.40003H1.24868V1.20004H0.0429688ZM12.1 10.8H10.8943V9.59995L12.1 9.59995V10.8ZM12.1 1.20004V2.40004L10.8943 2.40003V1.20004H12.1ZM1.24853 10.8V12H2.45424L2.45424 10.8H1.24853Z" fill="white"/>
<path d="M0.0429688 1.19999L0.0429687 0.199986L-0.957031 0.199986V1.19999H0.0429688ZM0.0429688 1.20004H-0.957031V2.20004H0.0429688V1.20004ZM1.24863 1.19999L1.25101 0.199986H1.24863V1.19999ZM1.24868 1.19999L1.24629 2.19999L1.24868 2.19999L1.24868 1.19999ZM2.45434 1.19999L2.45434 2.19999H3.45434V1.19999H2.45434ZM2.45434 0V-1H1.45434V0H2.45434ZM9.68862 0H10.6886V-1H9.68862V0ZM9.68862 1.19999H8.68862V2.19999H9.68862V1.19999ZM10.8943 1.19999L10.8966 0.199986H10.8943V1.19999ZM10.8943 1.19999L10.892 2.19999L10.8943 2.19999V1.19999ZM12.1 1.19999V2.19999H13.1V1.19999H12.1ZM12.1 0V-1H11.1V0H12.1ZM12.1001 0H13.1001V-1H12.1001V0ZM12.1001 12V13H13.1001V12H12.1001ZM12.1 12H11.1V13H12.1V12ZM12.1 10.8H13.1V9.8H12.1V10.8ZM9.68862 10.8V9.8H8.68862V10.8H9.68862ZM9.68862 12V13H10.6886V12H9.68862ZM0.0429688 12H-0.957031V13H0.0429688V12ZM0.0429688 12V11H-0.957031V12H0.0429688ZM1.24838 12V13H2.24838V12H1.24838ZM1.24838 10.8H2.24838V9.79995H1.24838V10.8ZM0.0429688 10.8H-0.957031V11.8H0.0429688V10.8ZM0.0429688 10.7999V9.7999H-0.957031V10.7999H0.0429688ZM1.24838 10.7999V11.7999H2.24838V10.7999H1.24838ZM1.24838 9.5999H2.24838V8.5999H1.24838V9.5999ZM0.0429688 9.5999H-0.957031V10.5999H0.0429688V9.5999ZM0.0429688 2.40003V1.40003H-0.957031V2.40003H0.0429688ZM1.24868 2.40003V3.40003H2.24868V2.40003H1.24868ZM1.24868 1.20004H2.24868V0.200037H1.24868V1.20004ZM10.8943 10.8H9.89428V11.8H10.8943V10.8ZM12.1 10.8V11.8H13.1V10.8H12.1ZM10.8943 9.59995L10.8943 8.59995L9.89428 8.59995V9.59995H10.8943ZM12.1 9.59995H13.1V8.59995L12.1 8.59995L12.1 9.59995ZM12.1 2.40004V3.40004L13.1 3.40004V2.40004H12.1ZM12.1 1.20004H13.1V0.200037H12.1V1.20004ZM10.8943 2.40003H9.89428V3.40003L10.8943 3.40003V2.40003ZM10.8943 1.20004V0.200037H9.89428V1.20004H10.8943ZM1.24853 12H0.248529V13H1.24853V12ZM1.24853 10.8V9.79995H0.248529V10.8H1.24853ZM2.45424 12V13H3.45424L3.45424 12H2.45424ZM2.45424 10.8H3.45424L3.45424 9.79995H2.45424V10.8ZM-0.957031 1.19999V1.20004H1.04297V1.19999H-0.957031ZM1.24863 0.199986L0.0429687 0.199986L0.0429688 2.19999H1.24863L1.24863 0.199986ZM1.25106 0.199989L1.25101 0.199989L1.24624 2.19998L1.24629 2.19998L1.25106 0.199989ZM2.45434 0.199986L1.24868 0.199986L1.24868 2.19999H2.45434L2.45434 0.199986ZM1.45434 0V1.19999H3.45434V0H1.45434ZM9.68862 -1H2.45434V1H9.68862V-1ZM10.6886 1.19999V0H8.68862V1.19999H10.6886ZM10.8943 0.199986H9.68862V2.19999H10.8943V0.199986ZM10.8967 0.199989L10.8966 0.199989L10.8919 2.19998L10.892 2.19998L10.8967 0.199989ZM12.1 0.199986L10.8943 0.199986V2.19999H12.1V0.199986ZM11.1 0V1.19999H13.1V0H11.1ZM12.1001 -1H12.1V1H12.1001V-1ZM13.1001 12V0H11.1001V12H13.1001ZM12.1 13H12.1001V11H12.1V13ZM11.1 10.8V12H13.1V10.8H11.1ZM10.8943 11.8H12.1V9.8H10.8943V11.8ZM10.8943 11.8H10.8943V9.8H10.8943V11.8ZM9.68862 11.8H10.8943V9.8H9.68862V11.8ZM10.6886 12V10.8H8.68862V12H10.6886ZM0.0429688 13H9.68862V11H0.0429688V13ZM-0.957031 12V12H1.04297V12H-0.957031ZM1.24838 11H0.0429688V13H1.24838V11ZM0.248383 10.8V12H2.24838V10.8H0.248383ZM0.0429688 11.8H1.24838V9.79995H0.0429688V11.8ZM-0.957031 10.7999V10.8H1.04297V10.7999H-0.957031ZM1.24838 9.7999H0.0429688V11.7999H1.24838V9.7999ZM0.248383 9.5999L0.248383 10.7999H2.24838L2.24838 9.5999H0.248383ZM0.0429688 10.5999H1.24838V8.5999H0.0429688V10.5999ZM-0.957031 2.40003V9.5999H1.04297V2.40003H-0.957031ZM1.24868 1.40003H0.0429688V3.40003H1.24868V1.40003ZM0.248676 1.20004V2.40003H2.24868V1.20004H0.248676ZM0.0429688 2.20004H1.24868V0.200037H0.0429688V2.20004ZM10.8943 11.8H12.1V9.79995H10.8943V11.8ZM9.89428 9.59995V10.8H11.8943V9.59995H9.89428ZM12.1 8.59995L10.8943 8.59995L10.8943 10.6L12.1 10.6L12.1 8.59995ZM13.1 10.8V9.59995H11.1V10.8H13.1ZM13.1 2.40004V1.20004H11.1V2.40004H13.1ZM10.8943 3.40003L12.1 3.40004V1.40004L10.8943 1.40003V3.40003ZM9.89428 1.20004V2.40003H11.8943V1.20004H9.89428ZM12.1 0.200037H10.8943V2.20004H12.1V0.200037ZM2.24853 12V10.8H0.248529V12H2.24853ZM2.45424 11H1.24853V13H2.45424V11ZM1.45424 10.8L1.45424 12H3.45424L3.45424 10.8H1.45424ZM1.24853 11.8H2.45424V9.79995H1.24853V11.8Z" fill="white" fill-opacity="0.15" mask="url(#path-1-inside-1_54_11290)"/>
</svg>
