<svg width="46" height="45" viewBox="0 0 46 45" fill="none" xmlns="http://www.w3.org/2000/svg">
<mask id="path-1-inside-1_54_25058" fill="white">
<path fill-rule="evenodd" clip-rule="evenodd" d="M0 0H45.2143V0.000135449L40.6944 0.000135253V0.000135646L36.1744 0.000135449L36.1744 4.50013H40.6944H40.6958H45.2143V4.50022H40.6944V9.00022H45.2143V36H40.6944V40.5H45.2143V40.5002H40.6958H40.6944H36.1744V45H0V0ZM0.000960908 4.50039H4.52239V9.00039H0.000960908V4.50039ZM9.0424 0.000209669H4.52097V0.000210062H0.000960513V4.5002L4.52097 4.5002L4.52239 4.5002L9.0424 4.5002V0.000209669ZM9.0424 40.5H4.52239H4.52097H0.000960385L0.000960582 45H4.52097H4.52239H9.0424V40.5ZM0.000959989 40.4998L0.000959792 35.9998H4.52239V40.4998H0.000959989Z"/>
</mask>
<path fill-rule="evenodd" clip-rule="evenodd" d="M0 0H45.2143V0.000135449L40.6944 0.000135253V0.000135646L36.1744 0.000135449L36.1744 4.50013H40.6944H40.6958H45.2143V4.50022H40.6944V9.00022H45.2143V36H40.6944V40.5H45.2143V40.5002H40.6958H40.6944H36.1744V45H0V0ZM0.000960908 4.50039H4.52239V9.00039H0.000960908V4.50039ZM9.0424 0.000209669H4.52097V0.000210062H0.000960513V4.5002L4.52097 4.5002L4.52239 4.5002L9.0424 4.5002V0.000209669ZM9.0424 40.5H4.52239H4.52097H0.000960385L0.000960582 45H4.52097H4.52239H9.0424V40.5ZM0.000959989 40.4998L0.000959792 35.9998H4.52239V40.4998H0.000959989Z" fill="#66BE47"/>
<path d="M45.2143 0H46.2143V-1H45.2143V0ZM0 0V-1H-1V0H0ZM45.2143 0.000135449V1.00014L46.2143 1.00014V0.000135449H45.2143ZM40.6944 0.000135253V-0.999865L39.6944 -0.999865V0.000135253H40.6944ZM40.6944 0.000135646V1.00014H41.6944V0.000135646H40.6944ZM36.1744 0.000135449V-0.999865H35.1744V0.000134601L36.1744 0.000135449ZM36.1744 4.50013L35.1744 4.50013V5.50013H36.1744V4.50013ZM45.2143 4.50013H46.2143V3.50013H45.2143V4.50013ZM45.2143 4.50022V5.50022H46.2143V4.50022H45.2143ZM40.6944 4.50022V3.50022H39.6944V4.50022H40.6944ZM40.6944 9.00022H39.6944V10.0002H40.6944V9.00022ZM45.2143 9.00022H46.2143V8.00022H45.2143V9.00022ZM45.2143 36V37H46.2143V36H45.2143ZM40.6944 36V35H39.6944V36H40.6944ZM40.6944 40.5H39.6944V41.5H40.6944V40.5ZM45.2143 40.5H46.2143V39.5H45.2143V40.5ZM45.2143 40.5002V41.5002H46.2143V40.5002H45.2143ZM36.1744 40.5002V39.5002H35.1744V40.5002H36.1744ZM36.1744 45V46H37.1744V45H36.1744ZM0 45H-1V46H0V45ZM4.52239 4.50039H5.52239V3.50039H4.52239V4.50039ZM0.000960908 4.50039V3.50039H-0.999039V4.50039H0.000960908ZM4.52239 9.00039V10.0004H5.52239V9.00039H4.52239ZM0.000960908 9.00039H-0.999039V10.0004H0.000960908V9.00039ZM4.52097 0.000209669V-0.99979H3.52097V0.000209669H4.52097ZM9.0424 0.000209669H10.0424V-0.99979H9.0424V0.000209669ZM4.52097 0.000210062V1.00021H5.52097V0.000210062H4.52097ZM0.000960513 0.000210062V-0.99979H-0.999039V0.000210062H0.000960513ZM0.000960513 4.5002H-0.999039V5.5002H0.000960619L0.000960513 4.5002ZM4.52097 4.5002L4.52131 3.5002H4.52097V4.5002ZM4.52239 4.5002L4.52205 5.5002H4.52239V4.5002ZM9.0424 4.5002V5.5002H10.0424V4.5002H9.0424ZM9.0424 40.5H10.0424V39.5H9.0424V40.5ZM0.000960385 40.5V39.5H-0.99904L-0.99904 40.5H0.000960385ZM0.000960582 45H-0.999039L-0.999039 46H0.000960582V45ZM9.0424 45V46H10.0424V45H9.0424ZM0.000959792 35.9998V34.9998H-0.99904L-0.99904 35.9998H0.000959792ZM0.000959989 40.4998H-0.99904L-0.99904 41.4998H0.000959989V40.4998ZM4.52239 35.9998H5.52239V34.9998H4.52239V35.9998ZM4.52239 40.4998V41.4998H5.52239V40.4998H4.52239ZM45.2143 -1H0V1H45.2143V-1ZM46.2143 0.000135449V0H44.2143V0.000135449H46.2143ZM40.6944 1.00014L45.2143 1.00014V-0.999865L40.6944 -0.999865V1.00014ZM41.6944 0.000135646V0.000135253H39.6944V0.000135646H41.6944ZM36.1744 1.00014L40.6944 1.00014V-0.999864L36.1744 -0.999865V1.00014ZM37.1744 4.50013L37.1744 0.000136297L35.1744 0.000134601L35.1744 4.50013L37.1744 4.50013ZM40.6944 3.50013H36.1744V5.50013H40.6944V3.50013ZM40.6958 3.50013H40.6944V5.50013H40.6958V3.50013ZM45.2143 3.50013H40.6958V5.50013H45.2143V3.50013ZM46.2143 4.50022V4.50013H44.2143V4.50022H46.2143ZM40.6944 5.50022H45.2143V3.50022H40.6944V5.50022ZM41.6944 9.00022V4.50022H39.6944V9.00022H41.6944ZM45.2143 8.00022H40.6944V10.0002H45.2143V8.00022ZM46.2143 36V9.00022H44.2143V36H46.2143ZM40.6944 37H45.2143V35H40.6944V37ZM41.6944 40.5V36H39.6944V40.5H41.6944ZM45.2143 39.5H40.6944V41.5H45.2143V39.5ZM46.2143 40.5002V40.5H44.2143V40.5002H46.2143ZM40.6958 41.5002H45.2143V39.5002H40.6958V41.5002ZM40.6944 41.5002H40.6958V39.5002H40.6944V41.5002ZM36.1744 41.5002H40.6944V39.5002H36.1744V41.5002ZM37.1744 45V40.5002H35.1744V45H37.1744ZM0 46H36.1744V44H0V46ZM-1 0V45H1V0H-1ZM4.52239 3.50039H0.000960908V5.50039H4.52239V3.50039ZM5.52239 9.00039V4.50039H3.52239V9.00039H5.52239ZM0.000960908 10.0004H4.52239V8.00039H0.000960908V10.0004ZM-0.999039 4.50039V9.00039H1.00096V4.50039H-0.999039ZM4.52097 1.00021H9.0424V-0.99979H4.52097V1.00021ZM5.52097 0.000210062V0.000209669H3.52097V0.000210062H5.52097ZM0.000960513 1.00021H4.52097V-0.99979H0.000960513V1.00021ZM1.00096 4.5002V0.000210062H-0.999039V4.5002H1.00096ZM4.52097 3.5002L0.000960408 3.5002L0.000960619 5.5002L4.52097 5.5002V3.5002ZM4.52272 3.5002L4.52131 3.5002L4.52064 5.5002L4.52205 5.5002L4.52272 3.5002ZM9.0424 3.5002L4.52239 3.5002V5.5002L9.0424 5.5002V3.5002ZM8.0424 0.000209669V4.5002H10.0424V0.000209669H8.0424ZM4.52239 41.5H9.0424V39.5H4.52239V41.5ZM4.52097 41.5H4.52239V39.5H4.52097V41.5ZM0.000960385 41.5H4.52097V39.5H0.000960385V41.5ZM1.00096 45L1.00096 40.5H-0.99904L-0.999039 45H1.00096ZM4.52097 44H0.000960582V46H4.52097V44ZM4.52239 44H4.52097V46H4.52239V44ZM9.0424 44H4.52239V46H9.0424V44ZM8.0424 40.5V45H10.0424V40.5H8.0424ZM-0.99904 35.9998L-0.99904 40.4998H1.00096L1.00096 35.9998H-0.99904ZM4.52239 34.9998H0.000959792V36.9998H4.52239V34.9998ZM5.52239 40.4998V35.9998H3.52239V40.4998H5.52239ZM0.000959989 41.4998H4.52239V39.4998H0.000959989V41.4998Z" fill="#66BE47" fill-opacity="0.15" mask="url(#path-1-inside-1_54_25058)"/>
<path d="M28.5763 15.8824V17.4395H27.0192V18.9966H25.4622V20.5537H23.9051V22.1108H22.348V23.6679H20.7909V25.2249H20.0123V26.0035H18.4552V25.2249H17.6767V23.6679H16.1196V22.8893H14.5625V25.2249H16.1196V26.782H17.6767V28.3391H18.4552V29.1177H20.0123V28.3391H20.7909V26.782H22.348V25.2249H23.9051V23.6679H25.4622V22.1108H27.0192V20.5537H28.5763V18.9966H30.1334V15.8824H28.5763Z" fill="white"/>
</svg>
