<svg width="698" height="300" viewBox="0 0 698 300" fill="none" xmlns="http://www.w3.org/2000/svg">
<path fill-rule="evenodd" clip-rule="evenodd" d="M698 8.33313H689.667H681.334H673V-0.000183105L25.0002 0V8.33331H16.6677V16.6667H8.33435V8.33331V0H8.33331V8.33331V16.6667V25H0L0.000183105 275H8.3335V283.333L16.6669 283.333V291.666H8.3335H0.000183105V291.667H8.3335H16.6669H25.0002V300L673 300V291.667H681.334L681.333 283.333H689.666V291.667V300H689.667V291.667V283.333V275H698L698 25H689.667V16.6667L681.334 16.6675V8.33417H689.667H698V8.33313Z" fill="#171A2B"/>
<mask id="path-2-inside-1_54_13405" fill="white">
<path fill-rule="evenodd" clip-rule="evenodd" d="M145 70H205.286V130H145V130H151.028V124H145V124H151.028L151.028 118H145V70ZM205.285 118V124H199.257V118H205.285ZM193.229 124V130H199.257H199.257H205.285V124H199.257L199.257 124H193.229ZM193.229 70V76L199.257 76L199.257 76L205.285 76V70L199.257 70L193.229 70ZM205.285 76.0003V82.0003H199.257V76.0003H205.285ZM145 76.0003H151.029V82.0003H145L145 76.0003ZM157.057 70L151.029 70L145 70L145 76L151.029 76L151.029 76L157.057 76V70ZM151.029 124V130H157.058V124H151.029Z"/>
</mask>
<path fill-rule="evenodd" clip-rule="evenodd" d="M145 70H205.286V130H145V130H151.028V124H145V124H151.028L151.028 118H145V70ZM205.285 118V124H199.257V118H205.285ZM193.229 124V130H199.257H199.257H205.285V124H199.257L199.257 124H193.229ZM193.229 70V76L199.257 76L199.257 76L205.285 76V70L199.257 70L193.229 70ZM205.285 76.0003V82.0003H199.257V76.0003H205.285ZM145 76.0003H151.029V82.0003H145L145 76.0003ZM157.057 70L151.029 70L145 70L145 76L151.029 76L151.029 76L157.057 76V70ZM151.029 124V130H157.058V124H151.029Z" fill="#447EF7"/>
<path d="M205.286 70H206.286V69H205.286V70ZM145 70V69H144V70H145ZM205.286 130V131H206.286V130H205.286ZM145 130H144V131H145V130ZM145 130V129H144V130H145ZM151.028 130V131H152.028V130H151.028ZM151.028 124H152.028V123H151.028V124ZM145 124H144V125H145V124ZM145 124V123H144V124H145ZM151.028 124V125H152.028V124H151.028ZM151.028 118H152.028V117H151.028V118ZM145 118H144V119H145V118ZM205.285 124V125H206.285V124H205.285ZM205.285 118H206.285V117H205.285V118ZM199.257 124H198.257V125H199.257V124ZM199.257 118V117H198.257V118H199.257ZM193.229 130H192.229V131H193.229V130ZM193.229 124V123H192.229V124H193.229ZM205.285 130V131H206.285V130H205.285ZM205.285 124H206.285V123H205.285V124ZM199.257 124L199.249 125H199.257V124ZM199.257 124L199.265 123H199.257V124ZM193.229 76H192.229V77H193.229V76ZM193.229 70V69L192.229 69V70H193.229ZM199.257 76V77L199.258 77L199.257 76ZM199.257 76V75L199.256 75L199.257 76ZM205.285 76V77H206.285V76H205.285ZM205.285 70H206.285V69L205.285 69V70ZM199.257 70V69V70ZM205.285 82.0003V83.0003H206.285V82.0003H205.285ZM205.285 76.0003H206.285V75.0003H205.285V76.0003ZM199.257 82.0003H198.257V83.0003H199.257V82.0003ZM199.257 76.0003V75.0003H198.257V76.0003H199.257ZM151.029 76.0003H152.029V75.0003H151.029V76.0003ZM145 76.0003V75.0003H144V76.0003H145ZM151.029 82.0003V83.0003H152.029V82.0003H151.029ZM145 82.0003H144V83.0003H145V82.0003ZM151.029 70V69V70ZM157.057 70H158.057V69H157.057V70ZM145 70L145 69L144 69V70L145 70ZM145 76H144V77H145L145 76ZM151.029 76L151.032 75H151.029V76ZM151.029 76L151.026 77H151.029V76ZM157.057 76V77H158.057V76H157.057ZM151.029 130H150.029V131H151.029V130ZM151.029 124V123H150.029V124H151.029ZM157.058 130V131H158.058V130H157.058ZM157.058 124H158.058V123H157.058V124ZM205.286 69H145V71H205.286V69ZM206.286 130V70H204.286V130H206.286ZM145 131H205.286V129H145V131ZM144 130V130H146V130H144ZM151.028 129H145V131H151.028V129ZM150.028 124V130H152.028V124H150.028ZM145 125H151.028V123H145V125ZM144 124V124H146V124H144ZM151.028 123H145V125H151.028V123ZM150.028 118L150.028 124H152.028L152.028 118H150.028ZM145 119H151.028V117H145V119ZM144 70V118H146V70H144ZM206.285 124V118H204.285V124H206.285ZM199.257 125H205.285V123H199.257V125ZM198.257 118V124H200.257V118H198.257ZM205.285 117H199.257V119H205.285V117ZM194.229 130V124H192.229V130H194.229ZM199.257 129H193.229V131H199.257V129ZM199.257 129H199.257V131H199.257V129ZM205.285 129H199.257V131H205.285V129ZM204.285 124V130H206.285V124H204.285ZM199.257 125H205.285V123H199.257V125ZM199.248 125L199.249 125L199.266 123L199.265 123L199.248 125ZM193.229 125H199.257V123H193.229V125ZM194.229 76V70H192.229V76H194.229ZM199.257 75L193.229 75V77L199.257 77V75ZM199.256 75L199.256 75L199.258 77L199.258 77L199.256 75ZM205.285 75L199.257 75V77L205.285 77V75ZM204.285 70V76H206.285V70H204.285ZM199.257 71L205.285 71V69L199.257 69V71ZM193.229 71L199.257 71V69L193.229 69V71ZM206.285 82.0003V76.0003H204.285V82.0003H206.285ZM199.257 83.0003H205.285V81.0003H199.257V83.0003ZM198.257 76.0003V82.0003H200.257V76.0003H198.257ZM205.285 75.0003H199.257V77.0003H205.285V75.0003ZM151.029 75.0003H145V77.0003H151.029V75.0003ZM152.029 82.0003V76.0003H150.029V82.0003H152.029ZM145 83.0003H151.029V81.0003H145V83.0003ZM144 76.0003V82.0003H146V76.0003H144ZM151.029 71H157.057V69H151.029V71ZM145 71L151.029 71V69L145 69L145 71ZM146 76V70L144 70V76H146ZM151.029 75L145 75L145 77L151.029 77V75ZM151.032 75L151.032 75L151.025 77L151.026 77L151.032 75ZM157.057 75L151.029 75V77L157.057 77V75ZM156.057 70V76H158.057V70H156.057ZM152.029 130V124H150.029V130H152.029ZM157.058 129H151.029V131H157.058V129ZM156.058 124V130H158.058V124H156.058ZM151.029 125H157.058V123H151.029V125Z" fill="white" fill-opacity="0.15" mask="url(#path-2-inside-1_54_13405)"/>
<path d="M164.2 88V89.2H163V108.4H164.2V109.6H167.8V107.2H166.6V106H165.4V91.6H166.6V90.4H169V88H164.2Z" fill="white"/>
<path d="M185.8 96.4V95.2H184.6V94H183.4V92.8H182.2V91.6H181V90.4H171.4V91.6H170.2V110.8H171.4V112H185.8V110.8H187V96.4H185.8ZM184.6 108.4H183.4V109.6H173.8V108.4H172.6V94H173.8V92.8H177.4V100H184.6V108.4ZM182.2 96.4V97.6H179.8V95.2H181V96.4H182.2Z" fill="white"/>
<line x1="349.5" y1="31" x2="349.5" y2="271" stroke="#282B42"/>
<path d="M94.2115 156.2H96.0595V164.236H100.511V166H94.2115V156.2ZM109.532 162.612C109.532 163.191 109.434 163.704 109.238 164.152C109.042 164.591 108.776 164.964 108.44 165.272C108.104 165.571 107.716 165.799 107.278 165.958C106.848 166.117 106.396 166.196 105.92 166.196C105.444 166.196 104.986 166.117 104.548 165.958C104.118 165.799 103.736 165.571 103.4 165.272C103.064 164.964 102.798 164.591 102.602 164.152C102.406 163.704 102.308 163.191 102.308 162.612V162.444C102.308 161.875 102.406 161.371 102.602 160.932C102.798 160.484 103.064 160.106 103.4 159.798C103.736 159.49 104.118 159.257 104.548 159.098C104.986 158.939 105.444 158.86 105.92 158.86C106.396 158.86 106.848 158.939 107.278 159.098C107.716 159.257 108.104 159.49 108.44 159.798C108.776 160.106 109.042 160.484 109.238 160.932C109.434 161.371 109.532 161.875 109.532 162.444V162.612ZM105.92 164.516C106.172 164.516 106.41 164.474 106.634 164.39C106.858 164.306 107.054 164.185 107.222 164.026C107.39 163.867 107.52 163.676 107.614 163.452C107.716 163.219 107.768 162.957 107.768 162.668V162.388C107.768 162.099 107.716 161.842 107.614 161.618C107.52 161.385 107.39 161.189 107.222 161.03C107.054 160.871 106.858 160.75 106.634 160.666C106.41 160.582 106.172 160.54 105.92 160.54C105.668 160.54 105.43 160.582 105.206 160.666C104.982 160.75 104.786 160.871 104.618 161.03C104.45 161.189 104.314 161.385 104.212 161.618C104.118 161.842 104.072 162.099 104.072 162.388V162.668C104.072 162.957 104.118 163.219 104.212 163.452C104.314 163.676 104.45 163.867 104.618 164.026C104.786 164.185 104.982 164.306 105.206 164.39C105.43 164.474 105.668 164.516 105.92 164.516ZM115.794 164.992C115.607 165.431 115.346 165.743 115.01 165.93C114.674 166.107 114.282 166.196 113.834 166.196C113.414 166.196 113.017 166.117 112.644 165.958C112.28 165.799 111.958 165.566 111.678 165.258C111.398 164.95 111.174 164.577 111.006 164.138C110.847 163.699 110.768 163.2 110.768 162.64V162.416C110.768 161.865 110.847 161.371 111.006 160.932C111.165 160.493 111.379 160.12 111.65 159.812C111.921 159.504 112.233 159.271 112.588 159.112C112.952 158.944 113.339 158.86 113.75 158.86C114.245 158.86 114.641 158.944 114.94 159.112C115.248 159.28 115.491 159.541 115.668 159.896H115.92V159.056H117.684V163.9C117.684 164.18 117.81 164.32 118.062 164.32H118.328V166H117.124C116.807 166 116.545 165.907 116.34 165.72C116.144 165.533 116.046 165.291 116.046 164.992H115.794ZM114.226 164.516C114.739 164.516 115.15 164.348 115.458 164.012C115.766 163.667 115.92 163.2 115.92 162.612V162.444C115.92 161.856 115.766 161.394 115.458 161.058C115.15 160.713 114.739 160.54 114.226 160.54C113.713 160.54 113.302 160.713 112.994 161.058C112.686 161.394 112.532 161.856 112.532 162.444V162.612C112.532 163.2 112.686 163.667 112.994 164.012C113.302 164.348 113.713 164.516 114.226 164.516ZM124.856 164.992H124.604C124.53 165.151 124.436 165.305 124.324 165.454C124.222 165.594 124.082 165.72 123.904 165.832C123.736 165.944 123.531 166.033 123.288 166.098C123.055 166.163 122.77 166.196 122.434 166.196C122.005 166.196 121.604 166.121 121.23 165.972C120.866 165.813 120.544 165.585 120.264 165.286C119.994 164.978 119.779 164.605 119.62 164.166C119.471 163.727 119.396 163.223 119.396 162.654V162.402C119.396 161.842 119.476 161.343 119.634 160.904C119.802 160.465 120.026 160.097 120.306 159.798C120.596 159.49 120.927 159.257 121.3 159.098C121.683 158.939 122.084 158.86 122.504 158.86C123.064 158.86 123.508 158.967 123.834 159.182C124.161 159.387 124.418 159.681 124.604 160.064H124.856V156.2H126.62V166H124.856V164.992ZM123.008 164.516C123.559 164.516 124.002 164.343 124.338 163.998C124.684 163.643 124.856 163.181 124.856 162.612V162.444C124.856 161.875 124.684 161.417 124.338 161.072C124.002 160.717 123.559 160.54 123.008 160.54C122.458 160.54 122.01 160.713 121.664 161.058C121.328 161.394 121.16 161.856 121.16 162.444V162.612C121.16 163.2 121.328 163.667 121.664 164.012C122.01 164.348 122.458 164.516 123.008 164.516ZM136.821 159.056H138.879V156.2H140.643V159.056H143.149V160.736H140.643V163.9C140.643 164.18 140.769 164.32 141.021 164.32H142.897V166H139.957C139.639 166 139.378 165.897 139.173 165.692C138.977 165.487 138.879 165.225 138.879 164.908V160.736H136.821V159.056ZM147.381 166H145.617V156.2H147.381V160.176H147.633C147.81 159.756 148.072 159.434 148.417 159.21C148.762 158.977 149.187 158.86 149.691 158.86C150.036 158.86 150.354 158.916 150.643 159.028C150.932 159.14 151.184 159.308 151.399 159.532C151.614 159.756 151.782 160.045 151.903 160.4C152.024 160.745 152.085 161.156 152.085 161.632V166H150.321V162.052C150.321 161.557 150.2 161.17 149.957 160.89C149.724 160.601 149.383 160.456 148.935 160.456C148.412 160.456 148.02 160.633 147.759 160.988C147.507 161.333 147.381 161.8 147.381 162.388V166ZM155.715 163.102C155.725 163.307 155.771 163.499 155.855 163.676C155.949 163.844 156.07 163.993 156.219 164.124C156.378 164.245 156.555 164.343 156.751 164.418C156.957 164.483 157.171 164.516 157.395 164.516C157.834 164.516 158.17 164.441 158.403 164.292C158.637 164.133 158.805 163.947 158.907 163.732L160.419 164.572C160.335 164.749 160.219 164.936 160.069 165.132C159.92 165.319 159.724 165.491 159.481 165.65C159.248 165.809 158.959 165.939 158.613 166.042C158.277 166.145 157.881 166.196 157.423 166.196C156.901 166.196 156.425 166.112 155.995 165.944C155.566 165.776 155.193 165.533 154.875 165.216C154.567 164.899 154.325 164.511 154.147 164.054C153.979 163.597 153.895 163.079 153.895 162.5V162.416C153.895 161.884 153.984 161.399 154.161 160.96C154.348 160.521 154.6 160.148 154.917 159.84C155.235 159.532 155.603 159.294 156.023 159.126C156.453 158.949 156.91 158.86 157.395 158.86C157.993 158.86 158.506 158.967 158.935 159.182C159.365 159.387 159.719 159.653 159.999 159.98C160.279 160.297 160.485 160.652 160.615 161.044C160.746 161.427 160.811 161.8 160.811 162.164V163.102H155.715ZM157.381 160.456C156.933 160.456 156.569 160.573 156.289 160.806C156.009 161.03 155.827 161.291 155.743 161.59H159.019C158.963 161.263 158.786 160.993 158.487 160.778C158.198 160.563 157.829 160.456 157.381 160.456ZM171.25 159.056H173.224V157.628C173.224 157.227 173.359 156.891 173.63 156.62C173.901 156.34 174.237 156.2 174.638 156.2H177.466V157.88H175.366C175.114 157.88 174.988 158.02 174.988 158.3V159.056H177.718V160.736H174.988V166H173.224V160.736H171.25V159.056ZM179.542 159.056H182.482V160.064H182.734C182.865 159.681 183.084 159.387 183.392 159.182C183.709 158.967 184.087 158.86 184.526 158.86C185.217 158.86 185.772 159.079 186.192 159.518C186.612 159.947 186.822 160.605 186.822 161.492V161.8L185.002 161.968V161.772C185.002 161.389 184.904 161.086 184.708 160.862C184.512 160.629 184.218 160.512 183.826 160.512C183.434 160.512 183.126 160.647 182.902 160.918C182.678 161.189 182.566 161.576 182.566 162.08V164.32H184.162V166H179.374V164.32H180.802V160.736H179.542V159.056ZM195.254 162.612C195.254 163.191 195.156 163.704 194.96 164.152C194.764 164.591 194.498 164.964 194.162 165.272C193.826 165.571 193.439 165.799 193 165.958C192.571 166.117 192.118 166.196 191.642 166.196C191.166 166.196 190.709 166.117 190.27 165.958C189.841 165.799 189.458 165.571 189.122 165.272C188.786 164.964 188.52 164.591 188.324 164.152C188.128 163.704 188.03 163.191 188.03 162.612V162.444C188.03 161.875 188.128 161.371 188.324 160.932C188.52 160.484 188.786 160.106 189.122 159.798C189.458 159.49 189.841 159.257 190.27 159.098C190.709 158.939 191.166 158.86 191.642 158.86C192.118 158.86 192.571 158.939 193 159.098C193.439 159.257 193.826 159.49 194.162 159.798C194.498 160.106 194.764 160.484 194.96 160.932C195.156 161.371 195.254 161.875 195.254 162.444V162.612ZM191.642 164.516C191.894 164.516 192.132 164.474 192.356 164.39C192.58 164.306 192.776 164.185 192.944 164.026C193.112 163.867 193.243 163.676 193.336 163.452C193.439 163.219 193.49 162.957 193.49 162.668V162.388C193.49 162.099 193.439 161.842 193.336 161.618C193.243 161.385 193.112 161.189 192.944 161.03C192.776 160.871 192.58 160.75 192.356 160.666C192.132 160.582 191.894 160.54 191.642 160.54C191.39 160.54 191.152 160.582 190.928 160.666C190.704 160.75 190.508 160.871 190.34 161.03C190.172 161.189 190.037 161.385 189.934 161.618C189.841 161.842 189.794 162.099 189.794 162.388V162.668C189.794 162.957 189.841 163.219 189.934 163.452C190.037 163.676 190.172 163.867 190.34 164.026C190.508 164.185 190.704 164.306 190.928 164.39C191.152 164.474 191.39 164.516 191.642 164.516ZM198.787 166H197.023V159.056H198.787V160.092H199.039C199.197 159.7 199.454 159.397 199.809 159.182C200.163 158.967 200.579 158.86 201.055 158.86C201.391 158.86 201.703 158.916 201.993 159.028C202.291 159.131 202.553 159.294 202.777 159.518C203.001 159.742 203.173 160.027 203.295 160.372C203.425 160.717 203.491 161.128 203.491 161.604V166H201.727V162.052C201.727 161.557 201.605 161.17 201.363 160.89C201.129 160.601 200.789 160.456 200.341 160.456C199.818 160.456 199.426 160.633 199.165 160.988C198.913 161.333 198.787 161.8 198.787 162.388V166ZM205.399 159.056H207.457V156.2H209.221V159.056H211.727V160.736H209.221V163.9C209.221 164.18 209.347 164.32 209.599 164.32H211.475V166H208.535C208.218 166 207.956 165.897 207.751 165.692C207.555 165.487 207.457 165.225 207.457 164.908V160.736H205.399V159.056ZM224.951 161.016C224.951 161.24 225.068 161.403 225.301 161.506C225.535 161.599 225.959 161.679 226.575 161.744C227.285 161.819 227.863 162.033 228.311 162.388C228.759 162.733 228.983 163.219 228.983 163.844V163.928C228.983 164.619 228.731 165.169 228.227 165.58C227.723 165.991 227.014 166.196 226.099 166.196C225.558 166.196 225.096 166.126 224.713 165.986C224.331 165.846 224.013 165.673 223.761 165.468C223.509 165.253 223.313 165.02 223.173 164.768C223.043 164.507 222.954 164.255 222.907 164.012L224.531 163.48C224.606 163.779 224.76 164.04 224.993 164.264C225.236 164.488 225.605 164.6 226.099 164.6C226.538 164.6 226.837 164.535 226.995 164.404C227.163 164.264 227.247 164.115 227.247 163.956C227.247 163.863 227.224 163.779 227.177 163.704C227.14 163.62 227.065 163.545 226.953 163.48C226.841 163.405 226.687 163.345 226.491 163.298C226.305 163.251 226.067 163.214 225.777 163.186C224.993 163.121 224.368 162.92 223.901 162.584C223.444 162.239 223.215 161.735 223.215 161.072V160.988C223.215 160.643 223.29 160.339 223.439 160.078C223.589 159.817 223.785 159.597 224.027 159.42C224.27 159.233 224.55 159.093 224.867 159C225.185 158.907 225.511 158.86 225.847 158.86C226.286 158.86 226.664 158.916 226.981 159.028C227.308 159.131 227.583 159.271 227.807 159.448C228.031 159.616 228.213 159.807 228.353 160.022C228.493 160.227 228.601 160.428 228.675 160.624L227.079 161.268C226.995 161.016 226.851 160.82 226.645 160.68C226.44 160.531 226.174 160.456 225.847 160.456C225.549 160.456 225.325 160.512 225.175 160.624C225.026 160.727 224.951 160.857 224.951 161.016ZM231.438 164.32H233.79V160.736H231.606V159.056H235.554V164.32H237.57V166H231.438V164.32ZM235.988 156.998C235.988 157.185 235.95 157.362 235.876 157.53C235.81 157.689 235.717 157.829 235.596 157.95C235.474 158.062 235.33 158.155 235.162 158.23C235.003 158.295 234.835 158.328 234.658 158.328C234.471 158.328 234.298 158.295 234.14 158.23C233.981 158.155 233.841 158.062 233.72 157.95C233.598 157.829 233.5 157.689 233.426 157.53C233.36 157.362 233.328 157.185 233.328 156.998C233.328 156.811 233.36 156.639 233.426 156.48C233.5 156.312 233.598 156.172 233.72 156.06C233.841 155.939 233.981 155.845 234.14 155.78C234.298 155.705 234.471 155.668 234.658 155.668C234.835 155.668 235.003 155.705 235.162 155.78C235.33 155.845 235.474 155.939 235.596 156.06C235.717 156.172 235.81 156.312 235.876 156.48C235.95 156.639 235.988 156.811 235.988 156.998ZM244.868 164.992H244.616C244.541 165.151 244.448 165.305 244.336 165.454C244.233 165.594 244.093 165.72 243.916 165.832C243.748 165.944 243.543 166.033 243.3 166.098C243.067 166.163 242.782 166.196 242.446 166.196C242.017 166.196 241.615 166.121 241.242 165.972C240.878 165.813 240.556 165.585 240.276 165.286C240.005 164.978 239.791 164.605 239.632 164.166C239.483 163.727 239.408 163.223 239.408 162.654V162.402C239.408 161.842 239.487 161.343 239.646 160.904C239.814 160.465 240.038 160.097 240.318 159.798C240.607 159.49 240.939 159.257 241.312 159.098C241.695 158.939 242.096 158.86 242.516 158.86C243.076 158.86 243.519 158.967 243.846 159.182C244.173 159.387 244.429 159.681 244.616 160.064H244.868V156.2H246.632V166H244.868V164.992ZM243.02 164.516C243.571 164.516 244.014 164.343 244.35 163.998C244.695 163.643 244.868 163.181 244.868 162.612V162.444C244.868 161.875 244.695 161.417 244.35 161.072C244.014 160.717 243.571 160.54 243.02 160.54C242.469 160.54 242.021 160.713 241.676 161.058C241.34 161.394 241.172 161.856 241.172 162.444V162.612C241.172 163.2 241.34 163.667 241.676 164.012C242.021 164.348 242.469 164.516 243.02 164.516ZM250.01 163.102C250.02 163.307 250.066 163.499 250.15 163.676C250.244 163.844 250.365 163.993 250.514 164.124C250.673 164.245 250.85 164.343 251.046 164.418C251.252 164.483 251.466 164.516 251.69 164.516C252.129 164.516 252.465 164.441 252.698 164.292C252.932 164.133 253.1 163.947 253.202 163.732L254.714 164.572C254.63 164.749 254.514 164.936 254.364 165.132C254.215 165.319 254.019 165.491 253.776 165.65C253.543 165.809 253.254 165.939 252.908 166.042C252.572 166.145 252.176 166.196 251.718 166.196C251.196 166.196 250.72 166.112 250.29 165.944C249.861 165.776 249.488 165.533 249.17 165.216C248.862 164.899 248.62 164.511 248.442 164.054C248.274 163.597 248.19 163.079 248.19 162.5V162.416C248.19 161.884 248.279 161.399 248.456 160.96C248.643 160.521 248.895 160.148 249.212 159.84C249.53 159.532 249.898 159.294 250.318 159.126C250.748 158.949 251.205 158.86 251.69 158.86C252.288 158.86 252.801 158.967 253.23 159.182C253.66 159.387 254.014 159.653 254.294 159.98C254.574 160.297 254.78 160.652 254.91 161.044C255.041 161.427 255.106 161.8 255.106 162.164V163.102H250.01ZM251.676 160.456C251.228 160.456 250.864 160.573 250.584 160.806C250.304 161.03 250.122 161.291 250.038 161.59H253.314C253.258 161.263 253.081 160.993 252.782 160.778C252.493 160.563 252.124 160.456 251.676 160.456ZM113.818 183.612C113.818 184.191 113.72 184.704 113.524 185.152C113.328 185.591 113.062 185.964 112.726 186.272C112.39 186.571 112.003 186.799 111.564 186.958C111.135 187.117 110.682 187.196 110.206 187.196C109.73 187.196 109.273 187.117 108.834 186.958C108.405 186.799 108.022 186.571 107.686 186.272C107.35 185.964 107.084 185.591 106.888 185.152C106.692 184.704 106.594 184.191 106.594 183.612V183.444C106.594 182.875 106.692 182.371 106.888 181.932C107.084 181.484 107.35 181.106 107.686 180.798C108.022 180.49 108.405 180.257 108.834 180.098C109.273 179.939 109.73 179.86 110.206 179.86C110.682 179.86 111.135 179.939 111.564 180.098C112.003 180.257 112.39 180.49 112.726 180.798C113.062 181.106 113.328 181.484 113.524 181.932C113.72 182.371 113.818 182.875 113.818 183.444V183.612ZM110.206 185.516C110.458 185.516 110.696 185.474 110.92 185.39C111.144 185.306 111.34 185.185 111.508 185.026C111.676 184.867 111.807 184.676 111.9 184.452C112.003 184.219 112.054 183.957 112.054 183.668V183.388C112.054 183.099 112.003 182.842 111.9 182.618C111.807 182.385 111.676 182.189 111.508 182.03C111.34 181.871 111.144 181.75 110.92 181.666C110.696 181.582 110.458 181.54 110.206 181.54C109.954 181.54 109.716 181.582 109.492 181.666C109.268 181.75 109.072 181.871 108.904 182.03C108.736 182.189 108.601 182.385 108.498 182.618C108.405 182.842 108.358 183.099 108.358 183.388V183.668C108.358 183.957 108.405 184.219 108.498 184.452C108.601 184.676 108.736 184.867 108.904 185.026C109.072 185.185 109.268 185.306 109.492 185.39C109.716 185.474 109.954 185.516 110.206 185.516ZM115.53 180.056H117.504V178.628C117.504 178.227 117.639 177.891 117.91 177.62C118.181 177.34 118.517 177.2 118.918 177.2H121.746V178.88H119.646C119.394 178.88 119.268 179.02 119.268 179.3V180.056H121.998V181.736H119.268V187H117.504V181.736H115.53V180.056ZM132.535 180.056H134.593V177.2H136.357V180.056H138.863V181.736H136.357V184.9C136.357 185.18 136.483 185.32 136.735 185.32H138.611V187H135.671C135.353 187 135.092 186.897 134.887 186.692C134.691 186.487 134.593 186.225 134.593 185.908V181.736H132.535V180.056ZM143.095 187H141.331V177.2H143.095V181.176H143.347C143.524 180.756 143.786 180.434 144.131 180.21C144.476 179.977 144.901 179.86 145.405 179.86C145.75 179.86 146.068 179.916 146.357 180.028C146.646 180.14 146.898 180.308 147.113 180.532C147.328 180.756 147.496 181.045 147.617 181.4C147.738 181.745 147.799 182.156 147.799 182.632V187H146.035V183.052C146.035 182.557 145.914 182.17 145.671 181.89C145.438 181.601 145.097 181.456 144.649 181.456C144.126 181.456 143.734 181.633 143.473 181.988C143.221 182.333 143.095 182.8 143.095 183.388V187ZM151.429 184.102C151.439 184.307 151.485 184.499 151.569 184.676C151.663 184.844 151.784 184.993 151.933 185.124C152.092 185.245 152.269 185.343 152.465 185.418C152.671 185.483 152.885 185.516 153.109 185.516C153.548 185.516 153.884 185.441 154.117 185.292C154.351 185.133 154.519 184.947 154.621 184.732L156.133 185.572C156.049 185.749 155.933 185.936 155.783 186.132C155.634 186.319 155.438 186.491 155.195 186.65C154.962 186.809 154.673 186.939 154.327 187.042C153.991 187.145 153.595 187.196 153.137 187.196C152.615 187.196 152.139 187.112 151.709 186.944C151.28 186.776 150.907 186.533 150.589 186.216C150.281 185.899 150.039 185.511 149.861 185.054C149.693 184.597 149.609 184.079 149.609 183.5V183.416C149.609 182.884 149.698 182.399 149.875 181.96C150.062 181.521 150.314 181.148 150.631 180.84C150.949 180.532 151.317 180.294 151.737 180.126C152.167 179.949 152.624 179.86 153.109 179.86C153.707 179.86 154.22 179.967 154.649 180.182C155.079 180.387 155.433 180.653 155.713 180.98C155.993 181.297 156.199 181.652 156.329 182.044C156.46 182.427 156.525 182.8 156.525 183.164V184.102H151.429ZM153.095 181.456C152.647 181.456 152.283 181.573 152.003 181.806C151.723 182.03 151.541 182.291 151.457 182.59H154.733C154.677 182.263 154.5 181.993 154.201 181.778C153.912 181.563 153.543 181.456 153.095 181.456ZM172.004 185.992H171.752C171.677 186.151 171.584 186.305 171.472 186.454C171.369 186.594 171.229 186.72 171.052 186.832C170.884 186.944 170.678 187.033 170.436 187.098C170.202 187.163 169.918 187.196 169.582 187.196C169.152 187.196 168.751 187.121 168.378 186.972C168.014 186.813 167.692 186.585 167.412 186.286C167.141 185.978 166.926 185.605 166.768 185.166C166.618 184.727 166.544 184.223 166.544 183.654V183.402C166.544 182.842 166.623 182.343 166.782 181.904C166.95 181.465 167.174 181.097 167.454 180.798C167.743 180.49 168.074 180.257 168.448 180.098C168.83 179.939 169.232 179.86 169.652 179.86C170.212 179.86 170.655 179.967 170.982 180.182C171.308 180.387 171.565 180.681 171.752 181.064H172.004V177.2H173.768V187H172.004V185.992ZM170.156 185.516C170.706 185.516 171.15 185.343 171.486 184.998C171.831 184.643 172.004 184.181 172.004 183.612V183.444C172.004 182.875 171.831 182.417 171.486 182.072C171.15 181.717 170.706 181.54 170.156 181.54C169.605 181.54 169.157 181.713 168.812 182.058C168.476 182.394 168.308 182.856 168.308 183.444V183.612C168.308 184.2 168.476 184.667 168.812 185.012C169.157 185.348 169.605 185.516 170.156 185.516ZM182.396 183.612C182.396 184.191 182.298 184.704 182.102 185.152C181.906 185.591 181.64 185.964 181.304 186.272C180.968 186.571 180.581 186.799 180.142 186.958C179.713 187.117 179.26 187.196 178.784 187.196C178.308 187.196 177.851 187.117 177.412 186.958C176.983 186.799 176.6 186.571 176.264 186.272C175.928 185.964 175.662 185.591 175.466 185.152C175.27 184.704 175.172 184.191 175.172 183.612V183.444C175.172 182.875 175.27 182.371 175.466 181.932C175.662 181.484 175.928 181.106 176.264 180.798C176.6 180.49 176.983 180.257 177.412 180.098C177.851 179.939 178.308 179.86 178.784 179.86C179.26 179.86 179.713 179.939 180.142 180.098C180.581 180.257 180.968 180.49 181.304 180.798C181.64 181.106 181.906 181.484 182.102 181.932C182.298 182.371 182.396 182.875 182.396 183.444V183.612ZM178.784 185.516C179.036 185.516 179.274 185.474 179.498 185.39C179.722 185.306 179.918 185.185 180.086 185.026C180.254 184.867 180.385 184.676 180.478 184.452C180.581 184.219 180.632 183.957 180.632 183.668V183.388C180.632 183.099 180.581 182.842 180.478 182.618C180.385 182.385 180.254 182.189 180.086 182.03C179.918 181.871 179.722 181.75 179.498 181.666C179.274 181.582 179.036 181.54 178.784 181.54C178.532 181.54 178.294 181.582 178.07 181.666C177.846 181.75 177.65 181.871 177.482 182.03C177.314 182.189 177.179 182.385 177.076 182.618C176.983 182.842 176.936 183.099 176.936 183.388V183.668C176.936 183.957 176.983 184.219 177.076 184.452C177.179 184.676 177.314 184.867 177.482 185.026C177.65 185.185 177.846 185.306 178.07 185.39C178.294 185.474 178.532 185.516 178.784 185.516ZM190.94 184.452C190.782 185.273 190.404 185.936 189.806 186.44C189.218 186.944 188.43 187.196 187.44 187.196C186.927 187.196 186.446 187.117 185.998 186.958C185.56 186.799 185.177 186.571 184.85 186.272C184.524 185.973 184.267 185.605 184.08 185.166C183.894 184.727 183.8 184.228 183.8 183.668V183.5C183.8 182.94 183.894 182.436 184.08 181.988C184.267 181.54 184.524 181.157 184.85 180.84C185.186 180.523 185.574 180.28 186.012 180.112C186.46 179.944 186.936 179.86 187.44 179.86C188.411 179.86 189.195 180.112 189.792 180.616C190.399 181.12 190.782 181.783 190.94 182.604L189.204 183.052C189.148 182.641 188.971 182.287 188.672 181.988C188.374 181.689 187.954 181.54 187.412 181.54C187.16 181.54 186.922 181.587 186.698 181.68C186.474 181.773 186.278 181.909 186.11 182.086C185.942 182.254 185.807 182.464 185.704 182.716C185.611 182.959 185.564 183.234 185.564 183.542V183.626C185.564 183.934 185.611 184.209 185.704 184.452C185.807 184.685 185.942 184.881 186.11 185.04C186.278 185.199 186.474 185.32 186.698 185.404C186.922 185.479 187.16 185.516 187.412 185.516C187.954 185.516 188.364 185.381 188.644 185.11C188.934 184.839 189.12 184.475 189.204 184.018L190.94 184.452ZM197.441 180.056H199.205V187H197.441V185.992H197.189C196.881 186.795 196.218 187.196 195.201 187.196C194.855 187.196 194.533 187.14 194.235 187.028C193.936 186.916 193.675 186.743 193.451 186.51C193.227 186.277 193.049 185.987 192.919 185.642C192.797 185.287 192.737 184.872 192.737 184.396V180.056H194.501V184.032C194.501 184.527 194.617 184.914 194.851 185.194C195.084 185.465 195.434 185.6 195.901 185.6C196.433 185.6 196.82 185.432 197.063 185.096C197.315 184.751 197.441 184.284 197.441 183.696V180.056ZM208.281 187H206.517V182.128C206.517 181.932 206.465 181.787 206.363 181.694C206.269 181.591 206.143 181.54 205.985 181.54C205.798 181.54 205.649 181.596 205.537 181.708C205.434 181.82 205.383 181.988 205.383 182.212V187H203.619V182.128C203.619 181.932 203.563 181.787 203.451 181.694C203.348 181.591 203.222 181.54 203.073 181.54C202.905 181.54 202.765 181.596 202.653 181.708C202.541 181.82 202.485 181.988 202.485 182.212V187H200.721V180.056H202.485V180.728H202.737C202.793 180.476 202.919 180.271 203.115 180.112C203.32 179.944 203.586 179.86 203.913 179.86C204.221 179.86 204.482 179.944 204.697 180.112C204.911 180.271 205.056 180.476 205.131 180.728H205.383C205.457 180.476 205.611 180.271 205.845 180.112C206.087 179.944 206.386 179.86 206.741 179.86C207.207 179.86 207.581 180.019 207.861 180.336C208.141 180.644 208.281 181.073 208.281 181.624V187ZM211.435 184.102C211.444 184.307 211.491 184.499 211.575 184.676C211.668 184.844 211.79 184.993 211.939 185.124C212.098 185.245 212.275 185.343 212.471 185.418C212.676 185.483 212.891 185.516 213.115 185.516C213.554 185.516 213.89 185.441 214.123 185.292C214.356 185.133 214.524 184.947 214.627 184.732L216.139 185.572C216.055 185.749 215.938 185.936 215.789 186.132C215.64 186.319 215.444 186.491 215.201 186.65C214.968 186.809 214.678 186.939 214.333 187.042C213.997 187.145 213.6 187.196 213.143 187.196C212.62 187.196 212.144 187.112 211.715 186.944C211.286 186.776 210.912 186.533 210.595 186.216C210.287 185.899 210.044 185.511 209.867 185.054C209.699 184.597 209.615 184.079 209.615 183.5V183.416C209.615 182.884 209.704 182.399 209.881 181.96C210.068 181.521 210.32 181.148 210.637 180.84C210.954 180.532 211.323 180.294 211.743 180.126C212.172 179.949 212.63 179.86 213.115 179.86C213.712 179.86 214.226 179.967 214.655 180.182C215.084 180.387 215.439 180.653 215.719 180.98C215.999 181.297 216.204 181.652 216.335 182.044C216.466 182.427 216.531 182.8 216.531 183.164V184.102H211.435ZM213.101 181.456C212.653 181.456 212.289 181.573 212.009 181.806C211.729 182.03 211.547 182.291 211.463 182.59H214.739C214.683 182.263 214.506 181.993 214.207 181.778C213.918 181.563 213.549 181.456 213.101 181.456ZM220.217 187H218.453V180.056H220.217V181.092H220.469C220.628 180.7 220.885 180.397 221.239 180.182C221.594 179.967 222.009 179.86 222.485 179.86C222.821 179.86 223.134 179.916 223.423 180.028C223.722 180.131 223.983 180.294 224.207 180.518C224.431 180.742 224.604 181.027 224.725 181.372C224.856 181.717 224.921 182.128 224.921 182.604V187H223.157V183.052C223.157 182.557 223.036 182.17 222.793 181.89C222.56 181.601 222.219 181.456 221.771 181.456C221.249 181.456 220.857 181.633 220.595 181.988C220.343 182.333 220.217 182.8 220.217 183.388V187ZM226.83 180.056H228.888V177.2H230.652V180.056H233.158V181.736H230.652V184.9C230.652 185.18 230.778 185.32 231.03 185.32H232.906V187H229.966C229.648 187 229.387 186.897 229.182 186.692C228.986 186.487 228.888 186.225 228.888 185.908V181.736H226.83V180.056ZM240.12 185.866C240.12 186.053 240.083 186.23 240.008 186.398C239.943 186.557 239.849 186.697 239.728 186.818C239.607 186.93 239.462 187.019 239.294 187.084C239.135 187.159 238.967 187.196 238.79 187.196C238.603 187.196 238.431 187.159 238.272 187.084C238.113 187.019 237.973 186.93 237.852 186.818C237.731 186.697 237.633 186.557 237.558 186.398C237.493 186.23 237.46 186.053 237.46 185.866C237.46 185.679 237.493 185.507 237.558 185.348C237.633 185.18 237.731 185.04 237.852 184.928C237.973 184.807 238.113 184.713 238.272 184.648C238.431 184.573 238.603 184.536 238.79 184.536C238.967 184.536 239.135 184.573 239.294 184.648C239.462 184.713 239.607 184.807 239.728 184.928C239.849 185.04 239.943 185.18 240.008 185.348C240.083 185.507 240.12 185.679 240.12 185.866Z" fill="white"/>
<path d="M450.78 156.2H454.336C455.549 156.2 456.45 156.485 457.038 157.054C457.626 157.614 457.92 158.487 457.92 159.672V162.528C457.92 163.713 457.626 164.591 457.038 165.16C456.45 165.72 455.549 166 454.336 166H450.78V164.222H451.704V157.964H450.78V156.2ZM454.336 164.236C454.98 164.236 455.428 164.087 455.68 163.788C455.941 163.48 456.072 163.004 456.072 162.36V159.672C456.072 159.112 455.941 158.687 455.68 158.398C455.428 158.109 454.98 157.964 454.336 157.964H453.552V164.236H454.336ZM466.604 162.612C466.604 163.191 466.506 163.704 466.31 164.152C466.114 164.591 465.848 164.964 465.512 165.272C465.176 165.571 464.789 165.799 464.35 165.958C463.921 166.117 463.468 166.196 462.992 166.196C462.516 166.196 462.059 166.117 461.62 165.958C461.191 165.799 460.808 165.571 460.472 165.272C460.136 164.964 459.87 164.591 459.674 164.152C459.478 163.704 459.38 163.191 459.38 162.612V162.444C459.38 161.875 459.478 161.371 459.674 160.932C459.87 160.484 460.136 160.106 460.472 159.798C460.808 159.49 461.191 159.257 461.62 159.098C462.059 158.939 462.516 158.86 462.992 158.86C463.468 158.86 463.921 158.939 464.35 159.098C464.789 159.257 465.176 159.49 465.512 159.798C465.848 160.106 466.114 160.484 466.31 160.932C466.506 161.371 466.604 161.875 466.604 162.444V162.612ZM462.992 164.516C463.244 164.516 463.482 164.474 463.706 164.39C463.93 164.306 464.126 164.185 464.294 164.026C464.462 163.867 464.593 163.676 464.686 163.452C464.789 163.219 464.84 162.957 464.84 162.668V162.388C464.84 162.099 464.789 161.842 464.686 161.618C464.593 161.385 464.462 161.189 464.294 161.03C464.126 160.871 463.93 160.75 463.706 160.666C463.482 160.582 463.244 160.54 462.992 160.54C462.74 160.54 462.502 160.582 462.278 160.666C462.054 160.75 461.858 160.871 461.69 161.03C461.522 161.189 461.387 161.385 461.284 161.618C461.191 161.842 461.144 162.099 461.144 162.388V162.668C461.144 162.957 461.191 163.219 461.284 163.452C461.387 163.676 461.522 163.867 461.69 164.026C461.858 164.185 462.054 164.306 462.278 164.39C462.502 164.474 462.74 164.516 462.992 164.516ZM475.176 166H472.124L471.732 160.736V159.896H471.396V160.736L471.004 166H467.952L467.49 159.056H469.114L469.422 164.32V165.16H469.758V164.32L470.108 159.056H473.02L473.37 164.32V165.16H473.706V164.32L474.014 159.056H475.638L475.176 166ZM478.709 166H476.945V159.056H478.709V160.092H478.961C479.119 159.7 479.376 159.397 479.731 159.182C480.085 158.967 480.501 158.86 480.977 158.86C481.313 158.86 481.625 158.916 481.915 159.028C482.213 159.131 482.475 159.294 482.699 159.518C482.923 159.742 483.095 160.027 483.217 160.372C483.347 160.717 483.413 161.128 483.413 161.604V166H481.649V162.052C481.649 161.557 481.527 161.17 481.285 160.89C481.051 160.601 480.711 160.456 480.263 160.456C479.74 160.456 479.348 160.633 479.087 160.988C478.835 161.333 478.709 161.8 478.709 162.388V166ZM485.475 164.32H487.911V157.88H485.559V156.2H489.675V164.32H491.943V166H485.475V164.32ZM500.893 162.612C500.893 163.191 500.795 163.704 500.599 164.152C500.403 164.591 500.137 164.964 499.801 165.272C499.465 165.571 499.078 165.799 498.639 165.958C498.21 166.117 497.757 166.196 497.281 166.196C496.805 166.196 496.348 166.117 495.909 165.958C495.48 165.799 495.097 165.571 494.761 165.272C494.425 164.964 494.159 164.591 493.963 164.152C493.767 163.704 493.669 163.191 493.669 162.612V162.444C493.669 161.875 493.767 161.371 493.963 160.932C494.159 160.484 494.425 160.106 494.761 159.798C495.097 159.49 495.48 159.257 495.909 159.098C496.348 158.939 496.805 158.86 497.281 158.86C497.757 158.86 498.21 158.939 498.639 159.098C499.078 159.257 499.465 159.49 499.801 159.798C500.137 160.106 500.403 160.484 500.599 160.932C500.795 161.371 500.893 161.875 500.893 162.444V162.612ZM497.281 164.516C497.533 164.516 497.771 164.474 497.995 164.39C498.219 164.306 498.415 164.185 498.583 164.026C498.751 163.867 498.882 163.676 498.975 163.452C499.078 163.219 499.129 162.957 499.129 162.668V162.388C499.129 162.099 499.078 161.842 498.975 161.618C498.882 161.385 498.751 161.189 498.583 161.03C498.415 160.871 498.219 160.75 497.995 160.666C497.771 160.582 497.533 160.54 497.281 160.54C497.029 160.54 496.791 160.582 496.567 160.666C496.343 160.75 496.147 160.871 495.979 161.03C495.811 161.189 495.676 161.385 495.573 161.618C495.48 161.842 495.433 162.099 495.433 162.388V162.668C495.433 162.957 495.48 163.219 495.573 163.452C495.676 163.676 495.811 163.867 495.979 164.026C496.147 164.185 496.343 164.306 496.567 164.39C496.791 164.474 497.029 164.516 497.281 164.516ZM507.155 164.992C506.969 165.431 506.707 165.743 506.371 165.93C506.035 166.107 505.643 166.196 505.195 166.196C504.775 166.196 504.379 166.117 504.005 165.958C503.641 165.799 503.319 165.566 503.039 165.258C502.759 164.95 502.535 164.577 502.367 164.138C502.209 163.699 502.129 163.2 502.129 162.64V162.416C502.129 161.865 502.209 161.371 502.367 160.932C502.526 160.493 502.741 160.12 503.011 159.812C503.282 159.504 503.595 159.271 503.949 159.112C504.313 158.944 504.701 158.86 505.111 158.86C505.606 158.86 506.003 158.944 506.301 159.112C506.609 159.28 506.852 159.541 507.029 159.896H507.281V159.056H509.045V163.9C509.045 164.18 509.171 164.32 509.423 164.32H509.689V166H508.485C508.168 166 507.907 165.907 507.701 165.72C507.505 165.533 507.407 165.291 507.407 164.992H507.155ZM505.587 164.516C506.101 164.516 506.511 164.348 506.819 164.012C507.127 163.667 507.281 163.2 507.281 162.612V162.444C507.281 161.856 507.127 161.394 506.819 161.058C506.511 160.713 506.101 160.54 505.587 160.54C505.074 160.54 504.663 160.713 504.355 161.058C504.047 161.394 503.893 161.856 503.893 162.444V162.612C503.893 163.2 504.047 163.667 504.355 164.012C504.663 164.348 505.074 164.516 505.587 164.516ZM516.218 164.992H515.966C515.891 165.151 515.798 165.305 515.686 165.454C515.583 165.594 515.443 165.72 515.266 165.832C515.098 165.944 514.892 166.033 514.65 166.098C514.416 166.163 514.132 166.196 513.796 166.196C513.366 166.196 512.965 166.121 512.592 165.972C512.228 165.813 511.906 165.585 511.626 165.286C511.355 164.978 511.14 164.605 510.982 164.166C510.832 163.727 510.758 163.223 510.758 162.654V162.402C510.758 161.842 510.837 161.343 510.996 160.904C511.164 160.465 511.388 160.097 511.668 159.798C511.957 159.49 512.288 159.257 512.662 159.098C513.044 158.939 513.446 158.86 513.866 158.86C514.426 158.86 514.869 158.967 515.196 159.182C515.522 159.387 515.779 159.681 515.966 160.064H516.218V156.2H517.982V166H516.218V164.992ZM514.37 164.516C514.92 164.516 515.364 164.343 515.7 163.998C516.045 163.643 516.218 163.181 516.218 162.612V162.444C516.218 161.875 516.045 161.417 515.7 161.072C515.364 160.717 514.92 160.54 514.37 160.54C513.819 160.54 513.371 160.713 513.026 161.058C512.69 161.394 512.522 161.856 512.522 162.444V162.612C512.522 163.2 512.69 163.667 513.026 164.012C513.371 164.348 513.819 164.516 514.37 164.516ZM528.182 159.056H530.24V156.2H532.004V159.056H534.51V160.736H532.004V163.9C532.004 164.18 532.13 164.32 532.382 164.32H534.258V166H531.318C531.001 166 530.739 165.897 530.534 165.692C530.338 165.487 530.24 165.225 530.24 164.908V160.736H528.182V159.056ZM538.742 166H536.978V156.2H538.742V160.176H538.994C539.172 159.756 539.433 159.434 539.778 159.21C540.124 158.977 540.548 158.86 541.052 158.86C541.398 158.86 541.715 158.916 542.004 159.028C542.294 159.14 542.546 159.308 542.76 159.532C542.975 159.756 543.143 160.045 543.264 160.4C543.386 160.745 543.446 161.156 543.446 161.632V166H541.682V162.052C541.682 161.557 541.561 161.17 541.318 160.89C541.085 160.601 540.744 160.456 540.296 160.456C539.774 160.456 539.382 160.633 539.12 160.988C538.868 161.333 538.742 161.8 538.742 162.388V166ZM547.077 163.102C547.086 163.307 547.133 163.499 547.217 163.676C547.31 163.844 547.431 163.993 547.581 164.124C547.739 164.245 547.917 164.343 548.113 164.418C548.318 164.483 548.533 164.516 548.757 164.516C549.195 164.516 549.531 164.441 549.765 164.292C549.998 164.133 550.166 163.947 550.269 163.732L551.781 164.572C551.697 164.749 551.58 164.936 551.431 165.132C551.281 165.319 551.085 165.491 550.843 165.65C550.609 165.809 550.32 165.939 549.975 166.042C549.639 166.145 549.242 166.196 548.785 166.196C548.262 166.196 547.786 166.112 547.357 165.944C546.927 165.776 546.554 165.533 546.237 165.216C545.929 164.899 545.686 164.511 545.509 164.054C545.341 163.597 545.257 163.079 545.257 162.5V162.416C545.257 161.884 545.345 161.399 545.523 160.96C545.709 160.521 545.961 160.148 546.279 159.84C546.596 159.532 546.965 159.294 547.385 159.126C547.814 158.949 548.271 158.86 548.757 158.86C549.354 158.86 549.867 158.967 550.297 159.182C550.726 159.387 551.081 159.653 551.361 159.98C551.641 160.297 551.846 160.652 551.977 161.044C552.107 161.427 552.173 161.8 552.173 162.164V163.102H547.077ZM548.743 160.456C548.295 160.456 547.931 160.573 547.651 160.806C547.371 161.03 547.189 161.291 547.105 161.59H550.381C550.325 161.263 550.147 160.993 549.849 160.778C549.559 160.563 549.191 160.456 548.743 160.456ZM564.137 166H562.373V156.2H564.137V160.064H564.389C564.576 159.681 564.847 159.387 565.201 159.182C565.556 158.967 566.009 158.86 566.559 158.86C566.97 158.86 567.357 158.939 567.721 159.098C568.095 159.257 568.417 159.49 568.687 159.798C568.967 160.097 569.187 160.465 569.345 160.904C569.513 161.343 569.597 161.842 569.597 162.402V162.654C569.597 163.223 569.518 163.727 569.359 164.166C569.201 164.605 568.986 164.978 568.715 165.286C568.445 165.585 568.123 165.813 567.749 165.972C567.385 166.121 566.989 166.196 566.559 166.196C566.242 166.196 565.967 166.163 565.733 166.098C565.5 166.033 565.295 165.944 565.117 165.832C564.949 165.72 564.805 165.594 564.683 165.454C564.571 165.305 564.473 165.151 564.389 164.992H564.137V166ZM565.985 164.516C566.536 164.516 566.979 164.348 567.315 164.012C567.661 163.667 567.833 163.2 567.833 162.612V162.444C567.833 161.856 567.661 161.394 567.315 161.058C566.979 160.713 566.536 160.54 565.985 160.54C565.435 160.54 564.987 160.717 564.641 161.072C564.305 161.417 564.137 161.875 564.137 162.444V162.612C564.137 163.181 564.305 163.643 564.641 163.998C564.987 164.343 565.435 164.516 565.985 164.516ZM575.733 164.992C575.547 165.431 575.285 165.743 574.949 165.93C574.613 166.107 574.221 166.196 573.773 166.196C573.353 166.196 572.957 166.117 572.583 165.958C572.219 165.799 571.897 165.566 571.617 165.258C571.337 164.95 571.113 164.577 570.945 164.138C570.787 163.699 570.707 163.2 570.707 162.64V162.416C570.707 161.865 570.787 161.371 570.945 160.932C571.104 160.493 571.319 160.12 571.589 159.812C571.86 159.504 572.173 159.271 572.527 159.112C572.891 158.944 573.279 158.86 573.689 158.86C574.184 158.86 574.581 158.944 574.879 159.112C575.187 159.28 575.43 159.541 575.607 159.896H575.859V159.056H577.623V163.9C577.623 164.18 577.749 164.32 578.001 164.32H578.267V166H577.063C576.746 166 576.485 165.907 576.279 165.72C576.083 165.533 575.985 165.291 575.985 164.992H575.733ZM574.165 164.516C574.679 164.516 575.089 164.348 575.397 164.012C575.705 163.667 575.859 163.2 575.859 162.612V162.444C575.859 161.856 575.705 161.394 575.397 161.058C575.089 160.713 574.679 160.54 574.165 160.54C573.652 160.54 573.241 160.713 572.933 161.058C572.625 161.394 572.471 161.856 572.471 162.444V162.612C572.471 163.2 572.625 163.667 572.933 164.012C573.241 164.348 573.652 164.516 574.165 164.516ZM586.588 163.452C586.429 164.273 586.051 164.936 585.454 165.44C584.866 165.944 584.077 166.196 583.088 166.196C582.574 166.196 582.094 166.117 581.646 165.958C581.207 165.799 580.824 165.571 580.498 165.272C580.171 164.973 579.914 164.605 579.728 164.166C579.541 163.727 579.448 163.228 579.448 162.668V162.5C579.448 161.94 579.541 161.436 579.728 160.988C579.914 160.54 580.171 160.157 580.498 159.84C580.834 159.523 581.221 159.28 581.66 159.112C582.108 158.944 582.584 158.86 583.088 158.86C584.058 158.86 584.842 159.112 585.44 159.616C586.046 160.12 586.429 160.783 586.588 161.604L584.852 162.052C584.796 161.641 584.618 161.287 584.32 160.988C584.021 160.689 583.601 160.54 583.06 160.54C582.808 160.54 582.57 160.587 582.346 160.68C582.122 160.773 581.926 160.909 581.758 161.086C581.59 161.254 581.454 161.464 581.352 161.716C581.258 161.959 581.212 162.234 581.212 162.542V162.626C581.212 162.934 581.258 163.209 581.352 163.452C581.454 163.685 581.59 163.881 581.758 164.04C581.926 164.199 582.122 164.32 582.346 164.404C582.57 164.479 582.808 164.516 583.06 164.516C583.601 164.516 584.012 164.381 584.292 164.11C584.581 163.839 584.768 163.475 584.852 163.018L586.588 163.452ZM590.708 161.604H591.044L592.892 159.056H594.824V159.14L592.584 162.318V162.57L595.048 165.916V166H593.032L591.044 163.284H590.708V166H588.944V156.2H590.708V161.604ZM462.318 183.612C462.318 184.191 462.22 184.704 462.024 185.152C461.828 185.591 461.562 185.964 461.226 186.272C460.89 186.571 460.503 186.799 460.064 186.958C459.635 187.117 459.182 187.196 458.706 187.196C458.23 187.196 457.773 187.117 457.334 186.958C456.905 186.799 456.522 186.571 456.186 186.272C455.85 185.964 455.584 185.591 455.388 185.152C455.192 184.704 455.094 184.191 455.094 183.612V183.444C455.094 182.875 455.192 182.371 455.388 181.932C455.584 181.484 455.85 181.106 456.186 180.798C456.522 180.49 456.905 180.257 457.334 180.098C457.773 179.939 458.23 179.86 458.706 179.86C459.182 179.86 459.635 179.939 460.064 180.098C460.503 180.257 460.89 180.49 461.226 180.798C461.562 181.106 461.828 181.484 462.024 181.932C462.22 182.371 462.318 182.875 462.318 183.444V183.612ZM458.706 185.516C458.958 185.516 459.196 185.474 459.42 185.39C459.644 185.306 459.84 185.185 460.008 185.026C460.176 184.867 460.307 184.676 460.4 184.452C460.503 184.219 460.554 183.957 460.554 183.668V183.388C460.554 183.099 460.503 182.842 460.4 182.618C460.307 182.385 460.176 182.189 460.008 182.03C459.84 181.871 459.644 181.75 459.42 181.666C459.196 181.582 458.958 181.54 458.706 181.54C458.454 181.54 458.216 181.582 457.992 181.666C457.768 181.75 457.572 181.871 457.404 182.03C457.236 182.189 457.101 182.385 456.998 182.618C456.905 182.842 456.858 183.099 456.858 183.388V183.668C456.858 183.957 456.905 184.219 456.998 184.452C457.101 184.676 457.236 184.867 457.404 185.026C457.572 185.185 457.768 185.306 457.992 185.39C458.216 185.474 458.454 185.516 458.706 185.516ZM464.03 180.056H466.004V178.628C466.004 178.227 466.139 177.891 466.41 177.62C466.681 177.34 467.017 177.2 467.418 177.2H470.246V178.88H468.146C467.894 178.88 467.768 179.02 467.768 179.3V180.056H470.498V181.736H467.768V187H466.004V181.736H464.03V180.056ZM481.035 180.056H483.093V177.2H484.857V180.056H487.363V181.736H484.857V184.9C484.857 185.18 484.983 185.32 485.235 185.32H487.111V187H484.171C483.853 187 483.592 186.897 483.387 186.692C483.191 186.487 483.093 186.225 483.093 185.908V181.736H481.035V180.056ZM491.595 187H489.831V177.2H491.595V181.176H491.847C492.024 180.756 492.286 180.434 492.631 180.21C492.976 179.977 493.401 179.86 493.905 179.86C494.25 179.86 494.568 179.916 494.857 180.028C495.146 180.14 495.398 180.308 495.613 180.532C495.828 180.756 495.996 181.045 496.117 181.4C496.238 181.745 496.299 182.156 496.299 182.632V187H494.535V183.052C494.535 182.557 494.414 182.17 494.171 181.89C493.938 181.601 493.597 181.456 493.149 181.456C492.626 181.456 492.234 181.633 491.973 181.988C491.721 182.333 491.595 182.8 491.595 183.388V187ZM499.929 184.102C499.939 184.307 499.985 184.499 500.069 184.676C500.163 184.844 500.284 184.993 500.433 185.124C500.592 185.245 500.769 185.343 500.965 185.418C501.171 185.483 501.385 185.516 501.609 185.516C502.048 185.516 502.384 185.441 502.617 185.292C502.851 185.133 503.019 184.947 503.121 184.732L504.633 185.572C504.549 185.749 504.433 185.936 504.283 186.132C504.134 186.319 503.938 186.491 503.695 186.65C503.462 186.809 503.173 186.939 502.827 187.042C502.491 187.145 502.095 187.196 501.637 187.196C501.115 187.196 500.639 187.112 500.209 186.944C499.78 186.776 499.407 186.533 499.089 186.216C498.781 185.899 498.539 185.511 498.361 185.054C498.193 184.597 498.109 184.079 498.109 183.5V183.416C498.109 182.884 498.198 182.399 498.375 181.96C498.562 181.521 498.814 181.148 499.131 180.84C499.449 180.532 499.817 180.294 500.237 180.126C500.667 179.949 501.124 179.86 501.609 179.86C502.207 179.86 502.72 179.967 503.149 180.182C503.579 180.387 503.933 180.653 504.213 180.98C504.493 181.297 504.699 181.652 504.829 182.044C504.96 182.427 505.025 182.8 505.025 183.164V184.102H499.929ZM501.595 181.456C501.147 181.456 500.783 181.573 500.503 181.806C500.223 182.03 500.041 182.291 499.957 182.59H503.233C503.177 182.263 503 181.993 502.701 181.778C502.412 181.563 502.043 181.456 501.595 181.456ZM520.504 185.992H520.252C520.177 186.151 520.084 186.305 519.972 186.454C519.869 186.594 519.729 186.72 519.552 186.832C519.384 186.944 519.178 187.033 518.936 187.098C518.702 187.163 518.418 187.196 518.082 187.196C517.652 187.196 517.251 187.121 516.878 186.972C516.514 186.813 516.192 186.585 515.912 186.286C515.641 185.978 515.426 185.605 515.268 185.166C515.118 184.727 515.044 184.223 515.044 183.654V183.402C515.044 182.842 515.123 182.343 515.282 181.904C515.45 181.465 515.674 181.097 515.954 180.798C516.243 180.49 516.574 180.257 516.948 180.098C517.33 179.939 517.732 179.86 518.152 179.86C518.712 179.86 519.155 179.967 519.482 180.182C519.808 180.387 520.065 180.681 520.252 181.064H520.504V177.2H522.268V187H520.504V185.992ZM518.656 185.516C519.206 185.516 519.65 185.343 519.986 184.998C520.331 184.643 520.504 184.181 520.504 183.612V183.444C520.504 182.875 520.331 182.417 519.986 182.072C519.65 181.717 519.206 181.54 518.656 181.54C518.105 181.54 517.657 181.713 517.312 182.058C516.976 182.394 516.808 182.856 516.808 183.444V183.612C516.808 184.2 516.976 184.667 517.312 185.012C517.657 185.348 518.105 185.516 518.656 185.516ZM530.896 183.612C530.896 184.191 530.798 184.704 530.602 185.152C530.406 185.591 530.14 185.964 529.804 186.272C529.468 186.571 529.081 186.799 528.642 186.958C528.213 187.117 527.76 187.196 527.284 187.196C526.808 187.196 526.351 187.117 525.912 186.958C525.483 186.799 525.1 186.571 524.764 186.272C524.428 185.964 524.162 185.591 523.966 185.152C523.77 184.704 523.672 184.191 523.672 183.612V183.444C523.672 182.875 523.77 182.371 523.966 181.932C524.162 181.484 524.428 181.106 524.764 180.798C525.1 180.49 525.483 180.257 525.912 180.098C526.351 179.939 526.808 179.86 527.284 179.86C527.76 179.86 528.213 179.939 528.642 180.098C529.081 180.257 529.468 180.49 529.804 180.798C530.14 181.106 530.406 181.484 530.602 181.932C530.798 182.371 530.896 182.875 530.896 183.444V183.612ZM527.284 185.516C527.536 185.516 527.774 185.474 527.998 185.39C528.222 185.306 528.418 185.185 528.586 185.026C528.754 184.867 528.885 184.676 528.978 184.452C529.081 184.219 529.132 183.957 529.132 183.668V183.388C529.132 183.099 529.081 182.842 528.978 182.618C528.885 182.385 528.754 182.189 528.586 182.03C528.418 181.871 528.222 181.75 527.998 181.666C527.774 181.582 527.536 181.54 527.284 181.54C527.032 181.54 526.794 181.582 526.57 181.666C526.346 181.75 526.15 181.871 525.982 182.03C525.814 182.189 525.679 182.385 525.576 182.618C525.483 182.842 525.436 183.099 525.436 183.388V183.668C525.436 183.957 525.483 184.219 525.576 184.452C525.679 184.676 525.814 184.867 525.982 185.026C526.15 185.185 526.346 185.306 526.57 185.39C526.794 185.474 527.032 185.516 527.284 185.516ZM539.44 184.452C539.282 185.273 538.904 185.936 538.306 186.44C537.718 186.944 536.93 187.196 535.94 187.196C535.427 187.196 534.946 187.117 534.498 186.958C534.06 186.799 533.677 186.571 533.35 186.272C533.024 185.973 532.767 185.605 532.58 185.166C532.394 184.727 532.3 184.228 532.3 183.668V183.5C532.3 182.94 532.394 182.436 532.58 181.988C532.767 181.54 533.024 181.157 533.35 180.84C533.686 180.523 534.074 180.28 534.512 180.112C534.96 179.944 535.436 179.86 535.94 179.86C536.911 179.86 537.695 180.112 538.292 180.616C538.899 181.12 539.282 181.783 539.44 182.604L537.704 183.052C537.648 182.641 537.471 182.287 537.172 181.988C536.874 181.689 536.454 181.54 535.912 181.54C535.66 181.54 535.422 181.587 535.198 181.68C534.974 181.773 534.778 181.909 534.61 182.086C534.442 182.254 534.307 182.464 534.204 182.716C534.111 182.959 534.064 183.234 534.064 183.542V183.626C534.064 183.934 534.111 184.209 534.204 184.452C534.307 184.685 534.442 184.881 534.61 185.04C534.778 185.199 534.974 185.32 535.198 185.404C535.422 185.479 535.66 185.516 535.912 185.516C536.454 185.516 536.864 185.381 537.144 185.11C537.434 184.839 537.62 184.475 537.704 184.018L539.44 184.452ZM545.941 180.056H547.705V187H545.941V185.992H545.689C545.381 186.795 544.718 187.196 543.701 187.196C543.355 187.196 543.033 187.14 542.735 187.028C542.436 186.916 542.175 186.743 541.951 186.51C541.727 186.277 541.549 185.987 541.419 185.642C541.297 185.287 541.237 184.872 541.237 184.396V180.056H543.001V184.032C543.001 184.527 543.117 184.914 543.351 185.194C543.584 185.465 543.934 185.6 544.401 185.6C544.933 185.6 545.32 185.432 545.563 185.096C545.815 184.751 545.941 184.284 545.941 183.696V180.056ZM556.781 187H555.017V182.128C555.017 181.932 554.965 181.787 554.863 181.694C554.769 181.591 554.643 181.54 554.485 181.54C554.298 181.54 554.149 181.596 554.037 181.708C553.934 181.82 553.883 181.988 553.883 182.212V187H552.119V182.128C552.119 181.932 552.063 181.787 551.951 181.694C551.848 181.591 551.722 181.54 551.573 181.54C551.405 181.54 551.265 181.596 551.153 181.708C551.041 181.82 550.985 181.988 550.985 182.212V187H549.221V180.056H550.985V180.728H551.237C551.293 180.476 551.419 180.271 551.615 180.112C551.82 179.944 552.086 179.86 552.413 179.86C552.721 179.86 552.982 179.944 553.197 180.112C553.411 180.271 553.556 180.476 553.631 180.728H553.883C553.957 180.476 554.111 180.271 554.345 180.112C554.587 179.944 554.886 179.86 555.241 179.86C555.707 179.86 556.081 180.019 556.361 180.336C556.641 180.644 556.781 181.073 556.781 181.624V187ZM559.935 184.102C559.944 184.307 559.991 184.499 560.075 184.676C560.168 184.844 560.29 184.993 560.439 185.124C560.598 185.245 560.775 185.343 560.971 185.418C561.176 185.483 561.391 185.516 561.615 185.516C562.054 185.516 562.39 185.441 562.623 185.292C562.856 185.133 563.024 184.947 563.127 184.732L564.639 185.572C564.555 185.749 564.438 185.936 564.289 186.132C564.14 186.319 563.944 186.491 563.701 186.65C563.468 186.809 563.178 186.939 562.833 187.042C562.497 187.145 562.1 187.196 561.643 187.196C561.12 187.196 560.644 187.112 560.215 186.944C559.786 186.776 559.412 186.533 559.095 186.216C558.787 185.899 558.544 185.511 558.367 185.054C558.199 184.597 558.115 184.079 558.115 183.5V183.416C558.115 182.884 558.204 182.399 558.381 181.96C558.568 181.521 558.82 181.148 559.137 180.84C559.454 180.532 559.823 180.294 560.243 180.126C560.672 179.949 561.13 179.86 561.615 179.86C562.212 179.86 562.726 179.967 563.155 180.182C563.584 180.387 563.939 180.653 564.219 180.98C564.499 181.297 564.704 181.652 564.835 182.044C564.966 182.427 565.031 182.8 565.031 183.164V184.102H559.935ZM561.601 181.456C561.153 181.456 560.789 181.573 560.509 181.806C560.229 182.03 560.047 182.291 559.963 182.59H563.239C563.183 182.263 563.006 181.993 562.707 181.778C562.418 181.563 562.049 181.456 561.601 181.456ZM568.717 187H566.953V180.056H568.717V181.092H568.969C569.128 180.7 569.385 180.397 569.739 180.182C570.094 179.967 570.509 179.86 570.985 179.86C571.321 179.86 571.634 179.916 571.923 180.028C572.222 180.131 572.483 180.294 572.707 180.518C572.931 180.742 573.104 181.027 573.225 181.372C573.356 181.717 573.421 182.128 573.421 182.604V187H571.657V183.052C571.657 182.557 571.536 182.17 571.293 181.89C571.06 181.601 570.719 181.456 570.271 181.456C569.749 181.456 569.357 181.633 569.095 181.988C568.843 182.333 568.717 182.8 568.717 183.388V187ZM575.33 180.056H577.388V177.2H579.152V180.056H581.658V181.736H579.152V184.9C579.152 185.18 579.278 185.32 579.53 185.32H581.406V187H578.466C578.148 187 577.887 186.897 577.682 186.692C577.486 186.487 577.388 186.225 577.388 185.908V181.736H575.33V180.056ZM588.62 185.866C588.62 186.053 588.583 186.23 588.508 186.398C588.443 186.557 588.349 186.697 588.228 186.818C588.107 186.93 587.962 187.019 587.794 187.084C587.635 187.159 587.467 187.196 587.29 187.196C587.103 187.196 586.931 187.159 586.772 187.084C586.613 187.019 586.473 186.93 586.352 186.818C586.231 186.697 586.133 186.557 586.058 186.398C585.993 186.23 585.96 186.053 585.96 185.866C585.96 185.679 585.993 185.507 586.058 185.348C586.133 185.18 586.231 185.04 586.352 184.928C586.473 184.807 586.613 184.713 586.772 184.648C586.931 184.573 587.103 184.536 587.29 184.536C587.467 184.536 587.635 184.573 587.794 184.648C587.962 184.713 588.107 184.807 588.228 184.928C588.349 185.04 588.443 185.18 588.508 185.348C588.583 185.507 588.62 185.679 588.62 185.866Z" fill="white"/>
<mask id="path-9-inside-2_54_13405" fill="white">
<path fill-rule="evenodd" clip-rule="evenodd" d="M493 70H553.286V130H493V130H499.028V124H493V124H499.028L499.028 118H493V70ZM553.285 118V124H547.257V118H553.285ZM541.229 124V130H547.257H547.257H553.285V124H547.257L547.257 124H541.229ZM541.229 70V76L547.257 76L547.257 76L553.285 76V70L547.257 70L541.229 70ZM553.285 76.0003V82.0003H547.257V76.0003H553.285ZM493 76.0003H499.029V82.0003H493L493 76.0003ZM505.057 70L499.029 70L493 70L493 76L499.029 76L499.029 76L505.057 76V70ZM499.029 124V130H505.058V124H499.029Z"/>
</mask>
<path fill-rule="evenodd" clip-rule="evenodd" d="M493 70H553.286V130H493V130H499.028V124H493V124H499.028L499.028 118H493V70ZM553.285 118V124H547.257V118H553.285ZM541.229 124V130H547.257H547.257H553.285V124H547.257L547.257 124H541.229ZM541.229 70V76L547.257 76L547.257 76L553.285 76V70L547.257 70L541.229 70ZM553.285 76.0003V82.0003H547.257V76.0003H553.285ZM493 76.0003H499.029V82.0003H493L493 76.0003ZM505.057 70L499.029 70L493 70L493 76L499.029 76L499.029 76L505.057 76V70ZM499.029 124V130H505.058V124H499.029Z" fill="#447EF7"/>
<path d="M553.286 70H554.286V69H553.286V70ZM493 70V69H492V70H493ZM553.286 130V131H554.286V130H553.286ZM493 130H492V131H493V130ZM493 130V129H492V130H493ZM499.028 130V131H500.028V130H499.028ZM499.028 124H500.028V123H499.028V124ZM493 124H492V125H493V124ZM493 124V123H492V124H493ZM499.028 124V125H500.028V124H499.028ZM499.028 118H500.028V117H499.028V118ZM493 118H492V119H493V118ZM553.285 124V125H554.285V124H553.285ZM553.285 118H554.285V117H553.285V118ZM547.257 124H546.257V125H547.257V124ZM547.257 118V117H546.257V118H547.257ZM541.229 130H540.229V131H541.229V130ZM541.229 124V123H540.229V124H541.229ZM553.285 130V131H554.285V130H553.285ZM553.285 124H554.285V123H553.285V124ZM547.257 124L547.249 125H547.257V124ZM547.257 124L547.265 123H547.257V124ZM541.229 76H540.229V77H541.229V76ZM541.229 70V69L540.229 69V70H541.229ZM547.257 76V77L547.258 77L547.257 76ZM547.257 76V75L547.256 75L547.257 76ZM553.285 76V77H554.285V76H553.285ZM553.285 70H554.285V69L553.285 69V70ZM547.257 70V69V70ZM553.285 82.0003V83.0003H554.285V82.0003H553.285ZM553.285 76.0003H554.285V75.0003H553.285V76.0003ZM547.257 82.0003H546.257V83.0003H547.257V82.0003ZM547.257 76.0003V75.0003H546.257V76.0003H547.257ZM499.029 76.0003H500.029V75.0003H499.029V76.0003ZM493 76.0003V75.0003H492V76.0003H493ZM499.029 82.0003V83.0003H500.029V82.0003H499.029ZM493 82.0003H492V83.0003H493V82.0003ZM499.029 70V69V70ZM505.057 70H506.057V69H505.057V70ZM493 70L493 69L492 69V70L493 70ZM493 76H492V77H493L493 76ZM499.029 76L499.032 75H499.029V76ZM499.029 76L499.026 77H499.029V76ZM505.057 76V77H506.057V76H505.057ZM499.029 130H498.029V131H499.029V130ZM499.029 124V123H498.029V124H499.029ZM505.058 130V131H506.058V130H505.058ZM505.058 124H506.058V123H505.058V124ZM553.286 69H493V71H553.286V69ZM554.286 130V70H552.286V130H554.286ZM493 131H553.286V129H493V131ZM492 130V130H494V130H492ZM499.028 129H493V131H499.028V129ZM498.028 124V130H500.028V124H498.028ZM493 125H499.028V123H493V125ZM492 124V124H494V124H492ZM499.028 123H493V125H499.028V123ZM498.028 118L498.028 124H500.028L500.028 118H498.028ZM493 119H499.028V117H493V119ZM492 70V118H494V70H492ZM554.285 124V118H552.285V124H554.285ZM547.257 125H553.285V123H547.257V125ZM546.257 118V124H548.257V118H546.257ZM553.285 117H547.257V119H553.285V117ZM542.229 130V124H540.229V130H542.229ZM547.257 129H541.229V131H547.257V129ZM547.257 129H547.257V131H547.257V129ZM553.285 129H547.257V131H553.285V129ZM552.285 124V130H554.285V124H552.285ZM547.257 125H553.285V123H547.257V125ZM547.248 125L547.249 125L547.266 123L547.265 123L547.248 125ZM541.229 125H547.257V123H541.229V125ZM542.229 76V70H540.229V76H542.229ZM547.257 75L541.229 75V77L547.257 77V75ZM547.256 75L547.256 75L547.258 77L547.258 77L547.256 75ZM553.285 75L547.257 75V77L553.285 77V75ZM552.285 70V76H554.285V70H552.285ZM547.257 71L553.285 71V69L547.257 69V71ZM541.229 71L547.257 71V69L541.229 69V71ZM554.285 82.0003V76.0003H552.285V82.0003H554.285ZM547.257 83.0003H553.285V81.0003H547.257V83.0003ZM546.257 76.0003V82.0003H548.257V76.0003H546.257ZM553.285 75.0003H547.257V77.0003H553.285V75.0003ZM499.029 75.0003H493V77.0003H499.029V75.0003ZM500.029 82.0003V76.0003H498.029V82.0003H500.029ZM493 83.0003H499.029V81.0003H493V83.0003ZM492 76.0003V82.0003H494V76.0003H492ZM499.029 71H505.057V69H499.029V71ZM493 71L499.029 71V69L493 69L493 71ZM494 76V70L492 70V76H494ZM499.029 75L493 75L493 77L499.029 77V75ZM499.032 75L499.032 75L499.025 77L499.026 77L499.032 75ZM505.057 75L499.029 75V77L505.057 77V75ZM504.057 70V76H506.057V70H504.057ZM500.029 130V124H498.029V130H500.029ZM505.058 129H499.029V131H505.058V129ZM504.058 124V130H506.058V124H504.058ZM499.029 125H505.058V123H499.029V125Z" fill="white" fill-opacity="0.15" mask="url(#path-9-inside-2_54_13405)"/>
<path d="M512.2 88V89.2H511V108.4H512.2V109.6H515.8V107.2H514.6V106H513.4V91.6H514.6V90.4H517V88H512.2Z" fill="white"/>
<path d="M533.8 96.4V95.2H532.6V94H531.4V92.8H530.2V91.6H529V90.4H519.4V91.6H518.2V110.8H519.4V112H533.8V110.8H535V96.4H533.8ZM532.6 108.4H531.4V109.6H521.8V108.4H520.6V94H521.8V92.8H525.4V100H532.6V108.4ZM530.2 96.4V97.6H527.8V95.2H529V96.4H530.2Z" fill="white"/>
<path d="M527.419 211L525.483 212.936L524.383 213.552L524.493 213.816L525.483 213.508H528.453V215.092H525.483L524.493 214.784L524.383 215.048L525.483 215.664L527.419 217.6L526.297 218.722L524.361 216.786L523.745 215.686L523.481 215.796L523.789 216.786V219.756H522.205V216.786L522.513 215.796L522.249 215.686L521.633 216.786L519.697 218.722L518.575 217.6L520.511 215.664L521.611 215.048L521.501 214.784L520.511 215.092H517.541V213.508H520.511L521.501 213.816L521.611 213.552L520.511 212.936L518.575 211L519.697 209.878L521.633 211.814L522.249 212.914L522.513 212.804L522.205 211.814V208.844H523.789V211.814L523.481 212.804L523.745 212.914L524.361 211.814L526.297 209.878L527.419 211Z" fill="#FF5656"/>
<path d="M179.419 211L177.483 212.936L176.383 213.552L176.493 213.816L177.483 213.508H180.453V215.092H177.483L176.493 214.784L176.383 215.048L177.483 215.664L179.419 217.6L178.297 218.722L176.361 216.786L175.745 215.686L175.481 215.796L175.789 216.786V219.756H174.205V216.786L174.513 215.796L174.249 215.686L173.633 216.786L171.697 218.722L170.575 217.6L172.511 215.664L173.611 215.048L173.501 214.784L172.511 215.092H169.541V213.508H172.511L173.501 213.816L173.611 213.552L172.511 212.936L170.575 211L171.697 209.878L173.633 211.814L174.249 212.914L174.513 212.804L174.205 211.814V208.844H175.789V211.814L175.481 212.804L175.745 212.914L176.361 211.814L178.297 209.878L179.419 211Z" fill="#FF5656"/>
</svg>
