<svg width="46" height="45" viewBox="0 0 46 45" fill="none" xmlns="http://www.w3.org/2000/svg">
<path fill-rule="evenodd" clip-rule="evenodd" d="M0 0H45.2143V0.000135449L40.6944 0.000135253V0.000135646L36.1744 0.000135449L36.1744 4.50013H40.6944H40.6958H45.2143V4.50022H40.6944V9.00022H45.2143V36H40.6944V40.5H45.2143V40.5002H40.6958H40.6944H36.1744V45H0V0ZM0.000960908 4.50039H4.52239V9.00039H0.000960908V4.50039ZM9.0424 0.000209669H4.52097V0.000210062H0.000960513V4.5002L4.52097 4.5002L4.52239 4.5002L9.0424 4.5002V0.000209669ZM9.0424 40.5H4.52239H4.52097H0.000960385L0.000960582 45H4.52097H4.52239H9.0424V40.5ZM0.000959989 40.4998L0.000959792 35.9998H4.52239V40.4998H0.000959989Z" fill="#447EF7"/>
<path d="M22 19L24 19L24 17L22 17L22 19Z" fill="white"/>
<path d="M22 29L24 29L24 21L22 21L22 29Z" fill="white"/>
<path d="M14 30L14 31L15 31L15 32L16 32L16 33L30 33L30 32L31 32L31 31L32 31L32 30L33 30L33 16L32 16L32 15L31 15L31 14L30 14L30 13L16 13L16 14L15 14L15 15L14 15L14 16L13 16L13 30L14 30ZM15 18L16 18L16 17L17 17L17 16L18 16L18 15L28 15L28 16L29 16L29 17L30 17L30 18L31 18L31 28L30 28L30 29L29 29L29 30L28 30L28 31L18 31L18 30L17 30L17 29L16 29L16 28L15 28L15 18Z" fill="white"/>
</svg>
