<svg width="100" height="100" viewBox="0 0 100 100" fill="none" xmlns="http://www.w3.org/2000/svg">
<path fill-rule="evenodd" clip-rule="evenodd" d="M100 94.0911L100 94.0913L94.0909 94.0913L94.0909 100L94.0908 100L94.0908 94.0913L88.1817 94.0913L88.1817 100L88.1815 100L88.1815 94.0913L82.2726 94.0913L82.2724 94.0913L76.3635 94.0913L76.3635 100L-1.96299e-05 100L-1.96299e-05 99.9999L5.90828 99.9999L5.90847 99.9999L11.8174 99.9999L11.8174 94.0908L5.90847 94.0908L5.90828 94.0908L-1.93716e-05 94.0908L-1.93716e-05 94.0904L5.90828 94.0904L5.90847 94.0904L11.8174 94.0904L11.8174 88.1816L11.8174 88.1813L11.8174 82.2725L5.90847 82.2725L5.90847 76.3636L-1.85967e-05 76.3636L-8.66257e-06 23.6362L5.90908 23.6362L5.90909 17.7271L-8.40427e-06 17.7271L-8.40427e-06 17.7271L5.90908 17.7271L5.90908 11.8181L5.90909 11.818L5.90909 5.90905L-7.88769e-06 5.90905L-7.88768e-06 5.90893L5.90908 5.90894L5.90908 -4.11284e-06L5.90917 -4.11284e-06L5.90917 5.90892L11.8183 5.90892L11.8183 -3.85455e-06L11.8185 -3.85454e-06L11.8185 5.90893L17.7274 5.90894L17.7276 5.90894L23.6365 5.90894L23.6365 -3.33796e-06L76.3641 -1.03316e-06L76.3641 5.90909L82.2732 5.90909L82.2732 -7.74863e-07L82.2733 -7.74859e-07L82.2733 5.90909L88.1815 5.90909L88.1824 5.90909L94.0906 5.90909L94.0906 -2.58309e-07L94.0915 -2.58268e-07L94.0915 5.90909L100 5.90909L100 5.90932L94.0915 5.90931L94.0915 11.8184L94.0915 17.7272L94.0915 17.7274L94.0915 23.6363L100 23.6363L100 76.3639L94.0909 76.3639L94.0909 82.273L100 82.273L100 82.2731L94.0909 82.2731L94.0909 88.182L94.0909 88.1822L94.0909 94.0911L100 94.0911ZM94.0906 17.7274L94.0906 11.8183L94.0906 5.9093L88.1824 5.9093L88.1815 5.9093L82.2733 5.9093L82.2733 11.8184L88.1815 11.8184L88.1815 17.7274L94.0906 17.7274ZM88.1815 88.1821L88.1815 94.0911L82.2724 94.0911L82.2724 88.1821L88.1815 88.1821ZM94.0908 88.1822L94.0908 94.0911L88.1817 94.0911L88.1817 88.1822L88.1817 88.1821L88.1817 82.2731L94.0908 82.2731L94.0908 88.1821L94.0908 88.1822ZM17.7267 94.0904L11.8176 94.0904L11.8176 88.1813L17.7267 88.1813L17.7267 94.0904ZM11.8176 99.9999L17.7267 99.9999L17.7267 94.0908L11.8176 94.0908L11.8176 99.9999ZM23.6359 99.9999L17.7268 99.9999L17.7268 94.0908L23.6359 94.0908L23.6359 99.9999ZM11.8185 11.8181L11.8185 5.90905L17.7276 5.90905L17.7276 11.8181L11.8185 11.8181ZM5.90917 11.8179L5.90917 5.90907L11.8183 5.90907L11.8183 11.8179L11.8183 11.8182L11.8183 17.727L5.90917 17.727L5.90917 11.8182L5.90917 11.8179Z" fill="#66BE47"/>
<path d="M64.4 33V36.6471H60.8V40.2941H57.2V43.9412H53.6V47.5882H50V51.2353H46.4V54.8824H44.6V56.7059H41V54.8824H39.2V51.2353H35.6V49.4118H32V54.8824H35.6V58.5294H39.2V62.1765H41V64H44.6V62.1765H46.4V58.5294H50V54.8824H53.6V51.2353H57.2V47.5882H60.8V43.9412H64.4V40.2941H68V33H64.4Z" fill="white"/>
</svg>
