<svg width="140" height="140" viewBox="0 0 140 140" fill="none" xmlns="http://www.w3.org/2000/svg">
<path fill-rule="evenodd" clip-rule="evenodd" d="M140 131.728L140 131.728L131.727 131.728L123.455 131.728L115.182 131.728L106.909 131.728L106.909 140L-1.18776e-05 140L-1.18776e-05 140L8.27225 140L8.27225 131.727L-1.1516e-05 131.727L-1.1516e-05 131.727L8.27225 131.727L8.27225 123.454L8.27225 123.454L8.27225 115.182L8.27225 115.182L8.27225 106.909L-1.04312e-05 106.909L-7.20446e-06 33.0907L8.27238 33.0907L8.27238 24.818L-6.84284e-06 24.8179L8.27253 24.8179L16.5453 24.8179L16.5453 16.5454L16.5453 16.5452L16.5453 8.27266L8.27253 8.27266L-6.11962e-06 8.27266L-6.11962e-06 8.27251L8.27253 8.27251L16.5453 8.27251L24.818 8.27251L33.0908 8.27251L33.0908 -4.67315e-06L106.909 -1.44645e-06L106.909 8.27273L115.182 8.27273L115.182 8.27273L123.454 8.27273L123.454 -7.23237e-07L123.454 -7.23236e-07L123.454 8.27273L131.727 8.27273L131.727 -3.61624e-07L131.727 -3.61623e-07L131.727 8.27273L140 8.27273L140 0L140 0L140 106.91L131.727 106.91L131.727 115.182L140 115.182L140 115.182L131.727 115.182L131.727 123.455L131.727 123.455L131.727 131.728L140 131.728ZM140 24.8181L140 33.0908L131.727 33.0908L131.727 24.8184L131.727 16.5458L131.727 16.5456L131.727 8.27304L140 8.27304L140 16.5456L140 16.5458L140 24.8181L140 24.8181ZM131.727 24.8184L131.727 16.5458L131.727 16.5456L131.727 8.27304L123.454 8.27304L123.454 16.5456L123.454 16.5458L123.454 24.8184L131.727 24.8184ZM115.182 8.27304L123.454 8.27304L123.454 16.5458L115.182 16.5458L115.182 8.27304ZM123.454 131.728L115.182 131.728L115.182 123.455L123.454 123.455L123.454 131.728ZM131.727 131.728L123.455 131.728L123.455 123.455L123.455 123.455L123.455 115.182L131.727 115.182L131.727 123.455L131.727 123.455L131.727 131.728ZM8.27228 131.727L16.545 131.727L16.545 123.454L16.545 123.454L16.545 115.182L8.27228 115.182L8.27228 123.454L8.27228 123.454L8.27228 131.727ZM24.8178 131.727L16.545 131.727L16.545 123.454L24.8178 123.454L24.8178 131.727ZM16.545 140L8.27228 140L8.27228 131.727L16.545 131.727L16.545 140ZM16.545 140L24.8178 140L24.8178 131.727L16.545 131.727L16.545 140ZM33.0907 140L24.8179 140L24.8179 131.727L33.0907 131.727L33.0907 140ZM16.5453 16.5454L16.5453 8.27266L24.818 8.27266L24.818 16.5454L16.5453 16.5454Z" fill="#171A2B"/>
<path d="M31 61V62H29V64H27V66H25V68H23V69H22V70H21V72H22V73H23V74H25V76H27V78H28H29V79V80H31V81H33V78H31V76H29V74H27V72H25V70H27V68H29V66H31V64H33V61H31Z" fill="white"/>
<path d="M118 70V69H117V68H115V66H113V64H111V62H109V61H107V64H109V66H111V68H113V70H115V72H113V74H111V76H109V78H107V81H109V80H111V78H113V77V76H115V75V74H117V73H118V72H119V71V70H118Z" fill="white"/>
<g clip-path="url(#clip0_4_70)">
<path d="M59.16 32.225L58.294 32.725L57.294 30.9929L55.562 31.9929L54.562 30.2609L52.8299 31.2609L51.8299 29.5288L50.0979 30.5288L49.0979 28.7968L48.2318 29.2968L47.7318 28.4308L46.8658 28.9308L46.3658 28.0647L44.6338 29.0647L45.1338 29.9308L44.2677 30.4308L44.7677 31.2968L43.9017 31.7968L44.9017 33.5288L43.1697 34.5288L44.1697 36.2609L42.4376 37.2609L42.9376 38.1269L43.4376 38.9929L42.5716 39.4929L41.7056 39.9929L42.7056 41.725L41.8395 42.225L42.8395 43.957L45.4376 42.457L44.4376 40.725L46.1697 39.725L45.1697 37.9929L46.9017 36.9929L45.9017 35.2609L47.6338 34.2609L46.6338 32.5288L48.3658 31.5288L49.3658 33.2609L51.0979 32.2609L52.0979 33.9929L53.8299 32.9929L54.8299 34.725L56.562 33.725L57.562 35.457L60.16 33.957L59.16 32.225Z" fill="white"/>
</g>
<g clip-path="url(#clip1_4_70)">
<path d="M94.8658 112.069L95.7318 111.569L95.2318 110.703L96.0979 110.203L95.0979 108.471L96.8299 107.471L95.8299 105.739L97.562 104.739L96.562 103.007L98.294 102.007L97.294 100.275L98.16 99.775L97.16 98.0429L94.562 99.5429L95.562 101.275L93.8299 102.275L94.8299 104.007L93.0979 105.007L94.0979 106.739L92.3658 107.739L93.3658 109.471L91.6338 110.471L90.6338 108.739L88.9017 109.739L87.9017 108.007L86.1697 109.007L85.1697 107.275L83.4376 108.275L82.4376 106.543L79.8395 108.043L80.8395 109.775L81.7056 109.275L82.7056 111.007L84.4376 110.007L85.4376 111.739L86.3036 111.239L87.1697 110.739L88.1697 112.471L89.0357 111.971L89.9017 111.471L90.9017 113.203L91.7677 112.703L92.2677 113.569L93.1338 113.069L93.6338 113.935L94.4998 113.435L95.3658 112.935L94.8658 112.069Z" fill="white"/>
</g>
<path d="M98.16 42.225L97.294 41.725L98.294 39.9929L96.562 38.9929L97.562 37.2609L95.8299 36.2609L96.8299 34.5288L95.0979 33.5288L96.0979 31.7968L95.2318 31.2968L95.7318 30.4308L94.8658 29.9308L95.3658 29.0647L93.6338 28.0647L93.1338 28.9308L92.2677 28.4308L91.7677 29.2968L90.9017 28.7968L89.9017 30.5288L88.1697 29.5288L87.1697 31.2609L85.4376 30.2609L84.9376 31.1269L84.4376 31.9929L83.5716 31.4929L82.7056 30.9929L81.7056 32.725L80.8395 32.225L79.8395 33.957L82.4376 35.457L83.4376 33.725L85.1697 34.725L86.1697 32.9929L87.9017 33.9929L88.9017 32.2609L90.6338 33.2609L91.6338 31.5288L93.3658 32.5288L92.3658 34.2609L94.0979 35.2609L93.0979 36.9929L94.8299 37.9929L93.8299 39.725L95.562 40.725L94.562 42.457L97.16 43.957L98.16 42.225Z" fill="white"/>
<g clip-path="url(#clip2_4_70)">
<path d="M46.8658 113.069L47.7318 113.569L48.2318 112.703L49.0979 113.203L50.0979 111.471L51.8299 112.471L52.8299 110.739L54.562 111.739L55.562 110.007L57.294 111.007L58.294 109.275L59.16 109.775L60.16 108.043L57.562 106.543L56.562 108.275L54.8299 107.275L53.8299 109.007L52.0979 108.007L51.0979 109.739L49.3658 108.739L48.3658 110.471L46.6338 109.471L47.6338 107.739L45.9017 106.739L46.9017 105.007L45.1697 104.007L46.1697 102.275L44.4376 101.275L45.4376 99.5429L42.8395 98.0429L41.8395 99.775L42.7056 100.275L41.7056 102.007L43.4376 103.007L42.4376 104.739L43.3036 105.239L44.1697 105.739L43.1697 107.471L44.0357 107.971L44.9017 108.471L43.9017 110.203L44.7677 110.703L44.2677 111.569L45.1338 112.069L44.6338 112.935L45.4998 113.435L46.3658 113.935L46.8658 113.069Z" fill="white"/>
</g>
<path d="M60.3333 70H62.6667V72.3333H76.6667V70H79V67.6667H81.3333V53.6667H79V51.3333H76.6667V49H62.6667V51.3333H60.3333V53.6667H58V67.6667H60.3333V70ZM62.6667 58.3333H65V56H67.3333V53.6667H72V56H74.3333V58.3333H76.6667V63H74.3333V65.3333H72V67.6667H67.3333V65.3333H65V63H62.6667V58.3333Z" fill="white"/>
<path d="M86 77H83.6667V74.6667H55.6667V77H53.3333V79.3333H51V91H55.6667V84H58V81.6667H60.3333V79.3333H79V81.6667H81.3333V84H83.6667V91H88.3333V79.3333H86V77Z" fill="white"/>
<defs>
<clipPath id="clip0_4_70">
<rect width="24" height="24" fill="white" transform="translate(52.8921 17.3686) rotate(60)"/>
</clipPath>
<clipPath id="clip1_4_70">
<rect width="24" height="24" fill="white" transform="translate(95.8921 91.8468) rotate(60)"/>
</clipPath>
<clipPath id="clip2_4_70">
<rect width="24" height="24" fill="white" transform="translate(64.8921 103.847) rotate(120)"/>
</clipPath>
</defs>
</svg>
