<svg width="76" height="77" viewBox="0 0 76 77" fill="none" xmlns="http://www.w3.org/2000/svg">
<path fill-rule="evenodd" clip-rule="evenodd" d="M73.5783 36.5658L73.5782 36.5658L71.3382 38.8059L69.0981 36.5658L69.0981 36.5658L66.858 34.3258L69.0981 32.0857L46.8694 9.85699L44.6294 12.097L42.3894 9.85696L42.3893 9.85691L40.1493 7.61692L40.1493 7.61687L37.9093 5.37683L40.1493 3.13682L40.1492 3.13673L37.9092 5.37674L35.6691 3.13669L35.6691 3.13675L37.9091 5.3768L35.6691 7.61683L35.669 7.61689L33.429 9.85692L31.1889 7.61687L33.429 9.85696L31.1889 12.097L28.9488 9.85698L-9.46915e-05 38.8059L28.9488 67.7548L31.1887 65.5148L33.4287 67.7549L33.4288 67.7549L35.6687 69.9949L35.6688 69.995L37.9088 72.235L35.6689 74.4749L35.669 74.475L37.909 72.2351L40.149 74.4752L37.9091 76.7151L66.858 47.7663L64.6179 45.5262L66.858 43.2862L66.858 43.2861L69.098 41.0461L69.0981 41.0461L71.3381 38.806L73.5782 41.0461L73.5783 41.046L71.3382 38.8059L73.5783 36.5658ZM66.8579 43.2861L69.098 41.0461L69.098 41.046L71.3381 38.806L69.098 36.566L69.098 36.5659L66.8579 34.3259L64.6178 36.566L66.8579 38.806L64.6178 41.046L66.8579 43.2861ZM66.858 29.8456L69.0981 32.0857L66.858 34.3257L64.6179 32.0857L66.858 29.8456ZM35.6688 69.9948L33.4288 67.7548L35.6689 65.5147L37.9089 67.7547L40.1489 65.5147L42.389 67.7548L40.149 69.9948L40.1489 69.9949L37.9089 72.2349L35.6689 69.9949L35.6688 69.9948ZM37.909 72.235L40.1491 74.4751L42.3891 72.2351L42.3892 72.235L44.6292 69.995L42.3891 67.7549L40.1491 69.9949L40.149 69.995L37.909 72.235ZM44.6293 69.995L46.8694 67.7549L44.6293 65.5148L42.3892 67.7549L44.6293 69.995ZM11.2004 36.5657L8.96035 34.3257L11.2004 32.0856L8.9603 29.8455L6.72026 32.0856L6.7202 32.0856L4.48028 34.3256L4.48017 34.3257L2.24019 36.5656L4.48028 38.8057L6.72031 41.0458L6.72036 41.0458L8.9604 43.2859L11.2005 41.0458L8.96045 38.8057L11.2004 36.5657ZM6.72016 41.0459L4.48012 38.8059L2.24004 36.5658L-5.69279e-05 38.8059L2.24004 41.046L4.48007 43.286L4.48012 43.2861L6.72016 45.5261L8.96025 47.7662L11.2003 45.5261L8.96025 43.286L6.72021 41.046L6.72016 41.0459ZM40.1493 7.61698L42.3893 9.85702L40.1492 12.0971L37.9092 9.85707L35.6692 12.0971L33.4291 9.85701L35.6691 7.61698L35.6692 7.61692L37.9092 5.37689L40.1492 7.61692L40.1493 7.61698Z" fill="#447EF7"/>
<path d="M32.4 46.8H31.2V45.6H32.4V46.8Z" fill="white"/>
<path d="M44.4 46.8H43.2V45.6H44.4V46.8Z" fill="white"/>
<path d="M34.8 32.4H33.6V31.2H34.8V32.4Z" fill="white"/>
<path d="M42 32.4H40.8V31.2H42V32.4Z" fill="white"/>
<path d="M32.4 39.6H33.6V37.2H42V39.6H43.2V37.2H44.4V36H43.2V32.4H42V36H33.6V32.4H32.4V36H31.2V37.2H32.4V39.6Z" fill="white"/>
<path d="M34.8 30V31.2H40.8V30H34.8Z" fill="white"/>
<path d="M45.6 37.2H44.4V45.6H45.6V37.2Z" fill="white"/>
<path d="M38.4 44.4V43.2H39.6V42H38.4V40.8H37.2V42H36V43.2H37.2V44.4H38.4Z" fill="white"/>
<path d="M30 45.6H31.2V37.2H30V45.6Z" fill="white"/>
<path d="M32.4 46.8V48H43.2V46.8H32.4Z" fill="white"/>
<path d="M32.4 46.8V48H43.2V46.8M32.4 46.8H31.2V45.6M32.4 46.8V45.6H31.2M32.4 46.8H43.2M31.2 45.6H30V37.2H31.2M31.2 45.6V37.2M31.2 37.2H32.4V39.6H33.6V37.2H42V39.6H43.2V37.2H44.4M31.2 37.2V36H32.4V32.4H33.6M44.4 37.2V36H43.2V32.4H42M44.4 37.2H45.6V45.6H44.4M44.4 37.2V45.6M43.2 46.8H44.4V45.6M43.2 46.8V45.6H44.4M33.6 32.4H34.8V31.2M33.6 32.4V31.2H34.8M33.6 32.4V36H42V32.4M34.8 31.2V30H40.8V31.2M34.8 31.2H40.8M42 32.4H40.8V31.2M42 32.4V31.2H40.8M38.4 44.4V43.2H39.6V42H38.4V40.8H37.2V42H36V43.2H37.2V44.4H38.4Z" stroke="white" stroke-width="0.5"/>
</svg>
