<svg width="100" height="100" viewBox="0 0 100 100" fill="none" xmlns="http://www.w3.org/2000/svg">
<path fill-rule="evenodd" clip-rule="evenodd" d="M100 94.0911L100 94.0913L94.0911 94.0913L94.0909 94.0913L88.182 94.0913L88.182 100L88.1815 100L88.1815 94.0913L82.2726 94.0913L82.2724 94.0913L76.3635 94.0913L76.3635 100L-1.96299e-05 100L-1.96299e-05 99.9999L5.90828 99.9999L5.90847 99.9999L11.8174 99.9999L11.8174 94.0908L5.90847 94.0908L5.90828 94.0908L-1.93716e-05 94.0908L-1.93716e-05 94.0904L5.90828 94.0904L5.90847 94.0904L11.8174 94.0904L11.8174 88.1816L11.8174 88.1813L11.8174 82.2725L5.90847 82.2725L5.90847 76.3636L-1.85967e-05 76.3636L-8.66257e-06 23.6362L5.90908 23.6362L5.90909 17.7271L-8.40427e-06 17.7271L-8.40427e-06 17.7271L5.90889 17.7271L5.90908 17.7271L11.818 17.7271L11.818 11.8181L11.818 11.818L11.818 5.90905L5.90909 5.90905L5.90889 5.90905L-7.88769e-06 5.90905L-7.88768e-06 5.90893L5.90889 5.90894L5.90908 5.90894L11.818 5.90894L11.818 -3.85456e-06L11.8185 -3.85454e-06L11.8185 5.90893L17.7274 5.90894L17.7276 5.90894L23.6365 5.90894L23.6365 -3.33796e-06L76.3641 -1.03316e-06L76.3641 5.90909L82.273 5.90909L82.2732 5.90909L88.1819 5.90909L88.1821 5.90909L94.091 5.90909L94.091 -2.5829e-07L94.0915 -2.58268e-07L94.0915 5.90909L100 5.90909L100 5.90932L94.0915 5.90931L94.0915 11.8184L94.0915 17.7272L94.0915 17.7274L94.0915 23.6363L100 23.6363L100 76.3639L94.0909 76.3639L94.0909 82.273L100 82.273L100 82.2731L94.0911 82.2731L94.0909 82.2731L88.182 82.2731L88.182 88.1821L88.182 88.1822L88.182 94.0911L94.0911 94.0911L100 94.0911ZM94.091 17.7274L94.091 11.8184L94.091 11.8183L94.091 5.90932L88.1821 5.90932L88.1819 5.90931L82.273 5.90931L82.273 11.8184L88.1819 11.8184L88.1819 17.7274L94.091 17.7274ZM88.1815 88.1821L88.1815 94.0911L82.2724 94.0911L82.2724 88.1821L88.1815 88.1821ZM17.727 94.0904L11.8179 94.0904L11.8179 88.1813L17.727 88.1813L17.727 94.0904ZM11.8179 99.9999L17.7268 99.9999L17.727 99.9999L23.6359 99.9999L23.6359 94.0908L17.727 94.0908L17.7268 94.0908L11.8179 94.0908L11.8179 99.9999ZM11.8185 11.8181L11.8185 5.90905L17.7276 5.90905L17.7276 11.8181L11.8185 11.8181Z" fill="#171A2B"/>
<path d="M52.8328 45.4815H47.1661V46.4259H46.2217V52.0926H47.1661V53.037H52.8328V52.0926H53.7772V46.4259H52.8328V45.4815ZM51.8883 50.2037H50.9439V51.1481H49.055V50.2037H48.1106V48.3148H49.055V47.3704H50.9439V48.3148H51.8883V50.2037Z" fill="white"/>
<path d="M62.7497 40.9167V39.5H57.083V36.6667H42.9163V39.5H37.2497V40.9167H35.833V59.3333H37.2497V60.75H62.7497V59.3333H64.1663V40.9167H62.7497ZM61.333 56.5H59.9163V57.9167H40.083V56.5H38.6663V43.75H40.083V42.3333H45.7497V40.9167V39.5H54.2497V40.9167V42.3333H59.9163V43.75H61.333V56.5Z" fill="white"/>
</svg>
